<?xml version="1.0" encoding="UTF-8" standalone="no"?>
<!DOCTYPE svg PUBLIC "-//W3C//DTD SVG 1.1//EN"
 "http://www.w3.org/Graphics/SVG/1.1/DTD/svg11.dtd">
<!-- Generated by graphviz version 2.47.0 (20210316.0004)
 -->
<!-- Title: dependencies Pages: 1 -->
<svg width="694pt" height="284pt"
 viewBox="0.00 0.00 694.00 284.00" xmlns="http://www.w3.org/2000/svg" xmlns:xlink="http://www.w3.org/1999/xlink">
<g id="graph0" class="graph" transform="scale(1 1) rotate(0) translate(4 280)">
<title>dependencies</title>
<polygon fill="white" stroke="transparent" points="-4,4 -4,-280 690,-280 690,4 -4,4"/>
<text text-anchor="start" x="322.01" y="-42.4" font-family="Times-12" font-weight="bold" font-size="14.00">Legend</text>
<polygon fill="#ffffb3" stroke="transparent" points="109,-10 109,-30 129,-30 129,-10 109,-10"/>
<text text-anchor="start" x="132.63" y="-15.4" font-family="Times-12" font-size="14.00"> &#160;Declarations</text>
<polygon fill="#8dd3c7" stroke="transparent" points="222,-10 222,-30 242,-30 242,-10 222,-10"/>
<text text-anchor="start" x="245.73" y="-15.4" font-family="Times-12" font-size="14.00"> &#160;Module</text>
<polygon fill="#80b1d3" stroke="transparent" points="308,-10 308,-30 328,-30 328,-10 308,-10"/>
<text text-anchor="start" x="331.78" y="-15.4" font-family="Times-12" font-size="14.00"> &#160;Bootstrap</text>
<polygon fill="#fdb462" stroke="transparent" points="405,-10 405,-30 425,-30 425,-10 405,-10"/>
<text text-anchor="start" x="428.67" y="-15.4" font-family="Times-12" font-size="14.00"> &#160;Providers</text>
<polygon fill="#fb8072" stroke="transparent" points="501,-10 501,-30 521,-30 521,-10 501,-10"/>
<text text-anchor="start" x="524.73" y="-15.4" font-family="Times-12" font-size="14.00"> &#160;Exports</text>
<g id="clust1" class="cluster">
<title>cluster_HistoryModule</title>
<polygon fill="none" stroke="black" stroke-dasharray="1,5" points="8,-70 8,-268 678,-268 678,-70 8,-70"/>
</g>
<g id="clust3" class="cluster">
<title>cluster_HistoryModule_imports</title>
<polygon fill="none" stroke="black" points="356,-78 356,-130 670,-130 670,-78 356,-78"/>
</g>
<g id="clust6" class="cluster">
<title>cluster_HistoryModule_providers</title>
<polygon fill="none" stroke="black" points="16,-78 16,-130 348,-130 348,-78 16,-78"/>
</g>
<g id="clust4" class="cluster">
<title>cluster_HistoryModule_exports</title>
<polygon fill="none" stroke="black" points="285,-208 285,-260 405,-260 405,-208 285,-208"/>
</g>
<!-- RolePermissionModule -->
<g id="node1" class="node">
<title>RolePermissionModule</title>
<polygon fill="#8dd3c7" stroke="black" points="662.21,-122 659.21,-126 638.21,-126 635.21,-122 513.79,-122 513.79,-86 662.21,-86 662.21,-122"/>
<text text-anchor="middle" x="588" y="-99.8" font-family="Times,serif" font-size="14.00">RolePermissionModule</text>
</g>
<!-- HistoryModule -->
<g id="node3" class="node">
<title>HistoryModule</title>
<polygon fill="#8dd3c7" stroke="black" points="395.54,-187 392.54,-191 371.54,-191 368.54,-187 294.46,-187 294.46,-151 395.54,-151 395.54,-187"/>
<text text-anchor="middle" x="345" y="-164.8" font-family="Times,serif" font-size="14.00">HistoryModule</text>
</g>
<!-- RolePermissionModule&#45;&gt;HistoryModule -->
<g id="edge1" class="edge">
<title>RolePermissionModule&#45;&gt;HistoryModule</title>
<path fill="none" stroke="black" d="M588,-122.11C588,-141.34 588,-169 588,-169 588,-169 405.64,-169 405.64,-169"/>
<polygon fill="black" stroke="black" points="405.65,-165.5 395.64,-169 405.64,-172.5 405.65,-165.5"/>
</g>
<!-- SupplyChainModule -->
<g id="node2" class="node">
<title>SupplyChainModule</title>
<polygon fill="#8dd3c7" stroke="black" points="496.17,-122 493.17,-126 472.17,-126 469.17,-122 363.83,-122 363.83,-86 496.17,-86 496.17,-122"/>
<text text-anchor="middle" x="430" y="-99.8" font-family="Times,serif" font-size="14.00">SupplyChainModule</text>
</g>
<!-- SupplyChainModule&#45;&gt;HistoryModule -->
<g id="edge2" class="edge">
<title>SupplyChainModule&#45;&gt;HistoryModule</title>
<path fill="none" stroke="black" d="M379.72,-122.11C379.72,-122.11 379.72,-140.99 379.72,-140.99"/>
<polygon fill="black" stroke="black" points="376.22,-140.99 379.72,-150.99 383.22,-140.99 376.22,-140.99"/>
</g>
<!-- HistoryService  -->
<g id="node4" class="node">
<title>HistoryService </title>
<polygon fill="#fb8072" stroke="black" points="396.97,-252 293.03,-252 293.03,-216 396.97,-216 396.97,-252"/>
<text text-anchor="middle" x="345" y="-229.8" font-family="Times,serif" font-size="14.00">HistoryService </text>
</g>
<!-- HistoryModule&#45;&gt;HistoryService  -->
<g id="edge3" class="edge">
<title>HistoryModule&#45;&gt;HistoryService </title>
<path fill="none" stroke="black" stroke-dasharray="5,2" d="M345,-187.11C345,-187.11 345,-205.99 345,-205.99"/>
<polygon fill="black" stroke="black" points="341.5,-205.99 345,-215.99 348.5,-205.99 341.5,-205.99"/>
</g>
<!-- DocumentService -->
<g id="node5" class="node">
<title>DocumentService</title>
<ellipse fill="#fdb462" stroke="black" cx="260" cy="-104" rx="80.44" ry="18"/>
<text text-anchor="middle" x="260" y="-99.8" font-family="Times,serif" font-size="14.00">DocumentService</text>
</g>
<!-- DocumentService&#45;&gt;HistoryModule -->
<g id="edge4" class="edge">
<title>DocumentService&#45;&gt;HistoryModule</title>
<path fill="none" stroke="black" d="M317.22,-116.84C317.22,-116.84 317.22,-140.52 317.22,-140.52"/>
<polygon fill="black" stroke="black" points="313.72,-140.52 317.22,-150.52 320.72,-140.52 313.72,-140.52"/>
</g>
<!-- HistoryService -->
<g id="node6" class="node">
<title>HistoryService</title>
<ellipse fill="#fdb462" stroke="black" cx="93" cy="-104" rx="68.92" ry="18"/>
<text text-anchor="middle" x="93" y="-99.8" font-family="Times,serif" font-size="14.00">HistoryService</text>
</g>
<!-- HistoryService&#45;&gt;HistoryModule -->
<g id="edge5" class="edge">
<title>HistoryService&#45;&gt;HistoryModule</title>
<path fill="none" stroke="black" d="M93,-122.11C93,-141.34 93,-169 93,-169 93,-169 284.31,-169 284.31,-169"/>
<polygon fill="black" stroke="black" points="284.31,-172.5 294.31,-169 284.31,-165.5 284.31,-172.5"/>
</g>
</g>
</svg>
