<?xml version="1.0" encoding="UTF-8" standalone="no"?>
<!DOCTYPE svg PUBLIC "-//W3C//DTD SVG 1.1//EN"
 "http://www.w3.org/Graphics/SVG/1.1/DTD/svg11.dtd">
<!-- Generated by graphviz version 2.47.0 (20210316.0004)
 -->
<!-- Title: dependencies Pages: 1 -->
<svg width="4843pt" height="284pt"
 viewBox="0.00 0.00 4843.00 284.00" xmlns="http://www.w3.org/2000/svg" xmlns:xlink="http://www.w3.org/1999/xlink">
<g id="graph0" class="graph" transform="scale(1 1) rotate(0) translate(4 280)">
<title>dependencies</title>
<polygon fill="white" stroke="transparent" points="-4,4 -4,-280 4839,-280 4839,4 -4,4"/>
<text text-anchor="start" x="2396.51" y="-42.4" font-family="Times-12" font-weight="bold" font-size="14.00">Legend</text>
<polygon fill="#ffffb3" stroke="transparent" points="2183.5,-10 2183.5,-30 2203.5,-30 2203.5,-10 2183.5,-10"/>
<text text-anchor="start" x="2207.13" y="-15.4" font-family="Times-12" font-size="14.00"> &#160;Declarations</text>
<polygon fill="#8dd3c7" stroke="transparent" points="2296.5,-10 2296.5,-30 2316.5,-30 2316.5,-10 2296.5,-10"/>
<text text-anchor="start" x="2320.23" y="-15.4" font-family="Times-12" font-size="14.00"> &#160;Module</text>
<polygon fill="#80b1d3" stroke="transparent" points="2382.5,-10 2382.5,-30 2402.5,-30 2402.5,-10 2382.5,-10"/>
<text text-anchor="start" x="2406.28" y="-15.4" font-family="Times-12" font-size="14.00"> &#160;Bootstrap</text>
<polygon fill="#fdb462" stroke="transparent" points="2479.5,-10 2479.5,-30 2499.5,-30 2499.5,-10 2479.5,-10"/>
<text text-anchor="start" x="2503.17" y="-15.4" font-family="Times-12" font-size="14.00"> &#160;Providers</text>
<polygon fill="#fb8072" stroke="transparent" points="2575.5,-10 2575.5,-30 2595.5,-30 2595.5,-10 2575.5,-10"/>
<text text-anchor="start" x="2599.23" y="-15.4" font-family="Times-12" font-size="14.00"> &#160;Exports</text>
<g id="clust1" class="cluster">
<title>cluster_SelfAssessmentModule</title>
<polygon fill="none" stroke="black" stroke-dasharray="1,5" points="8,-70 8,-268 4827,-268 4827,-70 8,-70"/>
</g>
<g id="clust6" class="cluster">
<title>cluster_SelfAssessmentModule_providers</title>
<polygon fill="none" stroke="black" points="444,-78 444,-130 4819,-130 4819,-78 444,-78"/>
</g>
<g id="clust4" class="cluster">
<title>cluster_SelfAssessmentModule_exports</title>
<polygon fill="none" stroke="black" points="1518,-208 1518,-260 3007,-260 3007,-208 1518,-208"/>
</g>
<g id="clust3" class="cluster">
<title>cluster_SelfAssessmentModule_imports</title>
<polygon fill="none" stroke="black" points="16,-78 16,-130 436,-130 436,-78 16,-78"/>
</g>
<!-- CategoryModule -->
<g id="node1" class="node">
<title>CategoryModule</title>
<polygon fill="#8dd3c7" stroke="black" points="428.37,-122 425.37,-126 404.37,-126 401.37,-122 317.63,-122 317.63,-86 428.37,-86 428.37,-122"/>
<text text-anchor="middle" x="373" y="-99.8" font-family="Times,serif" font-size="14.00">CategoryModule</text>
</g>
<!-- SelfAssessmentModule -->
<g id="node4" class="node">
<title>SelfAssessmentModule</title>
<polygon fill="#8dd3c7" stroke="black" points="2332.19,-187 2329.19,-191 2308.19,-191 2305.19,-187 2183.81,-187 2183.81,-151 2332.19,-151 2332.19,-187"/>
<text text-anchor="middle" x="2258" y="-164.8" font-family="Times,serif" font-size="14.00">SelfAssessmentModule</text>
</g>
<!-- CategoryModule&#45;&gt;SelfAssessmentModule -->
<g id="edge1" class="edge">
<title>CategoryModule&#45;&gt;SelfAssessmentModule</title>
<path fill="none" stroke="black" d="M373,-122.11C373,-141.34 373,-169 373,-169 373,-169 2173.82,-169 2173.82,-169"/>
<polygon fill="black" stroke="black" points="2173.82,-172.5 2183.82,-169 2173.82,-165.5 2173.82,-172.5"/>
</g>
<!-- LocationModule -->
<g id="node2" class="node">
<title>LocationModule</title>
<polygon fill="#8dd3c7" stroke="black" points="299.81,-122 296.81,-126 275.81,-126 272.81,-122 190.19,-122 190.19,-86 299.81,-86 299.81,-122"/>
<text text-anchor="middle" x="245" y="-99.8" font-family="Times,serif" font-size="14.00">LocationModule</text>
</g>
<!-- LocationModule&#45;&gt;SelfAssessmentModule -->
<g id="edge2" class="edge">
<title>LocationModule&#45;&gt;SelfAssessmentModule</title>
<path fill="none" stroke="black" d="M245,-122.22C245,-142.37 245,-172 245,-172 245,-172 2173.67,-172 2173.67,-172"/>
<polygon fill="black" stroke="black" points="2173.67,-175.5 2183.67,-172 2173.67,-168.5 2173.67,-175.5"/>
</g>
<!-- RolePermissionModule -->
<g id="node3" class="node">
<title>RolePermissionModule</title>
<polygon fill="#8dd3c7" stroke="black" points="172.21,-122 169.21,-126 148.21,-126 145.21,-122 23.79,-122 23.79,-86 172.21,-86 172.21,-122"/>
<text text-anchor="middle" x="98" y="-99.8" font-family="Times,serif" font-size="14.00">RolePermissionModule</text>
</g>
<!-- RolePermissionModule&#45;&gt;SelfAssessmentModule -->
<g id="edge3" class="edge">
<title>RolePermissionModule&#45;&gt;SelfAssessmentModule</title>
<path fill="none" stroke="black" d="M98,-122.28C98,-143.32 98,-175 98,-175 98,-175 2173.65,-175 2173.65,-175"/>
<polygon fill="black" stroke="black" points="2173.65,-178.5 2183.65,-175 2173.65,-171.5 2173.65,-178.5"/>
</g>
<!-- GeographicalRiskLevelService  -->
<g id="node5" class="node">
<title>GeographicalRiskLevelService </title>
<polygon fill="#fb8072" stroke="black" points="2999.43,-252 2804.57,-252 2804.57,-216 2999.43,-216 2999.43,-252"/>
<text text-anchor="middle" x="2902" y="-229.8" font-family="Times,serif" font-size="14.00">GeographicalRiskLevelService </text>
</g>
<!-- SelfAssessmentModule&#45;&gt;GeographicalRiskLevelService  -->
<g id="edge4" class="edge">
<title>SelfAssessmentModule&#45;&gt;GeographicalRiskLevelService </title>
<path fill="none" stroke="black" stroke-dasharray="5,2" d="M2332.29,-178C2486.32,-178 2826.25,-178 2826.25,-178 2826.25,-178 2826.25,-205.97 2826.25,-205.97"/>
<polygon fill="black" stroke="black" points="2822.75,-205.97 2826.25,-215.97 2829.75,-205.97 2822.75,-205.97"/>
</g>
<!-- SelfAssessmentAnswerService  -->
<g id="node6" class="node">
<title>SelfAssessmentAnswerService </title>
<polygon fill="#fb8072" stroke="black" points="2786.65,-252 2593.35,-252 2593.35,-216 2786.65,-216 2786.65,-252"/>
<text text-anchor="middle" x="2690" y="-229.8" font-family="Times,serif" font-size="14.00">SelfAssessmentAnswerService </text>
</g>
<!-- SelfAssessmentModule&#45;&gt;SelfAssessmentAnswerService  -->
<g id="edge5" class="edge">
<title>SelfAssessmentModule&#45;&gt;SelfAssessmentAnswerService </title>
<path fill="none" stroke="black" stroke-dasharray="5,2" d="M2332.26,-181C2455.78,-181 2690,-181 2690,-181 2690,-181 2690,-205.76 2690,-205.76"/>
<polygon fill="black" stroke="black" points="2686.5,-205.76 2690,-215.76 2693.5,-205.76 2686.5,-205.76"/>
</g>
<!-- SelfAssessmentGroupService  -->
<g id="node7" class="node">
<title>SelfAssessmentGroupService </title>
<polygon fill="#fb8072" stroke="black" points="2574.89,-252 2389.11,-252 2389.11,-216 2574.89,-216 2574.89,-252"/>
<text text-anchor="middle" x="2482" y="-229.8" font-family="Times,serif" font-size="14.00">SelfAssessmentGroupService </text>
</g>
<!-- SelfAssessmentModule&#45;&gt;SelfAssessmentGroupService  -->
<g id="edge6" class="edge">
<title>SelfAssessmentModule&#45;&gt;SelfAssessmentGroupService </title>
<path fill="none" stroke="black" stroke-dasharray="5,2" d="M2332.11,-184C2388.16,-184 2455.53,-184 2455.53,-184 2455.53,-184 2455.53,-205.95 2455.53,-205.95"/>
<polygon fill="black" stroke="black" points="2452.03,-205.95 2455.53,-215.95 2459.03,-205.95 2452.03,-205.95"/>
</g>
<!-- SelfAssessmentQuestionRiskService  -->
<g id="node8" class="node">
<title>SelfAssessmentQuestionRiskService </title>
<polygon fill="#fb8072" stroke="black" points="2371.34,-252 2144.66,-252 2144.66,-216 2371.34,-216 2371.34,-252"/>
<text text-anchor="middle" x="2258" y="-229.8" font-family="Times,serif" font-size="14.00">SelfAssessmentQuestionRiskService </text>
</g>
<!-- SelfAssessmentModule&#45;&gt;SelfAssessmentQuestionRiskService  -->
<g id="edge7" class="edge">
<title>SelfAssessmentModule&#45;&gt;SelfAssessmentQuestionRiskService </title>
<path fill="none" stroke="black" stroke-dasharray="5,2" d="M2258,-187.11C2258,-187.11 2258,-205.99 2258,-205.99"/>
<polygon fill="black" stroke="black" points="2254.5,-205.99 2258,-215.99 2261.5,-205.99 2254.5,-205.99"/>
</g>
<!-- SelfAssessmentQuestionService  -->
<g id="node9" class="node">
<title>SelfAssessmentQuestionService </title>
<polygon fill="#fb8072" stroke="black" points="2126.17,-252 1925.83,-252 1925.83,-216 2126.17,-216 2126.17,-252"/>
<text text-anchor="middle" x="2026" y="-229.8" font-family="Times,serif" font-size="14.00">SelfAssessmentQuestionService </text>
</g>
<!-- SelfAssessmentModule&#45;&gt;SelfAssessmentQuestionService  -->
<g id="edge8" class="edge">
<title>SelfAssessmentModule&#45;&gt;SelfAssessmentQuestionService </title>
<path fill="none" stroke="black" stroke-dasharray="5,2" d="M2183.79,-184C2134.23,-184 2078.1,-184 2078.1,-184 2078.1,-184 2078.1,-205.95 2078.1,-205.95"/>
<polygon fill="black" stroke="black" points="2074.6,-205.95 2078.1,-215.95 2081.6,-205.95 2074.6,-205.95"/>
</g>
<!-- SelfAssessmentService  -->
<g id="node10" class="node">
<title>SelfAssessmentService </title>
<polygon fill="#fb8072" stroke="black" points="1908.12,-252 1757.88,-252 1757.88,-216 1908.12,-216 1908.12,-252"/>
<text text-anchor="middle" x="1833" y="-229.8" font-family="Times,serif" font-size="14.00">SelfAssessmentService </text>
</g>
<!-- SelfAssessmentModule&#45;&gt;SelfAssessmentService  -->
<g id="edge9" class="edge">
<title>SelfAssessmentModule&#45;&gt;SelfAssessmentService </title>
<path fill="none" stroke="black" stroke-dasharray="5,2" d="M2183.48,-181C2061.6,-181 1833,-181 1833,-181 1833,-181 1833,-205.76 1833,-205.76"/>
<polygon fill="black" stroke="black" points="1829.5,-205.76 1833,-215.76 1836.5,-205.76 1829.5,-205.76"/>
</g>
<!-- SelfAssessmentUploadFileService  -->
<g id="node11" class="node">
<title>SelfAssessmentUploadFileService </title>
<polygon fill="#fb8072" stroke="black" points="1739.61,-252 1526.39,-252 1526.39,-216 1739.61,-216 1739.61,-252"/>
<text text-anchor="middle" x="1633" y="-229.8" font-family="Times,serif" font-size="14.00">SelfAssessmentUploadFileService </text>
</g>
<!-- SelfAssessmentModule&#45;&gt;SelfAssessmentUploadFileService  -->
<g id="edge10" class="edge">
<title>SelfAssessmentModule&#45;&gt;SelfAssessmentUploadFileService </title>
<path fill="none" stroke="black" stroke-dasharray="5,2" d="M2183.73,-178C2035.21,-178 1715.71,-178 1715.71,-178 1715.71,-178 1715.71,-205.97 1715.71,-205.97"/>
<polygon fill="black" stroke="black" points="1712.21,-205.97 1715.71,-215.97 1719.21,-205.97 1712.21,-205.97"/>
</g>
<!-- GeographicalRiskLevelService -->
<g id="node12" class="node">
<title>GeographicalRiskLevelService</title>
<ellipse fill="#fdb462" stroke="black" cx="4679" cy="-104" rx="131.9" ry="18"/>
<text text-anchor="middle" x="4679" y="-99.8" font-family="Times,serif" font-size="14.00">GeographicalRiskLevelService</text>
</g>
<!-- GeographicalRiskLevelService&#45;&gt;SelfAssessmentModule -->
<g id="edge11" class="edge">
<title>GeographicalRiskLevelService&#45;&gt;SelfAssessmentModule</title>
<path fill="none" stroke="black" d="M4679,-122.28C4679,-143.32 4679,-175 4679,-175 4679,-175 2342.11,-175 2342.11,-175"/>
<polygon fill="black" stroke="black" points="2342.11,-171.5 2332.11,-175 2342.11,-178.5 2342.11,-171.5"/>
</g>
<!-- ImportGroupQuestionService -->
<g id="node13" class="node">
<title>ImportGroupQuestionService</title>
<ellipse fill="#fdb462" stroke="black" cx="4403" cy="-104" rx="125.62" ry="18"/>
<text text-anchor="middle" x="4403" y="-99.8" font-family="Times,serif" font-size="14.00">ImportGroupQuestionService</text>
</g>
<!-- ImportGroupQuestionService&#45;&gt;SelfAssessmentModule -->
<g id="edge12" class="edge">
<title>ImportGroupQuestionService&#45;&gt;SelfAssessmentModule</title>
<path fill="none" stroke="black" d="M4403,-122.22C4403,-142.37 4403,-172 4403,-172 4403,-172 2342.15,-172 2342.15,-172"/>
<polygon fill="black" stroke="black" points="2342.15,-168.5 2332.15,-172 2342.15,-175.5 2342.15,-168.5"/>
</g>
<!-- ImportSaqExcelService -->
<g id="node14" class="node">
<title>ImportSaqExcelService</title>
<ellipse fill="#fdb462" stroke="black" cx="4156" cy="-104" rx="102.99" ry="18"/>
<text text-anchor="middle" x="4156" y="-99.8" font-family="Times,serif" font-size="14.00">ImportSaqExcelService</text>
</g>
<!-- ImportSaqExcelService&#45;&gt;SelfAssessmentModule -->
<g id="edge13" class="edge">
<title>ImportSaqExcelService&#45;&gt;SelfAssessmentModule</title>
<path fill="none" stroke="black" d="M4156,-122.11C4156,-141.34 4156,-169 4156,-169 4156,-169 2342.11,-169 2342.11,-169"/>
<polygon fill="black" stroke="black" points="2342.11,-165.5 2332.11,-169 2342.11,-172.5 2342.11,-165.5"/>
</g>
<!-- ImportSelfAssessmentService -->
<g id="node15" class="node">
<title>ImportSelfAssessmentService</title>
<ellipse fill="#fdb462" stroke="black" cx="3908" cy="-104" rx="127.34" ry="18"/>
<text text-anchor="middle" x="3908" y="-99.8" font-family="Times,serif" font-size="14.00">ImportSelfAssessmentService</text>
</g>
<!-- ImportSelfAssessmentService&#45;&gt;SelfAssessmentModule -->
<g id="edge14" class="edge">
<title>ImportSelfAssessmentService&#45;&gt;SelfAssessmentModule</title>
<path fill="none" stroke="black" d="M3908,-122.27C3908,-140.56 3908,-166 3908,-166 3908,-166 2342.1,-166 2342.1,-166"/>
<polygon fill="black" stroke="black" points="2342.1,-162.5 2332.1,-166 2342.1,-169.5 2342.1,-162.5"/>
</g>
<!-- SelfAssessmentAnswerService -->
<g id="node16" class="node">
<title>SelfAssessmentAnswerService</title>
<ellipse fill="#fdb462" stroke="black" cx="3631" cy="-104" rx="131.33" ry="18"/>
<text text-anchor="middle" x="3631" y="-99.8" font-family="Times,serif" font-size="14.00">SelfAssessmentAnswerService</text>
</g>
<!-- SelfAssessmentAnswerService&#45;&gt;SelfAssessmentModule -->
<g id="edge15" class="edge">
<title>SelfAssessmentAnswerService&#45;&gt;SelfAssessmentModule</title>
<path fill="none" stroke="black" d="M3631,-122.02C3631,-139.37 3631,-163 3631,-163 3631,-163 2342.31,-163 2342.31,-163"/>
<polygon fill="black" stroke="black" points="2342.31,-159.5 2332.31,-163 2342.31,-166.5 2342.31,-159.5"/>
</g>
<!-- SelfAssessmentGroupService -->
<g id="node17" class="node">
<title>SelfAssessmentGroupService</title>
<ellipse fill="#fdb462" stroke="black" cx="3356" cy="-104" rx="125.62" ry="18"/>
<text text-anchor="middle" x="3356" y="-99.8" font-family="Times,serif" font-size="14.00">SelfAssessmentGroupService</text>
</g>
<!-- SelfAssessmentGroupService&#45;&gt;SelfAssessmentModule -->
<g id="edge16" class="edge">
<title>SelfAssessmentGroupService&#45;&gt;SelfAssessmentModule</title>
<path fill="none" stroke="black" d="M3356,-122.03C3356,-138.4 3356,-160 3356,-160 3356,-160 2342.18,-160 2342.18,-160"/>
<polygon fill="black" stroke="black" points="2342.18,-156.5 2332.18,-160 2342.18,-163.5 2342.18,-156.5"/>
</g>
<!-- SelfAssessmentQuestionResponseService -->
<g id="node18" class="node">
<title>SelfAssessmentQuestionResponseService</title>
<ellipse fill="#fdb462" stroke="black" cx="3039" cy="-104" rx="173.03" ry="18"/>
<text text-anchor="middle" x="3039" y="-99.8" font-family="Times,serif" font-size="14.00">SelfAssessmentQuestionResponseService</text>
</g>
<!-- SelfAssessmentQuestionResponseService&#45;&gt;SelfAssessmentModule -->
<g id="edge17" class="edge">
<title>SelfAssessmentQuestionResponseService&#45;&gt;SelfAssessmentModule</title>
<path fill="none" stroke="black" d="M2932.6,-118.2C2932.6,-133.9 2932.6,-157 2932.6,-157 2932.6,-157 2342.12,-157 2342.12,-157"/>
<polygon fill="black" stroke="black" points="2342.12,-153.5 2332.12,-157 2342.12,-160.5 2342.12,-153.5"/>
</g>
<!-- SelfAssessmentQuestionRiskService -->
<g id="node19" class="node">
<title>SelfAssessmentQuestionRiskService</title>
<ellipse fill="#fdb462" stroke="black" cx="2694" cy="-104" rx="153.92" ry="18"/>
<text text-anchor="middle" x="2694" y="-99.8" font-family="Times,serif" font-size="14.00">SelfAssessmentQuestionRiskService</text>
</g>
<!-- SelfAssessmentQuestionRiskService&#45;&gt;SelfAssessmentModule -->
<g id="edge18" class="edge">
<title>SelfAssessmentQuestionRiskService&#45;&gt;SelfAssessmentModule</title>
<path fill="none" stroke="black" d="M2557.62,-112.71C2557.62,-127.03 2557.62,-154 2557.62,-154 2557.62,-154 2342.45,-154 2342.45,-154"/>
<polygon fill="black" stroke="black" points="2342.45,-150.5 2332.45,-154 2342.45,-157.5 2342.45,-150.5"/>
</g>
<!-- SelfAssessmentQuestionService -->
<g id="node20" class="node">
<title>SelfAssessmentQuestionService</title>
<ellipse fill="#fdb462" stroke="black" cx="2386" cy="-104" rx="136.01" ry="18"/>
<text text-anchor="middle" x="2386" y="-99.8" font-family="Times,serif" font-size="14.00">SelfAssessmentQuestionService</text>
</g>
<!-- SelfAssessmentQuestionService&#45;&gt;SelfAssessmentModule -->
<g id="edge19" class="edge">
<title>SelfAssessmentQuestionService&#45;&gt;SelfAssessmentModule</title>
<path fill="none" stroke="black" d="M2291.05,-117.15C2291.05,-117.15 2291.05,-140.69 2291.05,-140.69"/>
<polygon fill="black" stroke="black" points="2287.55,-140.69 2291.05,-150.69 2294.55,-140.69 2287.55,-140.69"/>
</g>
<!-- SelfAssessmentService -->
<g id="node21" class="node">
<title>SelfAssessmentService</title>
<ellipse fill="#fdb462" stroke="black" cx="2131" cy="-104" rx="101.27" ry="18"/>
<text text-anchor="middle" x="2131" y="-99.8" font-family="Times,serif" font-size="14.00">SelfAssessmentService</text>
</g>
<!-- SelfAssessmentService&#45;&gt;SelfAssessmentModule -->
<g id="edge20" class="edge">
<title>SelfAssessmentService&#45;&gt;SelfAssessmentModule</title>
<path fill="none" stroke="black" d="M2208.02,-115.92C2208.02,-115.92 2208.02,-140.77 2208.02,-140.77"/>
<polygon fill="black" stroke="black" points="2204.52,-140.77 2208.02,-150.77 2211.52,-140.77 2204.52,-140.77"/>
</g>
<!-- SelfAssessmentTranslationFileService -->
<g id="node22" class="node">
<title>SelfAssessmentTranslationFileService</title>
<ellipse fill="#fdb462" stroke="black" cx="1852" cy="-104" rx="160.28" ry="18"/>
<text text-anchor="middle" x="1852" y="-99.8" font-family="Times,serif" font-size="14.00">SelfAssessmentTranslationFileService</text>
</g>
<!-- SelfAssessmentTranslationFileService&#45;&gt;SelfAssessmentModule -->
<g id="edge21" class="edge">
<title>SelfAssessmentTranslationFileService&#45;&gt;SelfAssessmentModule</title>
<path fill="none" stroke="black" d="M1968.9,-116.36C1968.9,-131.17 1968.9,-154 1968.9,-154 1968.9,-154 2173.55,-154 2173.55,-154"/>
<polygon fill="black" stroke="black" points="2173.55,-157.5 2183.55,-154 2173.55,-150.5 2173.55,-157.5"/>
</g>
<!-- SelfAssessmentUploadFileService -->
<g id="node23" class="node">
<title>SelfAssessmentUploadFileService</title>
<ellipse fill="#fdb462" stroke="black" cx="1529" cy="-104" rx="144.67" ry="18"/>
<text text-anchor="middle" x="1529" y="-99.8" font-family="Times,serif" font-size="14.00">SelfAssessmentUploadFileService</text>
</g>
<!-- SelfAssessmentUploadFileService&#45;&gt;SelfAssessmentModule -->
<g id="edge22" class="edge">
<title>SelfAssessmentUploadFileService&#45;&gt;SelfAssessmentModule</title>
<path fill="none" stroke="black" d="M1600.02,-119.9C1600.02,-135.51 1600.02,-157 1600.02,-157 1600.02,-157 2173.8,-157 2173.8,-157"/>
<polygon fill="black" stroke="black" points="2173.8,-160.5 2183.8,-157 2173.8,-153.5 2173.8,-160.5"/>
</g>
<!-- ValidateImportSaqService -->
<g id="node24" class="node">
<title>ValidateImportSaqService</title>
<ellipse fill="#fdb462" stroke="black" cx="1253" cy="-104" rx="113.44" ry="18"/>
<text text-anchor="middle" x="1253" y="-99.8" font-family="Times,serif" font-size="14.00">ValidateImportSaqService</text>
</g>
<!-- ValidateImportSaqService&#45;&gt;SelfAssessmentModule -->
<g id="edge23" class="edge">
<title>ValidateImportSaqService&#45;&gt;SelfAssessmentModule</title>
<path fill="none" stroke="black" d="M1253,-122.03C1253,-138.4 1253,-160 1253,-160 1253,-160 2173.69,-160 2173.69,-160"/>
<polygon fill="black" stroke="black" points="2173.69,-163.5 2183.69,-160 2173.69,-156.5 2173.69,-163.5"/>
</g>
<!-- ValidateSelfAssessmentService -->
<g id="node25" class="node">
<title>ValidateSelfAssessmentService</title>
<ellipse fill="#fdb462" stroke="black" cx="988" cy="-104" rx="133.7" ry="18"/>
<text text-anchor="middle" x="988" y="-99.8" font-family="Times,serif" font-size="14.00">ValidateSelfAssessmentService</text>
</g>
<!-- ValidateSelfAssessmentService&#45;&gt;SelfAssessmentModule -->
<g id="edge24" class="edge">
<title>ValidateSelfAssessmentService&#45;&gt;SelfAssessmentModule</title>
<path fill="none" stroke="black" d="M988,-122.02C988,-139.37 988,-163 988,-163 988,-163 2173.76,-163 2173.76,-163"/>
<polygon fill="black" stroke="black" points="2173.76,-166.5 2183.76,-163 2173.76,-159.5 2173.76,-166.5"/>
</g>
<!-- ValidateUploadFacilityGroupTemplateService -->
<g id="node26" class="node">
<title>ValidateUploadFacilityGroupTemplateService</title>
<ellipse fill="#fdb462" stroke="black" cx="644" cy="-104" rx="191.55" ry="18"/>
<text text-anchor="middle" x="644" y="-99.8" font-family="Times,serif" font-size="14.00">ValidateUploadFacilityGroupTemplateService</text>
</g>
<!-- ValidateUploadFacilityGroupTemplateService&#45;&gt;SelfAssessmentModule -->
<g id="edge25" class="edge">
<title>ValidateUploadFacilityGroupTemplateService&#45;&gt;SelfAssessmentModule</title>
<path fill="none" stroke="black" d="M644,-122.27C644,-140.56 644,-166 644,-166 644,-166 2173.66,-166 2173.66,-166"/>
<polygon fill="black" stroke="black" points="2173.66,-169.5 2183.66,-166 2173.66,-162.5 2173.66,-169.5"/>
</g>
</g>
</svg>
