<?xml version="1.0" encoding="UTF-8" standalone="no"?>
<!DOCTYPE svg PUBLIC "-//W3C//DTD SVG 1.1//EN"
 "http://www.w3.org/Graphics/SVG/1.1/DTD/svg11.dtd">
<!-- Generated by graphviz version 2.47.0 (20210316.0004)
 -->
<!-- Title: dependencies Pages: 1 -->
<svg width="972pt" height="284pt"
 viewBox="0.00 0.00 972.00 284.00" xmlns="http://www.w3.org/2000/svg" xmlns:xlink="http://www.w3.org/1999/xlink">
<g id="graph0" class="graph" transform="scale(1 1) rotate(0) translate(4 280)">
<title>dependencies</title>
<polygon fill="white" stroke="transparent" points="-4,4 -4,-280 968,-280 968,4 -4,4"/>
<text text-anchor="start" x="461.01" y="-42.4" font-family="Times-12" font-weight="bold" font-size="14.00">Legend</text>
<polygon fill="#ffffb3" stroke="transparent" points="248,-10 248,-30 268,-30 268,-10 248,-10"/>
<text text-anchor="start" x="271.63" y="-15.4" font-family="Times-12" font-size="14.00"> &#160;Declarations</text>
<polygon fill="#8dd3c7" stroke="transparent" points="361,-10 361,-30 381,-30 381,-10 361,-10"/>
<text text-anchor="start" x="384.73" y="-15.4" font-family="Times-12" font-size="14.00"> &#160;Module</text>
<polygon fill="#80b1d3" stroke="transparent" points="447,-10 447,-30 467,-30 467,-10 447,-10"/>
<text text-anchor="start" x="470.78" y="-15.4" font-family="Times-12" font-size="14.00"> &#160;Bootstrap</text>
<polygon fill="#fdb462" stroke="transparent" points="544,-10 544,-30 564,-30 564,-10 544,-10"/>
<text text-anchor="start" x="567.67" y="-15.4" font-family="Times-12" font-size="14.00"> &#160;Providers</text>
<polygon fill="#fb8072" stroke="transparent" points="640,-10 640,-30 660,-30 660,-10 640,-10"/>
<text text-anchor="start" x="663.73" y="-15.4" font-family="Times-12" font-size="14.00"> &#160;Exports</text>
<g id="clust1" class="cluster">
<title>cluster_CategoryUtilModule</title>
<polygon fill="none" stroke="black" stroke-dasharray="1,5" points="8,-70 8,-268 956,-268 956,-70 8,-70"/>
</g>
<g id="clust6" class="cluster">
<title>cluster_CategoryUtilModule_providers</title>
<polygon fill="none" stroke="black" points="752,-78 752,-130 948,-130 948,-78 752,-78"/>
</g>
<g id="clust4" class="cluster">
<title>cluster_CategoryUtilModule_exports</title>
<polygon fill="none" stroke="black" points="431,-208 431,-260 581,-260 581,-208 431,-208"/>
</g>
<g id="clust3" class="cluster">
<title>cluster_CategoryUtilModule_imports</title>
<polygon fill="none" stroke="black" points="16,-78 16,-130 744,-130 744,-78 16,-78"/>
</g>
<!-- CapModule -->
<g id="node1" class="node">
<title>CapModule</title>
<polygon fill="#8dd3c7" stroke="black" points="736.1,-122 733.1,-126 712.1,-126 709.1,-122 653.9,-122 653.9,-86 736.1,-86 736.1,-122"/>
<text text-anchor="middle" x="695" y="-99.8" font-family="Times,serif" font-size="14.00">CapModule</text>
</g>
<!-- CategoryUtilModule -->
<g id="node6" class="node">
<title>CategoryUtilModule</title>
<polygon fill="#8dd3c7" stroke="black" points="572.15,-187 569.15,-191 548.15,-191 545.15,-187 439.85,-187 439.85,-151 572.15,-151 572.15,-187"/>
<text text-anchor="middle" x="506" y="-164.8" font-family="Times,serif" font-size="14.00">CategoryUtilModule</text>
</g>
<!-- CapModule&#45;&gt;CategoryUtilModule -->
<g id="edge1" class="edge">
<title>CapModule&#45;&gt;CategoryUtilModule</title>
<path fill="none" stroke="black" d="M695,-122.02C695,-139.37 695,-163 695,-163 695,-163 582.37,-163 582.37,-163"/>
<polygon fill="black" stroke="black" points="582.37,-159.5 572.37,-163 582.37,-166.5 582.37,-159.5"/>
</g>
<!-- CategoryModule -->
<g id="node2" class="node">
<title>CategoryModule</title>
<polygon fill="#8dd3c7" stroke="black" points="636.37,-122 633.37,-126 612.37,-126 609.37,-122 525.63,-122 525.63,-86 636.37,-86 636.37,-122"/>
<text text-anchor="middle" x="581" y="-99.8" font-family="Times,serif" font-size="14.00">CategoryModule</text>
</g>
<!-- CategoryModule&#45;&gt;CategoryUtilModule -->
<g id="edge2" class="edge">
<title>CategoryModule&#45;&gt;CategoryUtilModule</title>
<path fill="none" stroke="black" d="M548.94,-122.11C548.94,-122.11 548.94,-140.99 548.94,-140.99"/>
<polygon fill="black" stroke="black" points="545.44,-140.99 548.94,-150.99 552.44,-140.99 545.44,-140.99"/>
</g>
<!-- CommodityRiskModule -->
<g id="node3" class="node">
<title>CommodityRiskModule</title>
<polygon fill="#8dd3c7" stroke="black" points="508.12,-122 505.12,-126 484.12,-126 481.12,-122 355.88,-122 355.88,-86 508.12,-86 508.12,-122"/>
<text text-anchor="middle" x="432" y="-99.8" font-family="Times,serif" font-size="14.00">CommodityRiskModule</text>
</g>
<!-- CommodityRiskModule&#45;&gt;CategoryUtilModule -->
<g id="edge3" class="edge">
<title>CommodityRiskModule&#45;&gt;CategoryUtilModule</title>
<path fill="none" stroke="black" d="M473.87,-122.11C473.87,-122.11 473.87,-140.99 473.87,-140.99"/>
<polygon fill="black" stroke="black" points="470.37,-140.99 473.87,-150.99 477.37,-140.99 470.37,-140.99"/>
</g>
<!-- RolePermissionModule -->
<g id="node4" class="node">
<title>RolePermissionModule</title>
<polygon fill="#8dd3c7" stroke="black" points="338.21,-122 335.21,-126 314.21,-126 311.21,-122 189.79,-122 189.79,-86 338.21,-86 338.21,-122"/>
<text text-anchor="middle" x="264" y="-99.8" font-family="Times,serif" font-size="14.00">RolePermissionModule</text>
</g>
<!-- RolePermissionModule&#45;&gt;CategoryUtilModule -->
<g id="edge4" class="edge">
<title>RolePermissionModule&#45;&gt;CategoryUtilModule</title>
<path fill="none" stroke="black" d="M264,-122.02C264,-139.37 264,-163 264,-163 264,-163 429.55,-163 429.55,-163"/>
<polygon fill="black" stroke="black" points="429.55,-166.5 439.55,-163 429.55,-159.5 429.55,-166.5"/>
</g>
<!-- SelfAssessmentModule -->
<g id="node5" class="node">
<title>SelfAssessmentModule</title>
<polygon fill="#8dd3c7" stroke="black" points="172.19,-122 169.19,-126 148.19,-126 145.19,-122 23.81,-122 23.81,-86 172.19,-86 172.19,-122"/>
<text text-anchor="middle" x="98" y="-99.8" font-family="Times,serif" font-size="14.00">SelfAssessmentModule</text>
</g>
<!-- SelfAssessmentModule&#45;&gt;CategoryUtilModule -->
<g id="edge5" class="edge">
<title>SelfAssessmentModule&#45;&gt;CategoryUtilModule</title>
<path fill="none" stroke="black" d="M98,-122.28C98,-143.32 98,-175 98,-175 98,-175 429.54,-175 429.54,-175"/>
<polygon fill="black" stroke="black" points="429.54,-178.5 439.54,-175 429.54,-171.5 429.54,-178.5"/>
</g>
<!-- CategoryUtilService  -->
<g id="node7" class="node">
<title>CategoryUtilService </title>
<polygon fill="#fb8072" stroke="black" points="573.07,-252 438.93,-252 438.93,-216 573.07,-216 573.07,-252"/>
<text text-anchor="middle" x="506" y="-229.8" font-family="Times,serif" font-size="14.00">CategoryUtilService </text>
</g>
<!-- CategoryUtilModule&#45;&gt;CategoryUtilService  -->
<g id="edge6" class="edge">
<title>CategoryUtilModule&#45;&gt;CategoryUtilService </title>
<path fill="none" stroke="black" stroke-dasharray="5,2" d="M506,-187.11C506,-187.11 506,-205.99 506,-205.99"/>
<polygon fill="black" stroke="black" points="502.5,-205.99 506,-215.99 509.5,-205.99 502.5,-205.99"/>
</g>
<!-- CategoryUtilService -->
<g id="node8" class="node">
<title>CategoryUtilService</title>
<ellipse fill="#fdb462" stroke="black" cx="850" cy="-104" rx="90.32" ry="18"/>
<text text-anchor="middle" x="850" y="-99.8" font-family="Times,serif" font-size="14.00">CategoryUtilService</text>
</g>
<!-- CategoryUtilService&#45;&gt;CategoryUtilModule -->
<g id="edge7" class="edge">
<title>CategoryUtilService&#45;&gt;CategoryUtilModule</title>
<path fill="none" stroke="black" d="M850,-122.28C850,-143.32 850,-175 850,-175 850,-175 582.33,-175 582.33,-175"/>
<polygon fill="black" stroke="black" points="582.33,-171.5 572.33,-175 582.33,-178.5 582.33,-171.5"/>
</g>
</g>
</svg>
