<?xml version="1.0" encoding="UTF-8" standalone="no"?>
<!DOCTYPE svg PUBLIC "-//W3C//DTD SVG 1.1//EN"
 "http://www.w3.org/Graphics/SVG/1.1/DTD/svg11.dtd">
<!-- Generated by graphviz version 2.47.0 (20210316.0004)
 -->
<!-- Title: dependencies Pages: 1 -->
<svg width="1315pt" height="284pt"
 viewBox="0.00 0.00 1315.00 284.00" xmlns="http://www.w3.org/2000/svg" xmlns:xlink="http://www.w3.org/1999/xlink">
<g id="graph0" class="graph" transform="scale(1 1) rotate(0) translate(4 280)">
<title>dependencies</title>
<polygon fill="white" stroke="transparent" points="-4,4 -4,-280 1311,-280 1311,4 -4,4"/>
<text text-anchor="start" x="632.51" y="-42.4" font-family="Times-12" font-weight="bold" font-size="14.00">Legend</text>
<polygon fill="#ffffb3" stroke="transparent" points="419.5,-10 419.5,-30 439.5,-30 439.5,-10 419.5,-10"/>
<text text-anchor="start" x="443.13" y="-15.4" font-family="Times-12" font-size="14.00"> &#160;Declarations</text>
<polygon fill="#8dd3c7" stroke="transparent" points="532.5,-10 532.5,-30 552.5,-30 552.5,-10 532.5,-10"/>
<text text-anchor="start" x="556.23" y="-15.4" font-family="Times-12" font-size="14.00"> &#160;Module</text>
<polygon fill="#80b1d3" stroke="transparent" points="618.5,-10 618.5,-30 638.5,-30 638.5,-10 618.5,-10"/>
<text text-anchor="start" x="642.28" y="-15.4" font-family="Times-12" font-size="14.00"> &#160;Bootstrap</text>
<polygon fill="#fdb462" stroke="transparent" points="715.5,-10 715.5,-30 735.5,-30 735.5,-10 715.5,-10"/>
<text text-anchor="start" x="739.17" y="-15.4" font-family="Times-12" font-size="14.00"> &#160;Providers</text>
<polygon fill="#fb8072" stroke="transparent" points="811.5,-10 811.5,-30 831.5,-30 831.5,-10 811.5,-10"/>
<text text-anchor="start" x="835.23" y="-15.4" font-family="Times-12" font-size="14.00"> &#160;Exports</text>
<g id="clust1" class="cluster">
<title>cluster_CapModule</title>
<polygon fill="none" stroke="black" stroke-dasharray="1,5" points="8,-70 8,-268 1299,-268 1299,-70 8,-70"/>
</g>
<g id="clust4" class="cluster">
<title>cluster_CapModule_exports</title>
<polygon fill="none" stroke="black" points="765,-208 765,-260 865,-260 865,-208 765,-208"/>
</g>
<g id="clust3" class="cluster">
<title>cluster_CapModule_imports</title>
<polygon fill="none" stroke="black" points="1009,-78 1009,-130 1291,-130 1291,-78 1009,-78"/>
</g>
<g id="clust6" class="cluster">
<title>cluster_CapModule_providers</title>
<polygon fill="none" stroke="black" points="16,-78 16,-130 1001,-130 1001,-78 16,-78"/>
</g>
<!-- RolePermissionModule -->
<g id="node1" class="node">
<title>RolePermissionModule</title>
<polygon fill="#8dd3c7" stroke="black" points="1283.21,-122 1280.21,-126 1259.21,-126 1256.21,-122 1134.79,-122 1134.79,-86 1283.21,-86 1283.21,-122"/>
<text text-anchor="middle" x="1209" y="-99.8" font-family="Times,serif" font-size="14.00">RolePermissionModule</text>
</g>
<!-- CapModule -->
<g id="node3" class="node">
<title>CapModule</title>
<polygon fill="#8dd3c7" stroke="black" points="856.1,-187 853.1,-191 832.1,-191 829.1,-187 773.9,-187 773.9,-151 856.1,-151 856.1,-187"/>
<text text-anchor="middle" x="815" y="-164.8" font-family="Times,serif" font-size="14.00">CapModule</text>
</g>
<!-- RolePermissionModule&#45;&gt;CapModule -->
<g id="edge1" class="edge">
<title>RolePermissionModule&#45;&gt;CapModule</title>
<path fill="none" stroke="black" d="M1209,-122.28C1209,-143.32 1209,-175 1209,-175 1209,-175 866.42,-175 866.42,-175"/>
<polygon fill="black" stroke="black" points="866.42,-171.5 856.42,-175 866.42,-178.5 866.42,-171.5"/>
</g>
<!-- UploadModule -->
<g id="node2" class="node">
<title>UploadModule</title>
<polygon fill="#8dd3c7" stroke="black" points="1117.26,-122 1114.26,-126 1093.26,-126 1090.26,-122 1016.74,-122 1016.74,-86 1117.26,-86 1117.26,-122"/>
<text text-anchor="middle" x="1067" y="-99.8" font-family="Times,serif" font-size="14.00">UploadModule</text>
</g>
<!-- UploadModule&#45;&gt;CapModule -->
<g id="edge2" class="edge">
<title>UploadModule&#45;&gt;CapModule</title>
<path fill="none" stroke="black" d="M1067,-122.02C1067,-139.37 1067,-163 1067,-163 1067,-163 866.33,-163 866.33,-163"/>
<polygon fill="black" stroke="black" points="866.33,-159.5 856.33,-163 866.33,-166.5 866.33,-159.5"/>
</g>
<!-- CapService  -->
<g id="node4" class="node">
<title>CapService </title>
<polygon fill="#fb8072" stroke="black" points="857.03,-252 772.97,-252 772.97,-216 857.03,-216 857.03,-252"/>
<text text-anchor="middle" x="815" y="-229.8" font-family="Times,serif" font-size="14.00">CapService </text>
</g>
<!-- CapModule&#45;&gt;CapService  -->
<g id="edge3" class="edge">
<title>CapModule&#45;&gt;CapService </title>
<path fill="none" stroke="black" stroke-dasharray="5,2" d="M815,-187.11C815,-187.11 815,-205.99 815,-205.99"/>
<polygon fill="black" stroke="black" points="811.5,-205.99 815,-215.99 818.5,-205.99 811.5,-205.99"/>
</g>
<!-- CapCommentService -->
<g id="node5" class="node">
<title>CapCommentService</title>
<ellipse fill="#fdb462" stroke="black" cx="899" cy="-104" rx="93.78" ry="18"/>
<text text-anchor="middle" x="899" y="-99.8" font-family="Times,serif" font-size="14.00">CapCommentService</text>
</g>
<!-- CapCommentService&#45;&gt;CapModule -->
<g id="edge4" class="edge">
<title>CapCommentService&#45;&gt;CapModule</title>
<path fill="none" stroke="black" d="M830.71,-116.53C830.71,-116.53 830.71,-140.85 830.71,-140.85"/>
<polygon fill="black" stroke="black" points="827.21,-140.85 830.71,-150.85 834.21,-140.85 827.21,-140.85"/>
</g>
<!-- CapService -->
<g id="node6" class="node">
<title>CapService</title>
<ellipse fill="#fdb462" stroke="black" cx="732" cy="-104" rx="55.59" ry="18"/>
<text text-anchor="middle" x="732" y="-99.8" font-family="Times,serif" font-size="14.00">CapService</text>
</g>
<!-- CapService&#45;&gt;CapModule -->
<g id="edge5" class="edge">
<title>CapService&#45;&gt;CapModule</title>
<path fill="none" stroke="black" d="M780.75,-112.77C780.75,-112.77 780.75,-140.8 780.75,-140.8"/>
<polygon fill="black" stroke="black" points="777.25,-140.8 780.75,-150.8 784.25,-140.8 777.25,-140.8"/>
</g>
<!-- DeclineExpiredRequestsTask -->
<g id="node7" class="node">
<title>DeclineExpiredRequestsTask</title>
<ellipse fill="#fdb462" stroke="black" cx="533" cy="-104" rx="125.04" ry="18"/>
<text text-anchor="middle" x="533" y="-99.8" font-family="Times,serif" font-size="14.00">DeclineExpiredRequestsTask</text>
</g>
<!-- DeclineExpiredRequestsTask&#45;&gt;CapModule -->
<g id="edge6" class="edge">
<title>DeclineExpiredRequestsTask&#45;&gt;CapModule</title>
<path fill="none" stroke="black" d="M533,-122.02C533,-139.37 533,-163 533,-163 533,-163 763.69,-163 763.69,-163"/>
<polygon fill="black" stroke="black" points="763.69,-166.5 773.69,-163 763.69,-159.5 763.69,-166.5"/>
</g>
<!-- UpdateCapStatusOnTargetDateElapsedTask -->
<g id="node8" class="node">
<title>UpdateCapStatusOnTargetDateElapsedTask</title>
<ellipse fill="#fdb462" stroke="black" cx="207" cy="-104" rx="182.8" ry="18"/>
<text text-anchor="middle" x="207" y="-99.8" font-family="Times,serif" font-size="14.00">UpdateCapStatusOnTargetDateElapsedTask</text>
</g>
<!-- UpdateCapStatusOnTargetDateElapsedTask&#45;&gt;CapModule -->
<g id="edge7" class="edge">
<title>UpdateCapStatusOnTargetDateElapsedTask&#45;&gt;CapModule</title>
<path fill="none" stroke="black" d="M207,-122.28C207,-143.32 207,-175 207,-175 207,-175 763.69,-175 763.69,-175"/>
<polygon fill="black" stroke="black" points="763.69,-178.5 773.69,-175 763.69,-171.5 763.69,-178.5"/>
</g>
</g>
</svg>
