<?xml version="1.0" encoding="UTF-8" standalone="no"?>
<!DOCTYPE svg PUBLIC "-//W3C//DTD SVG 1.1//EN"
 "http://www.w3.org/Graphics/SVG/1.1/DTD/svg11.dtd">
<!-- Generated by graphviz version 2.47.0 (20210316.0004)
 -->
<!-- Title: dependencies Pages: 1 -->
<svg width="504pt" height="211pt"
 viewBox="0.00 0.00 504.00 211.00" xmlns="http://www.w3.org/2000/svg" xmlns:xlink="http://www.w3.org/1999/xlink">
<g id="graph0" class="graph" transform="scale(1 1) rotate(0) translate(4 207)">
<title>dependencies</title>
<polygon fill="white" stroke="transparent" points="-4,4 -4,-207 500,-207 500,4 -4,4"/>
<text text-anchor="start" x="227.01" y="-42.4" font-family="Times-12" font-weight="bold" font-size="14.00">Legend</text>
<polygon fill="#ffffb3" stroke="transparent" points="14,-10 14,-30 34,-30 34,-10 14,-10"/>
<text text-anchor="start" x="37.63" y="-15.4" font-family="Times-12" font-size="14.00"> &#160;Declarations</text>
<polygon fill="#8dd3c7" stroke="transparent" points="127,-10 127,-30 147,-30 147,-10 127,-10"/>
<text text-anchor="start" x="150.73" y="-15.4" font-family="Times-12" font-size="14.00"> &#160;Module</text>
<polygon fill="#80b1d3" stroke="transparent" points="213,-10 213,-30 233,-30 233,-10 213,-10"/>
<text text-anchor="start" x="236.78" y="-15.4" font-family="Times-12" font-size="14.00"> &#160;Bootstrap</text>
<polygon fill="#fdb462" stroke="transparent" points="310,-10 310,-30 330,-30 330,-10 310,-10"/>
<text text-anchor="start" x="333.67" y="-15.4" font-family="Times-12" font-size="14.00"> &#160;Providers</text>
<polygon fill="#fb8072" stroke="transparent" points="406,-10 406,-30 426,-30 426,-10 406,-10"/>
<text text-anchor="start" x="429.73" y="-15.4" font-family="Times-12" font-size="14.00"> &#160;Exports</text>
<g id="clust1" class="cluster">
<title>cluster_ExportTemplateModule</title>
<polygon fill="none" stroke="black" stroke-dasharray="1,5" points="43,-70 43,-195 453,-195 453,-70 43,-70"/>
</g>
<g id="clust3" class="cluster">
<title>cluster_ExportTemplateModule_imports</title>
<polygon fill="none" stroke="black" points="281,-78 281,-130 445,-130 445,-78 281,-78"/>
</g>
<g id="clust6" class="cluster">
<title>cluster_ExportTemplateModule_providers</title>
<polygon fill="none" stroke="black" points="51,-78 51,-130 273,-130 273,-78 51,-78"/>
</g>
<!-- RolePermissionModule -->
<g id="node1" class="node">
<title>RolePermissionModule</title>
<polygon fill="#8dd3c7" stroke="black" points="437.21,-122 434.21,-126 413.21,-126 410.21,-122 288.79,-122 288.79,-86 437.21,-86 437.21,-122"/>
<text text-anchor="middle" x="363" y="-99.8" font-family="Times,serif" font-size="14.00">RolePermissionModule</text>
</g>
<!-- ExportTemplateModule -->
<g id="node2" class="node">
<title>ExportTemplateModule</title>
<polygon fill="#8dd3c7" stroke="black" points="337.02,-187 334.02,-191 313.02,-191 310.02,-187 186.98,-187 186.98,-151 337.02,-151 337.02,-187"/>
<text text-anchor="middle" x="262" y="-164.8" font-family="Times,serif" font-size="14.00">ExportTemplateModule</text>
</g>
<!-- RolePermissionModule&#45;&gt;ExportTemplateModule -->
<g id="edge1" class="edge">
<title>RolePermissionModule&#45;&gt;ExportTemplateModule</title>
<path fill="none" stroke="black" d="M313.08,-122.11C313.08,-122.11 313.08,-140.99 313.08,-140.99"/>
<polygon fill="black" stroke="black" points="309.58,-140.99 313.08,-150.99 316.58,-140.99 309.58,-140.99"/>
</g>
<!-- ExportTemplateService -->
<g id="node3" class="node">
<title>ExportTemplateService</title>
<ellipse fill="#fdb462" stroke="black" cx="162" cy="-104" rx="102.99" ry="18"/>
<text text-anchor="middle" x="162" y="-99.8" font-family="Times,serif" font-size="14.00">ExportTemplateService</text>
</g>
<!-- ExportTemplateService&#45;&gt;ExportTemplateModule -->
<g id="edge2" class="edge">
<title>ExportTemplateService&#45;&gt;ExportTemplateModule</title>
<path fill="none" stroke="black" d="M225.74,-118.43C225.74,-118.43 225.74,-140.89 225.74,-140.89"/>
<polygon fill="black" stroke="black" points="222.24,-140.89 225.74,-150.89 229.24,-140.89 222.24,-140.89"/>
</g>
</g>
</svg>
