<?xml version="1.0" encoding="UTF-8" standalone="no"?>
<!DOCTYPE svg PUBLIC "-//W3C//DTD SVG 1.1//EN"
 "http://www.w3.org/Graphics/SVG/1.1/DTD/svg11.dtd">
<!-- Generated by graphviz version 2.47.0 (20210316.0004)
 -->
<!-- Title: dependencies Pages: 1 -->
<svg width="984pt" height="284pt"
 viewBox="0.00 0.00 984.00 284.00" xmlns="http://www.w3.org/2000/svg" xmlns:xlink="http://www.w3.org/1999/xlink">
<g id="graph0" class="graph" transform="scale(1 1) rotate(0) translate(4 280)">
<title>dependencies</title>
<polygon fill="white" stroke="transparent" points="-4,4 -4,-280 980,-280 980,4 -4,4"/>
<text text-anchor="start" x="467.01" y="-42.4" font-family="Times-12" font-weight="bold" font-size="14.00">Legend</text>
<polygon fill="#ffffb3" stroke="transparent" points="254,-10 254,-30 274,-30 274,-10 254,-10"/>
<text text-anchor="start" x="277.63" y="-15.4" font-family="Times-12" font-size="14.00"> &#160;Declarations</text>
<polygon fill="#8dd3c7" stroke="transparent" points="367,-10 367,-30 387,-30 387,-10 367,-10"/>
<text text-anchor="start" x="390.73" y="-15.4" font-family="Times-12" font-size="14.00"> &#160;Module</text>
<polygon fill="#80b1d3" stroke="transparent" points="453,-10 453,-30 473,-30 473,-10 453,-10"/>
<text text-anchor="start" x="476.78" y="-15.4" font-family="Times-12" font-size="14.00"> &#160;Bootstrap</text>
<polygon fill="#fdb462" stroke="transparent" points="550,-10 550,-30 570,-30 570,-10 550,-10"/>
<text text-anchor="start" x="573.67" y="-15.4" font-family="Times-12" font-size="14.00"> &#160;Providers</text>
<polygon fill="#fb8072" stroke="transparent" points="646,-10 646,-30 666,-30 666,-10 646,-10"/>
<text text-anchor="start" x="669.73" y="-15.4" font-family="Times-12" font-size="14.00"> &#160;Exports</text>
<g id="clust1" class="cluster">
<title>cluster_SupplyChainModule</title>
<polygon fill="none" stroke="black" stroke-dasharray="1,5" points="8,-70 8,-268 968,-268 968,-70 8,-70"/>
</g>
<g id="clust6" class="cluster">
<title>cluster_SupplyChainModule_providers</title>
<polygon fill="none" stroke="black" points="16,-78 16,-130 960,-130 960,-78 16,-78"/>
</g>
<g id="clust4" class="cluster">
<title>cluster_SupplyChainModule_exports</title>
<polygon fill="none" stroke="black" points="93,-208 93,-260 810,-260 810,-208 93,-208"/>
</g>
<!-- SupplyChainMetaDataService  -->
<g id="node1" class="node">
<title>SupplyChainMetaDataService </title>
<polygon fill="#fb8072" stroke="black" points="801.78,-252 612.22,-252 612.22,-216 801.78,-216 801.78,-252"/>
<text text-anchor="middle" x="707" y="-229.8" font-family="Times,serif" font-size="14.00">SupplyChainMetaDataService </text>
</g>
<!-- SupplyChainNodeService  -->
<g id="node2" class="node">
<title>SupplyChainNodeService </title>
<polygon fill="#fb8072" stroke="black" points="594.41,-252 429.59,-252 429.59,-216 594.41,-216 594.41,-252"/>
<text text-anchor="middle" x="512" y="-229.8" font-family="Times,serif" font-size="14.00">SupplyChainNodeService </text>
</g>
<!-- SupplyChainService  -->
<g id="node3" class="node">
<title>SupplyChainService </title>
<polygon fill="#fb8072" stroke="black" points="411.09,-252 276.91,-252 276.91,-216 411.09,-216 411.09,-252"/>
<text text-anchor="middle" x="344" y="-229.8" font-family="Times,serif" font-size="14.00">SupplyChainService </text>
</g>
<!-- SupplyChainTierService  -->
<g id="node4" class="node">
<title>SupplyChainTierService </title>
<polygon fill="#fb8072" stroke="black" points="258.91,-252 101.09,-252 101.09,-216 258.91,-216 258.91,-252"/>
<text text-anchor="middle" x="180" y="-229.8" font-family="Times,serif" font-size="14.00">SupplyChainTierService </text>
</g>
<!-- SupplyChainModule -->
<g id="node5" class="node">
<title>SupplyChainModule</title>
<polygon fill="#8dd3c7" stroke="black" points="486.17,-187 483.17,-191 462.17,-191 459.17,-187 353.83,-187 353.83,-151 486.17,-151 486.17,-187"/>
<text text-anchor="middle" x="420" y="-164.8" font-family="Times,serif" font-size="14.00">SupplyChainModule</text>
</g>
<!-- SupplyChainModule&#45;&gt;SupplyChainMetaDataService  -->
<g id="edge1" class="edge">
<title>SupplyChainModule&#45;&gt;SupplyChainMetaDataService </title>
<path fill="none" stroke="black" stroke-dasharray="5,2" d="M486.21,-175C552.5,-175 644.72,-175 644.72,-175 644.72,-175 644.72,-205.98 644.72,-205.98"/>
<polygon fill="black" stroke="black" points="641.22,-205.98 644.72,-215.98 648.22,-205.98 641.22,-205.98"/>
</g>
<!-- SupplyChainModule&#45;&gt;SupplyChainNodeService  -->
<g id="edge2" class="edge">
<title>SupplyChainModule&#45;&gt;SupplyChainNodeService </title>
<path fill="none" stroke="black" stroke-dasharray="5,2" d="M457.94,-187.11C457.94,-187.11 457.94,-205.99 457.94,-205.99"/>
<polygon fill="black" stroke="black" points="454.44,-205.99 457.94,-215.99 461.44,-205.99 454.44,-205.99"/>
</g>
<!-- SupplyChainModule&#45;&gt;SupplyChainService  -->
<g id="edge3" class="edge">
<title>SupplyChainModule&#45;&gt;SupplyChainService </title>
<path fill="none" stroke="black" stroke-dasharray="5,2" d="M382.48,-187.11C382.48,-187.11 382.48,-205.99 382.48,-205.99"/>
<polygon fill="black" stroke="black" points="378.98,-205.99 382.48,-215.99 385.98,-205.99 378.98,-205.99"/>
</g>
<!-- SupplyChainModule&#45;&gt;SupplyChainTierService  -->
<g id="edge4" class="edge">
<title>SupplyChainModule&#45;&gt;SupplyChainTierService </title>
<path fill="none" stroke="black" stroke-dasharray="5,2" d="M353.43,-175C304.52,-175 246.54,-175 246.54,-175 246.54,-175 246.54,-205.98 246.54,-205.98"/>
<polygon fill="black" stroke="black" points="243.04,-205.98 246.54,-215.98 250.04,-205.98 243.04,-205.98"/>
</g>
<!-- SupplyChainMetaDataService -->
<g id="node6" class="node">
<title>SupplyChainMetaDataService</title>
<ellipse fill="#fdb462" stroke="black" cx="824" cy="-104" rx="128.49" ry="18"/>
<text text-anchor="middle" x="824" y="-99.8" font-family="Times,serif" font-size="14.00">SupplyChainMetaDataService</text>
</g>
<!-- SupplyChainMetaDataService&#45;&gt;SupplyChainModule -->
<g id="edge5" class="edge">
<title>SupplyChainMetaDataService&#45;&gt;SupplyChainModule</title>
<path fill="none" stroke="black" d="M748.7,-118.89C748.7,-136.37 748.7,-163 748.7,-163 748.7,-163 496.52,-163 496.52,-163"/>
<polygon fill="black" stroke="black" points="496.52,-159.5 486.52,-163 496.52,-166.5 496.52,-159.5"/>
</g>
<!-- SupplyChainNodeService -->
<g id="node7" class="node">
<title>SupplyChainNodeService</title>
<ellipse fill="#fdb462" stroke="black" cx="566" cy="-104" rx="111.18" ry="18"/>
<text text-anchor="middle" x="566" y="-99.8" font-family="Times,serif" font-size="14.00">SupplyChainNodeService</text>
</g>
<!-- SupplyChainNodeService&#45;&gt;SupplyChainModule -->
<g id="edge6" class="edge">
<title>SupplyChainNodeService&#45;&gt;SupplyChainModule</title>
<path fill="none" stroke="black" d="M470.5,-113.31C470.5,-113.31 470.5,-140.85 470.5,-140.85"/>
<polygon fill="black" stroke="black" points="467,-140.85 470.5,-150.85 474,-140.85 467,-140.85"/>
</g>
<!-- SupplyChainService -->
<g id="node8" class="node">
<title>SupplyChainService</title>
<ellipse fill="#fdb462" stroke="black" cx="346" cy="-104" rx="90.35" ry="18"/>
<text text-anchor="middle" x="346" y="-99.8" font-family="Times,serif" font-size="14.00">SupplyChainService</text>
</g>
<!-- SupplyChainService&#45;&gt;SupplyChainModule -->
<g id="edge7" class="edge">
<title>SupplyChainService&#45;&gt;SupplyChainModule</title>
<path fill="none" stroke="black" d="M395.05,-119.4C395.05,-119.4 395.05,-140.94 395.05,-140.94"/>
<polygon fill="black" stroke="black" points="391.55,-140.94 395.05,-150.94 398.55,-140.94 391.55,-140.94"/>
</g>
<!-- SupplyChainTierService -->
<g id="node9" class="node">
<title>SupplyChainTierService</title>
<ellipse fill="#fdb462" stroke="black" cx="131" cy="-104" rx="106.52" ry="18"/>
<text text-anchor="middle" x="131" y="-99.8" font-family="Times,serif" font-size="14.00">SupplyChainTierService</text>
</g>
<!-- SupplyChainTierService&#45;&gt;SupplyChainModule -->
<g id="edge8" class="edge">
<title>SupplyChainTierService&#45;&gt;SupplyChainModule</title>
<path fill="none" stroke="black" d="M169.28,-121.07C169.28,-138.49 169.28,-163 169.28,-163 169.28,-163 343.8,-163 343.8,-163"/>
<polygon fill="black" stroke="black" points="343.8,-166.5 353.8,-163 343.8,-159.5 343.8,-166.5"/>
</g>
</g>
</svg>
