<?xml version="1.0" encoding="UTF-8" standalone="no"?>
<!DOCTYPE svg PUBLIC "-//W3C//DTD SVG 1.1//EN"
 "http://www.w3.org/Graphics/SVG/1.1/DTD/svg11.dtd">
<!-- Generated by graphviz version 2.47.0 (20210316.0004)
 -->
<!-- Title: dependencies Pages: 1 -->
<svg width="868pt" height="211pt"
 viewBox="0.00 0.00 868.00 211.00" xmlns="http://www.w3.org/2000/svg" xmlns:xlink="http://www.w3.org/1999/xlink">
<g id="graph0" class="graph" transform="scale(1 1) rotate(0) translate(4 207)">
<title>dependencies</title>
<polygon fill="white" stroke="transparent" points="-4,4 -4,-207 864,-207 864,4 -4,4"/>
<text text-anchor="start" x="409.01" y="-42.4" font-family="Times-12" font-weight="bold" font-size="14.00">Legend</text>
<polygon fill="#ffffb3" stroke="transparent" points="196,-10 196,-30 216,-30 216,-10 196,-10"/>
<text text-anchor="start" x="219.63" y="-15.4" font-family="Times-12" font-size="14.00"> &#160;Declarations</text>
<polygon fill="#8dd3c7" stroke="transparent" points="309,-10 309,-30 329,-30 329,-10 309,-10"/>
<text text-anchor="start" x="332.73" y="-15.4" font-family="Times-12" font-size="14.00"> &#160;Module</text>
<polygon fill="#80b1d3" stroke="transparent" points="395,-10 395,-30 415,-30 415,-10 395,-10"/>
<text text-anchor="start" x="418.78" y="-15.4" font-family="Times-12" font-size="14.00"> &#160;Bootstrap</text>
<polygon fill="#fdb462" stroke="transparent" points="492,-10 492,-30 512,-30 512,-10 492,-10"/>
<text text-anchor="start" x="515.67" y="-15.4" font-family="Times-12" font-size="14.00"> &#160;Providers</text>
<polygon fill="#fb8072" stroke="transparent" points="588,-10 588,-30 608,-30 608,-10 588,-10"/>
<text text-anchor="start" x="611.73" y="-15.4" font-family="Times-12" font-size="14.00"> &#160;Exports</text>
<g id="clust1" class="cluster">
<title>cluster_BusinessPartnerModule</title>
<polygon fill="none" stroke="black" stroke-dasharray="1,5" points="8,-70 8,-195 852,-195 852,-70 8,-70"/>
</g>
<g id="clust3" class="cluster">
<title>cluster_BusinessPartnerModule_imports</title>
<polygon fill="none" stroke="black" points="696,-78 696,-130 844,-130 844,-78 696,-78"/>
</g>
<g id="clust6" class="cluster">
<title>cluster_BusinessPartnerModule_providers</title>
<polygon fill="none" stroke="black" points="16,-78 16,-130 688,-130 688,-78 16,-78"/>
</g>
<!-- SupplyChainModule -->
<g id="node1" class="node">
<title>SupplyChainModule</title>
<polygon fill="#8dd3c7" stroke="black" points="836.17,-122 833.17,-126 812.17,-126 809.17,-122 703.83,-122 703.83,-86 836.17,-86 836.17,-122"/>
<text text-anchor="middle" x="770" y="-99.8" font-family="Times,serif" font-size="14.00">SupplyChainModule</text>
</g>
<!-- BusinessPartnerModule -->
<g id="node2" class="node">
<title>BusinessPartnerModule</title>
<polygon fill="#8dd3c7" stroke="black" points="551.75,-187 548.75,-191 527.75,-191 524.75,-187 402.25,-187 402.25,-151 551.75,-151 551.75,-187"/>
<text text-anchor="middle" x="477" y="-164.8" font-family="Times,serif" font-size="14.00">BusinessPartnerModule</text>
</g>
<!-- SupplyChainModule&#45;&gt;BusinessPartnerModule -->
<g id="edge1" class="edge">
<title>SupplyChainModule&#45;&gt;BusinessPartnerModule</title>
<path fill="none" stroke="black" d="M770,-122.11C770,-141.34 770,-169 770,-169 770,-169 562.07,-169 562.07,-169"/>
<polygon fill="black" stroke="black" points="562.07,-165.5 552.07,-169 562.07,-172.5 562.07,-165.5"/>
</g>
<!-- BrokerPartnerService -->
<g id="node3" class="node">
<title>BrokerPartnerService</title>
<ellipse fill="#fdb462" stroke="black" cx="585" cy="-104" rx="94.88" ry="18"/>
<text text-anchor="middle" x="585" y="-99.8" font-family="Times,serif" font-size="14.00">BrokerPartnerService</text>
</g>
<!-- BrokerPartnerService&#45;&gt;BusinessPartnerModule -->
<g id="edge2" class="edge">
<title>BrokerPartnerService&#45;&gt;BusinessPartnerModule</title>
<path fill="none" stroke="black" d="M521.09,-117.47C521.09,-117.47 521.09,-140.86 521.09,-140.86"/>
<polygon fill="black" stroke="black" points="517.59,-140.86 521.09,-150.86 524.59,-140.86 517.59,-140.86"/>
</g>
<!-- BusinessPartnerService -->
<g id="node4" class="node">
<title>BusinessPartnerService</title>
<ellipse fill="#fdb462" stroke="black" cx="370" cy="-104" rx="102.42" ry="18"/>
<text text-anchor="middle" x="370" y="-99.8" font-family="Times,serif" font-size="14.00">BusinessPartnerService</text>
</g>
<!-- BusinessPartnerService&#45;&gt;BusinessPartnerModule -->
<g id="edge3" class="edge">
<title>BusinessPartnerService&#45;&gt;BusinessPartnerModule</title>
<path fill="none" stroke="black" d="M437.17,-117.78C437.17,-117.78 437.17,-140.55 437.17,-140.55"/>
<polygon fill="black" stroke="black" points="433.67,-140.55 437.17,-150.55 440.67,-140.55 433.67,-140.55"/>
</g>
<!-- TransporterPartnerService -->
<g id="node5" class="node">
<title>TransporterPartnerService</title>
<ellipse fill="#fdb462" stroke="black" cx="137" cy="-104" rx="112.83" ry="18"/>
<text text-anchor="middle" x="137" y="-99.8" font-family="Times,serif" font-size="14.00">TransporterPartnerService</text>
</g>
<!-- TransporterPartnerService&#45;&gt;BusinessPartnerModule -->
<g id="edge4" class="edge">
<title>TransporterPartnerService&#45;&gt;BusinessPartnerModule</title>
<path fill="none" stroke="black" d="M137,-122.11C137,-141.34 137,-169 137,-169 137,-169 391.96,-169 391.96,-169"/>
<polygon fill="black" stroke="black" points="391.96,-172.5 401.96,-169 391.96,-165.5 391.96,-172.5"/>
</g>
</g>
</svg>
