<?xml version="1.0" encoding="UTF-8" standalone="no"?>
<!DOCTYPE svg PUBLIC "-//W3C//DTD SVG 1.1//EN"
 "http://www.w3.org/Graphics/SVG/1.1/DTD/svg11.dtd">
<!-- Generated by graphviz version 2.47.0 (20210316.0004)
 -->
<!-- Title: dependencies Pages: 1 -->
<svg width="2076pt" height="284pt"
 viewBox="0.00 0.00 2076.00 284.00" xmlns="http://www.w3.org/2000/svg" xmlns:xlink="http://www.w3.org/1999/xlink">
<g id="graph0" class="graph" transform="scale(1 1) rotate(0) translate(4 280)">
<title>dependencies</title>
<polygon fill="white" stroke="transparent" points="-4,4 -4,-280 2072,-280 2072,4 -4,4"/>
<text text-anchor="start" x="1013.01" y="-42.4" font-family="Times-12" font-weight="bold" font-size="14.00">Legend</text>
<polygon fill="#ffffb3" stroke="transparent" points="800,-10 800,-30 820,-30 820,-10 800,-10"/>
<text text-anchor="start" x="823.63" y="-15.4" font-family="Times-12" font-size="14.00"> &#160;Declarations</text>
<polygon fill="#8dd3c7" stroke="transparent" points="913,-10 913,-30 933,-30 933,-10 913,-10"/>
<text text-anchor="start" x="936.73" y="-15.4" font-family="Times-12" font-size="14.00"> &#160;Module</text>
<polygon fill="#80b1d3" stroke="transparent" points="999,-10 999,-30 1019,-30 1019,-10 999,-10"/>
<text text-anchor="start" x="1022.78" y="-15.4" font-family="Times-12" font-size="14.00"> &#160;Bootstrap</text>
<polygon fill="#fdb462" stroke="transparent" points="1096,-10 1096,-30 1116,-30 1116,-10 1096,-10"/>
<text text-anchor="start" x="1119.67" y="-15.4" font-family="Times-12" font-size="14.00"> &#160;Providers</text>
<polygon fill="#fb8072" stroke="transparent" points="1192,-10 1192,-30 1212,-30 1212,-10 1192,-10"/>
<text text-anchor="start" x="1215.73" y="-15.4" font-family="Times-12" font-size="14.00"> &#160;Exports</text>
<g id="clust1" class="cluster">
<title>cluster_GrievanceReportModule</title>
<polygon fill="none" stroke="black" stroke-dasharray="1,5" points="8,-70 8,-268 2060,-268 2060,-70 8,-70"/>
</g>
<g id="clust4" class="cluster">
<title>cluster_GrievanceReportModule_exports</title>
<polygon fill="none" stroke="black" points="969,-208 969,-260 1533,-260 1533,-208 969,-208"/>
</g>
<g id="clust3" class="cluster">
<title>cluster_GrievanceReportModule_imports</title>
<polygon fill="none" stroke="black" points="1505,-78 1505,-130 2052,-130 2052,-78 1505,-78"/>
</g>
<g id="clust6" class="cluster">
<title>cluster_GrievanceReportModule_providers</title>
<polygon fill="none" stroke="black" points="16,-78 16,-130 1497,-130 1497,-78 16,-78"/>
</g>
<!-- CategoryModule -->
<g id="node1" class="node">
<title>CategoryModule</title>
<polygon fill="#8dd3c7" stroke="black" points="2044.37,-122 2041.37,-126 2020.37,-126 2017.37,-122 1933.63,-122 1933.63,-86 2044.37,-86 2044.37,-122"/>
<text text-anchor="middle" x="1989" y="-99.8" font-family="Times,serif" font-size="14.00">CategoryModule</text>
</g>
<!-- GrievanceReportModule -->
<g id="node5" class="node">
<title>GrievanceReportModule</title>
<polygon fill="#8dd3c7" stroke="black" points="1321.67,-187 1318.67,-191 1297.67,-191 1294.67,-187 1166.33,-187 1166.33,-151 1321.67,-151 1321.67,-187"/>
<text text-anchor="middle" x="1244" y="-164.8" font-family="Times,serif" font-size="14.00">GrievanceReportModule</text>
</g>
<!-- CategoryModule&#45;&gt;GrievanceReportModule -->
<g id="edge1" class="edge">
<title>CategoryModule&#45;&gt;GrievanceReportModule</title>
<path fill="none" stroke="black" d="M1989,-122.28C1989,-143.32 1989,-175 1989,-175 1989,-175 1331.62,-175 1331.62,-175"/>
<polygon fill="black" stroke="black" points="1331.62,-171.5 1321.62,-175 1331.62,-178.5 1331.62,-171.5"/>
</g>
<!-- LaborRiskModule -->
<g id="node2" class="node">
<title>LaborRiskModule</title>
<polygon fill="#8dd3c7" stroke="black" points="1915.15,-122 1912.15,-126 1891.15,-126 1888.15,-122 1796.85,-122 1796.85,-86 1915.15,-86 1915.15,-122"/>
<text text-anchor="middle" x="1856" y="-99.8" font-family="Times,serif" font-size="14.00">LaborRiskModule</text>
</g>
<!-- LaborRiskModule&#45;&gt;GrievanceReportModule -->
<g id="edge2" class="edge">
<title>LaborRiskModule&#45;&gt;GrievanceReportModule</title>
<path fill="none" stroke="black" d="M1856,-122.11C1856,-141.34 1856,-169 1856,-169 1856,-169 1331.82,-169 1331.82,-169"/>
<polygon fill="black" stroke="black" points="1331.82,-165.5 1321.82,-169 1331.82,-172.5 1331.82,-165.5"/>
</g>
<!-- RolePermissionModule -->
<g id="node3" class="node">
<title>RolePermissionModule</title>
<polygon fill="#8dd3c7" stroke="black" points="1779.21,-122 1776.21,-126 1755.21,-126 1752.21,-122 1630.79,-122 1630.79,-86 1779.21,-86 1779.21,-122"/>
<text text-anchor="middle" x="1705" y="-99.8" font-family="Times,serif" font-size="14.00">RolePermissionModule</text>
</g>
<!-- RolePermissionModule&#45;&gt;GrievanceReportModule -->
<g id="edge3" class="edge">
<title>RolePermissionModule&#45;&gt;GrievanceReportModule</title>
<path fill="none" stroke="black" d="M1705,-122.02C1705,-139.37 1705,-163 1705,-163 1705,-163 1331.68,-163 1331.68,-163"/>
<polygon fill="black" stroke="black" points="1331.68,-159.5 1321.68,-163 1331.68,-166.5 1331.68,-159.5"/>
</g>
<!-- UploadModule -->
<g id="node4" class="node">
<title>UploadModule</title>
<polygon fill="#8dd3c7" stroke="black" points="1613.26,-122 1610.26,-126 1589.26,-126 1586.26,-122 1512.74,-122 1512.74,-86 1613.26,-86 1613.26,-122"/>
<text text-anchor="middle" x="1563" y="-99.8" font-family="Times,serif" font-size="14.00">UploadModule</text>
</g>
<!-- UploadModule&#45;&gt;GrievanceReportModule -->
<g id="edge4" class="edge">
<title>UploadModule&#45;&gt;GrievanceReportModule</title>
<path fill="none" stroke="black" d="M1518.59,-122.24C1518.59,-137.57 1518.59,-157 1518.59,-157 1518.59,-157 1331.59,-157 1331.59,-157"/>
<polygon fill="black" stroke="black" points="1331.59,-153.5 1321.59,-157 1331.59,-160.5 1331.59,-153.5"/>
</g>
<!-- ComplianceHistoryService  -->
<g id="node6" class="node">
<title>ComplianceHistoryService </title>
<polygon fill="#fb8072" stroke="black" points="1524.62,-252 1353.38,-252 1353.38,-216 1524.62,-216 1524.62,-252"/>
<text text-anchor="middle" x="1439" y="-229.8" font-family="Times,serif" font-size="14.00">ComplianceHistoryService </text>
</g>
<!-- GrievanceReportModule&#45;&gt;ComplianceHistoryService  -->
<g id="edge5" class="edge">
<title>GrievanceReportModule&#45;&gt;ComplianceHistoryService </title>
<path fill="none" stroke="black" stroke-dasharray="5,2" d="M1321.65,-181C1369.21,-181 1421.03,-181 1421.03,-181 1421.03,-181 1421.03,-205.76 1421.03,-205.76"/>
<polygon fill="black" stroke="black" points="1417.53,-205.76 1421.03,-215.76 1424.53,-205.76 1417.53,-205.76"/>
</g>
<!-- GrievanceReportRiskService  -->
<g id="node7" class="node">
<title>GrievanceReportRiskService </title>
<polygon fill="#fb8072" stroke="black" points="1335.27,-252 1152.73,-252 1152.73,-216 1335.27,-216 1335.27,-252"/>
<text text-anchor="middle" x="1244" y="-229.8" font-family="Times,serif" font-size="14.00">GrievanceReportRiskService </text>
</g>
<!-- GrievanceReportModule&#45;&gt;GrievanceReportRiskService  -->
<g id="edge6" class="edge">
<title>GrievanceReportModule&#45;&gt;GrievanceReportRiskService </title>
<path fill="none" stroke="black" stroke-dasharray="5,2" d="M1244,-187.11C1244,-187.11 1244,-205.99 1244,-205.99"/>
<polygon fill="black" stroke="black" points="1240.5,-205.99 1244,-215.99 1247.5,-205.99 1240.5,-205.99"/>
</g>
<!-- GrievanceReportService  -->
<g id="node8" class="node">
<title>GrievanceReportService </title>
<polygon fill="#fb8072" stroke="black" points="1134.6,-252 977.4,-252 977.4,-216 1134.6,-216 1134.6,-252"/>
<text text-anchor="middle" x="1056" y="-229.8" font-family="Times,serif" font-size="14.00">GrievanceReportService </text>
</g>
<!-- GrievanceReportModule&#45;&gt;GrievanceReportService  -->
<g id="edge7" class="edge">
<title>GrievanceReportModule&#45;&gt;GrievanceReportService </title>
<path fill="none" stroke="black" stroke-dasharray="5,2" d="M1166.38,-181C1117.44,-181 1063.45,-181 1063.45,-181 1063.45,-181 1063.45,-205.76 1063.45,-205.76"/>
<polygon fill="black" stroke="black" points="1059.95,-205.76 1063.45,-215.76 1066.95,-205.76 1059.95,-205.76"/>
</g>
<!-- ComplianceHistoryService -->
<g id="node9" class="node">
<title>ComplianceHistoryService</title>
<ellipse fill="#fdb462" stroke="black" cx="1373" cy="-104" rx="115.75" ry="18"/>
<text text-anchor="middle" x="1373" y="-99.8" font-family="Times,serif" font-size="14.00">ComplianceHistoryService</text>
</g>
<!-- ComplianceHistoryService&#45;&gt;GrievanceReportModule -->
<g id="edge8" class="edge">
<title>ComplianceHistoryService&#45;&gt;GrievanceReportModule</title>
<path fill="none" stroke="black" d="M1289.48,-116.53C1289.48,-116.53 1289.48,-140.85 1289.48,-140.85"/>
<polygon fill="black" stroke="black" points="1285.98,-140.85 1289.48,-150.85 1292.98,-140.85 1285.98,-140.85"/>
</g>
<!-- GrievanceReportRiskService -->
<g id="node10" class="node">
<title>GrievanceReportRiskService</title>
<ellipse fill="#fdb462" stroke="black" cx="1116" cy="-104" rx="123.81" ry="18"/>
<text text-anchor="middle" x="1116" y="-99.8" font-family="Times,serif" font-size="14.00">GrievanceReportRiskService</text>
</g>
<!-- GrievanceReportRiskService&#45;&gt;GrievanceReportModule -->
<g id="edge9" class="edge">
<title>GrievanceReportRiskService&#45;&gt;GrievanceReportModule</title>
<path fill="none" stroke="black" d="M1203.04,-116.84C1203.04,-116.84 1203.04,-140.52 1203.04,-140.52"/>
<polygon fill="black" stroke="black" points="1199.54,-140.52 1203.04,-150.52 1206.54,-140.52 1199.54,-140.52"/>
</g>
<!-- GrievanceReportService -->
<g id="node11" class="node">
<title>GrievanceReportService</title>
<ellipse fill="#fdb462" stroke="black" cx="868" cy="-104" rx="105.9" ry="18"/>
<text text-anchor="middle" x="868" y="-99.8" font-family="Times,serif" font-size="14.00">GrievanceReportService</text>
</g>
<!-- GrievanceReportService&#45;&gt;GrievanceReportModule -->
<g id="edge10" class="edge">
<title>GrievanceReportService&#45;&gt;GrievanceReportModule</title>
<path fill="none" stroke="black" d="M868,-122.24C868,-137.57 868,-157 868,-157 868,-157 1156.09,-157 1156.09,-157"/>
<polygon fill="black" stroke="black" points="1156.09,-160.5 1166.09,-157 1156.09,-153.5 1156.09,-160.5"/>
</g>
<!-- RequestService -->
<g id="node12" class="node">
<title>RequestService</title>
<ellipse fill="#fdb462" stroke="black" cx="673" cy="-104" rx="71.2" ry="18"/>
<text text-anchor="middle" x="673" y="-99.8" font-family="Times,serif" font-size="14.00">RequestService</text>
</g>
<!-- RequestService&#45;&gt;GrievanceReportModule -->
<g id="edge11" class="edge">
<title>RequestService&#45;&gt;GrievanceReportModule</title>
<path fill="none" stroke="black" d="M673,-122.02C673,-139.37 673,-163 673,-163 673,-163 1156.4,-163 1156.4,-163"/>
<polygon fill="black" stroke="black" points="1156.4,-166.5 1166.4,-163 1156.4,-159.5 1156.4,-166.5"/>
</g>
<!-- UpdateGrievanceReportsCommand -->
<g id="node13" class="node">
<title>UpdateGrievanceReportsCommand</title>
<ellipse fill="#fdb462" stroke="black" cx="435" cy="-104" rx="148.74" ry="18"/>
<text text-anchor="middle" x="435" y="-99.8" font-family="Times,serif" font-size="14.00">UpdateGrievanceReportsCommand</text>
</g>
<!-- UpdateGrievanceReportsCommand&#45;&gt;GrievanceReportModule -->
<g id="edge12" class="edge">
<title>UpdateGrievanceReportsCommand&#45;&gt;GrievanceReportModule</title>
<path fill="none" stroke="black" d="M435,-122.11C435,-141.34 435,-169 435,-169 435,-169 1156.06,-169 1156.06,-169"/>
<polygon fill="black" stroke="black" points="1156.06,-172.5 1166.06,-169 1156.06,-165.5 1156.06,-172.5"/>
</g>
<!-- ViewGrievanceReportGuard -->
<g id="node14" class="node">
<title>ViewGrievanceReportGuard</title>
<ellipse fill="#fdb462" stroke="black" cx="146" cy="-104" rx="122.07" ry="18"/>
<text text-anchor="middle" x="146" y="-99.8" font-family="Times,serif" font-size="14.00">ViewGrievanceReportGuard</text>
</g>
<!-- ViewGrievanceReportGuard&#45;&gt;GrievanceReportModule -->
<g id="edge13" class="edge">
<title>ViewGrievanceReportGuard&#45;&gt;GrievanceReportModule</title>
<path fill="none" stroke="black" d="M146,-122.28C146,-143.32 146,-175 146,-175 146,-175 1156.35,-175 1156.35,-175"/>
<polygon fill="black" stroke="black" points="1156.35,-178.5 1166.35,-175 1156.35,-171.5 1156.35,-178.5"/>
</g>
</g>
</svg>
