<?xml version="1.0" encoding="UTF-8" standalone="no"?>
<!DOCTYPE svg PUBLIC "-//W3C//DTD SVG 1.1//EN"
 "http://www.w3.org/Graphics/SVG/1.1/DTD/svg11.dtd">
<!-- Generated by graphviz version 2.47.0 (20210316.0004)
 -->
<!-- Title: dependencies Pages: 1 -->
<svg width="504pt" height="284pt"
 viewBox="0.00 0.00 504.00 284.00" xmlns="http://www.w3.org/2000/svg" xmlns:xlink="http://www.w3.org/1999/xlink">
<g id="graph0" class="graph" transform="scale(1 1) rotate(0) translate(4 280)">
<title>dependencies</title>
<polygon fill="white" stroke="transparent" points="-4,4 -4,-280 500,-280 500,4 -4,4"/>
<text text-anchor="start" x="227.01" y="-42.4" font-family="Times-12" font-weight="bold" font-size="14.00">Legend</text>
<polygon fill="#ffffb3" stroke="transparent" points="14,-10 14,-30 34,-30 34,-10 14,-10"/>
<text text-anchor="start" x="37.63" y="-15.4" font-family="Times-12" font-size="14.00"> &#160;Declarations</text>
<polygon fill="#8dd3c7" stroke="transparent" points="127,-10 127,-30 147,-30 147,-10 127,-10"/>
<text text-anchor="start" x="150.73" y="-15.4" font-family="Times-12" font-size="14.00"> &#160;Module</text>
<polygon fill="#80b1d3" stroke="transparent" points="213,-10 213,-30 233,-30 233,-10 213,-10"/>
<text text-anchor="start" x="236.78" y="-15.4" font-family="Times-12" font-size="14.00"> &#160;Bootstrap</text>
<polygon fill="#fdb462" stroke="transparent" points="310,-10 310,-30 330,-30 330,-10 310,-10"/>
<text text-anchor="start" x="333.67" y="-15.4" font-family="Times-12" font-size="14.00"> &#160;Providers</text>
<polygon fill="#fb8072" stroke="transparent" points="406,-10 406,-30 426,-30 426,-10 406,-10"/>
<text text-anchor="start" x="429.73" y="-15.4" font-family="Times-12" font-size="14.00"> &#160;Exports</text>
<g id="clust1" class="cluster">
<title>cluster_CategoryModule</title>
<polygon fill="none" stroke="black" stroke-dasharray="1,5" points="31.5,-70 31.5,-268 464.5,-268 464.5,-70 31.5,-70"/>
</g>
<g id="clust4" class="cluster">
<title>cluster_CategoryModule_exports</title>
<polygon fill="none" stroke="black" points="71.5,-208 71.5,-260 389.5,-260 389.5,-208 71.5,-208"/>
</g>
<g id="clust6" class="cluster">
<title>cluster_CategoryModule_providers</title>
<polygon fill="none" stroke="black" points="39.5,-78 39.5,-130 456.5,-130 456.5,-78 39.5,-78"/>
</g>
<!-- CategoryService  -->
<g id="node1" class="node">
<title>CategoryService </title>
<polygon fill="#fb8072" stroke="black" points="381.79,-252 269.21,-252 269.21,-216 381.79,-216 381.79,-252"/>
<text text-anchor="middle" x="325.5" y="-229.8" font-family="Times,serif" font-size="14.00">CategoryService </text>
</g>
<!-- CategoryValidationService  -->
<g id="node2" class="node">
<title>CategoryValidationService </title>
<polygon fill="#fb8072" stroke="black" points="251.39,-252 79.61,-252 79.61,-216 251.39,-216 251.39,-252"/>
<text text-anchor="middle" x="165.5" y="-229.8" font-family="Times,serif" font-size="14.00">CategoryValidationService </text>
</g>
<!-- CategoryModule -->
<g id="node3" class="node">
<title>CategoryModule</title>
<polygon fill="#8dd3c7" stroke="black" points="252.87,-187 249.87,-191 228.87,-191 225.87,-187 142.13,-187 142.13,-151 252.87,-151 252.87,-187"/>
<text text-anchor="middle" x="197.5" y="-164.8" font-family="Times,serif" font-size="14.00">CategoryModule</text>
</g>
<!-- CategoryModule&#45;&gt;CategoryService  -->
<g id="edge1" class="edge">
<title>CategoryModule&#45;&gt;CategoryService </title>
<path fill="none" stroke="black" stroke-dasharray="5,2" d="M252.96,-175C265.09,-175 274.38,-175 274.38,-175 274.38,-175 274.38,-205.98 274.38,-205.98"/>
<polygon fill="black" stroke="black" points="270.88,-205.98 274.38,-215.98 277.88,-205.98 270.88,-205.98"/>
</g>
<!-- CategoryModule&#45;&gt;CategoryValidationService  -->
<g id="edge2" class="edge">
<title>CategoryModule&#45;&gt;CategoryValidationService </title>
<path fill="none" stroke="black" stroke-dasharray="5,2" d="M196.76,-187.11C196.76,-187.11 196.76,-205.99 196.76,-205.99"/>
<polygon fill="black" stroke="black" points="193.26,-205.99 196.76,-215.99 200.26,-205.99 193.26,-205.99"/>
</g>
<!-- CategoryService -->
<g id="node4" class="node">
<title>CategoryService</title>
<ellipse fill="#fdb462" stroke="black" cx="373.5" cy="-104" rx="75.28" ry="18"/>
<text text-anchor="middle" x="373.5" y="-99.8" font-family="Times,serif" font-size="14.00">CategoryService</text>
</g>
<!-- CategoryService&#45;&gt;CategoryModule -->
<g id="edge3" class="edge">
<title>CategoryService&#45;&gt;CategoryModule</title>
<path fill="none" stroke="black" d="M340,-120.43C340,-137.89 340,-163 340,-163 340,-163 263,-163 263,-163"/>
<polygon fill="black" stroke="black" points="263,-159.5 253,-163 263,-166.5 263,-159.5"/>
</g>
<!-- CategoryValidationService -->
<g id="node5" class="node">
<title>CategoryValidationService</title>
<ellipse fill="#fdb462" stroke="black" cx="163.5" cy="-104" rx="116.31" ry="18"/>
<text text-anchor="middle" x="163.5" y="-99.8" font-family="Times,serif" font-size="14.00">CategoryValidationService</text>
</g>
<!-- CategoryValidationService&#45;&gt;CategoryModule -->
<g id="edge4" class="edge">
<title>CategoryValidationService&#45;&gt;CategoryModule</title>
<path fill="none" stroke="black" d="M197.5,-121.42C197.5,-121.42 197.5,-140.62 197.5,-140.62"/>
<polygon fill="black" stroke="black" points="194,-140.62 197.5,-150.62 201,-140.62 194,-140.62"/>
</g>
</g>
</svg>
