<?xml version="1.0" encoding="UTF-8" standalone="no"?>
<!DOCTYPE svg PUBLIC "-//W3C//DTD SVG 1.1//EN"
 "http://www.w3.org/Graphics/SVG/1.1/DTD/svg11.dtd">
<!-- Generated by graphviz version 2.47.0 (20210316.0004)
 -->
<!-- Title: dependencies Pages: 1 -->
<svg width="1218pt" height="284pt"
 viewBox="0.00 0.00 1218.00 284.00" xmlns="http://www.w3.org/2000/svg" xmlns:xlink="http://www.w3.org/1999/xlink">
<g id="graph0" class="graph" transform="scale(1 1) rotate(0) translate(4 280)">
<title>dependencies</title>
<polygon fill="white" stroke="transparent" points="-4,4 -4,-280 1214,-280 1214,4 -4,4"/>
<text text-anchor="start" x="584.01" y="-42.4" font-family="Times-12" font-weight="bold" font-size="14.00">Legend</text>
<polygon fill="#ffffb3" stroke="transparent" points="371,-10 371,-30 391,-30 391,-10 371,-10"/>
<text text-anchor="start" x="394.63" y="-15.4" font-family="Times-12" font-size="14.00"> &#160;Declarations</text>
<polygon fill="#8dd3c7" stroke="transparent" points="484,-10 484,-30 504,-30 504,-10 484,-10"/>
<text text-anchor="start" x="507.73" y="-15.4" font-family="Times-12" font-size="14.00"> &#160;Module</text>
<polygon fill="#80b1d3" stroke="transparent" points="570,-10 570,-30 590,-30 590,-10 570,-10"/>
<text text-anchor="start" x="593.78" y="-15.4" font-family="Times-12" font-size="14.00"> &#160;Bootstrap</text>
<polygon fill="#fdb462" stroke="transparent" points="667,-10 667,-30 687,-30 687,-10 667,-10"/>
<text text-anchor="start" x="690.67" y="-15.4" font-family="Times-12" font-size="14.00"> &#160;Providers</text>
<polygon fill="#fb8072" stroke="transparent" points="763,-10 763,-30 783,-30 783,-10 763,-10"/>
<text text-anchor="start" x="786.73" y="-15.4" font-family="Times-12" font-size="14.00"> &#160;Exports</text>
<g id="clust1" class="cluster">
<title>cluster_LocationModule</title>
<polygon fill="none" stroke="black" stroke-dasharray="1,5" points="8,-70 8,-268 1202,-268 1202,-70 8,-70"/>
</g>
<g id="clust4" class="cluster">
<title>cluster_LocationModule_exports</title>
<polygon fill="none" stroke="black" points="525,-208 525,-260 816,-260 816,-208 525,-208"/>
</g>
<g id="clust3" class="cluster">
<title>cluster_LocationModule_imports</title>
<polygon fill="none" stroke="black" points="900,-78 900,-130 1194,-130 1194,-78 900,-78"/>
</g>
<g id="clust6" class="cluster">
<title>cluster_LocationModule_providers</title>
<polygon fill="none" stroke="black" points="16,-78 16,-130 892,-130 892,-78 16,-78"/>
</g>
<!-- RolePermissionModule -->
<g id="node1" class="node">
<title>RolePermissionModule</title>
<polygon fill="#8dd3c7" stroke="black" points="1186.21,-122 1183.21,-126 1162.21,-126 1159.21,-122 1037.79,-122 1037.79,-86 1186.21,-86 1186.21,-122"/>
<text text-anchor="middle" x="1112" y="-99.8" font-family="Times,serif" font-size="14.00">RolePermissionModule</text>
</g>
<!-- LocationModule -->
<g id="node3" class="node">
<title>LocationModule</title>
<polygon fill="#8dd3c7" stroke="black" points="716.81,-187 713.81,-191 692.81,-191 689.81,-187 607.19,-187 607.19,-151 716.81,-151 716.81,-187"/>
<text text-anchor="middle" x="662" y="-164.8" font-family="Times,serif" font-size="14.00">LocationModule</text>
</g>
<!-- RolePermissionModule&#45;&gt;LocationModule -->
<g id="edge1" class="edge">
<title>RolePermissionModule&#45;&gt;LocationModule</title>
<path fill="none" stroke="black" d="M1112,-122.28C1112,-143.32 1112,-175 1112,-175 1112,-175 726.73,-175 726.73,-175"/>
<polygon fill="black" stroke="black" points="726.73,-171.5 716.73,-175 726.73,-178.5 726.73,-171.5"/>
</g>
<!-- TranslateModule -->
<g id="node2" class="node">
<title>TranslateModule</title>
<polygon fill="#8dd3c7" stroke="black" points="1019.63,-122 1016.63,-126 995.63,-126 992.63,-122 908.37,-122 908.37,-86 1019.63,-86 1019.63,-122"/>
<text text-anchor="middle" x="964" y="-99.8" font-family="Times,serif" font-size="14.00">TranslateModule</text>
</g>
<!-- TranslateModule&#45;&gt;LocationModule -->
<g id="edge2" class="edge">
<title>TranslateModule&#45;&gt;LocationModule</title>
<path fill="none" stroke="black" d="M964,-122.02C964,-139.37 964,-163 964,-163 964,-163 726.69,-163 726.69,-163"/>
<polygon fill="black" stroke="black" points="726.69,-159.5 716.69,-163 726.69,-166.5 726.69,-159.5"/>
</g>
<!-- LocationCrawlService  -->
<g id="node4" class="node">
<title>LocationCrawlService </title>
<polygon fill="#fb8072" stroke="black" points="807.95,-252 662.05,-252 662.05,-216 807.95,-216 807.95,-252"/>
<text text-anchor="middle" x="735" y="-229.8" font-family="Times,serif" font-size="14.00">LocationCrawlService </text>
</g>
<!-- LocationModule&#45;&gt;LocationCrawlService  -->
<g id="edge3" class="edge">
<title>LocationModule&#45;&gt;LocationCrawlService </title>
<path fill="none" stroke="black" stroke-dasharray="5,2" d="M689.47,-187.11C689.47,-187.11 689.47,-205.99 689.47,-205.99"/>
<polygon fill="black" stroke="black" points="685.97,-205.99 689.47,-215.99 692.97,-205.99 685.97,-205.99"/>
</g>
<!-- LocationService  -->
<g id="node5" class="node">
<title>LocationService </title>
<polygon fill="#fb8072" stroke="black" points="644.74,-252 533.26,-252 533.26,-216 644.74,-216 644.74,-252"/>
<text text-anchor="middle" x="589" y="-229.8" font-family="Times,serif" font-size="14.00">LocationService </text>
</g>
<!-- LocationModule&#45;&gt;LocationService  -->
<g id="edge4" class="edge">
<title>LocationModule&#45;&gt;LocationService </title>
<path fill="none" stroke="black" stroke-dasharray="5,2" d="M625.98,-187.11C625.98,-187.11 625.98,-205.99 625.98,-205.99"/>
<polygon fill="black" stroke="black" points="622.48,-205.99 625.98,-215.99 629.48,-205.99 622.48,-205.99"/>
</g>
<!-- CrawlLocationCommand -->
<g id="node6" class="node">
<title>CrawlLocationCommand</title>
<ellipse fill="#fdb462" stroke="black" cx="775" cy="-104" rx="109.39" ry="18"/>
<text text-anchor="middle" x="775" y="-99.8" font-family="Times,serif" font-size="14.00">CrawlLocationCommand</text>
</g>
<!-- CrawlLocationCommand&#45;&gt;LocationModule -->
<g id="edge5" class="edge">
<title>CrawlLocationCommand&#45;&gt;LocationModule</title>
<path fill="none" stroke="black" d="M691.23,-115.62C691.23,-115.62 691.23,-140.85 691.23,-140.85"/>
<polygon fill="black" stroke="black" points="687.73,-140.85 691.23,-150.85 694.73,-140.85 687.73,-140.85"/>
</g>
<!-- LocationCrawlService -->
<g id="node7" class="node">
<title>LocationCrawlService</title>
<ellipse fill="#fdb462" stroke="black" cx="550" cy="-104" rx="97.83" ry="18"/>
<text text-anchor="middle" x="550" y="-99.8" font-family="Times,serif" font-size="14.00">LocationCrawlService</text>
</g>
<!-- LocationCrawlService&#45;&gt;LocationModule -->
<g id="edge6" class="edge">
<title>LocationCrawlService&#45;&gt;LocationModule</title>
<path fill="none" stroke="black" d="M627.63,-115.03C627.63,-115.03 627.63,-140.78 627.63,-140.78"/>
<polygon fill="black" stroke="black" points="624.13,-140.78 627.63,-150.78 631.13,-140.78 624.13,-140.78"/>
</g>
<!-- LocationService -->
<g id="node8" class="node">
<title>LocationService</title>
<ellipse fill="#fdb462" stroke="black" cx="360" cy="-104" rx="74.14" ry="18"/>
<text text-anchor="middle" x="360" y="-99.8" font-family="Times,serif" font-size="14.00">LocationService</text>
</g>
<!-- LocationService&#45;&gt;LocationModule -->
<g id="edge7" class="edge">
<title>LocationService&#45;&gt;LocationModule</title>
<path fill="none" stroke="black" d="M360,-122.02C360,-139.37 360,-163 360,-163 360,-163 597.31,-163 597.31,-163"/>
<polygon fill="black" stroke="black" points="597.31,-166.5 607.31,-163 597.31,-159.5 597.31,-166.5"/>
</g>
<!-- TranslateLocationCommand -->
<g id="node9" class="node">
<title>TranslateLocationCommand</title>
<ellipse fill="#fdb462" stroke="black" cx="146" cy="-104" rx="121.55" ry="18"/>
<text text-anchor="middle" x="146" y="-99.8" font-family="Times,serif" font-size="14.00">TranslateLocationCommand</text>
</g>
<!-- TranslateLocationCommand&#45;&gt;LocationModule -->
<g id="edge8" class="edge">
<title>TranslateLocationCommand&#45;&gt;LocationModule</title>
<path fill="none" stroke="black" d="M146,-122.28C146,-143.32 146,-175 146,-175 146,-175 597.27,-175 597.27,-175"/>
<polygon fill="black" stroke="black" points="597.27,-178.5 607.27,-175 597.27,-171.5 597.27,-178.5"/>
</g>
</g>
</svg>
