<?xml version="1.0" encoding="UTF-8" standalone="no"?>
<!DOCTYPE svg PUBLIC "-//W3C//DTD SVG 1.1//EN"
 "http://www.w3.org/Graphics/SVG/1.1/DTD/svg11.dtd">
<!-- Generated by graphviz version 2.47.0 (20210316.0004)
 -->
<!-- Title: dependencies Pages: 1 -->
<svg width="1052pt" height="284pt"
 viewBox="0.00 0.00 1052.00 284.00" xmlns="http://www.w3.org/2000/svg" xmlns:xlink="http://www.w3.org/1999/xlink">
<g id="graph0" class="graph" transform="scale(1 1) rotate(0) translate(4 280)">
<title>dependencies</title>
<polygon fill="white" stroke="transparent" points="-4,4 -4,-280 1048,-280 1048,4 -4,4"/>
<text text-anchor="start" x="501.01" y="-42.4" font-family="Times-12" font-weight="bold" font-size="14.00">Legend</text>
<polygon fill="#ffffb3" stroke="transparent" points="288,-10 288,-30 308,-30 308,-10 288,-10"/>
<text text-anchor="start" x="311.63" y="-15.4" font-family="Times-12" font-size="14.00"> &#160;Declarations</text>
<polygon fill="#8dd3c7" stroke="transparent" points="401,-10 401,-30 421,-30 421,-10 401,-10"/>
<text text-anchor="start" x="424.73" y="-15.4" font-family="Times-12" font-size="14.00"> &#160;Module</text>
<polygon fill="#80b1d3" stroke="transparent" points="487,-10 487,-30 507,-30 507,-10 487,-10"/>
<text text-anchor="start" x="510.78" y="-15.4" font-family="Times-12" font-size="14.00"> &#160;Bootstrap</text>
<polygon fill="#fdb462" stroke="transparent" points="584,-10 584,-30 604,-30 604,-10 584,-10"/>
<text text-anchor="start" x="607.67" y="-15.4" font-family="Times-12" font-size="14.00"> &#160;Providers</text>
<polygon fill="#fb8072" stroke="transparent" points="680,-10 680,-30 700,-30 700,-10 680,-10"/>
<text text-anchor="start" x="703.73" y="-15.4" font-family="Times-12" font-size="14.00"> &#160;Exports</text>
<g id="clust1" class="cluster">
<title>cluster_LocationModule</title>
<polygon fill="none" stroke="black" stroke-dasharray="1,5" points="8,-70 8,-268 1036,-268 1036,-70 8,-70"/>
</g>
<g id="clust3" class="cluster">
<title>cluster_LocationModule_imports</title>
<polygon fill="none" stroke="black" points="900,-78 900,-130 1028,-130 1028,-78 900,-78"/>
</g>
<g id="clust6" class="cluster">
<title>cluster_LocationModule_providers</title>
<polygon fill="none" stroke="black" points="16,-78 16,-130 892,-130 892,-78 16,-78"/>
</g>
<g id="clust4" class="cluster">
<title>cluster_LocationModule_exports</title>
<polygon fill="none" stroke="black" points="413,-208 413,-260 704,-260 704,-208 413,-208"/>
</g>
<!-- TranslateModule -->
<g id="node1" class="node">
<title>TranslateModule</title>
<polygon fill="#8dd3c7" stroke="black" points="1019.63,-122 1016.63,-126 995.63,-126 992.63,-122 908.37,-122 908.37,-86 1019.63,-86 1019.63,-122"/>
<text text-anchor="middle" x="964" y="-99.8" font-family="Times,serif" font-size="14.00">TranslateModule</text>
</g>
<!-- LocationModule -->
<g id="node2" class="node">
<title>LocationModule</title>
<polygon fill="#8dd3c7" stroke="black" points="604.81,-187 601.81,-191 580.81,-191 577.81,-187 495.19,-187 495.19,-151 604.81,-151 604.81,-187"/>
<text text-anchor="middle" x="550" y="-164.8" font-family="Times,serif" font-size="14.00">LocationModule</text>
</g>
<!-- TranslateModule&#45;&gt;LocationModule -->
<g id="edge1" class="edge">
<title>TranslateModule&#45;&gt;LocationModule</title>
<path fill="none" stroke="black" d="M964,-122.28C964,-143.32 964,-175 964,-175 964,-175 614.98,-175 614.98,-175"/>
<polygon fill="black" stroke="black" points="614.98,-171.5 604.98,-175 614.98,-178.5 614.98,-171.5"/>
</g>
<!-- LocationCrawlService  -->
<g id="node3" class="node">
<title>LocationCrawlService </title>
<polygon fill="#fb8072" stroke="black" points="695.95,-252 550.05,-252 550.05,-216 695.95,-216 695.95,-252"/>
<text text-anchor="middle" x="623" y="-229.8" font-family="Times,serif" font-size="14.00">LocationCrawlService </text>
</g>
<!-- LocationModule&#45;&gt;LocationCrawlService  -->
<g id="edge2" class="edge">
<title>LocationModule&#45;&gt;LocationCrawlService </title>
<path fill="none" stroke="black" stroke-dasharray="5,2" d="M577.47,-187.11C577.47,-187.11 577.47,-205.99 577.47,-205.99"/>
<polygon fill="black" stroke="black" points="573.97,-205.99 577.47,-215.99 580.97,-205.99 573.97,-205.99"/>
</g>
<!-- LocationService  -->
<g id="node4" class="node">
<title>LocationService </title>
<polygon fill="#fb8072" stroke="black" points="532.74,-252 421.26,-252 421.26,-216 532.74,-216 532.74,-252"/>
<text text-anchor="middle" x="477" y="-229.8" font-family="Times,serif" font-size="14.00">LocationService </text>
</g>
<!-- LocationModule&#45;&gt;LocationService  -->
<g id="edge3" class="edge">
<title>LocationModule&#45;&gt;LocationService </title>
<path fill="none" stroke="black" stroke-dasharray="5,2" d="M513.98,-187.11C513.98,-187.11 513.98,-205.99 513.98,-205.99"/>
<polygon fill="black" stroke="black" points="510.48,-205.99 513.98,-215.99 517.48,-205.99 510.48,-205.99"/>
</g>
<!-- CrawlLocationCommand -->
<g id="node5" class="node">
<title>CrawlLocationCommand</title>
<ellipse fill="#fdb462" stroke="black" cx="775" cy="-104" rx="109.39" ry="18"/>
<text text-anchor="middle" x="775" y="-99.8" font-family="Times,serif" font-size="14.00">CrawlLocationCommand</text>
</g>
<!-- CrawlLocationCommand&#45;&gt;LocationModule -->
<g id="edge4" class="edge">
<title>CrawlLocationCommand&#45;&gt;LocationModule</title>
<path fill="none" stroke="black" d="M680.76,-113.22C680.76,-129.81 680.76,-163 680.76,-163 680.76,-163 614.7,-163 614.7,-163"/>
<polygon fill="black" stroke="black" points="614.7,-159.5 604.7,-163 614.7,-166.5 614.7,-159.5"/>
</g>
<!-- LocationCrawlService -->
<g id="node6" class="node">
<title>LocationCrawlService</title>
<ellipse fill="#fdb462" stroke="black" cx="550" cy="-104" rx="97.83" ry="18"/>
<text text-anchor="middle" x="550" y="-99.8" font-family="Times,serif" font-size="14.00">LocationCrawlService</text>
</g>
<!-- LocationCrawlService&#45;&gt;LocationModule -->
<g id="edge5" class="edge">
<title>LocationCrawlService&#45;&gt;LocationModule</title>
<path fill="none" stroke="black" d="M550,-122.11C550,-122.11 550,-140.99 550,-140.99"/>
<polygon fill="black" stroke="black" points="546.5,-140.99 550,-150.99 553.5,-140.99 546.5,-140.99"/>
</g>
<!-- LocationService -->
<g id="node7" class="node">
<title>LocationService</title>
<ellipse fill="#fdb462" stroke="black" cx="360" cy="-104" rx="74.14" ry="18"/>
<text text-anchor="middle" x="360" y="-99.8" font-family="Times,serif" font-size="14.00">LocationService</text>
</g>
<!-- LocationService&#45;&gt;LocationModule -->
<g id="edge6" class="edge">
<title>LocationService&#45;&gt;LocationModule</title>
<path fill="none" stroke="black" d="M427.85,-111.71C427.85,-127.71 427.85,-163 427.85,-163 427.85,-163 485,-163 485,-163"/>
<polygon fill="black" stroke="black" points="485,-166.5 495,-163 485,-159.5 485,-166.5"/>
</g>
<!-- TranslateLocationCommand -->
<g id="node8" class="node">
<title>TranslateLocationCommand</title>
<ellipse fill="#fdb462" stroke="black" cx="146" cy="-104" rx="121.55" ry="18"/>
<text text-anchor="middle" x="146" y="-99.8" font-family="Times,serif" font-size="14.00">TranslateLocationCommand</text>
</g>
<!-- TranslateLocationCommand&#45;&gt;LocationModule -->
<g id="edge7" class="edge">
<title>TranslateLocationCommand&#45;&gt;LocationModule</title>
<path fill="none" stroke="black" d="M146,-122.28C146,-143.32 146,-175 146,-175 146,-175 485.09,-175 485.09,-175"/>
<polygon fill="black" stroke="black" points="485.09,-178.5 495.09,-175 485.09,-171.5 485.09,-178.5"/>
</g>
</g>
</svg>
