<?xml version="1.0" encoding="UTF-8" standalone="no"?>
<!DOCTYPE svg PUBLIC "-//W3C//DTD SVG 1.1//EN"
 "http://www.w3.org/Graphics/SVG/1.1/DTD/svg11.dtd">
<!-- Generated by graphviz version 2.47.0 (20210316.0004)
 -->
<!-- Title: dependencies Pages: 1 -->
<svg width="925pt" height="284pt"
 viewBox="0.00 0.00 925.00 284.00" xmlns="http://www.w3.org/2000/svg" xmlns:xlink="http://www.w3.org/1999/xlink">
<g id="graph0" class="graph" transform="scale(1 1) rotate(0) translate(4 280)">
<title>dependencies</title>
<polygon fill="white" stroke="transparent" points="-4,4 -4,-280 921,-280 921,4 -4,4"/>
<text text-anchor="start" x="437.51" y="-42.4" font-family="Times-12" font-weight="bold" font-size="14.00">Legend</text>
<polygon fill="#ffffb3" stroke="transparent" points="224.5,-10 224.5,-30 244.5,-30 244.5,-10 224.5,-10"/>
<text text-anchor="start" x="248.13" y="-15.4" font-family="Times-12" font-size="14.00"> &#160;Declarations</text>
<polygon fill="#8dd3c7" stroke="transparent" points="337.5,-10 337.5,-30 357.5,-30 357.5,-10 337.5,-10"/>
<text text-anchor="start" x="361.23" y="-15.4" font-family="Times-12" font-size="14.00"> &#160;Module</text>
<polygon fill="#80b1d3" stroke="transparent" points="423.5,-10 423.5,-30 443.5,-30 443.5,-10 423.5,-10"/>
<text text-anchor="start" x="447.28" y="-15.4" font-family="Times-12" font-size="14.00"> &#160;Bootstrap</text>
<polygon fill="#fdb462" stroke="transparent" points="520.5,-10 520.5,-30 540.5,-30 540.5,-10 520.5,-10"/>
<text text-anchor="start" x="544.17" y="-15.4" font-family="Times-12" font-size="14.00"> &#160;Providers</text>
<polygon fill="#fb8072" stroke="transparent" points="616.5,-10 616.5,-30 636.5,-30 636.5,-10 616.5,-10"/>
<text text-anchor="start" x="640.23" y="-15.4" font-family="Times-12" font-size="14.00"> &#160;Exports</text>
<g id="clust1" class="cluster">
<title>cluster_DnaTestingModule</title>
<polygon fill="none" stroke="black" stroke-dasharray="1,5" points="8,-70 8,-268 909,-268 909,-70 8,-70"/>
</g>
<g id="clust4" class="cluster">
<title>cluster_DnaTestingModule_exports</title>
<polygon fill="none" stroke="black" points="391,-208 391,-260 662,-260 662,-208 391,-208"/>
</g>
<g id="clust3" class="cluster">
<title>cluster_DnaTestingModule_imports</title>
<polygon fill="none" stroke="black" points="376,-78 376,-130 901,-130 901,-78 376,-78"/>
</g>
<g id="clust6" class="cluster">
<title>cluster_DnaTestingModule_providers</title>
<polygon fill="none" stroke="black" points="16,-78 16,-130 368,-130 368,-78 16,-78"/>
</g>
<!-- CategoryModule -->
<g id="node1" class="node">
<title>CategoryModule</title>
<polygon fill="#8dd3c7" stroke="black" points="893.37,-122 890.37,-126 869.37,-126 866.37,-122 782.63,-122 782.63,-86 893.37,-86 893.37,-122"/>
<text text-anchor="middle" x="838" y="-99.8" font-family="Times,serif" font-size="14.00">CategoryModule</text>
</g>
<!-- DnaTestingModule -->
<g id="node5" class="node">
<title>DnaTestingModule</title>
<polygon fill="#8dd3c7" stroke="black" points="592.36,-187 589.36,-191 568.36,-191 565.36,-187 467.64,-187 467.64,-151 592.36,-151 592.36,-187"/>
<text text-anchor="middle" x="530" y="-164.8" font-family="Times,serif" font-size="14.00">DnaTestingModule</text>
</g>
<!-- CategoryModule&#45;&gt;DnaTestingModule -->
<g id="edge1" class="edge">
<title>CategoryModule&#45;&gt;DnaTestingModule</title>
<path fill="none" stroke="black" d="M838,-122.28C838,-143.32 838,-175 838,-175 838,-175 602.7,-175 602.7,-175"/>
<polygon fill="black" stroke="black" points="602.7,-171.5 592.7,-175 602.7,-178.5 602.7,-171.5"/>
</g>
<!-- OrderModule -->
<g id="node2" class="node">
<title>OrderModule</title>
<polygon fill="#8dd3c7" stroke="black" points="764.19,-122 761.19,-126 740.19,-126 737.19,-122 671.81,-122 671.81,-86 764.19,-86 764.19,-122"/>
<text text-anchor="middle" x="718" y="-99.8" font-family="Times,serif" font-size="14.00">OrderModule</text>
</g>
<!-- OrderModule&#45;&gt;DnaTestingModule -->
<g id="edge2" class="edge">
<title>OrderModule&#45;&gt;DnaTestingModule</title>
<path fill="none" stroke="black" d="M718,-122.02C718,-139.37 718,-163 718,-163 718,-163 602.6,-163 602.6,-163"/>
<polygon fill="black" stroke="black" points="602.6,-159.5 592.6,-163 602.6,-166.5 602.6,-159.5"/>
</g>
<!-- ProductModule -->
<g id="node3" class="node">
<title>ProductModule</title>
<polygon fill="#8dd3c7" stroke="black" points="653.6,-122 650.6,-126 629.6,-126 626.6,-122 550.4,-122 550.4,-86 653.6,-86 653.6,-122"/>
<text text-anchor="middle" x="602" y="-99.8" font-family="Times,serif" font-size="14.00">ProductModule</text>
</g>
<!-- ProductModule&#45;&gt;DnaTestingModule -->
<g id="edge3" class="edge">
<title>ProductModule&#45;&gt;DnaTestingModule</title>
<path fill="none" stroke="black" d="M571.44,-122.11C571.44,-122.11 571.44,-140.99 571.44,-140.99"/>
<polygon fill="black" stroke="black" points="567.94,-140.99 571.44,-150.99 574.94,-140.99 567.94,-140.99"/>
</g>
<!-- RolePermissionModule -->
<g id="node4" class="node">
<title>RolePermissionModule</title>
<polygon fill="#8dd3c7" stroke="black" points="532.21,-122 529.21,-126 508.21,-126 505.21,-122 383.79,-122 383.79,-86 532.21,-86 532.21,-122"/>
<text text-anchor="middle" x="458" y="-99.8" font-family="Times,serif" font-size="14.00">RolePermissionModule</text>
</g>
<!-- RolePermissionModule&#45;&gt;DnaTestingModule -->
<g id="edge4" class="edge">
<title>RolePermissionModule&#45;&gt;DnaTestingModule</title>
<path fill="none" stroke="black" d="M499.84,-122.11C499.84,-122.11 499.84,-140.99 499.84,-140.99"/>
<polygon fill="black" stroke="black" points="496.34,-140.99 499.84,-150.99 503.34,-140.99 496.34,-140.99"/>
</g>
<!-- DnaRiskService  -->
<g id="node6" class="node">
<title>DnaRiskService </title>
<polygon fill="#fb8072" stroke="black" points="654.47,-252 543.53,-252 543.53,-216 654.47,-216 654.47,-252"/>
<text text-anchor="middle" x="599" y="-229.8" font-family="Times,serif" font-size="14.00">DnaRiskService </text>
</g>
<!-- DnaTestingModule&#45;&gt;DnaRiskService  -->
<g id="edge5" class="edge">
<title>DnaTestingModule&#45;&gt;DnaRiskService </title>
<path fill="none" stroke="black" stroke-dasharray="5,2" d="M568.1,-187.11C568.1,-187.11 568.1,-205.99 568.1,-205.99"/>
<polygon fill="black" stroke="black" points="564.6,-205.99 568.1,-215.99 571.6,-205.99 564.6,-205.99"/>
</g>
<!-- DnaTestingService  -->
<g id="node7" class="node">
<title>DnaTestingService </title>
<polygon fill="#fb8072" stroke="black" points="525.29,-252 398.71,-252 398.71,-216 525.29,-216 525.29,-252"/>
<text text-anchor="middle" x="462" y="-229.8" font-family="Times,serif" font-size="14.00">DnaTestingService </text>
</g>
<!-- DnaTestingModule&#45;&gt;DnaTestingService  -->
<g id="edge6" class="edge">
<title>DnaTestingModule&#45;&gt;DnaTestingService </title>
<path fill="none" stroke="black" stroke-dasharray="5,2" d="M496.48,-187.11C496.48,-187.11 496.48,-205.99 496.48,-205.99"/>
<polygon fill="black" stroke="black" points="492.98,-205.99 496.48,-215.99 499.98,-205.99 492.98,-205.99"/>
</g>
<!-- DnaRiskService -->
<g id="node8" class="node">
<title>DnaRiskService</title>
<ellipse fill="#fdb462" stroke="black" cx="286" cy="-104" rx="73.57" ry="18"/>
<text text-anchor="middle" x="286" y="-99.8" font-family="Times,serif" font-size="14.00">DnaRiskService</text>
</g>
<!-- DnaRiskService&#45;&gt;DnaTestingModule -->
<g id="edge7" class="edge">
<title>DnaRiskService&#45;&gt;DnaTestingModule</title>
<path fill="none" stroke="black" d="M286,-122.02C286,-139.37 286,-163 286,-163 286,-163 457.48,-163 457.48,-163"/>
<polygon fill="black" stroke="black" points="457.48,-166.5 467.48,-163 457.48,-159.5 457.48,-166.5"/>
</g>
<!-- DnaTestingService -->
<g id="node9" class="node">
<title>DnaTestingService</title>
<ellipse fill="#fdb462" stroke="black" cx="109" cy="-104" rx="85.09" ry="18"/>
<text text-anchor="middle" x="109" y="-99.8" font-family="Times,serif" font-size="14.00">DnaTestingService</text>
</g>
<!-- DnaTestingService&#45;&gt;DnaTestingModule -->
<g id="edge8" class="edge">
<title>DnaTestingService&#45;&gt;DnaTestingModule</title>
<path fill="none" stroke="black" d="M109,-122.28C109,-143.32 109,-175 109,-175 109,-175 457.43,-175 457.43,-175"/>
<polygon fill="black" stroke="black" points="457.43,-178.5 467.43,-175 457.43,-171.5 457.43,-178.5"/>
</g>
</g>
</svg>
