<?xml version="1.0" encoding="UTF-8" standalone="no"?>
<!DOCTYPE svg PUBLIC "-//W3C//DTD SVG 1.1//EN"
 "http://www.w3.org/Graphics/SVG/1.1/DTD/svg11.dtd">
<!-- Generated by graphviz version 2.47.0 (20210316.0004)
 -->
<!-- Title: dependencies Pages: 1 -->
<svg width="935pt" height="284pt"
 viewBox="0.00 0.00 935.00 284.00" xmlns="http://www.w3.org/2000/svg" xmlns:xlink="http://www.w3.org/1999/xlink">
<g id="graph0" class="graph" transform="scale(1 1) rotate(0) translate(4 280)">
<title>dependencies</title>
<polygon fill="white" stroke="transparent" points="-4,4 -4,-280 931,-280 931,4 -4,4"/>
<text text-anchor="start" x="442.51" y="-42.4" font-family="Times-12" font-weight="bold" font-size="14.00">Legend</text>
<polygon fill="#ffffb3" stroke="transparent" points="229.5,-10 229.5,-30 249.5,-30 249.5,-10 229.5,-10"/>
<text text-anchor="start" x="253.13" y="-15.4" font-family="Times-12" font-size="14.00"> &#160;Declarations</text>
<polygon fill="#8dd3c7" stroke="transparent" points="342.5,-10 342.5,-30 362.5,-30 362.5,-10 342.5,-10"/>
<text text-anchor="start" x="366.23" y="-15.4" font-family="Times-12" font-size="14.00"> &#160;Module</text>
<polygon fill="#80b1d3" stroke="transparent" points="428.5,-10 428.5,-30 448.5,-30 448.5,-10 428.5,-10"/>
<text text-anchor="start" x="452.28" y="-15.4" font-family="Times-12" font-size="14.00"> &#160;Bootstrap</text>
<polygon fill="#fdb462" stroke="transparent" points="525.5,-10 525.5,-30 545.5,-30 545.5,-10 525.5,-10"/>
<text text-anchor="start" x="549.17" y="-15.4" font-family="Times-12" font-size="14.00"> &#160;Providers</text>
<polygon fill="#fb8072" stroke="transparent" points="621.5,-10 621.5,-30 641.5,-30 641.5,-10 621.5,-10"/>
<text text-anchor="start" x="645.23" y="-15.4" font-family="Times-12" font-size="14.00"> &#160;Exports</text>
<g id="clust1" class="cluster">
<title>cluster_DnaTestingModule</title>
<polygon fill="none" stroke="black" stroke-dasharray="1,5" points="8,-70 8,-268 919,-268 919,-70 8,-70"/>
</g>
<g id="clust4" class="cluster">
<title>cluster_DnaTestingModule_exports</title>
<polygon fill="none" stroke="black" points="391,-208 391,-260 662,-260 662,-208 391,-208"/>
</g>
<g id="clust3" class="cluster">
<title>cluster_DnaTestingModule_imports</title>
<polygon fill="none" stroke="black" points="376,-78 376,-130 911,-130 911,-78 376,-78"/>
</g>
<g id="clust6" class="cluster">
<title>cluster_DnaTestingModule_providers</title>
<polygon fill="none" stroke="black" points="16,-78 16,-130 368,-130 368,-78 16,-78"/>
</g>
<!-- CategoryModule -->
<g id="node1" class="node">
<title>CategoryModule</title>
<polygon fill="#8dd3c7" stroke="black" points="903.37,-122 900.37,-126 879.37,-126 876.37,-122 792.63,-122 792.63,-86 903.37,-86 903.37,-122"/>
<text text-anchor="middle" x="848" y="-99.8" font-family="Times,serif" font-size="14.00">CategoryModule</text>
</g>
<!-- DnaTestingModule -->
<g id="node5" class="node">
<title>DnaTestingModule</title>
<polygon fill="#8dd3c7" stroke="black" points="592.36,-187 589.36,-191 568.36,-191 565.36,-187 467.64,-187 467.64,-151 592.36,-151 592.36,-187"/>
<text text-anchor="middle" x="530" y="-164.8" font-family="Times,serif" font-size="14.00">DnaTestingModule</text>
</g>
<!-- CategoryModule&#45;&gt;DnaTestingModule -->
<g id="edge1" class="edge">
<title>CategoryModule&#45;&gt;DnaTestingModule</title>
<path fill="none" stroke="black" d="M848,-122.28C848,-143.32 848,-175 848,-175 848,-175 602.45,-175 602.45,-175"/>
<polygon fill="black" stroke="black" points="602.45,-171.5 592.45,-175 602.45,-178.5 602.45,-171.5"/>
</g>
<!-- ProductModule -->
<g id="node2" class="node">
<title>ProductModule</title>
<polygon fill="#8dd3c7" stroke="black" points="774.6,-122 771.6,-126 750.6,-126 747.6,-122 671.4,-122 671.4,-86 774.6,-86 774.6,-122"/>
<text text-anchor="middle" x="723" y="-99.8" font-family="Times,serif" font-size="14.00">ProductModule</text>
</g>
<!-- ProductModule&#45;&gt;DnaTestingModule -->
<g id="edge2" class="edge">
<title>ProductModule&#45;&gt;DnaTestingModule</title>
<path fill="none" stroke="black" d="M723,-122.02C723,-139.37 723,-163 723,-163 723,-163 602.4,-163 602.4,-163"/>
<polygon fill="black" stroke="black" points="602.4,-159.5 592.4,-163 602.4,-166.5 602.4,-159.5"/>
</g>
<!-- QrCodeModule -->
<g id="node3" class="node">
<title>QrCodeModule</title>
<polygon fill="#8dd3c7" stroke="black" points="653.87,-122 650.87,-126 629.87,-126 626.87,-122 550.13,-122 550.13,-86 653.87,-86 653.87,-122"/>
<text text-anchor="middle" x="602" y="-99.8" font-family="Times,serif" font-size="14.00">QrCodeModule</text>
</g>
<!-- QrCodeModule&#45;&gt;DnaTestingModule -->
<g id="edge3" class="edge">
<title>QrCodeModule&#45;&gt;DnaTestingModule</title>
<path fill="none" stroke="black" d="M571.25,-122.11C571.25,-122.11 571.25,-140.99 571.25,-140.99"/>
<polygon fill="black" stroke="black" points="567.75,-140.99 571.25,-150.99 574.75,-140.99 567.75,-140.99"/>
</g>
<!-- RolePermissionModule -->
<g id="node4" class="node">
<title>RolePermissionModule</title>
<polygon fill="#8dd3c7" stroke="black" points="532.21,-122 529.21,-126 508.21,-126 505.21,-122 383.79,-122 383.79,-86 532.21,-86 532.21,-122"/>
<text text-anchor="middle" x="458" y="-99.8" font-family="Times,serif" font-size="14.00">RolePermissionModule</text>
</g>
<!-- RolePermissionModule&#45;&gt;DnaTestingModule -->
<g id="edge4" class="edge">
<title>RolePermissionModule&#45;&gt;DnaTestingModule</title>
<path fill="none" stroke="black" d="M499.84,-122.11C499.84,-122.11 499.84,-140.99 499.84,-140.99"/>
<polygon fill="black" stroke="black" points="496.34,-140.99 499.84,-150.99 503.34,-140.99 496.34,-140.99"/>
</g>
<!-- DnaRiskService  -->
<g id="node6" class="node">
<title>DnaRiskService </title>
<polygon fill="#fb8072" stroke="black" points="654.47,-252 543.53,-252 543.53,-216 654.47,-216 654.47,-252"/>
<text text-anchor="middle" x="599" y="-229.8" font-family="Times,serif" font-size="14.00">DnaRiskService </text>
</g>
<!-- DnaTestingModule&#45;&gt;DnaRiskService  -->
<g id="edge5" class="edge">
<title>DnaTestingModule&#45;&gt;DnaRiskService </title>
<path fill="none" stroke="black" stroke-dasharray="5,2" d="M568.1,-187.11C568.1,-187.11 568.1,-205.99 568.1,-205.99"/>
<polygon fill="black" stroke="black" points="564.6,-205.99 568.1,-215.99 571.6,-205.99 564.6,-205.99"/>
</g>
<!-- DnaTestingService  -->
<g id="node7" class="node">
<title>DnaTestingService </title>
<polygon fill="#fb8072" stroke="black" points="525.29,-252 398.71,-252 398.71,-216 525.29,-216 525.29,-252"/>
<text text-anchor="middle" x="462" y="-229.8" font-family="Times,serif" font-size="14.00">DnaTestingService </text>
</g>
<!-- DnaTestingModule&#45;&gt;DnaTestingService  -->
<g id="edge6" class="edge">
<title>DnaTestingModule&#45;&gt;DnaTestingService </title>
<path fill="none" stroke="black" stroke-dasharray="5,2" d="M496.48,-187.11C496.48,-187.11 496.48,-205.99 496.48,-205.99"/>
<polygon fill="black" stroke="black" points="492.98,-205.99 496.48,-215.99 499.98,-205.99 492.98,-205.99"/>
</g>
<!-- DnaRiskService -->
<g id="node8" class="node">
<title>DnaRiskService</title>
<ellipse fill="#fdb462" stroke="black" cx="286" cy="-104" rx="73.57" ry="18"/>
<text text-anchor="middle" x="286" y="-99.8" font-family="Times,serif" font-size="14.00">DnaRiskService</text>
</g>
<!-- DnaRiskService&#45;&gt;DnaTestingModule -->
<g id="edge7" class="edge">
<title>DnaRiskService&#45;&gt;DnaTestingModule</title>
<path fill="none" stroke="black" d="M286,-122.02C286,-139.37 286,-163 286,-163 286,-163 457.48,-163 457.48,-163"/>
<polygon fill="black" stroke="black" points="457.48,-166.5 467.48,-163 457.48,-159.5 457.48,-166.5"/>
</g>
<!-- DnaTestingService -->
<g id="node9" class="node">
<title>DnaTestingService</title>
<ellipse fill="#fdb462" stroke="black" cx="109" cy="-104" rx="85.09" ry="18"/>
<text text-anchor="middle" x="109" y="-99.8" font-family="Times,serif" font-size="14.00">DnaTestingService</text>
</g>
<!-- DnaTestingService&#45;&gt;DnaTestingModule -->
<g id="edge8" class="edge">
<title>DnaTestingService&#45;&gt;DnaTestingModule</title>
<path fill="none" stroke="black" d="M109,-122.28C109,-143.32 109,-175 109,-175 109,-175 457.43,-175 457.43,-175"/>
<polygon fill="black" stroke="black" points="457.43,-178.5 467.43,-175 457.43,-171.5 457.43,-178.5"/>
</g>
</g>
</svg>
