<?xml version="1.0" encoding="UTF-8" standalone="no"?>
<!DOCTYPE svg PUBLIC "-//W3C//DTD SVG 1.1//EN"
 "http://www.w3.org/Graphics/SVG/1.1/DTD/svg11.dtd">
<!-- Generated by graphviz version 2.47.0 (20210316.0004)
 -->
<!-- Title: dependencies Pages: 1 -->
<svg width="504pt" height="284pt"
 viewBox="0.00 0.00 504.00 284.00" xmlns="http://www.w3.org/2000/svg" xmlns:xlink="http://www.w3.org/1999/xlink">
<g id="graph0" class="graph" transform="scale(1 1) rotate(0) translate(4 280)">
<title>dependencies</title>
<polygon fill="white" stroke="transparent" points="-4,4 -4,-280 500,-280 500,4 -4,4"/>
<text text-anchor="start" x="227.01" y="-42.4" font-family="Times-12" font-weight="bold" font-size="14.00">Legend</text>
<polygon fill="#ffffb3" stroke="transparent" points="14,-10 14,-30 34,-30 34,-10 14,-10"/>
<text text-anchor="start" x="37.63" y="-15.4" font-family="Times-12" font-size="14.00"> &#160;Declarations</text>
<polygon fill="#8dd3c7" stroke="transparent" points="127,-10 127,-30 147,-30 147,-10 127,-10"/>
<text text-anchor="start" x="150.73" y="-15.4" font-family="Times-12" font-size="14.00"> &#160;Module</text>
<polygon fill="#80b1d3" stroke="transparent" points="213,-10 213,-30 233,-30 233,-10 213,-10"/>
<text text-anchor="start" x="236.78" y="-15.4" font-family="Times-12" font-size="14.00"> &#160;Bootstrap</text>
<polygon fill="#fdb462" stroke="transparent" points="310,-10 310,-30 330,-30 330,-10 310,-10"/>
<text text-anchor="start" x="333.67" y="-15.4" font-family="Times-12" font-size="14.00"> &#160;Providers</text>
<polygon fill="#fb8072" stroke="transparent" points="406,-10 406,-30 426,-30 426,-10 406,-10"/>
<text text-anchor="start" x="429.73" y="-15.4" font-family="Times-12" font-size="14.00"> &#160;Exports</text>
<g id="clust1" class="cluster">
<title>cluster_FileModule</title>
<polygon fill="none" stroke="black" stroke-dasharray="1,5" points="91,-70 91,-268 405,-268 405,-70 91,-70"/>
</g>
<g id="clust4" class="cluster">
<title>cluster_FileModule_exports</title>
<polygon fill="none" stroke="black" points="188,-208 188,-260 288,-260 288,-208 188,-208"/>
</g>
<g id="clust3" class="cluster">
<title>cluster_FileModule_imports</title>
<polygon fill="none" stroke="black" points="233,-78 233,-130 397,-130 397,-78 233,-78"/>
</g>
<g id="clust6" class="cluster">
<title>cluster_FileModule_providers</title>
<polygon fill="none" stroke="black" points="99,-78 99,-130 225,-130 225,-78 99,-78"/>
</g>
<!-- RolePermissionModule -->
<g id="node1" class="node">
<title>RolePermissionModule</title>
<polygon fill="#8dd3c7" stroke="black" points="389.21,-122 386.21,-126 365.21,-126 362.21,-122 240.79,-122 240.79,-86 389.21,-86 389.21,-122"/>
<text text-anchor="middle" x="315" y="-99.8" font-family="Times,serif" font-size="14.00">RolePermissionModule</text>
</g>
<!-- FileModule -->
<g id="node2" class="node">
<title>FileModule</title>
<polygon fill="#8dd3c7" stroke="black" points="278.83,-187 275.83,-191 254.83,-191 251.83,-187 197.17,-187 197.17,-151 278.83,-151 278.83,-187"/>
<text text-anchor="middle" x="238" y="-164.8" font-family="Times,serif" font-size="14.00">FileModule</text>
</g>
<!-- RolePermissionModule&#45;&gt;FileModule -->
<g id="edge1" class="edge">
<title>RolePermissionModule&#45;&gt;FileModule</title>
<path fill="none" stroke="black" d="M259.78,-122.11C259.78,-122.11 259.78,-140.99 259.78,-140.99"/>
<polygon fill="black" stroke="black" points="256.28,-140.99 259.78,-150.99 263.28,-140.99 256.28,-140.99"/>
</g>
<!-- FileService  -->
<g id="node3" class="node">
<title>FileService </title>
<polygon fill="#fb8072" stroke="black" points="279.76,-252 196.24,-252 196.24,-216 279.76,-216 279.76,-252"/>
<text text-anchor="middle" x="238" y="-229.8" font-family="Times,serif" font-size="14.00">FileService </text>
</g>
<!-- FileModule&#45;&gt;FileService  -->
<g id="edge2" class="edge">
<title>FileModule&#45;&gt;FileService </title>
<path fill="none" stroke="black" stroke-dasharray="5,2" d="M238,-187.11C238,-187.11 238,-205.99 238,-205.99"/>
<polygon fill="black" stroke="black" points="234.5,-205.99 238,-215.99 241.5,-205.99 234.5,-205.99"/>
</g>
<!-- FileService -->
<g id="node4" class="node">
<title>FileService</title>
<ellipse fill="#fdb462" stroke="black" cx="162" cy="-104" rx="55.03" ry="18"/>
<text text-anchor="middle" x="162" y="-99.8" font-family="Times,serif" font-size="14.00">FileService</text>
</g>
<!-- FileService&#45;&gt;FileModule -->
<g id="edge3" class="edge">
<title>FileService&#45;&gt;FileModule</title>
<path fill="none" stroke="black" d="M207.18,-114.44C207.18,-114.44 207.18,-140.97 207.18,-140.97"/>
<polygon fill="black" stroke="black" points="203.68,-140.97 207.18,-150.97 210.68,-140.97 203.68,-140.97"/>
</g>
</g>
</svg>
