<?xml version="1.0" encoding="UTF-8" standalone="no"?>
<!DOCTYPE svg PUBLIC "-//W3C//DTD SVG 1.1//EN"
 "http://www.w3.org/Graphics/SVG/1.1/DTD/svg11.dtd">
<!-- Generated by graphviz version 2.47.0 (20210316.0004)
 -->
<!-- Title: dependencies Pages: 1 -->
<svg width="2229pt" height="284pt"
 viewBox="0.00 0.00 2229.00 284.00" xmlns="http://www.w3.org/2000/svg" xmlns:xlink="http://www.w3.org/1999/xlink">
<g id="graph0" class="graph" transform="scale(1 1) rotate(0) translate(4 280)">
<title>dependencies</title>
<polygon fill="white" stroke="transparent" points="-4,4 -4,-280 2225,-280 2225,4 -4,4"/>
<text text-anchor="start" x="1089.51" y="-42.4" font-family="Times-12" font-weight="bold" font-size="14.00">Legend</text>
<polygon fill="#ffffb3" stroke="transparent" points="876.5,-10 876.5,-30 896.5,-30 896.5,-10 876.5,-10"/>
<text text-anchor="start" x="900.13" y="-15.4" font-family="Times-12" font-size="14.00"> &#160;Declarations</text>
<polygon fill="#8dd3c7" stroke="transparent" points="989.5,-10 989.5,-30 1009.5,-30 1009.5,-10 989.5,-10"/>
<text text-anchor="start" x="1013.23" y="-15.4" font-family="Times-12" font-size="14.00"> &#160;Module</text>
<polygon fill="#80b1d3" stroke="transparent" points="1075.5,-10 1075.5,-30 1095.5,-30 1095.5,-10 1075.5,-10"/>
<text text-anchor="start" x="1099.28" y="-15.4" font-family="Times-12" font-size="14.00"> &#160;Bootstrap</text>
<polygon fill="#fdb462" stroke="transparent" points="1172.5,-10 1172.5,-30 1192.5,-30 1192.5,-10 1172.5,-10"/>
<text text-anchor="start" x="1196.17" y="-15.4" font-family="Times-12" font-size="14.00"> &#160;Providers</text>
<polygon fill="#fb8072" stroke="transparent" points="1268.5,-10 1268.5,-30 1288.5,-30 1288.5,-10 1268.5,-10"/>
<text text-anchor="start" x="1292.23" y="-15.4" font-family="Times-12" font-size="14.00"> &#160;Exports</text>
<g id="clust1" class="cluster">
<title>cluster_PdfExportModule</title>
<polygon fill="none" stroke="black" stroke-dasharray="1,5" points="8,-70 8,-268 2213,-268 2213,-70 8,-70"/>
</g>
<g id="clust6" class="cluster">
<title>cluster_PdfExportModule_providers</title>
<polygon fill="none" stroke="black" points="1741,-78 1741,-130 2205,-130 2205,-78 1741,-78"/>
</g>
<g id="clust4" class="cluster">
<title>cluster_PdfExportModule_exports</title>
<polygon fill="none" stroke="black" points="852,-208 852,-260 1205,-260 1205,-208 852,-208"/>
</g>
<g id="clust3" class="cluster">
<title>cluster_PdfExportModule_imports</title>
<polygon fill="none" stroke="black" points="16,-78 16,-130 1733,-130 1733,-78 16,-78"/>
</g>
<!-- CategoryModule -->
<g id="node1" class="node">
<title>CategoryModule</title>
<polygon fill="#8dd3c7" stroke="black" points="1725.37,-122 1722.37,-126 1701.37,-126 1698.37,-122 1614.63,-122 1614.63,-86 1725.37,-86 1725.37,-122"/>
<text text-anchor="middle" x="1670" y="-99.8" font-family="Times,serif" font-size="14.00">CategoryModule</text>
</g>
<!-- PdfExportModule -->
<g id="node13" class="node">
<title>PdfExportModule</title>
<polygon fill="#8dd3c7" stroke="black" points="1106.6,-187 1103.6,-191 1082.6,-191 1079.6,-187 989.4,-187 989.4,-151 1106.6,-151 1106.6,-187"/>
<text text-anchor="middle" x="1048" y="-164.8" font-family="Times,serif" font-size="14.00">PdfExportModule</text>
</g>
<!-- CategoryModule&#45;&gt;PdfExportModule -->
<g id="edge1" class="edge">
<title>CategoryModule&#45;&gt;PdfExportModule</title>
<path fill="none" stroke="black" d="M1670,-122.22C1670,-142.37 1670,-172 1670,-172 1670,-172 1116.8,-172 1116.8,-172"/>
<polygon fill="black" stroke="black" points="1116.8,-168.5 1106.8,-172 1116.8,-175.5 1116.8,-168.5"/>
</g>
<!-- CommodityRiskModule -->
<g id="node2" class="node">
<title>CommodityRiskModule</title>
<polygon fill="#8dd3c7" stroke="black" points="1597.12,-122 1594.12,-126 1573.12,-126 1570.12,-122 1444.88,-122 1444.88,-86 1597.12,-86 1597.12,-122"/>
<text text-anchor="middle" x="1521" y="-99.8" font-family="Times,serif" font-size="14.00">CommodityRiskModule</text>
</g>
<!-- CommodityRiskModule&#45;&gt;PdfExportModule -->
<g id="edge2" class="edge">
<title>CommodityRiskModule&#45;&gt;PdfExportModule</title>
<path fill="none" stroke="black" d="M1521,-122.22C1521,-140.83 1521,-167 1521,-167 1521,-167 1116.95,-167 1116.95,-167"/>
<polygon fill="black" stroke="black" points="1116.95,-163.5 1106.95,-167 1116.95,-170.5 1116.95,-163.5"/>
</g>
<!-- EventModule -->
<g id="node3" class="node">
<title>EventModule</title>
<polygon fill="#8dd3c7" stroke="black" points="1427.21,-122 1424.21,-126 1403.21,-126 1400.21,-122 1334.79,-122 1334.79,-86 1427.21,-86 1427.21,-122"/>
<text text-anchor="middle" x="1381" y="-99.8" font-family="Times,serif" font-size="14.00">EventModule</text>
</g>
<!-- EventModule&#45;&gt;PdfExportModule -->
<g id="edge3" class="edge">
<title>EventModule&#45;&gt;PdfExportModule</title>
<path fill="none" stroke="black" d="M1381,-122.03C1381,-139.06 1381,-162 1381,-162 1381,-162 1116.77,-162 1116.77,-162"/>
<polygon fill="black" stroke="black" points="1116.77,-158.5 1106.77,-162 1116.77,-165.5 1116.77,-158.5"/>
</g>
<!-- FacilityModule -->
<g id="node4" class="node">
<title>FacilityModule</title>
<polygon fill="#8dd3c7" stroke="black" points="1317.32,-122 1314.32,-126 1293.32,-126 1290.32,-122 1214.68,-122 1214.68,-86 1317.32,-86 1317.32,-122"/>
<text text-anchor="middle" x="1266" y="-99.8" font-family="Times,serif" font-size="14.00">FacilityModule</text>
</g>
<!-- FacilityModule&#45;&gt;PdfExportModule -->
<g id="edge4" class="edge">
<title>FacilityModule&#45;&gt;PdfExportModule</title>
<path fill="none" stroke="black" d="M1266,-122.24C1266,-137.57 1266,-157 1266,-157 1266,-157 1116.71,-157 1116.71,-157"/>
<polygon fill="black" stroke="black" points="1116.71,-153.5 1106.71,-157 1116.71,-160.5 1116.71,-153.5"/>
</g>
<!-- GrievanceReportModule -->
<g id="node5" class="node">
<title>GrievanceReportModule</title>
<polygon fill="#8dd3c7" stroke="black" points="1196.67,-122 1193.67,-126 1172.67,-126 1169.67,-122 1041.33,-122 1041.33,-86 1196.67,-86 1196.67,-122"/>
<text text-anchor="middle" x="1119" y="-99.8" font-family="Times,serif" font-size="14.00">GrievanceReportModule</text>
</g>
<!-- GrievanceReportModule&#45;&gt;PdfExportModule -->
<g id="edge5" class="edge">
<title>GrievanceReportModule&#45;&gt;PdfExportModule</title>
<path fill="none" stroke="black" d="M1073.98,-122.11C1073.98,-122.11 1073.98,-140.99 1073.98,-140.99"/>
<polygon fill="black" stroke="black" points="1070.48,-140.99 1073.98,-150.99 1077.48,-140.99 1070.48,-140.99"/>
</g>
<!-- OrderModule -->
<g id="node6" class="node">
<title>OrderModule</title>
<polygon fill="#8dd3c7" stroke="black" points="1023.19,-122 1020.19,-126 999.19,-126 996.19,-122 930.81,-122 930.81,-86 1023.19,-86 1023.19,-122"/>
<text text-anchor="middle" x="977" y="-99.8" font-family="Times,serif" font-size="14.00">OrderModule</text>
</g>
<!-- OrderModule&#45;&gt;PdfExportModule -->
<g id="edge6" class="edge">
<title>OrderModule&#45;&gt;PdfExportModule</title>
<path fill="none" stroke="black" d="M1006.27,-122.11C1006.27,-122.11 1006.27,-140.99 1006.27,-140.99"/>
<polygon fill="black" stroke="black" points="1002.77,-140.99 1006.27,-150.99 1009.77,-140.99 1002.77,-140.99"/>
</g>
<!-- ProductModule -->
<g id="node7" class="node">
<title>ProductModule</title>
<polygon fill="#8dd3c7" stroke="black" points="912.6,-122 909.6,-126 888.6,-126 885.6,-122 809.4,-122 809.4,-86 912.6,-86 912.6,-122"/>
<text text-anchor="middle" x="861" y="-99.8" font-family="Times,serif" font-size="14.00">ProductModule</text>
</g>
<!-- ProductModule&#45;&gt;PdfExportModule -->
<g id="edge7" class="edge">
<title>ProductModule&#45;&gt;PdfExportModule</title>
<path fill="none" stroke="black" d="M886.31,-122.24C886.31,-137.57 886.31,-157 886.31,-157 886.31,-157 979.17,-157 979.17,-157"/>
<polygon fill="black" stroke="black" points="979.17,-160.5 989.17,-157 979.17,-153.5 979.17,-160.5"/>
</g>
<!-- RiskAssessmentModule -->
<g id="node8" class="node">
<title>RiskAssessmentModule</title>
<polygon fill="#8dd3c7" stroke="black" points="791.82,-122 788.82,-126 767.82,-126 764.82,-122 640.18,-122 640.18,-86 791.82,-86 791.82,-122"/>
<text text-anchor="middle" x="716" y="-99.8" font-family="Times,serif" font-size="14.00">RiskAssessmentModule</text>
</g>
<!-- RiskAssessmentModule&#45;&gt;PdfExportModule -->
<g id="edge8" class="edge">
<title>RiskAssessmentModule&#45;&gt;PdfExportModule</title>
<path fill="none" stroke="black" d="M716,-122.03C716,-139.06 716,-162 716,-162 716,-162 979.41,-162 979.41,-162"/>
<polygon fill="black" stroke="black" points="979.41,-165.5 989.41,-162 979.41,-158.5 979.41,-165.5"/>
</g>
<!-- RolePermissionModule -->
<g id="node9" class="node">
<title>RolePermissionModule</title>
<polygon fill="#8dd3c7" stroke="black" points="622.21,-122 619.21,-126 598.21,-126 595.21,-122 473.79,-122 473.79,-86 622.21,-86 622.21,-122"/>
<text text-anchor="middle" x="548" y="-99.8" font-family="Times,serif" font-size="14.00">RolePermissionModule</text>
</g>
<!-- RolePermissionModule&#45;&gt;PdfExportModule -->
<g id="edge9" class="edge">
<title>RolePermissionModule&#45;&gt;PdfExportModule</title>
<path fill="none" stroke="black" d="M548,-122.22C548,-140.83 548,-167 548,-167 548,-167 979.17,-167 979.17,-167"/>
<polygon fill="black" stroke="black" points="979.17,-170.5 989.17,-167 979.17,-163.5 979.17,-170.5"/>
</g>
<!-- SelfAssessmentModule -->
<g id="node10" class="node">
<title>SelfAssessmentModule</title>
<polygon fill="#8dd3c7" stroke="black" points="456.19,-122 453.19,-126 432.19,-126 429.19,-122 307.81,-122 307.81,-86 456.19,-86 456.19,-122"/>
<text text-anchor="middle" x="382" y="-99.8" font-family="Times,serif" font-size="14.00">SelfAssessmentModule</text>
</g>
<!-- SelfAssessmentModule&#45;&gt;PdfExportModule -->
<g id="edge10" class="edge">
<title>SelfAssessmentModule&#45;&gt;PdfExportModule</title>
<path fill="none" stroke="black" d="M382,-122.22C382,-142.37 382,-172 382,-172 382,-172 979.19,-172 979.19,-172"/>
<polygon fill="black" stroke="black" points="979.19,-175.5 989.19,-172 979.19,-168.5 979.19,-175.5"/>
</g>
<!-- SiteDetailModule -->
<g id="node11" class="node">
<title>SiteDetailModule</title>
<polygon fill="#8dd3c7" stroke="black" points="289.54,-122 286.54,-126 265.54,-126 262.54,-122 174.46,-122 174.46,-86 289.54,-86 289.54,-122"/>
<text text-anchor="middle" x="232" y="-99.8" font-family="Times,serif" font-size="14.00">SiteDetailModule</text>
</g>
<!-- SiteDetailModule&#45;&gt;PdfExportModule -->
<g id="edge11" class="edge">
<title>SiteDetailModule&#45;&gt;PdfExportModule</title>
<path fill="none" stroke="black" d="M232,-122.04C232,-143.66 232,-177 232,-177 232,-177 979.32,-177 979.32,-177"/>
<polygon fill="black" stroke="black" points="979.32,-180.5 989.32,-177 979.32,-173.5 979.32,-180.5"/>
</g>
<!-- SupplyChainModule -->
<g id="node12" class="node">
<title>SupplyChainModule</title>
<polygon fill="#8dd3c7" stroke="black" points="156.17,-122 153.17,-126 132.17,-126 129.17,-122 23.83,-122 23.83,-86 156.17,-86 156.17,-122"/>
<text text-anchor="middle" x="90" y="-99.8" font-family="Times,serif" font-size="14.00">SupplyChainModule</text>
</g>
<!-- SupplyChainModule&#45;&gt;PdfExportModule -->
<g id="edge12" class="edge">
<title>SupplyChainModule&#45;&gt;PdfExportModule</title>
<path fill="none" stroke="black" d="M90,-122.09C90,-145.13 90,-182 90,-182 90,-182 979.16,-182 979.16,-182"/>
<polygon fill="black" stroke="black" points="979.16,-185.5 989.16,-182 979.16,-178.5 979.16,-185.5"/>
</g>
<!-- PdfExportService  -->
<g id="node14" class="node">
<title>PdfExportService </title>
<polygon fill="#fb8072" stroke="black" points="1196.52,-252 1077.48,-252 1077.48,-216 1196.52,-216 1196.52,-252"/>
<text text-anchor="middle" x="1137" y="-229.8" font-family="Times,serif" font-size="14.00">PdfExportService </text>
</g>
<!-- PdfExportModule&#45;&gt;PdfExportService  -->
<g id="edge13" class="edge">
<title>PdfExportModule&#45;&gt;PdfExportService </title>
<path fill="none" stroke="black" stroke-dasharray="5,2" d="M1092.02,-187.11C1092.02,-187.11 1092.02,-205.99 1092.02,-205.99"/>
<polygon fill="black" stroke="black" points="1088.52,-205.99 1092.02,-215.99 1095.52,-205.99 1088.52,-205.99"/>
</g>
<!-- PdfExportTracingObjectService  -->
<g id="node15" class="node">
<title>PdfExportTracingObjectService </title>
<polygon fill="#fb8072" stroke="black" points="1059.87,-252 860.13,-252 860.13,-216 1059.87,-216 1059.87,-252"/>
<text text-anchor="middle" x="960" y="-229.8" font-family="Times,serif" font-size="14.00">PdfExportTracingObjectService </text>
</g>
<!-- PdfExportModule&#45;&gt;PdfExportTracingObjectService  -->
<g id="edge14" class="edge">
<title>PdfExportModule&#45;&gt;PdfExportTracingObjectService </title>
<path fill="none" stroke="black" stroke-dasharray="5,2" d="M1024.69,-187.11C1024.69,-187.11 1024.69,-205.99 1024.69,-205.99"/>
<polygon fill="black" stroke="black" points="1021.19,-205.99 1024.69,-215.99 1028.19,-205.99 1021.19,-205.99"/>
</g>
<!-- PdfExportService -->
<g id="node16" class="node">
<title>PdfExportService</title>
<ellipse fill="#fdb462" stroke="black" cx="2117" cy="-104" rx="79.87" ry="18"/>
<text text-anchor="middle" x="2117" y="-99.8" font-family="Times,serif" font-size="14.00">PdfExportService</text>
</g>
<!-- PdfExportService&#45;&gt;PdfExportModule -->
<g id="edge15" class="edge">
<title>PdfExportService&#45;&gt;PdfExportModule</title>
<path fill="none" stroke="black" d="M2117,-122.09C2117,-145.13 2117,-182 2117,-182 2117,-182 1116.61,-182 1116.61,-182"/>
<polygon fill="black" stroke="black" points="1116.61,-178.5 1106.61,-182 1116.61,-185.5 1116.61,-178.5"/>
</g>
<!-- PdfExportTracingObjectService -->
<g id="node17" class="node">
<title>PdfExportTracingObjectService</title>
<ellipse fill="#fdb462" stroke="black" cx="1884" cy="-104" rx="135.41" ry="18"/>
<text text-anchor="middle" x="1884" y="-99.8" font-family="Times,serif" font-size="14.00">PdfExportTracingObjectService</text>
</g>
<!-- PdfExportTracingObjectService&#45;&gt;PdfExportModule -->
<g id="edge16" class="edge">
<title>PdfExportTracingObjectService&#45;&gt;PdfExportModule</title>
<path fill="none" stroke="black" d="M1884,-122.04C1884,-143.66 1884,-177 1884,-177 1884,-177 1116.79,-177 1116.79,-177"/>
<polygon fill="black" stroke="black" points="1116.79,-173.5 1106.79,-177 1116.79,-180.5 1116.79,-173.5"/>
</g>
</g>
</svg>
