<?xml version="1.0" encoding="UTF-8" standalone="no"?>
<!DOCTYPE svg PUBLIC "-//W3C//DTD SVG 1.1//EN"
 "http://www.w3.org/Graphics/SVG/1.1/DTD/svg11.dtd">
<!-- Generated by graphviz version 2.47.0 (20210316.0004)
 -->
<!-- Title: dependencies Pages: 1 -->
<svg width="1797pt" height="284pt"
 viewBox="0.00 0.00 1797.00 284.00" xmlns="http://www.w3.org/2000/svg" xmlns:xlink="http://www.w3.org/1999/xlink">
<g id="graph0" class="graph" transform="scale(1 1) rotate(0) translate(4 280)">
<title>dependencies</title>
<polygon fill="white" stroke="transparent" points="-4,4 -4,-280 1793,-280 1793,4 -4,4"/>
<text text-anchor="start" x="873.51" y="-42.4" font-family="Times-12" font-weight="bold" font-size="14.00">Legend</text>
<polygon fill="#ffffb3" stroke="transparent" points="660.5,-10 660.5,-30 680.5,-30 680.5,-10 660.5,-10"/>
<text text-anchor="start" x="684.13" y="-15.4" font-family="Times-12" font-size="14.00"> &#160;Declarations</text>
<polygon fill="#8dd3c7" stroke="transparent" points="773.5,-10 773.5,-30 793.5,-30 793.5,-10 773.5,-10"/>
<text text-anchor="start" x="797.23" y="-15.4" font-family="Times-12" font-size="14.00"> &#160;Module</text>
<polygon fill="#80b1d3" stroke="transparent" points="859.5,-10 859.5,-30 879.5,-30 879.5,-10 859.5,-10"/>
<text text-anchor="start" x="883.28" y="-15.4" font-family="Times-12" font-size="14.00"> &#160;Bootstrap</text>
<polygon fill="#fdb462" stroke="transparent" points="956.5,-10 956.5,-30 976.5,-30 976.5,-10 956.5,-10"/>
<text text-anchor="start" x="980.17" y="-15.4" font-family="Times-12" font-size="14.00"> &#160;Providers</text>
<polygon fill="#fb8072" stroke="transparent" points="1052.5,-10 1052.5,-30 1072.5,-30 1072.5,-10 1052.5,-10"/>
<text text-anchor="start" x="1076.23" y="-15.4" font-family="Times-12" font-size="14.00"> &#160;Exports</text>
<g id="clust1" class="cluster">
<title>cluster_PdfExportModule</title>
<polygon fill="none" stroke="black" stroke-dasharray="1,5" points="8,-70 8,-268 1781,-268 1781,-70 8,-70"/>
</g>
<g id="clust6" class="cluster">
<title>cluster_PdfExportModule_providers</title>
<polygon fill="none" stroke="black" points="1309,-78 1309,-130 1773,-130 1773,-78 1309,-78"/>
</g>
<g id="clust4" class="cluster">
<title>cluster_PdfExportModule_exports</title>
<polygon fill="none" stroke="black" points="647,-208 647,-260 1000,-260 1000,-208 647,-208"/>
</g>
<g id="clust3" class="cluster">
<title>cluster_PdfExportModule_imports</title>
<polygon fill="none" stroke="black" points="16,-78 16,-130 1301,-130 1301,-78 16,-78"/>
</g>
<!-- EventModule -->
<g id="node1" class="node">
<title>EventModule</title>
<polygon fill="#8dd3c7" stroke="black" points="1293.21,-122 1290.21,-126 1269.21,-126 1266.21,-122 1200.79,-122 1200.79,-86 1293.21,-86 1293.21,-122"/>
<text text-anchor="middle" x="1247" y="-99.8" font-family="Times,serif" font-size="14.00">EventModule</text>
</g>
<!-- PdfExportModule -->
<g id="node10" class="node">
<title>PdfExportModule</title>
<polygon fill="#8dd3c7" stroke="black" points="901.6,-187 898.6,-191 877.6,-191 874.6,-187 784.4,-187 784.4,-151 901.6,-151 901.6,-187"/>
<text text-anchor="middle" x="843" y="-164.8" font-family="Times,serif" font-size="14.00">PdfExportModule</text>
</g>
<!-- EventModule&#45;&gt;PdfExportModule -->
<g id="edge1" class="edge">
<title>EventModule&#45;&gt;PdfExportModule</title>
<path fill="none" stroke="black" d="M1247,-122.27C1247,-140.56 1247,-166 1247,-166 1247,-166 911.75,-166 911.75,-166"/>
<polygon fill="black" stroke="black" points="911.75,-162.5 901.75,-166 911.75,-169.5 911.75,-162.5"/>
</g>
<!-- FacilityModule -->
<g id="node2" class="node">
<title>FacilityModule</title>
<polygon fill="#8dd3c7" stroke="black" points="1183.32,-122 1180.32,-126 1159.32,-126 1156.32,-122 1080.68,-122 1080.68,-86 1183.32,-86 1183.32,-122"/>
<text text-anchor="middle" x="1132" y="-99.8" font-family="Times,serif" font-size="14.00">FacilityModule</text>
</g>
<!-- FacilityModule&#45;&gt;PdfExportModule -->
<g id="edge2" class="edge">
<title>FacilityModule&#45;&gt;PdfExportModule</title>
<path fill="none" stroke="black" d="M1132,-122.01C1132,-138.05 1132,-159 1132,-159 1132,-159 911.83,-159 911.83,-159"/>
<polygon fill="black" stroke="black" points="911.83,-155.5 901.83,-159 911.83,-162.5 911.83,-155.5"/>
</g>
<!-- GrievanceReportModule -->
<g id="node3" class="node">
<title>GrievanceReportModule</title>
<polygon fill="#8dd3c7" stroke="black" points="1062.67,-122 1059.67,-126 1038.67,-126 1035.67,-122 907.33,-122 907.33,-86 1062.67,-86 1062.67,-122"/>
<text text-anchor="middle" x="985" y="-99.8" font-family="Times,serif" font-size="14.00">GrievanceReportModule</text>
</g>
<!-- GrievanceReportModule&#45;&gt;PdfExportModule -->
<g id="edge3" class="edge">
<title>GrievanceReportModule&#45;&gt;PdfExportModule</title>
<path fill="none" stroke="black" d="M907.05,-104C899.93,-104 895.32,-104 895.32,-104 895.32,-104 895.32,-140.89 895.32,-140.89"/>
<polygon fill="black" stroke="black" points="891.82,-140.89 895.32,-150.89 898.82,-140.89 891.82,-140.89"/>
</g>
<!-- OrderModule -->
<g id="node4" class="node">
<title>OrderModule</title>
<polygon fill="#8dd3c7" stroke="black" points="889.19,-122 886.19,-126 865.19,-126 862.19,-122 796.81,-122 796.81,-86 889.19,-86 889.19,-122"/>
<text text-anchor="middle" x="843" y="-99.8" font-family="Times,serif" font-size="14.00">OrderModule</text>
</g>
<!-- OrderModule&#45;&gt;PdfExportModule -->
<g id="edge4" class="edge">
<title>OrderModule&#45;&gt;PdfExportModule</title>
<path fill="none" stroke="black" d="M843,-122.11C843,-122.11 843,-140.99 843,-140.99"/>
<polygon fill="black" stroke="black" points="839.5,-140.99 843,-150.99 846.5,-140.99 839.5,-140.99"/>
</g>
<!-- ProductModule -->
<g id="node5" class="node">
<title>ProductModule</title>
<polygon fill="#8dd3c7" stroke="black" points="778.6,-122 775.6,-126 754.6,-126 751.6,-122 675.4,-122 675.4,-86 778.6,-86 778.6,-122"/>
<text text-anchor="middle" x="727" y="-99.8" font-family="Times,serif" font-size="14.00">ProductModule</text>
</g>
<!-- ProductModule&#45;&gt;PdfExportModule -->
<g id="edge5" class="edge">
<title>ProductModule&#45;&gt;PdfExportModule</title>
<path fill="none" stroke="black" d="M778.7,-104C785.78,-104 790.68,-104 790.68,-104 790.68,-104 790.68,-140.89 790.68,-140.89"/>
<polygon fill="black" stroke="black" points="787.18,-140.89 790.68,-150.89 794.18,-140.89 787.18,-140.89"/>
</g>
<!-- RiskAssessmentModule -->
<g id="node6" class="node">
<title>RiskAssessmentModule</title>
<polygon fill="#8dd3c7" stroke="black" points="657.82,-122 654.82,-126 633.82,-126 630.82,-122 506.18,-122 506.18,-86 657.82,-86 657.82,-122"/>
<text text-anchor="middle" x="582" y="-99.8" font-family="Times,serif" font-size="14.00">RiskAssessmentModule</text>
</g>
<!-- RiskAssessmentModule&#45;&gt;PdfExportModule -->
<g id="edge6" class="edge">
<title>RiskAssessmentModule&#45;&gt;PdfExportModule</title>
<path fill="none" stroke="black" d="M580.7,-122.01C580.7,-138.05 580.7,-159 580.7,-159 580.7,-159 774.14,-159 774.14,-159"/>
<polygon fill="black" stroke="black" points="774.14,-162.5 784.14,-159 774.14,-155.5 774.14,-162.5"/>
</g>
<!-- RolePermissionModule -->
<g id="node7" class="node">
<title>RolePermissionModule</title>
<polygon fill="#8dd3c7" stroke="black" points="488.21,-122 485.21,-126 464.21,-126 461.21,-122 339.79,-122 339.79,-86 488.21,-86 488.21,-122"/>
<text text-anchor="middle" x="414" y="-99.8" font-family="Times,serif" font-size="14.00">RolePermissionModule</text>
</g>
<!-- RolePermissionModule&#45;&gt;PdfExportModule -->
<g id="edge7" class="edge">
<title>RolePermissionModule&#45;&gt;PdfExportModule</title>
<path fill="none" stroke="black" d="M414,-122.27C414,-140.56 414,-166 414,-166 414,-166 774.25,-166 774.25,-166"/>
<polygon fill="black" stroke="black" points="774.25,-169.5 784.25,-166 774.25,-162.5 774.25,-169.5"/>
</g>
<!-- SelfAssessmentModule -->
<g id="node8" class="node">
<title>SelfAssessmentModule</title>
<polygon fill="#8dd3c7" stroke="black" points="322.19,-122 319.19,-126 298.19,-126 295.19,-122 173.81,-122 173.81,-86 322.19,-86 322.19,-122"/>
<text text-anchor="middle" x="248" y="-99.8" font-family="Times,serif" font-size="14.00">SelfAssessmentModule</text>
</g>
<!-- SelfAssessmentModule&#45;&gt;PdfExportModule -->
<g id="edge8" class="edge">
<title>SelfAssessmentModule&#45;&gt;PdfExportModule</title>
<path fill="none" stroke="black" d="M248,-122.13C248,-142.57 248,-173 248,-173 248,-173 774.32,-173 774.32,-173"/>
<polygon fill="black" stroke="black" points="774.32,-176.5 784.32,-173 774.32,-169.5 774.32,-176.5"/>
</g>
<!-- SupplyChainModule -->
<g id="node9" class="node">
<title>SupplyChainModule</title>
<polygon fill="#8dd3c7" stroke="black" points="156.17,-122 153.17,-126 132.17,-126 129.17,-122 23.83,-122 23.83,-86 156.17,-86 156.17,-122"/>
<text text-anchor="middle" x="90" y="-99.8" font-family="Times,serif" font-size="14.00">SupplyChainModule</text>
</g>
<!-- SupplyChainModule&#45;&gt;PdfExportModule -->
<g id="edge9" class="edge">
<title>SupplyChainModule&#45;&gt;PdfExportModule</title>
<path fill="none" stroke="black" d="M90,-122.01C90,-144.49 90,-180 90,-180 90,-180 774.23,-180 774.23,-180"/>
<polygon fill="black" stroke="black" points="774.23,-183.5 784.23,-180 774.23,-176.5 774.23,-183.5"/>
</g>
<!-- PdfExportService  -->
<g id="node11" class="node">
<title>PdfExportService </title>
<polygon fill="#fb8072" stroke="black" points="991.52,-252 872.48,-252 872.48,-216 991.52,-216 991.52,-252"/>
<text text-anchor="middle" x="932" y="-229.8" font-family="Times,serif" font-size="14.00">PdfExportService </text>
</g>
<!-- PdfExportModule&#45;&gt;PdfExportService  -->
<g id="edge10" class="edge">
<title>PdfExportModule&#45;&gt;PdfExportService </title>
<path fill="none" stroke="black" stroke-dasharray="5,2" d="M887.02,-187.11C887.02,-187.11 887.02,-205.99 887.02,-205.99"/>
<polygon fill="black" stroke="black" points="883.52,-205.99 887.02,-215.99 890.52,-205.99 883.52,-205.99"/>
</g>
<!-- PdfExportTracingObjectService  -->
<g id="node12" class="node">
<title>PdfExportTracingObjectService </title>
<polygon fill="#fb8072" stroke="black" points="854.87,-252 655.13,-252 655.13,-216 854.87,-216 854.87,-252"/>
<text text-anchor="middle" x="755" y="-229.8" font-family="Times,serif" font-size="14.00">PdfExportTracingObjectService </text>
</g>
<!-- PdfExportModule&#45;&gt;PdfExportTracingObjectService  -->
<g id="edge11" class="edge">
<title>PdfExportModule&#45;&gt;PdfExportTracingObjectService </title>
<path fill="none" stroke="black" stroke-dasharray="5,2" d="M819.69,-187.11C819.69,-187.11 819.69,-205.99 819.69,-205.99"/>
<polygon fill="black" stroke="black" points="816.19,-205.99 819.69,-215.99 823.19,-205.99 816.19,-205.99"/>
</g>
<!-- PdfExportService -->
<g id="node13" class="node">
<title>PdfExportService</title>
<ellipse fill="#fdb462" stroke="black" cx="1685" cy="-104" rx="79.87" ry="18"/>
<text text-anchor="middle" x="1685" y="-99.8" font-family="Times,serif" font-size="14.00">PdfExportService</text>
</g>
<!-- PdfExportService&#45;&gt;PdfExportModule -->
<g id="edge12" class="edge">
<title>PdfExportService&#45;&gt;PdfExportModule</title>
<path fill="none" stroke="black" d="M1685,-122.01C1685,-144.49 1685,-180 1685,-180 1685,-180 911.87,-180 911.87,-180"/>
<polygon fill="black" stroke="black" points="911.87,-176.5 901.87,-180 911.87,-183.5 911.87,-176.5"/>
</g>
<!-- PdfExportTracingObjectService -->
<g id="node14" class="node">
<title>PdfExportTracingObjectService</title>
<ellipse fill="#fdb462" stroke="black" cx="1452" cy="-104" rx="135.41" ry="18"/>
<text text-anchor="middle" x="1452" y="-99.8" font-family="Times,serif" font-size="14.00">PdfExportTracingObjectService</text>
</g>
<!-- PdfExportTracingObjectService&#45;&gt;PdfExportModule -->
<g id="edge13" class="edge">
<title>PdfExportTracingObjectService&#45;&gt;PdfExportModule</title>
<path fill="none" stroke="black" d="M1452,-122.13C1452,-142.57 1452,-173 1452,-173 1452,-173 911.67,-173 911.67,-173"/>
<polygon fill="black" stroke="black" points="911.67,-169.5 901.67,-173 911.67,-176.5 911.67,-169.5"/>
</g>
</g>
</svg>
