<?xml version="1.0" encoding="UTF-8" standalone="no"?>
<!DOCTYPE svg PUBLIC "-//W3C//DTD SVG 1.1//EN"
 "http://www.w3.org/Graphics/SVG/1.1/DTD/svg11.dtd">
<!-- Generated by graphviz version 2.47.0 (20210316.0004)
 -->
<!-- Title: dependencies Pages: 1 -->
<svg width="2102pt" height="284pt"
 viewBox="0.00 0.00 2102.00 284.00" xmlns="http://www.w3.org/2000/svg" xmlns:xlink="http://www.w3.org/1999/xlink">
<g id="graph0" class="graph" transform="scale(1 1) rotate(0) translate(4 280)">
<title>dependencies</title>
<polygon fill="white" stroke="transparent" points="-4,4 -4,-280 2098,-280 2098,4 -4,4"/>
<text text-anchor="start" x="1026.01" y="-42.4" font-family="Times-12" font-weight="bold" font-size="14.00">Legend</text>
<polygon fill="#ffffb3" stroke="transparent" points="813,-10 813,-30 833,-30 833,-10 813,-10"/>
<text text-anchor="start" x="836.63" y="-15.4" font-family="Times-12" font-size="14.00"> &#160;Declarations</text>
<polygon fill="#8dd3c7" stroke="transparent" points="926,-10 926,-30 946,-30 946,-10 926,-10"/>
<text text-anchor="start" x="949.73" y="-15.4" font-family="Times-12" font-size="14.00"> &#160;Module</text>
<polygon fill="#80b1d3" stroke="transparent" points="1012,-10 1012,-30 1032,-30 1032,-10 1012,-10"/>
<text text-anchor="start" x="1035.78" y="-15.4" font-family="Times-12" font-size="14.00"> &#160;Bootstrap</text>
<polygon fill="#fdb462" stroke="transparent" points="1109,-10 1109,-30 1129,-30 1129,-10 1109,-10"/>
<text text-anchor="start" x="1132.67" y="-15.4" font-family="Times-12" font-size="14.00"> &#160;Providers</text>
<polygon fill="#fb8072" stroke="transparent" points="1205,-10 1205,-30 1225,-30 1225,-10 1205,-10"/>
<text text-anchor="start" x="1228.73" y="-15.4" font-family="Times-12" font-size="14.00"> &#160;Exports</text>
<g id="clust1" class="cluster">
<title>cluster_RiskAssessmentModule</title>
<polygon fill="none" stroke="black" stroke-dasharray="1,5" points="8,-70 8,-268 2086,-268 2086,-70 8,-70"/>
</g>
<g id="clust3" class="cluster">
<title>cluster_RiskAssessmentModule_imports</title>
<polygon fill="none" stroke="black" points="963,-78 963,-130 2078,-130 2078,-78 963,-78"/>
</g>
<g id="clust6" class="cluster">
<title>cluster_RiskAssessmentModule_providers</title>
<polygon fill="none" stroke="black" points="16,-78 16,-130 955,-130 955,-78 16,-78"/>
</g>
<g id="clust4" class="cluster">
<title>cluster_RiskAssessmentModule_exports</title>
<polygon fill="none" stroke="black" points="849,-208 849,-260 1565,-260 1565,-208 849,-208"/>
</g>
<!-- CategoryModule -->
<g id="node1" class="node">
<title>CategoryModule</title>
<polygon fill="#8dd3c7" stroke="black" points="2070.37,-122 2067.37,-126 2046.37,-126 2043.37,-122 1959.63,-122 1959.63,-86 2070.37,-86 2070.37,-122"/>
<text text-anchor="middle" x="2015" y="-99.8" font-family="Times,serif" font-size="14.00">CategoryModule</text>
</g>
<!-- RiskAssessmentModule -->
<g id="node8" class="node">
<title>RiskAssessmentModule</title>
<polygon fill="#8dd3c7" stroke="black" points="1254.82,-187 1251.82,-191 1230.82,-191 1227.82,-187 1103.18,-187 1103.18,-151 1254.82,-151 1254.82,-187"/>
<text text-anchor="middle" x="1179" y="-164.8" font-family="Times,serif" font-size="14.00">RiskAssessmentModule</text>
</g>
<!-- CategoryModule&#45;&gt;RiskAssessmentModule -->
<g id="edge1" class="edge">
<title>CategoryModule&#45;&gt;RiskAssessmentModule</title>
<path fill="none" stroke="black" d="M2015,-122.04C2015,-143.66 2015,-177 2015,-177 2015,-177 1264.66,-177 1264.66,-177"/>
<polygon fill="black" stroke="black" points="1264.66,-173.5 1254.66,-177 1264.66,-180.5 1264.66,-173.5"/>
</g>
<!-- CommodityRiskModule -->
<g id="node2" class="node">
<title>CommodityRiskModule</title>
<polygon fill="#8dd3c7" stroke="black" points="1942.12,-122 1939.12,-126 1918.12,-126 1915.12,-122 1789.88,-122 1789.88,-86 1942.12,-86 1942.12,-122"/>
<text text-anchor="middle" x="1866" y="-99.8" font-family="Times,serif" font-size="14.00">CommodityRiskModule</text>
</g>
<!-- CommodityRiskModule&#45;&gt;RiskAssessmentModule -->
<g id="edge2" class="edge">
<title>CommodityRiskModule&#45;&gt;RiskAssessmentModule</title>
<path fill="none" stroke="black" d="M1866,-122.22C1866,-142.37 1866,-172 1866,-172 1866,-172 1264.82,-172 1264.82,-172"/>
<polygon fill="black" stroke="black" points="1264.82,-168.5 1254.82,-172 1264.82,-175.5 1264.82,-168.5"/>
</g>
<!-- DnaTestingModule -->
<g id="node3" class="node">
<title>DnaTestingModule</title>
<polygon fill="#8dd3c7" stroke="black" points="1772.36,-122 1769.36,-126 1748.36,-126 1745.36,-122 1647.64,-122 1647.64,-86 1772.36,-86 1772.36,-122"/>
<text text-anchor="middle" x="1710" y="-99.8" font-family="Times,serif" font-size="14.00">DnaTestingModule</text>
</g>
<!-- DnaTestingModule&#45;&gt;RiskAssessmentModule -->
<g id="edge3" class="edge">
<title>DnaTestingModule&#45;&gt;RiskAssessmentModule</title>
<path fill="none" stroke="black" d="M1710,-122.22C1710,-140.83 1710,-167 1710,-167 1710,-167 1264.8,-167 1264.8,-167"/>
<polygon fill="black" stroke="black" points="1264.8,-163.5 1254.8,-167 1264.8,-170.5 1264.8,-163.5"/>
</g>
<!-- GeographicalRiskLevelModule -->
<g id="node4" class="node">
<title>GeographicalRiskLevelModule</title>
<polygon fill="#8dd3c7" stroke="black" points="1629,-122 1626,-126 1605,-126 1602,-122 1437,-122 1437,-86 1629,-86 1629,-122"/>
<text text-anchor="middle" x="1533" y="-99.8" font-family="Times,serif" font-size="14.00">GeographicalRiskLevelModule</text>
</g>
<!-- GeographicalRiskLevelModule&#45;&gt;RiskAssessmentModule -->
<g id="edge4" class="edge">
<title>GeographicalRiskLevelModule&#45;&gt;RiskAssessmentModule</title>
<path fill="none" stroke="black" d="M1496.93,-122.03C1496.93,-139.06 1496.93,-162 1496.93,-162 1496.93,-162 1264.75,-162 1264.75,-162"/>
<polygon fill="black" stroke="black" points="1264.75,-158.5 1254.75,-162 1264.75,-165.5 1264.75,-158.5"/>
</g>
<!-- RolePermissionModule -->
<g id="node5" class="node">
<title>RolePermissionModule</title>
<polygon fill="#8dd3c7" stroke="black" points="1419.21,-122 1416.21,-126 1395.21,-126 1392.21,-122 1270.79,-122 1270.79,-86 1419.21,-86 1419.21,-122"/>
<text text-anchor="middle" x="1345" y="-99.8" font-family="Times,serif" font-size="14.00">RolePermissionModule</text>
</g>
<!-- RolePermissionModule&#45;&gt;RiskAssessmentModule -->
<g id="edge5" class="edge">
<title>RolePermissionModule&#45;&gt;RiskAssessmentModule</title>
<path fill="none" stroke="black" d="M1310.81,-122.24C1310.81,-137.57 1310.81,-157 1310.81,-157 1310.81,-157 1264.91,-157 1264.91,-157"/>
<polygon fill="black" stroke="black" points="1264.91,-153.5 1254.91,-157 1264.91,-160.5 1264.91,-153.5"/>
</g>
<!-- SelfAssessmentModule -->
<g id="node6" class="node">
<title>SelfAssessmentModule</title>
<polygon fill="#8dd3c7" stroke="black" points="1253.19,-122 1250.19,-126 1229.19,-126 1226.19,-122 1104.81,-122 1104.81,-86 1253.19,-86 1253.19,-122"/>
<text text-anchor="middle" x="1179" y="-99.8" font-family="Times,serif" font-size="14.00">SelfAssessmentModule</text>
</g>
<!-- SelfAssessmentModule&#45;&gt;RiskAssessmentModule -->
<g id="edge6" class="edge">
<title>SelfAssessmentModule&#45;&gt;RiskAssessmentModule</title>
<path fill="none" stroke="black" d="M1179,-122.11C1179,-122.11 1179,-140.99 1179,-140.99"/>
<polygon fill="black" stroke="black" points="1175.5,-140.99 1179,-150.99 1182.5,-140.99 1175.5,-140.99"/>
</g>
<!-- SiteDetailModule -->
<g id="node7" class="node">
<title>SiteDetailModule</title>
<polygon fill="#8dd3c7" stroke="black" points="1086.54,-122 1083.54,-126 1062.54,-126 1059.54,-122 971.46,-122 971.46,-86 1086.54,-86 1086.54,-122"/>
<text text-anchor="middle" x="1029" y="-99.8" font-family="Times,serif" font-size="14.00">SiteDetailModule</text>
</g>
<!-- SiteDetailModule&#45;&gt;RiskAssessmentModule -->
<g id="edge7" class="edge">
<title>SiteDetailModule&#45;&gt;RiskAssessmentModule</title>
<path fill="none" stroke="black" d="M1057.9,-122.24C1057.9,-137.57 1057.9,-157 1057.9,-157 1057.9,-157 1093.34,-157 1093.34,-157"/>
<polygon fill="black" stroke="black" points="1093.34,-160.5 1103.34,-157 1093.34,-153.5 1093.34,-160.5"/>
</g>
<!-- FacilityRiskCalculatorService  -->
<g id="node9" class="node">
<title>FacilityRiskCalculatorService </title>
<polygon fill="#fb8072" stroke="black" points="1557.24,-252 1368.76,-252 1368.76,-216 1557.24,-216 1557.24,-252"/>
<text text-anchor="middle" x="1463" y="-229.8" font-family="Times,serif" font-size="14.00">FacilityRiskCalculatorService </text>
</g>
<!-- RiskAssessmentModule&#45;&gt;FacilityRiskCalculatorService  -->
<g id="edge8" class="edge">
<title>RiskAssessmentModule&#45;&gt;FacilityRiskCalculatorService </title>
<path fill="none" stroke="black" stroke-dasharray="5,2" d="M1254.8,-182C1316.7,-182 1393.99,-182 1393.99,-182 1393.99,-182 1393.99,-205.81 1393.99,-205.81"/>
<polygon fill="black" stroke="black" points="1390.49,-205.81 1393.99,-215.81 1397.49,-205.81 1390.49,-205.81"/>
</g>
<!-- FacilityRiskMapperService  -->
<g id="node10" class="node">
<title>FacilityRiskMapperService </title>
<polygon fill="#fb8072" stroke="black" points="1350.96,-252 1177.04,-252 1177.04,-216 1350.96,-216 1350.96,-252"/>
<text text-anchor="middle" x="1264" y="-229.8" font-family="Times,serif" font-size="14.00">FacilityRiskMapperService </text>
</g>
<!-- RiskAssessmentModule&#45;&gt;FacilityRiskMapperService  -->
<g id="edge9" class="edge">
<title>RiskAssessmentModule&#45;&gt;FacilityRiskMapperService </title>
<path fill="none" stroke="black" stroke-dasharray="5,2" d="M1215.96,-187.11C1215.96,-187.11 1215.96,-205.99 1215.96,-205.99"/>
<polygon fill="black" stroke="black" points="1212.46,-205.99 1215.96,-215.99 1219.46,-205.99 1212.46,-205.99"/>
</g>
<!-- FacilityRiskService  -->
<g id="node11" class="node">
<title>FacilityRiskService </title>
<polygon fill="#fb8072" stroke="black" points="1158.92,-252 1029.08,-252 1029.08,-216 1158.92,-216 1158.92,-252"/>
<text text-anchor="middle" x="1094" y="-229.8" font-family="Times,serif" font-size="14.00">FacilityRiskService </text>
</g>
<!-- RiskAssessmentModule&#45;&gt;FacilityRiskService  -->
<g id="edge10" class="edge">
<title>RiskAssessmentModule&#45;&gt;FacilityRiskService </title>
<path fill="none" stroke="black" stroke-dasharray="5,2" d="M1131.15,-187.11C1131.15,-187.11 1131.15,-205.99 1131.15,-205.99"/>
<polygon fill="black" stroke="black" points="1127.65,-205.99 1131.15,-215.99 1134.65,-205.99 1127.65,-205.99"/>
</g>
<!-- RiskAssessmentService  -->
<g id="node12" class="node">
<title>RiskAssessmentService </title>
<polygon fill="#fb8072" stroke="black" points="1010.74,-252 857.26,-252 857.26,-216 1010.74,-216 1010.74,-252"/>
<text text-anchor="middle" x="934" y="-229.8" font-family="Times,serif" font-size="14.00">RiskAssessmentService </text>
</g>
<!-- RiskAssessmentModule&#45;&gt;RiskAssessmentService  -->
<g id="edge11" class="edge">
<title>RiskAssessmentModule&#45;&gt;RiskAssessmentService </title>
<path fill="none" stroke="black" stroke-dasharray="5,2" d="M1103.32,-182C1051.06,-182 990.93,-182 990.93,-182 990.93,-182 990.93,-205.81 990.93,-205.81"/>
<polygon fill="black" stroke="black" points="987.43,-205.81 990.93,-215.81 994.43,-205.81 987.43,-205.81"/>
</g>
<!-- FacilityRiskCalculatorService -->
<g id="node13" class="node">
<title>FacilityRiskCalculatorService</title>
<ellipse fill="#fdb462" stroke="black" cx="820" cy="-104" rx="127.36" ry="18"/>
<text text-anchor="middle" x="820" y="-99.8" font-family="Times,serif" font-size="14.00">FacilityRiskCalculatorService</text>
</g>
<!-- FacilityRiskCalculatorService&#45;&gt;RiskAssessmentModule -->
<g id="edge12" class="edge">
<title>FacilityRiskCalculatorService&#45;&gt;RiskAssessmentModule</title>
<path fill="none" stroke="black" d="M902.4,-117.75C902.4,-134.9 902.4,-162 902.4,-162 902.4,-162 1093.05,-162 1093.05,-162"/>
<polygon fill="black" stroke="black" points="1093.05,-165.5 1103.05,-162 1093.05,-158.5 1093.05,-165.5"/>
</g>
<!-- FacilityRiskMapperService -->
<g id="node14" class="node">
<title>FacilityRiskMapperService</title>
<ellipse fill="#fdb462" stroke="black" cx="557" cy="-104" rx="117.47" ry="18"/>
<text text-anchor="middle" x="557" y="-99.8" font-family="Times,serif" font-size="14.00">FacilityRiskMapperService</text>
</g>
<!-- FacilityRiskMapperService&#45;&gt;RiskAssessmentModule -->
<g id="edge13" class="edge">
<title>FacilityRiskMapperService&#45;&gt;RiskAssessmentModule</title>
<path fill="none" stroke="black" d="M557,-122.22C557,-140.83 557,-167 557,-167 557,-167 1093.04,-167 1093.04,-167"/>
<polygon fill="black" stroke="black" points="1093.04,-170.5 1103.04,-167 1093.04,-163.5 1093.04,-170.5"/>
</g>
<!-- FacilityRiskService -->
<g id="node15" class="node">
<title>FacilityRiskService</title>
<ellipse fill="#fdb462" stroke="black" cx="335" cy="-104" rx="87.41" ry="18"/>
<text text-anchor="middle" x="335" y="-99.8" font-family="Times,serif" font-size="14.00">FacilityRiskService</text>
</g>
<!-- FacilityRiskService&#45;&gt;RiskAssessmentModule -->
<g id="edge14" class="edge">
<title>FacilityRiskService&#45;&gt;RiskAssessmentModule</title>
<path fill="none" stroke="black" d="M335,-122.22C335,-142.37 335,-172 335,-172 335,-172 1092.99,-172 1092.99,-172"/>
<polygon fill="black" stroke="black" points="1092.99,-175.5 1102.99,-172 1092.99,-168.5 1092.99,-175.5"/>
</g>
<!-- RiskAssessmentService -->
<g id="node16" class="node">
<title>RiskAssessmentService</title>
<ellipse fill="#fdb462" stroke="black" cx="127" cy="-104" rx="103.08" ry="18"/>
<text text-anchor="middle" x="127" y="-99.8" font-family="Times,serif" font-size="14.00">RiskAssessmentService</text>
</g>
<!-- RiskAssessmentService&#45;&gt;RiskAssessmentModule -->
<g id="edge15" class="edge">
<title>RiskAssessmentService&#45;&gt;RiskAssessmentModule</title>
<path fill="none" stroke="black" d="M127,-122.04C127,-143.66 127,-177 127,-177 127,-177 1092.92,-177 1092.92,-177"/>
<polygon fill="black" stroke="black" points="1092.92,-180.5 1102.92,-177 1092.92,-173.5 1092.92,-180.5"/>
</g>
</g>
</svg>
