<?xml version="1.0" encoding="UTF-8" standalone="no"?>
<!DOCTYPE svg PUBLIC "-//W3C//DTD SVG 1.1//EN"
 "http://www.w3.org/Graphics/SVG/1.1/DTD/svg11.dtd">
<!-- Generated by graphviz version 2.47.0 (20210316.0004)
 -->
<!-- Title: dependencies Pages: 1 -->
<svg width="1237pt" height="284pt"
 viewBox="0.00 0.00 1237.00 284.00" xmlns="http://www.w3.org/2000/svg" xmlns:xlink="http://www.w3.org/1999/xlink">
<g id="graph0" class="graph" transform="scale(1 1) rotate(0) translate(4 280)">
<title>dependencies</title>
<polygon fill="white" stroke="transparent" points="-4,4 -4,-280 1233,-280 1233,4 -4,4"/>
<text text-anchor="start" x="593.51" y="-42.4" font-family="Times-12" font-weight="bold" font-size="14.00">Legend</text>
<polygon fill="#ffffb3" stroke="transparent" points="380.5,-10 380.5,-30 400.5,-30 400.5,-10 380.5,-10"/>
<text text-anchor="start" x="404.13" y="-15.4" font-family="Times-12" font-size="14.00"> &#160;Declarations</text>
<polygon fill="#8dd3c7" stroke="transparent" points="493.5,-10 493.5,-30 513.5,-30 513.5,-10 493.5,-10"/>
<text text-anchor="start" x="517.23" y="-15.4" font-family="Times-12" font-size="14.00"> &#160;Module</text>
<polygon fill="#80b1d3" stroke="transparent" points="579.5,-10 579.5,-30 599.5,-30 599.5,-10 579.5,-10"/>
<text text-anchor="start" x="603.28" y="-15.4" font-family="Times-12" font-size="14.00"> &#160;Bootstrap</text>
<polygon fill="#fdb462" stroke="transparent" points="676.5,-10 676.5,-30 696.5,-30 696.5,-10 676.5,-10"/>
<text text-anchor="start" x="700.17" y="-15.4" font-family="Times-12" font-size="14.00"> &#160;Providers</text>
<polygon fill="#fb8072" stroke="transparent" points="772.5,-10 772.5,-30 792.5,-30 792.5,-10 772.5,-10"/>
<text text-anchor="start" x="796.23" y="-15.4" font-family="Times-12" font-size="14.00"> &#160;Exports</text>
<g id="clust1" class="cluster">
<title>cluster_RiskAssessmentModule</title>
<polygon fill="none" stroke="black" stroke-dasharray="1,5" points="8,-70 8,-268 1221,-268 1221,-70 8,-70"/>
</g>
<g id="clust4" class="cluster">
<title>cluster_RiskAssessmentModule_exports</title>
<polygon fill="none" stroke="black" points="519,-208 519,-260 665,-260 665,-208 519,-208"/>
</g>
<g id="clust6" class="cluster">
<title>cluster_RiskAssessmentModule_providers</title>
<polygon fill="none" stroke="black" points="799,-78 799,-130 1213,-130 1213,-78 799,-78"/>
</g>
<g id="clust3" class="cluster">
<title>cluster_RiskAssessmentModule_imports</title>
<polygon fill="none" stroke="black" points="16,-78 16,-130 791,-130 791,-78 16,-78"/>
</g>
<!-- CategoryModule -->
<g id="node1" class="node">
<title>CategoryModule</title>
<polygon fill="#8dd3c7" stroke="black" points="783.37,-122 780.37,-126 759.37,-126 756.37,-122 672.63,-122 672.63,-86 783.37,-86 783.37,-122"/>
<text text-anchor="middle" x="728" y="-99.8" font-family="Times,serif" font-size="14.00">CategoryModule</text>
</g>
<!-- RiskAssessmentModule -->
<g id="node6" class="node">
<title>RiskAssessmentModule</title>
<polygon fill="#8dd3c7" stroke="black" points="667.82,-187 664.82,-191 643.82,-191 640.82,-187 516.18,-187 516.18,-151 667.82,-151 667.82,-187"/>
<text text-anchor="middle" x="592" y="-164.8" font-family="Times,serif" font-size="14.00">RiskAssessmentModule</text>
</g>
<!-- CategoryModule&#45;&gt;RiskAssessmentModule -->
<g id="edge1" class="edge">
<title>CategoryModule&#45;&gt;RiskAssessmentModule</title>
<path fill="none" stroke="black" d="M672.4,-104C665.63,-104 661.05,-104 661.05,-104 661.05,-104 661.05,-140.89 661.05,-140.89"/>
<polygon fill="black" stroke="black" points="657.55,-140.89 661.05,-150.89 664.55,-140.89 657.55,-140.89"/>
</g>
<!-- DnaTestingModule -->
<g id="node2" class="node">
<title>DnaTestingModule</title>
<polygon fill="#8dd3c7" stroke="black" points="654.36,-122 651.36,-126 630.36,-126 627.36,-122 529.64,-122 529.64,-86 654.36,-86 654.36,-122"/>
<text text-anchor="middle" x="592" y="-99.8" font-family="Times,serif" font-size="14.00">DnaTestingModule</text>
</g>
<!-- DnaTestingModule&#45;&gt;RiskAssessmentModule -->
<g id="edge2" class="edge">
<title>DnaTestingModule&#45;&gt;RiskAssessmentModule</title>
<path fill="none" stroke="black" d="M592,-122.11C592,-122.11 592,-140.99 592,-140.99"/>
<polygon fill="black" stroke="black" points="588.5,-140.99 592,-150.99 595.5,-140.99 588.5,-140.99"/>
</g>
<!-- GrievanceReportModule -->
<g id="node3" class="node">
<title>GrievanceReportModule</title>
<polygon fill="#8dd3c7" stroke="black" points="511.67,-122 508.67,-126 487.67,-126 484.67,-122 356.33,-122 356.33,-86 511.67,-86 511.67,-122"/>
<text text-anchor="middle" x="434" y="-99.8" font-family="Times,serif" font-size="14.00">GrievanceReportModule</text>
</g>
<!-- GrievanceReportModule&#45;&gt;RiskAssessmentModule -->
<g id="edge3" class="edge">
<title>GrievanceReportModule&#45;&gt;RiskAssessmentModule</title>
<path fill="none" stroke="black" d="M511.69,-104C518.54,-104 522.95,-104 522.95,-104 522.95,-104 522.95,-140.89 522.95,-140.89"/>
<polygon fill="black" stroke="black" points="519.45,-140.89 522.95,-150.89 526.45,-140.89 519.45,-140.89"/>
</g>
<!-- RolePermissionModule -->
<g id="node4" class="node">
<title>RolePermissionModule</title>
<polygon fill="#8dd3c7" stroke="black" points="338.21,-122 335.21,-126 314.21,-126 311.21,-122 189.79,-122 189.79,-86 338.21,-86 338.21,-122"/>
<text text-anchor="middle" x="264" y="-99.8" font-family="Times,serif" font-size="14.00">RolePermissionModule</text>
</g>
<!-- RolePermissionModule&#45;&gt;RiskAssessmentModule -->
<g id="edge4" class="edge">
<title>RolePermissionModule&#45;&gt;RiskAssessmentModule</title>
<path fill="none" stroke="black" d="M264,-122.02C264,-139.37 264,-163 264,-163 264,-163 506.34,-163 506.34,-163"/>
<polygon fill="black" stroke="black" points="506.34,-166.5 516.34,-163 506.34,-159.5 506.34,-166.5"/>
</g>
<!-- SelfAssessmentModule -->
<g id="node5" class="node">
<title>SelfAssessmentModule</title>
<polygon fill="#8dd3c7" stroke="black" points="172.19,-122 169.19,-126 148.19,-126 145.19,-122 23.81,-122 23.81,-86 172.19,-86 172.19,-122"/>
<text text-anchor="middle" x="98" y="-99.8" font-family="Times,serif" font-size="14.00">SelfAssessmentModule</text>
</g>
<!-- SelfAssessmentModule&#45;&gt;RiskAssessmentModule -->
<g id="edge5" class="edge">
<title>SelfAssessmentModule&#45;&gt;RiskAssessmentModule</title>
<path fill="none" stroke="black" d="M98,-122.28C98,-143.32 98,-175 98,-175 98,-175 506.16,-175 506.16,-175"/>
<polygon fill="black" stroke="black" points="506.16,-178.5 516.16,-175 506.16,-171.5 506.16,-178.5"/>
</g>
<!-- FacilityRiskService  -->
<g id="node7" class="node">
<title>FacilityRiskService </title>
<polygon fill="#fb8072" stroke="black" points="656.92,-252 527.08,-252 527.08,-216 656.92,-216 656.92,-252"/>
<text text-anchor="middle" x="592" y="-229.8" font-family="Times,serif" font-size="14.00">FacilityRiskService </text>
</g>
<!-- RiskAssessmentModule&#45;&gt;FacilityRiskService  -->
<g id="edge6" class="edge">
<title>RiskAssessmentModule&#45;&gt;FacilityRiskService </title>
<path fill="none" stroke="black" stroke-dasharray="5,2" d="M592,-187.11C592,-187.11 592,-205.99 592,-205.99"/>
<polygon fill="black" stroke="black" points="588.5,-205.99 592,-215.99 595.5,-205.99 588.5,-205.99"/>
</g>
<!-- FacilityRiskService -->
<g id="node8" class="node">
<title>FacilityRiskService</title>
<ellipse fill="#fdb462" stroke="black" cx="1118" cy="-104" rx="87.41" ry="18"/>
<text text-anchor="middle" x="1118" y="-99.8" font-family="Times,serif" font-size="14.00">FacilityRiskService</text>
</g>
<!-- FacilityRiskService&#45;&gt;RiskAssessmentModule -->
<g id="edge7" class="edge">
<title>FacilityRiskService&#45;&gt;RiskAssessmentModule</title>
<path fill="none" stroke="black" d="M1118,-122.28C1118,-143.32 1118,-175 1118,-175 1118,-175 677.92,-175 677.92,-175"/>
<polygon fill="black" stroke="black" points="677.92,-171.5 667.92,-175 677.92,-178.5 677.92,-171.5"/>
</g>
<!-- RiskAssessmentService -->
<g id="node9" class="node">
<title>RiskAssessmentService</title>
<ellipse fill="#fdb462" stroke="black" cx="910" cy="-104" rx="103.08" ry="18"/>
<text text-anchor="middle" x="910" y="-99.8" font-family="Times,serif" font-size="14.00">RiskAssessmentService</text>
</g>
<!-- RiskAssessmentService&#45;&gt;RiskAssessmentModule -->
<g id="edge8" class="edge">
<title>RiskAssessmentService&#45;&gt;RiskAssessmentModule</title>
<path fill="none" stroke="black" d="M910,-122.02C910,-139.37 910,-163 910,-163 910,-163 677.76,-163 677.76,-163"/>
<polygon fill="black" stroke="black" points="677.76,-159.5 667.76,-163 677.76,-166.5 677.76,-159.5"/>
</g>
</g>
</svg>
