<?xml version="1.0" encoding="UTF-8" standalone="no"?>
<!DOCTYPE svg PUBLIC "-//W3C//DTD SVG 1.1//EN"
 "http://www.w3.org/Graphics/SVG/1.1/DTD/svg11.dtd">
<!-- Generated by graphviz version 2.47.0 (20210316.0004)
 -->
<!-- Title: dependencies Pages: 1 -->
<svg width="1186pt" height="284pt"
 viewBox="0.00 0.00 1186.00 284.00" xmlns="http://www.w3.org/2000/svg" xmlns:xlink="http://www.w3.org/1999/xlink">
<g id="graph0" class="graph" transform="scale(1 1) rotate(0) translate(4 280)">
<title>dependencies</title>
<polygon fill="white" stroke="transparent" points="-4,4 -4,-280 1182,-280 1182,4 -4,4"/>
<text text-anchor="start" x="568.01" y="-42.4" font-family="Times-12" font-weight="bold" font-size="14.00">Legend</text>
<polygon fill="#ffffb3" stroke="transparent" points="355,-10 355,-30 375,-30 375,-10 355,-10"/>
<text text-anchor="start" x="378.63" y="-15.4" font-family="Times-12" font-size="14.00"> &#160;Declarations</text>
<polygon fill="#8dd3c7" stroke="transparent" points="468,-10 468,-30 488,-30 488,-10 468,-10"/>
<text text-anchor="start" x="491.73" y="-15.4" font-family="Times-12" font-size="14.00"> &#160;Module</text>
<polygon fill="#80b1d3" stroke="transparent" points="554,-10 554,-30 574,-30 574,-10 554,-10"/>
<text text-anchor="start" x="577.78" y="-15.4" font-family="Times-12" font-size="14.00"> &#160;Bootstrap</text>
<polygon fill="#fdb462" stroke="transparent" points="651,-10 651,-30 671,-30 671,-10 651,-10"/>
<text text-anchor="start" x="674.67" y="-15.4" font-family="Times-12" font-size="14.00"> &#160;Providers</text>
<polygon fill="#fb8072" stroke="transparent" points="747,-10 747,-30 767,-30 767,-10 747,-10"/>
<text text-anchor="start" x="770.73" y="-15.4" font-family="Times-12" font-size="14.00"> &#160;Exports</text>
<g id="clust1" class="cluster">
<title>cluster_SiteDetailModule</title>
<polygon fill="none" stroke="black" stroke-dasharray="1,5" points="8,-70 8,-268 1170,-268 1170,-70 8,-70"/>
</g>
<g id="clust6" class="cluster">
<title>cluster_SiteDetailModule_providers</title>
<polygon fill="none" stroke="black" points="950,-78 950,-130 1162,-130 1162,-78 950,-78"/>
</g>
<g id="clust4" class="cluster">
<title>cluster_SiteDetailModule_exports</title>
<polygon fill="none" stroke="black" points="492,-208 492,-260 654,-260 654,-208 492,-208"/>
</g>
<g id="clust3" class="cluster">
<title>cluster_SiteDetailModule_imports</title>
<polygon fill="none" stroke="black" points="16,-78 16,-130 942,-130 942,-78 16,-78"/>
</g>
<!-- CommodityRiskModule -->
<g id="node1" class="node">
<title>CommodityRiskModule</title>
<polygon fill="#8dd3c7" stroke="black" points="934.12,-122 931.12,-126 910.12,-126 907.12,-122 781.88,-122 781.88,-86 934.12,-86 934.12,-122"/>
<text text-anchor="middle" x="858" y="-99.8" font-family="Times,serif" font-size="14.00">CommodityRiskModule</text>
</g>
<!-- SiteDetailModule -->
<g id="node7" class="node">
<title>SiteDetailModule</title>
<polygon fill="#8dd3c7" stroke="black" points="630.54,-187 627.54,-191 606.54,-191 603.54,-187 515.46,-187 515.46,-151 630.54,-151 630.54,-187"/>
<text text-anchor="middle" x="573" y="-164.8" font-family="Times,serif" font-size="14.00">SiteDetailModule</text>
</g>
<!-- CommodityRiskModule&#45;&gt;SiteDetailModule -->
<g id="edge1" class="edge">
<title>CommodityRiskModule&#45;&gt;SiteDetailModule</title>
<path fill="none" stroke="black" d="M858,-122.11C858,-141.34 858,-169 858,-169 858,-169 640.67,-169 640.67,-169"/>
<polygon fill="black" stroke="black" points="640.67,-165.5 630.67,-169 640.67,-172.5 640.67,-165.5"/>
</g>
<!-- HttpClientModule -->
<g id="node2" class="node">
<title>HttpClientModule</title>
<polygon fill="#8dd3c7" stroke="black" points="764.16,-122 761.16,-126 740.16,-126 737.16,-122 645.84,-122 645.84,-86 764.16,-86 764.16,-122"/>
<text text-anchor="middle" x="705" y="-99.8" font-family="Times,serif" font-size="14.00">HttpClientModule</text>
</g>
<!-- HttpClientModule&#45;&gt;SiteDetailModule -->
<g id="edge2" class="edge">
<title>HttpClientModule&#45;&gt;SiteDetailModule</title>
<path fill="none" stroke="black" d="M705.03,-122.03C705.03,-138.4 705.03,-160 705.03,-160 705.03,-160 640.91,-160 640.91,-160"/>
<polygon fill="black" stroke="black" points="640.91,-156.5 630.91,-160 640.91,-163.5 640.91,-156.5"/>
</g>
<!-- LocationModule -->
<g id="node3" class="node">
<title>LocationModule</title>
<polygon fill="#8dd3c7" stroke="black" points="627.81,-122 624.81,-126 603.81,-126 600.81,-122 518.19,-122 518.19,-86 627.81,-86 627.81,-122"/>
<text text-anchor="middle" x="573" y="-99.8" font-family="Times,serif" font-size="14.00">LocationModule</text>
</g>
<!-- LocationModule&#45;&gt;SiteDetailModule -->
<g id="edge3" class="edge">
<title>LocationModule&#45;&gt;SiteDetailModule</title>
<path fill="none" stroke="black" d="M573,-122.11C573,-122.11 573,-140.99 573,-140.99"/>
<polygon fill="black" stroke="black" points="569.5,-140.99 573,-150.99 576.5,-140.99 569.5,-140.99"/>
</g>
<!-- ProductDefinitionModule -->
<g id="node4" class="node">
<title>ProductDefinitionModule</title>
<polygon fill="#8dd3c7" stroke="black" points="500.14,-122 497.14,-126 476.14,-126 473.14,-122 339.86,-122 339.86,-86 500.14,-86 500.14,-122"/>
<text text-anchor="middle" x="420" y="-99.8" font-family="Times,serif" font-size="14.00">ProductDefinitionModule</text>
</g>
<!-- ProductDefinitionModule&#45;&gt;SiteDetailModule -->
<g id="edge4" class="edge">
<title>ProductDefinitionModule&#45;&gt;SiteDetailModule</title>
<path fill="none" stroke="black" d="M419.97,-122.03C419.97,-138.4 419.97,-160 419.97,-160 419.97,-160 505.15,-160 505.15,-160"/>
<polygon fill="black" stroke="black" points="505.15,-163.5 515.15,-160 505.15,-156.5 505.15,-163.5"/>
</g>
<!-- RolePermissionModule -->
<g id="node5" class="node">
<title>RolePermissionModule</title>
<polygon fill="#8dd3c7" stroke="black" points="322.21,-122 319.21,-126 298.21,-126 295.21,-122 173.79,-122 173.79,-86 322.21,-86 322.21,-122"/>
<text text-anchor="middle" x="248" y="-99.8" font-family="Times,serif" font-size="14.00">RolePermissionModule</text>
</g>
<!-- RolePermissionModule&#45;&gt;SiteDetailModule -->
<g id="edge5" class="edge">
<title>RolePermissionModule&#45;&gt;SiteDetailModule</title>
<path fill="none" stroke="black" d="M248,-122.11C248,-141.34 248,-169 248,-169 248,-169 505.27,-169 505.27,-169"/>
<polygon fill="black" stroke="black" points="505.27,-172.5 515.27,-169 505.27,-165.5 505.27,-172.5"/>
</g>
<!-- SupplyChainModule -->
<g id="node6" class="node">
<title>SupplyChainModule</title>
<polygon fill="#8dd3c7" stroke="black" points="156.17,-122 153.17,-126 132.17,-126 129.17,-122 23.83,-122 23.83,-86 156.17,-86 156.17,-122"/>
<text text-anchor="middle" x="90" y="-99.8" font-family="Times,serif" font-size="14.00">SupplyChainModule</text>
</g>
<!-- SupplyChainModule&#45;&gt;SiteDetailModule -->
<g id="edge6" class="edge">
<title>SupplyChainModule&#45;&gt;SiteDetailModule</title>
<path fill="none" stroke="black" d="M90,-122.29C90,-144.21 90,-178 90,-178 90,-178 505.22,-178 505.22,-178"/>
<polygon fill="black" stroke="black" points="505.22,-181.5 515.22,-178 505.22,-174.5 505.22,-181.5"/>
</g>
<!-- BusinessDetailService  -->
<g id="node8" class="node">
<title>BusinessDetailService </title>
<polygon fill="#fb8072" stroke="black" points="645.96,-252 500.04,-252 500.04,-216 645.96,-216 645.96,-252"/>
<text text-anchor="middle" x="573" y="-229.8" font-family="Times,serif" font-size="14.00">BusinessDetailService </text>
</g>
<!-- SiteDetailModule&#45;&gt;BusinessDetailService  -->
<g id="edge7" class="edge">
<title>SiteDetailModule&#45;&gt;BusinessDetailService </title>
<path fill="none" stroke="black" stroke-dasharray="5,2" d="M573,-187.11C573,-187.11 573,-205.99 573,-205.99"/>
<polygon fill="black" stroke="black" points="569.5,-205.99 573,-215.99 576.5,-205.99 569.5,-205.99"/>
</g>
<!-- BusinessDetailService -->
<g id="node9" class="node">
<title>BusinessDetailService</title>
<ellipse fill="#fdb462" stroke="black" cx="1056" cy="-104" rx="97.84" ry="18"/>
<text text-anchor="middle" x="1056" y="-99.8" font-family="Times,serif" font-size="14.00">BusinessDetailService</text>
</g>
<!-- BusinessDetailService&#45;&gt;SiteDetailModule -->
<g id="edge8" class="edge">
<title>BusinessDetailService&#45;&gt;SiteDetailModule</title>
<path fill="none" stroke="black" d="M1056,-122.29C1056,-144.21 1056,-178 1056,-178 1056,-178 640.78,-178 640.78,-178"/>
<polygon fill="black" stroke="black" points="640.78,-174.5 630.78,-178 640.78,-181.5 640.78,-174.5"/>
</g>
</g>
</svg>
