<?xml version="1.0" encoding="UTF-8" standalone="no"?>
<!DOCTYPE svg PUBLIC "-//W3C//DTD SVG 1.1//EN"
 "http://www.w3.org/Graphics/SVG/1.1/DTD/svg11.dtd">
<!-- Generated by graphviz version 2.47.0 (20210316.0004)
 -->
<!-- Title: dependencies Pages: 1 -->
<svg width="504pt" height="284pt"
 viewBox="0.00 0.00 504.00 284.00" xmlns="http://www.w3.org/2000/svg" xmlns:xlink="http://www.w3.org/1999/xlink">
<g id="graph0" class="graph" transform="scale(1 1) rotate(0) translate(4 280)">
<title>dependencies</title>
<polygon fill="white" stroke="transparent" points="-4,4 -4,-280 500,-280 500,4 -4,4"/>
<text text-anchor="start" x="227.01" y="-42.4" font-family="Times-12" font-weight="bold" font-size="14.00">Legend</text>
<polygon fill="#ffffb3" stroke="transparent" points="14,-10 14,-30 34,-30 34,-10 14,-10"/>
<text text-anchor="start" x="37.63" y="-15.4" font-family="Times-12" font-size="14.00"> &#160;Declarations</text>
<polygon fill="#8dd3c7" stroke="transparent" points="127,-10 127,-30 147,-30 147,-10 127,-10"/>
<text text-anchor="start" x="150.73" y="-15.4" font-family="Times-12" font-size="14.00"> &#160;Module</text>
<polygon fill="#80b1d3" stroke="transparent" points="213,-10 213,-30 233,-30 233,-10 213,-10"/>
<text text-anchor="start" x="236.78" y="-15.4" font-family="Times-12" font-size="14.00"> &#160;Bootstrap</text>
<polygon fill="#fdb462" stroke="transparent" points="310,-10 310,-30 330,-30 330,-10 310,-10"/>
<text text-anchor="start" x="333.67" y="-15.4" font-family="Times-12" font-size="14.00"> &#160;Providers</text>
<polygon fill="#fb8072" stroke="transparent" points="406,-10 406,-30 426,-30 426,-10 406,-10"/>
<text text-anchor="start" x="429.73" y="-15.4" font-family="Times-12" font-size="14.00"> &#160;Exports</text>
<g id="clust1" class="cluster">
<title>cluster_SiteDetailModule</title>
<polygon fill="none" stroke="black" stroke-dasharray="1,5" points="48,-70 48,-268 448,-268 448,-70 48,-70"/>
</g>
<g id="clust3" class="cluster">
<title>cluster_SiteDetailModule_imports</title>
<polygon fill="none" stroke="black" points="276,-78 276,-130 440,-130 440,-78 276,-78"/>
</g>
<g id="clust4" class="cluster">
<title>cluster_SiteDetailModule_exports</title>
<polygon fill="none" stroke="black" points="179,-208 179,-260 341,-260 341,-208 179,-208"/>
</g>
<g id="clust6" class="cluster">
<title>cluster_SiteDetailModule_providers</title>
<polygon fill="none" stroke="black" points="56,-78 56,-130 268,-130 268,-78 56,-78"/>
</g>
<!-- RolePermissionModule -->
<g id="node1" class="node">
<title>RolePermissionModule</title>
<polygon fill="#8dd3c7" stroke="black" points="432.21,-122 429.21,-126 408.21,-126 405.21,-122 283.79,-122 283.79,-86 432.21,-86 432.21,-122"/>
<text text-anchor="middle" x="358" y="-99.8" font-family="Times,serif" font-size="14.00">RolePermissionModule</text>
</g>
<!-- SiteDetailModule -->
<g id="node2" class="node">
<title>SiteDetailModule</title>
<polygon fill="#8dd3c7" stroke="black" points="317.54,-187 314.54,-191 293.54,-191 290.54,-187 202.46,-187 202.46,-151 317.54,-151 317.54,-187"/>
<text text-anchor="middle" x="260" y="-164.8" font-family="Times,serif" font-size="14.00">SiteDetailModule</text>
</g>
<!-- RolePermissionModule&#45;&gt;SiteDetailModule -->
<g id="edge1" class="edge">
<title>RolePermissionModule&#45;&gt;SiteDetailModule</title>
<path fill="none" stroke="black" d="M300.83,-122.11C300.83,-122.11 300.83,-140.99 300.83,-140.99"/>
<polygon fill="black" stroke="black" points="297.33,-140.99 300.83,-150.99 304.33,-140.99 297.33,-140.99"/>
</g>
<!-- BusinessDetailService  -->
<g id="node3" class="node">
<title>BusinessDetailService </title>
<polygon fill="#fb8072" stroke="black" points="332.96,-252 187.04,-252 187.04,-216 332.96,-216 332.96,-252"/>
<text text-anchor="middle" x="260" y="-229.8" font-family="Times,serif" font-size="14.00">BusinessDetailService </text>
</g>
<!-- SiteDetailModule&#45;&gt;BusinessDetailService  -->
<g id="edge2" class="edge">
<title>SiteDetailModule&#45;&gt;BusinessDetailService </title>
<path fill="none" stroke="black" stroke-dasharray="5,2" d="M260,-187.11C260,-187.11 260,-205.99 260,-205.99"/>
<polygon fill="black" stroke="black" points="256.5,-205.99 260,-215.99 263.5,-205.99 256.5,-205.99"/>
</g>
<!-- BusinessDetailService -->
<g id="node4" class="node">
<title>BusinessDetailService</title>
<ellipse fill="#fdb462" stroke="black" cx="162" cy="-104" rx="97.84" ry="18"/>
<text text-anchor="middle" x="162" y="-99.8" font-family="Times,serif" font-size="14.00">BusinessDetailService</text>
</g>
<!-- BusinessDetailService&#45;&gt;SiteDetailModule -->
<g id="edge3" class="edge">
<title>BusinessDetailService&#45;&gt;SiteDetailModule</title>
<path fill="none" stroke="black" d="M231.08,-116.84C231.08,-116.84 231.08,-140.52 231.08,-140.52"/>
<polygon fill="black" stroke="black" points="227.58,-140.52 231.08,-150.52 234.58,-140.52 227.58,-140.52"/>
</g>
</g>
</svg>
