<?xml version="1.0" encoding="UTF-8" standalone="no"?>
<!DOCTYPE svg PUBLIC "-//W3C//DTD SVG 1.1//EN"
 "http://www.w3.org/Graphics/SVG/1.1/DTD/svg11.dtd">
<!-- Generated by graphviz version 2.47.0 (20210316.0004)
 -->
<!-- Title: dependencies Pages: 1 -->
<svg width="1008pt" height="284pt"
 viewBox="0.00 0.00 1008.00 284.00" xmlns="http://www.w3.org/2000/svg" xmlns:xlink="http://www.w3.org/1999/xlink">
<g id="graph0" class="graph" transform="scale(1 1) rotate(0) translate(4 280)">
<title>dependencies</title>
<polygon fill="white" stroke="transparent" points="-4,4 -4,-280 1004,-280 1004,4 -4,4"/>
<text text-anchor="start" x="479.01" y="-42.4" font-family="Times-12" font-weight="bold" font-size="14.00">Legend</text>
<polygon fill="#ffffb3" stroke="transparent" points="266,-10 266,-30 286,-30 286,-10 266,-10"/>
<text text-anchor="start" x="289.63" y="-15.4" font-family="Times-12" font-size="14.00"> &#160;Declarations</text>
<polygon fill="#8dd3c7" stroke="transparent" points="379,-10 379,-30 399,-30 399,-10 379,-10"/>
<text text-anchor="start" x="402.73" y="-15.4" font-family="Times-12" font-size="14.00"> &#160;Module</text>
<polygon fill="#80b1d3" stroke="transparent" points="465,-10 465,-30 485,-30 485,-10 465,-10"/>
<text text-anchor="start" x="488.78" y="-15.4" font-family="Times-12" font-size="14.00"> &#160;Bootstrap</text>
<polygon fill="#fdb462" stroke="transparent" points="562,-10 562,-30 582,-30 582,-10 562,-10"/>
<text text-anchor="start" x="585.67" y="-15.4" font-family="Times-12" font-size="14.00"> &#160;Providers</text>
<polygon fill="#fb8072" stroke="transparent" points="658,-10 658,-30 678,-30 678,-10 658,-10"/>
<text text-anchor="start" x="681.73" y="-15.4" font-family="Times-12" font-size="14.00"> &#160;Exports</text>
<g id="clust1" class="cluster">
<title>cluster_RolePermissionModule</title>
<polygon fill="none" stroke="black" stroke-dasharray="1,5" points="8,-70 8,-268 992,-268 992,-70 8,-70"/>
</g>
<g id="clust4" class="cluster">
<title>cluster_RolePermissionModule_exports</title>
<polygon fill="none" stroke="black" points="213,-208 213,-260 789,-260 789,-208 213,-208"/>
</g>
<g id="clust6" class="cluster">
<title>cluster_RolePermissionModule_providers</title>
<polygon fill="none" stroke="black" points="16,-78 16,-130 984,-130 984,-78 16,-78"/>
</g>
<!-- HarvestSeasonService  -->
<g id="node1" class="node">
<title>HarvestSeasonService </title>
<polygon fill="#fb8072" stroke="black" points="781.17,-252 636.83,-252 636.83,-216 781.17,-216 781.17,-252"/>
<text text-anchor="middle" x="709" y="-229.8" font-family="Times,serif" font-size="14.00">HarvestSeasonService </text>
</g>
<!-- PermissionService  -->
<g id="node2" class="node">
<title>PermissionService </title>
<polygon fill="#fb8072" stroke="black" points="618.7,-252 495.3,-252 495.3,-216 618.7,-216 618.7,-252"/>
<text text-anchor="middle" x="557" y="-229.8" font-family="Times,serif" font-size="14.00">PermissionService </text>
</g>
<!-- RolePermissionService  -->
<g id="node3" class="node">
<title>RolePermissionService </title>
<polygon fill="#fb8072" stroke="black" points="477.14,-252 326.86,-252 326.86,-216 477.14,-216 477.14,-252"/>
<text text-anchor="middle" x="402" y="-229.8" font-family="Times,serif" font-size="14.00">RolePermissionService </text>
</g>
<!-- RoleService  -->
<g id="node4" class="node">
<title>RoleService </title>
<polygon fill="#fb8072" stroke="black" points="308.92,-252 221.08,-252 221.08,-216 308.92,-216 308.92,-252"/>
<text text-anchor="middle" x="265" y="-229.8" font-family="Times,serif" font-size="14.00">RoleService </text>
</g>
<!-- RolePermissionModule -->
<g id="node5" class="node">
<title>RolePermissionModule</title>
<polygon fill="#8dd3c7" stroke="black" points="553.21,-187 550.21,-191 529.21,-191 526.21,-187 404.79,-187 404.79,-151 553.21,-151 553.21,-187"/>
<text text-anchor="middle" x="479" y="-164.8" font-family="Times,serif" font-size="14.00">RolePermissionModule</text>
</g>
<!-- RolePermissionModule&#45;&gt;HarvestSeasonService  -->
<g id="edge1" class="edge">
<title>RolePermissionModule&#45;&gt;HarvestSeasonService </title>
<path fill="none" stroke="black" stroke-dasharray="5,2" d="M553.3,-178C617.59,-178 700.29,-178 700.29,-178 700.29,-178 700.29,-205.97 700.29,-205.97"/>
<polygon fill="black" stroke="black" points="696.79,-205.97 700.29,-215.97 703.79,-205.97 696.79,-205.97"/>
</g>
<!-- RolePermissionModule&#45;&gt;PermissionService  -->
<g id="edge2" class="edge">
<title>RolePermissionModule&#45;&gt;PermissionService </title>
<path fill="none" stroke="black" stroke-dasharray="5,2" d="M524.13,-187.11C524.13,-187.11 524.13,-205.99 524.13,-205.99"/>
<polygon fill="black" stroke="black" points="520.63,-205.99 524.13,-215.99 527.63,-205.99 520.63,-205.99"/>
</g>
<!-- RolePermissionModule&#45;&gt;RolePermissionService  -->
<g id="edge3" class="edge">
<title>RolePermissionModule&#45;&gt;RolePermissionService </title>
<path fill="none" stroke="black" stroke-dasharray="5,2" d="M440.98,-187.11C440.98,-187.11 440.98,-205.99 440.98,-205.99"/>
<polygon fill="black" stroke="black" points="437.48,-205.99 440.98,-215.99 444.48,-205.99 437.48,-205.99"/>
</g>
<!-- RolePermissionModule&#45;&gt;RoleService  -->
<g id="edge4" class="edge">
<title>RolePermissionModule&#45;&gt;RoleService </title>
<path fill="none" stroke="black" stroke-dasharray="5,2" d="M404.7,-178C346.86,-178 276.36,-178 276.36,-178 276.36,-178 276.36,-205.97 276.36,-205.97"/>
<polygon fill="black" stroke="black" points="272.86,-205.97 276.36,-215.97 279.86,-205.97 272.86,-205.97"/>
</g>
<!-- HarvestSeasonService -->
<g id="node6" class="node">
<title>HarvestSeasonService</title>
<ellipse fill="#fdb462" stroke="black" cx="879" cy="-104" rx="97.25" ry="18"/>
<text text-anchor="middle" x="879" y="-99.8" font-family="Times,serif" font-size="14.00">HarvestSeasonService</text>
</g>
<!-- HarvestSeasonService&#45;&gt;RolePermissionModule -->
<g id="edge5" class="edge">
<title>HarvestSeasonService&#45;&gt;RolePermissionModule</title>
<path fill="none" stroke="black" d="M879,-122.11C879,-141.34 879,-169 879,-169 879,-169 563.3,-169 563.3,-169"/>
<polygon fill="black" stroke="black" points="563.3,-165.5 553.3,-169 563.3,-172.5 563.3,-165.5"/>
</g>
<!-- PermissionService -->
<g id="node7" class="node">
<title>PermissionService</title>
<ellipse fill="#fdb462" stroke="black" cx="681" cy="-104" rx="82.82" ry="18"/>
<text text-anchor="middle" x="681" y="-99.8" font-family="Times,serif" font-size="14.00">PermissionService</text>
</g>
<!-- PermissionService&#45;&gt;RolePermissionModule -->
<g id="edge6" class="edge">
<title>PermissionService&#45;&gt;RolePermissionModule</title>
<path fill="none" stroke="black" d="M608.47,-112.75C608.47,-128.5 608.47,-160 608.47,-160 608.47,-160 563.19,-160 563.19,-160"/>
<polygon fill="black" stroke="black" points="563.19,-156.5 553.19,-160 563.19,-163.5 563.19,-156.5"/>
</g>
<!-- RolePermissionService -->
<g id="node8" class="node">
<title>RolePermissionService</title>
<ellipse fill="#fdb462" stroke="black" cx="479" cy="-104" rx="101.3" ry="18"/>
<text text-anchor="middle" x="479" y="-99.8" font-family="Times,serif" font-size="14.00">RolePermissionService</text>
</g>
<!-- RolePermissionService&#45;&gt;RolePermissionModule -->
<g id="edge7" class="edge">
<title>RolePermissionService&#45;&gt;RolePermissionModule</title>
<path fill="none" stroke="black" d="M479,-122.11C479,-122.11 479,-140.99 479,-140.99"/>
<polygon fill="black" stroke="black" points="475.5,-140.99 479,-150.99 482.5,-140.99 475.5,-140.99"/>
</g>
<!-- RoleService -->
<g id="node9" class="node">
<title>RoleService</title>
<ellipse fill="#fdb462" stroke="black" cx="302" cy="-104" rx="58.46" ry="18"/>
<text text-anchor="middle" x="302" y="-99.8" font-family="Times,serif" font-size="14.00">RoleService</text>
</g>
<!-- RoleService&#45;&gt;RolePermissionModule -->
<g id="edge8" class="edge">
<title>RoleService&#45;&gt;RolePermissionModule</title>
<path fill="none" stroke="black" d="M343.58,-116.71C343.58,-133.23 343.58,-160 343.58,-160 343.58,-160 394.56,-160 394.56,-160"/>
<polygon fill="black" stroke="black" points="394.56,-163.5 404.56,-160 394.56,-156.5 394.56,-163.5"/>
</g>
<!-- UserPermissionService -->
<g id="node10" class="node">
<title>UserPermissionService</title>
<ellipse fill="#fdb462" stroke="black" cx="125" cy="-104" rx="101.28" ry="18"/>
<text text-anchor="middle" x="125" y="-99.8" font-family="Times,serif" font-size="14.00">UserPermissionService</text>
</g>
<!-- UserPermissionService&#45;&gt;RolePermissionModule -->
<g id="edge9" class="edge">
<title>UserPermissionService&#45;&gt;RolePermissionModule</title>
<path fill="none" stroke="black" d="M122.45,-122.11C122.45,-141.34 122.45,-169 122.45,-169 122.45,-169 394.69,-169 394.69,-169"/>
<polygon fill="black" stroke="black" points="394.69,-172.5 404.69,-169 394.69,-165.5 394.69,-172.5"/>
</g>
</g>
</svg>
