<?xml version="1.0" encoding="UTF-8" standalone="no"?>
<!DOCTYPE svg PUBLIC "-//W3C//DTD SVG 1.1//EN"
 "http://www.w3.org/Graphics/SVG/1.1/DTD/svg11.dtd">
<!-- Generated by graphviz version 2.47.0 (20210316.0004)
 -->
<!-- Title: dependencies Pages: 1 -->
<svg width="4951pt" height="211pt"
 viewBox="0.00 0.00 4951.00 211.00" xmlns="http://www.w3.org/2000/svg" xmlns:xlink="http://www.w3.org/1999/xlink">
<g id="graph0" class="graph" transform="scale(1 1) rotate(0) translate(4 207)">
<title>dependencies</title>
<polygon fill="white" stroke="transparent" points="-4,4 -4,-207 4947,-207 4947,4 -4,4"/>
<text text-anchor="start" x="2450.51" y="-42.4" font-family="Times-12" font-weight="bold" font-size="14.00">Legend</text>
<polygon fill="#ffffb3" stroke="transparent" points="2237.5,-10 2237.5,-30 2257.5,-30 2257.5,-10 2237.5,-10"/>
<text text-anchor="start" x="2261.13" y="-15.4" font-family="Times-12" font-size="14.00"> &#160;Declarations</text>
<polygon fill="#8dd3c7" stroke="transparent" points="2350.5,-10 2350.5,-30 2370.5,-30 2370.5,-10 2350.5,-10"/>
<text text-anchor="start" x="2374.23" y="-15.4" font-family="Times-12" font-size="14.00"> &#160;Module</text>
<polygon fill="#80b1d3" stroke="transparent" points="2436.5,-10 2436.5,-30 2456.5,-30 2456.5,-10 2436.5,-10"/>
<text text-anchor="start" x="2460.28" y="-15.4" font-family="Times-12" font-size="14.00"> &#160;Bootstrap</text>
<polygon fill="#fdb462" stroke="transparent" points="2533.5,-10 2533.5,-30 2553.5,-30 2553.5,-10 2533.5,-10"/>
<text text-anchor="start" x="2557.17" y="-15.4" font-family="Times-12" font-size="14.00"> &#160;Providers</text>
<polygon fill="#fb8072" stroke="transparent" points="2629.5,-10 2629.5,-30 2649.5,-30 2649.5,-10 2629.5,-10"/>
<text text-anchor="start" x="2653.23" y="-15.4" font-family="Times-12" font-size="14.00"> &#160;Exports</text>
<g id="clust1" class="cluster">
<title>cluster_AppModule</title>
<polygon fill="none" stroke="black" stroke-dasharray="1,5" points="8,-70 8,-195 4935,-195 4935,-70 8,-70"/>
</g>
<g id="clust3" class="cluster">
<title>cluster_AppModule_imports</title>
<polygon fill="none" stroke="black" points="16,-78 16,-130 4927,-130 4927,-78 16,-78"/>
</g>
<!-- BusinessPartnerModule -->
<g id="node1" class="node">
<title>BusinessPartnerModule</title>
<polygon fill="#8dd3c7" stroke="black" points="4918.75,-122 4915.75,-126 4894.75,-126 4891.75,-122 4769.25,-122 4769.25,-86 4918.75,-86 4918.75,-122"/>
<text text-anchor="middle" x="4844" y="-99.8" font-family="Times,serif" font-size="14.00">BusinessPartnerModule</text>
</g>
<!-- AppModule -->
<g id="node35" class="node">
<title>AppModule</title>
<polygon fill="#8dd3c7" stroke="black" points="2443.66,-187 2440.66,-191 2419.66,-191 2416.66,-187 2360.34,-187 2360.34,-151 2443.66,-151 2443.66,-187"/>
<text text-anchor="middle" x="2402" y="-164.8" font-family="Times,serif" font-size="14.00">AppModule</text>
</g>
<!-- BusinessPartnerModule&#45;&gt;AppModule -->
<g id="edge1" class="edge">
<title>BusinessPartnerModule&#45;&gt;AppModule</title>
<path fill="none" stroke="black" d="M4844,-122.38C4844,-146.28 4844,-185 4844,-185 4844,-185 2453.87,-185 2453.87,-185"/>
<polygon fill="black" stroke="black" points="2453.87,-181.5 2443.87,-185 2453.87,-188.5 2453.87,-181.5"/>
</g>
<!-- CalculateFieldModule -->
<g id="node2" class="node">
<title>CalculateFieldModule</title>
<polygon fill="#8dd3c7" stroke="black" points="4751.7,-122 4748.7,-126 4727.7,-126 4724.7,-122 4610.3,-122 4610.3,-86 4751.7,-86 4751.7,-122"/>
<text text-anchor="middle" x="4681" y="-99.8" font-family="Times,serif" font-size="14.00">CalculateFieldModule</text>
</g>
<!-- CalculateFieldModule&#45;&gt;AppModule -->
<g id="edge2" class="edge">
<title>CalculateFieldModule&#45;&gt;AppModule</title>
<path fill="none" stroke="black" d="M4681,-122.32C4681,-145.66 4681,-183 4681,-183 4681,-183 2453.99,-183 2453.99,-183"/>
<polygon fill="black" stroke="black" points="2454,-179.5 2443.99,-183 2453.99,-186.5 2454,-179.5"/>
</g>
<!-- CapModule -->
<g id="node3" class="node">
<title>CapModule</title>
<polygon fill="#8dd3c7" stroke="black" points="4592.1,-122 4589.1,-126 4568.1,-126 4565.1,-122 4509.9,-122 4509.9,-86 4592.1,-86 4592.1,-122"/>
<text text-anchor="middle" x="4551" y="-99.8" font-family="Times,serif" font-size="14.00">CapModule</text>
</g>
<!-- CapModule&#45;&gt;AppModule -->
<g id="edge3" class="edge">
<title>CapModule&#45;&gt;AppModule</title>
<path fill="none" stroke="black" d="M4551,-122.09C4551,-145.13 4551,-182 4551,-182 4551,-182 2453.96,-182 2453.96,-182"/>
<polygon fill="black" stroke="black" points="2453.96,-178.5 2443.96,-182 2453.96,-185.5 2453.96,-178.5"/>
</g>
<!-- CategoryModule -->
<g id="node4" class="node">
<title>CategoryModule</title>
<polygon fill="#8dd3c7" stroke="black" points="4492.37,-122 4489.37,-126 4468.37,-126 4465.37,-122 4381.63,-122 4381.63,-86 4492.37,-86 4492.37,-122"/>
<text text-anchor="middle" x="4437" y="-99.8" font-family="Times,serif" font-size="14.00">CategoryModule</text>
</g>
<!-- CategoryModule&#45;&gt;AppModule -->
<g id="edge4" class="edge">
<title>CategoryModule&#45;&gt;AppModule</title>
<path fill="none" stroke="black" d="M4437,-122.16C4437,-144.35 4437,-179 4437,-179 4437,-179 2454.04,-179 2454.04,-179"/>
<polygon fill="black" stroke="black" points="2454.04,-175.5 2444.04,-179 2454.04,-182.5 2454.04,-175.5"/>
</g>
<!-- CategoryUtilModule -->
<g id="node5" class="node">
<title>CategoryUtilModule</title>
<polygon fill="#8dd3c7" stroke="black" points="4363.15,-122 4360.15,-126 4339.15,-126 4336.15,-122 4230.85,-122 4230.85,-86 4363.15,-86 4363.15,-122"/>
<text text-anchor="middle" x="4297" y="-99.8" font-family="Times,serif" font-size="14.00">CategoryUtilModule</text>
</g>
<!-- CategoryUtilModule&#45;&gt;AppModule -->
<g id="edge5" class="edge">
<title>CategoryUtilModule&#45;&gt;AppModule</title>
<path fill="none" stroke="black" d="M4297,-122.04C4297,-143.66 4297,-177 4297,-177 4297,-177 2453.79,-177 2453.79,-177"/>
<polygon fill="black" stroke="black" points="2453.79,-173.5 2443.79,-177 2453.79,-180.5 2453.79,-173.5"/>
</g>
<!-- CommodityRiskModule -->
<g id="node6" class="node">
<title>CommodityRiskModule</title>
<polygon fill="#8dd3c7" stroke="black" points="4213.12,-122 4210.12,-126 4189.12,-126 4186.12,-122 4060.88,-122 4060.88,-86 4213.12,-86 4213.12,-122"/>
<text text-anchor="middle" x="4137" y="-99.8" font-family="Times,serif" font-size="14.00">CommodityRiskModule</text>
</g>
<!-- CommodityRiskModule&#45;&gt;AppModule -->
<g id="edge6" class="edge">
<title>CommodityRiskModule&#45;&gt;AppModule</title>
<path fill="none" stroke="black" d="M4137,-122.28C4137,-143.32 4137,-175 4137,-175 4137,-175 2454.03,-175 2454.03,-175"/>
<polygon fill="black" stroke="black" points="2454.03,-171.5 2444.03,-175 2454.03,-178.5 2454.03,-171.5"/>
</g>
<!-- DnaTestingModule -->
<g id="node7" class="node">
<title>DnaTestingModule</title>
<polygon fill="#8dd3c7" stroke="black" points="4043.36,-122 4040.36,-126 4019.36,-126 4016.36,-122 3918.64,-122 3918.64,-86 4043.36,-86 4043.36,-122"/>
<text text-anchor="middle" x="3981" y="-99.8" font-family="Times,serif" font-size="14.00">DnaTestingModule</text>
</g>
<!-- DnaTestingModule&#45;&gt;AppModule -->
<g id="edge7" class="edge">
<title>DnaTestingModule&#45;&gt;AppModule</title>
<path fill="none" stroke="black" d="M3981,-122.13C3981,-142.57 3981,-173 3981,-173 3981,-173 2453.83,-173 2453.83,-173"/>
<polygon fill="black" stroke="black" points="2453.83,-169.5 2443.83,-173 2453.83,-176.5 2453.83,-169.5"/>
</g>
<!-- DynamicLinkModule -->
<g id="node8" class="node">
<title>DynamicLinkModule</title>
<polygon fill="#8dd3c7" stroke="black" points="3900.81,-122 3897.81,-126 3876.81,-126 3873.81,-122 3763.19,-122 3763.19,-86 3900.81,-86 3900.81,-122"/>
<text text-anchor="middle" x="3832" y="-99.8" font-family="Times,serif" font-size="14.00">DynamicLinkModule</text>
</g>
<!-- DynamicLinkModule&#45;&gt;AppModule -->
<g id="edge8" class="edge">
<title>DynamicLinkModule&#45;&gt;AppModule</title>
<path fill="none" stroke="black" d="M3832,-122.31C3832,-142.15 3832,-171 3832,-171 3832,-171 2454.02,-171 2454.02,-171"/>
<polygon fill="black" stroke="black" points="2454.02,-167.5 2444.02,-171 2454.02,-174.5 2454.02,-167.5"/>
</g>
<!-- EventModule -->
<g id="node9" class="node">
<title>EventModule</title>
<polygon fill="#8dd3c7" stroke="black" points="3745.21,-122 3742.21,-126 3721.21,-126 3718.21,-122 3652.79,-122 3652.79,-86 3745.21,-86 3745.21,-122"/>
<text text-anchor="middle" x="3699" y="-99.8" font-family="Times,serif" font-size="14.00">EventModule</text>
</g>
<!-- EventModule&#45;&gt;AppModule -->
<g id="edge9" class="edge">
<title>EventModule&#45;&gt;AppModule</title>
<path fill="none" stroke="black" d="M3699,-122.11C3699,-141.34 3699,-169 3699,-169 3699,-169 2453.68,-169 2453.68,-169"/>
<polygon fill="black" stroke="black" points="2453.68,-165.5 2443.68,-169 2453.68,-172.5 2453.68,-165.5"/>
</g>
<!-- ExportTemplateModule -->
<g id="node10" class="node">
<title>ExportTemplateModule</title>
<polygon fill="#8dd3c7" stroke="black" points="3635.02,-122 3632.02,-126 3611.02,-126 3608.02,-122 3484.98,-122 3484.98,-86 3635.02,-86 3635.02,-122"/>
<text text-anchor="middle" x="3560" y="-99.8" font-family="Times,serif" font-size="14.00">ExportTemplateModule</text>
</g>
<!-- ExportTemplateModule&#45;&gt;AppModule -->
<g id="edge10" class="edge">
<title>ExportTemplateModule&#45;&gt;AppModule</title>
<path fill="none" stroke="black" d="M3560,-122.22C3560,-140.83 3560,-167 3560,-167 3560,-167 2453.9,-167 2453.9,-167"/>
<polygon fill="black" stroke="black" points="2453.9,-163.5 2443.9,-167 2453.9,-170.5 2453.9,-163.5"/>
</g>
<!-- FacilityModule -->
<g id="node11" class="node">
<title>FacilityModule</title>
<polygon fill="#8dd3c7" stroke="black" points="3467.32,-122 3464.32,-126 3443.32,-126 3440.32,-122 3364.68,-122 3364.68,-86 3467.32,-86 3467.32,-122"/>
<text text-anchor="middle" x="3416" y="-99.8" font-family="Times,serif" font-size="14.00">FacilityModule</text>
</g>
<!-- FacilityModule&#45;&gt;AppModule -->
<g id="edge11" class="edge">
<title>FacilityModule&#45;&gt;AppModule</title>
<path fill="none" stroke="black" d="M3416,-122.3C3416,-140.27 3416,-165 3416,-165 3416,-165 2453.96,-165 2453.96,-165"/>
<polygon fill="black" stroke="black" points="2453.96,-161.5 2443.96,-165 2453.96,-168.5 2453.96,-161.5"/>
</g>
<!-- FileModule -->
<g id="node12" class="node">
<title>FileModule</title>
<polygon fill="#8dd3c7" stroke="black" points="3346.83,-122 3343.83,-126 3322.83,-126 3319.83,-122 3265.17,-122 3265.17,-86 3346.83,-86 3346.83,-122"/>
<text text-anchor="middle" x="3306" y="-99.8" font-family="Times,serif" font-size="14.00">FileModule</text>
</g>
<!-- FileModule&#45;&gt;AppModule -->
<g id="edge12" class="edge">
<title>FileModule&#45;&gt;AppModule</title>
<path fill="none" stroke="black" d="M3306,-122.02C3306,-139.37 3306,-163 3306,-163 3306,-163 2453.79,-163 2453.79,-163"/>
<polygon fill="black" stroke="black" points="2453.79,-159.5 2443.79,-163 2453.79,-166.5 2453.79,-159.5"/>
</g>
<!-- GeographicalRiskLevelModule -->
<g id="node13" class="node">
<title>GeographicalRiskLevelModule</title>
<polygon fill="#8dd3c7" stroke="black" points="3247,-122 3244,-126 3223,-126 3220,-122 3055,-122 3055,-86 3247,-86 3247,-122"/>
<text text-anchor="middle" x="3151" y="-99.8" font-family="Times,serif" font-size="14.00">GeographicalRiskLevelModule</text>
</g>
<!-- GeographicalRiskLevelModule&#45;&gt;AppModule -->
<g id="edge13" class="edge">
<title>GeographicalRiskLevelModule&#45;&gt;AppModule</title>
<path fill="none" stroke="black" d="M3151,-122.04C3151,-138.73 3151,-161 3151,-161 3151,-161 2453.87,-161 2453.87,-161"/>
<polygon fill="black" stroke="black" points="2453.87,-157.5 2443.87,-161 2453.87,-164.5 2453.87,-157.5"/>
</g>
<!-- GlobalCacheModule -->
<g id="node14" class="node">
<title>GlobalCacheModule</title>
<polygon fill="#8dd3c7" stroke="black" points="3036.13,-122 3033.13,-126 3012.13,-126 3009.13,-122 2903.87,-122 2903.87,-86 3036.13,-86 3036.13,-122"/>
<text text-anchor="middle" x="2970" y="-99.8" font-family="Times,serif" font-size="14.00">GlobalCacheModule</text>
</g>
<!-- GlobalCacheModule&#45;&gt;AppModule -->
<g id="edge14" class="edge">
<title>GlobalCacheModule&#45;&gt;AppModule</title>
<path fill="none" stroke="black" d="M2970,-122.01C2970,-138.05 2970,-159 2970,-159 2970,-159 2453.77,-159 2453.77,-159"/>
<polygon fill="black" stroke="black" points="2453.77,-155.5 2443.77,-159 2453.77,-162.5 2453.77,-155.5"/>
</g>
<!-- GrievanceReportModule -->
<g id="node15" class="node">
<title>GrievanceReportModule</title>
<polygon fill="#8dd3c7" stroke="black" points="2885.67,-122 2882.67,-126 2861.67,-126 2858.67,-122 2730.33,-122 2730.33,-86 2885.67,-86 2885.67,-122"/>
<text text-anchor="middle" x="2808" y="-99.8" font-family="Times,serif" font-size="14.00">GrievanceReportModule</text>
</g>
<!-- GrievanceReportModule&#45;&gt;AppModule -->
<g id="edge15" class="edge">
<title>GrievanceReportModule&#45;&gt;AppModule</title>
<path fill="none" stroke="black" d="M2808,-122.24C2808,-137.57 2808,-157 2808,-157 2808,-157 2453.92,-157 2453.92,-157"/>
<polygon fill="black" stroke="black" points="2453.92,-153.5 2443.92,-157 2453.92,-160.5 2453.92,-153.5"/>
</g>
<!-- HistoryModule -->
<g id="node16" class="node">
<title>HistoryModule</title>
<polygon fill="#8dd3c7" stroke="black" points="2712.54,-122 2709.54,-126 2688.54,-126 2685.54,-122 2611.46,-122 2611.46,-86 2712.54,-86 2712.54,-122"/>
<text text-anchor="middle" x="2662" y="-99.8" font-family="Times,serif" font-size="14.00">HistoryModule</text>
</g>
<!-- HistoryModule&#45;&gt;AppModule -->
<g id="edge16" class="edge">
<title>HistoryModule&#45;&gt;AppModule</title>
<path fill="none" stroke="black" d="M2662,-122.12C2662,-136.78 2662,-155 2662,-155 2662,-155 2453.77,-155 2453.77,-155"/>
<polygon fill="black" stroke="black" points="2453.77,-151.5 2443.77,-155 2453.77,-158.5 2453.77,-151.5"/>
</g>
<!-- LaborRiskModule -->
<g id="node17" class="node">
<title>LaborRiskModule</title>
<polygon fill="#8dd3c7" stroke="black" points="2593.15,-122 2590.15,-126 2569.15,-126 2566.15,-122 2474.85,-122 2474.85,-86 2593.15,-86 2593.15,-122"/>
<text text-anchor="middle" x="2534" y="-99.8" font-family="Times,serif" font-size="14.00">LaborRiskModule</text>
</g>
<!-- LaborRiskModule&#45;&gt;AppModule -->
<g id="edge17" class="edge">
<title>LaborRiskModule&#45;&gt;AppModule</title>
<path fill="none" stroke="black" d="M2534,-122.25C2534,-136.18 2534,-153 2534,-153 2534,-153 2453.77,-153 2453.77,-153"/>
<polygon fill="black" stroke="black" points="2453.77,-149.5 2443.77,-153 2453.77,-156.5 2453.77,-149.5"/>
</g>
<!-- LocationModule -->
<g id="node18" class="node">
<title>LocationModule</title>
<polygon fill="#8dd3c7" stroke="black" points="2456.81,-122 2453.81,-126 2432.81,-126 2429.81,-122 2347.19,-122 2347.19,-86 2456.81,-86 2456.81,-122"/>
<text text-anchor="middle" x="2402" y="-99.8" font-family="Times,serif" font-size="14.00">LocationModule</text>
</g>
<!-- LocationModule&#45;&gt;AppModule -->
<g id="edge18" class="edge">
<title>LocationModule&#45;&gt;AppModule</title>
<path fill="none" stroke="black" d="M2402,-122.11C2402,-122.11 2402,-140.99 2402,-140.99"/>
<polygon fill="black" stroke="black" points="2398.5,-140.99 2402,-150.99 2405.5,-140.99 2398.5,-140.99"/>
</g>
<!-- OrderModule -->
<g id="node19" class="node">
<title>OrderModule</title>
<polygon fill="#8dd3c7" stroke="black" points="2329.19,-122 2326.19,-126 2305.19,-126 2302.19,-122 2236.81,-122 2236.81,-86 2329.19,-86 2329.19,-122"/>
<text text-anchor="middle" x="2283" y="-99.8" font-family="Times,serif" font-size="14.00">OrderModule</text>
</g>
<!-- OrderModule&#45;&gt;AppModule -->
<g id="edge19" class="edge">
<title>OrderModule&#45;&gt;AppModule</title>
<path fill="none" stroke="black" d="M2283,-122.25C2283,-136.18 2283,-153 2283,-153 2283,-153 2350.05,-153 2350.05,-153"/>
<polygon fill="black" stroke="black" points="2350.05,-156.5 2360.05,-153 2350.05,-149.5 2350.05,-156.5"/>
</g>
<!-- PdfExportModule -->
<g id="node20" class="node">
<title>PdfExportModule</title>
<polygon fill="#8dd3c7" stroke="black" points="2218.6,-122 2215.6,-126 2194.6,-126 2191.6,-122 2101.4,-122 2101.4,-86 2218.6,-86 2218.6,-122"/>
<text text-anchor="middle" x="2160" y="-99.8" font-family="Times,serif" font-size="14.00">PdfExportModule</text>
</g>
<!-- PdfExportModule&#45;&gt;AppModule -->
<g id="edge20" class="edge">
<title>PdfExportModule&#45;&gt;AppModule</title>
<path fill="none" stroke="black" d="M2160,-122.12C2160,-136.78 2160,-155 2160,-155 2160,-155 2350.12,-155 2350.12,-155"/>
<polygon fill="black" stroke="black" points="2350.12,-158.5 2360.12,-155 2350.12,-151.5 2350.12,-158.5"/>
</g>
<!-- ProductDefinitionModule -->
<g id="node21" class="node">
<title>ProductDefinitionModule</title>
<polygon fill="#8dd3c7" stroke="black" points="2083.14,-122 2080.14,-126 2059.14,-126 2056.14,-122 1922.86,-122 1922.86,-86 2083.14,-86 2083.14,-122"/>
<text text-anchor="middle" x="2003" y="-99.8" font-family="Times,serif" font-size="14.00">ProductDefinitionModule</text>
</g>
<!-- ProductDefinitionModule&#45;&gt;AppModule -->
<g id="edge21" class="edge">
<title>ProductDefinitionModule&#45;&gt;AppModule</title>
<path fill="none" stroke="black" d="M2003,-122.24C2003,-137.57 2003,-157 2003,-157 2003,-157 2350.05,-157 2350.05,-157"/>
<polygon fill="black" stroke="black" points="2350.05,-160.5 2360.05,-157 2350.05,-153.5 2350.05,-160.5"/>
</g>
<!-- ProductModule -->
<g id="node22" class="node">
<title>ProductModule</title>
<polygon fill="#8dd3c7" stroke="black" points="1904.6,-122 1901.6,-126 1880.6,-126 1877.6,-122 1801.4,-122 1801.4,-86 1904.6,-86 1904.6,-122"/>
<text text-anchor="middle" x="1853" y="-99.8" font-family="Times,serif" font-size="14.00">ProductModule</text>
</g>
<!-- ProductModule&#45;&gt;AppModule -->
<g id="edge22" class="edge">
<title>ProductModule&#45;&gt;AppModule</title>
<path fill="none" stroke="black" d="M1853,-122.01C1853,-138.05 1853,-159 1853,-159 1853,-159 2350.29,-159 2350.29,-159"/>
<polygon fill="black" stroke="black" points="2350.29,-162.5 2360.29,-159 2350.29,-155.5 2350.29,-162.5"/>
</g>
<!-- QrCodeModule -->
<g id="node23" class="node">
<title>QrCodeModule</title>
<polygon fill="#8dd3c7" stroke="black" points="1783.87,-122 1780.87,-126 1759.87,-126 1756.87,-122 1680.13,-122 1680.13,-86 1783.87,-86 1783.87,-122"/>
<text text-anchor="middle" x="1732" y="-99.8" font-family="Times,serif" font-size="14.00">QrCodeModule</text>
</g>
<!-- QrCodeModule&#45;&gt;AppModule -->
<g id="edge23" class="edge">
<title>QrCodeModule&#45;&gt;AppModule</title>
<path fill="none" stroke="black" d="M1732,-122.04C1732,-138.73 1732,-161 1732,-161 1732,-161 2350.34,-161 2350.34,-161"/>
<polygon fill="black" stroke="black" points="2350.34,-164.5 2360.34,-161 2350.34,-157.5 2350.34,-164.5"/>
</g>
<!-- RiskAssessmentModule -->
<g id="node24" class="node">
<title>RiskAssessmentModule</title>
<polygon fill="#8dd3c7" stroke="black" points="1661.82,-122 1658.82,-126 1637.82,-126 1634.82,-122 1510.18,-122 1510.18,-86 1661.82,-86 1661.82,-122"/>
<text text-anchor="middle" x="1586" y="-99.8" font-family="Times,serif" font-size="14.00">RiskAssessmentModule</text>
</g>
<!-- RiskAssessmentModule&#45;&gt;AppModule -->
<g id="edge24" class="edge">
<title>RiskAssessmentModule&#45;&gt;AppModule</title>
<path fill="none" stroke="black" d="M1586,-122.02C1586,-139.37 1586,-163 1586,-163 1586,-163 2350.13,-163 2350.13,-163"/>
<polygon fill="black" stroke="black" points="2350.13,-166.5 2360.13,-163 2350.13,-159.5 2350.13,-166.5"/>
</g>
<!-- RoleAttributeModule -->
<g id="node25" class="node">
<title>RoleAttributeModule</title>
<polygon fill="#8dd3c7" stroke="black" points="1492.04,-122 1489.04,-126 1468.04,-126 1465.04,-122 1355.96,-122 1355.96,-86 1492.04,-86 1492.04,-122"/>
<text text-anchor="middle" x="1424" y="-99.8" font-family="Times,serif" font-size="14.00">RoleAttributeModule</text>
</g>
<!-- RoleAttributeModule&#45;&gt;AppModule -->
<g id="edge25" class="edge">
<title>RoleAttributeModule&#45;&gt;AppModule</title>
<path fill="none" stroke="black" d="M1424,-122.3C1424,-140.27 1424,-165 1424,-165 1424,-165 2350.29,-165 2350.29,-165"/>
<polygon fill="black" stroke="black" points="2350.29,-168.5 2360.29,-165 2350.29,-161.5 2350.29,-168.5"/>
</g>
<!-- RolePermissionModule -->
<g id="node26" class="node">
<title>RolePermissionModule</title>
<polygon fill="#8dd3c7" stroke="black" points="1338.21,-122 1335.21,-126 1314.21,-126 1311.21,-122 1189.79,-122 1189.79,-86 1338.21,-86 1338.21,-122"/>
<text text-anchor="middle" x="1264" y="-99.8" font-family="Times,serif" font-size="14.00">RolePermissionModule</text>
</g>
<!-- RolePermissionModule&#45;&gt;AppModule -->
<g id="edge26" class="edge">
<title>RolePermissionModule&#45;&gt;AppModule</title>
<path fill="none" stroke="black" d="M1264,-122.22C1264,-140.83 1264,-167 1264,-167 1264,-167 2350.15,-167 2350.15,-167"/>
<polygon fill="black" stroke="black" points="2350.15,-170.5 2360.15,-167 2350.15,-163.5 2350.15,-170.5"/>
</g>
<!-- SelfAssessmentModule -->
<g id="node27" class="node">
<title>SelfAssessmentModule</title>
<polygon fill="#8dd3c7" stroke="black" points="1172.19,-122 1169.19,-126 1148.19,-126 1145.19,-122 1023.81,-122 1023.81,-86 1172.19,-86 1172.19,-122"/>
<text text-anchor="middle" x="1098" y="-99.8" font-family="Times,serif" font-size="14.00">SelfAssessmentModule</text>
</g>
<!-- SelfAssessmentModule&#45;&gt;AppModule -->
<g id="edge27" class="edge">
<title>SelfAssessmentModule&#45;&gt;AppModule</title>
<path fill="none" stroke="black" d="M1098,-122.11C1098,-141.34 1098,-169 1098,-169 1098,-169 2350.09,-169 2350.09,-169"/>
<polygon fill="black" stroke="black" points="2350.09,-172.5 2360.09,-169 2350.09,-165.5 2350.09,-172.5"/>
</g>
<!-- SiteDetailModule -->
<g id="node28" class="node">
<title>SiteDetailModule</title>
<polygon fill="#8dd3c7" stroke="black" points="1005.54,-122 1002.54,-126 981.54,-126 978.54,-122 890.46,-122 890.46,-86 1005.54,-86 1005.54,-122"/>
<text text-anchor="middle" x="948" y="-99.8" font-family="Times,serif" font-size="14.00">SiteDetailModule</text>
</g>
<!-- SiteDetailModule&#45;&gt;AppModule -->
<g id="edge28" class="edge">
<title>SiteDetailModule&#45;&gt;AppModule</title>
<path fill="none" stroke="black" d="M948,-122.31C948,-142.15 948,-171 948,-171 948,-171 2350.05,-171 2350.05,-171"/>
<polygon fill="black" stroke="black" points="2350.05,-174.5 2360.05,-171 2350.05,-167.5 2350.05,-174.5"/>
</g>
<!-- SupplyChainModule -->
<g id="node29" class="node">
<title>SupplyChainModule</title>
<polygon fill="#8dd3c7" stroke="black" points="872.17,-122 869.17,-126 848.17,-126 845.17,-122 739.83,-122 739.83,-86 872.17,-86 872.17,-122"/>
<text text-anchor="middle" x="806" y="-99.8" font-family="Times,serif" font-size="14.00">SupplyChainModule</text>
</g>
<!-- SupplyChainModule&#45;&gt;AppModule -->
<g id="edge29" class="edge">
<title>SupplyChainModule&#45;&gt;AppModule</title>
<path fill="none" stroke="black" d="M806,-122.13C806,-142.57 806,-173 806,-173 806,-173 2350.13,-173 2350.13,-173"/>
<polygon fill="black" stroke="black" points="2350.13,-176.5 2360.13,-173 2350.13,-169.5 2350.13,-176.5"/>
</g>
<!-- TaxonomyExploitationModule -->
<g id="node30" class="node">
<title>TaxonomyExploitationModule</title>
<polygon fill="#8dd3c7" stroke="black" points="721.93,-122 718.93,-126 697.93,-126 694.93,-122 532.07,-122 532.07,-86 721.93,-86 721.93,-122"/>
<text text-anchor="middle" x="627" y="-99.8" font-family="Times,serif" font-size="14.00">TaxonomyExploitationModule</text>
</g>
<!-- TaxonomyExploitationModule&#45;&gt;AppModule -->
<g id="edge30" class="edge">
<title>TaxonomyExploitationModule&#45;&gt;AppModule</title>
<path fill="none" stroke="black" d="M627,-122.28C627,-143.32 627,-175 627,-175 627,-175 2350.31,-175 2350.31,-175"/>
<polygon fill="black" stroke="black" points="2350.31,-178.5 2360.31,-175 2350.31,-171.5 2350.31,-178.5"/>
</g>
<!-- TranslateModule -->
<g id="node31" class="node">
<title>TranslateModule</title>
<polygon fill="#8dd3c7" stroke="black" points="513.63,-122 510.63,-126 489.63,-126 486.63,-122 402.37,-122 402.37,-86 513.63,-86 513.63,-122"/>
<text text-anchor="middle" x="458" y="-99.8" font-family="Times,serif" font-size="14.00">TranslateModule</text>
</g>
<!-- TranslateModule&#45;&gt;AppModule -->
<g id="edge31" class="edge">
<title>TranslateModule&#45;&gt;AppModule</title>
<path fill="none" stroke="black" d="M476.61,-122.04C476.61,-143.66 476.61,-177 476.61,-177 476.61,-177 2349.99,-177 2349.99,-177"/>
<polygon fill="black" stroke="black" points="2349.99,-180.5 2359.99,-177 2349.99,-173.5 2349.99,-180.5"/>
</g>
<!-- TranslateModule&#45;&gt;AppModule -->
<g id="edge32" class="edge">
<title>TranslateModule&#45;&gt;AppModule</title>
<path fill="none" stroke="black" d="M439.39,-122.16C439.39,-144.35 439.39,-179 439.39,-179 439.39,-179 2350.1,-179 2350.1,-179"/>
<polygon fill="black" stroke="black" points="2350.1,-182.5 2360.1,-179 2350.1,-175.5 2350.1,-182.5"/>
</g>
<!-- UploadModule -->
<g id="node32" class="node">
<title>UploadModule</title>
<polygon fill="#8dd3c7" stroke="black" points="384.26,-122 381.26,-126 360.26,-126 357.26,-122 283.74,-122 283.74,-86 384.26,-86 384.26,-122"/>
<text text-anchor="middle" x="334" y="-99.8" font-family="Times,serif" font-size="14.00">UploadModule</text>
</g>
<!-- UploadModule&#45;&gt;AppModule -->
<g id="edge33" class="edge">
<title>UploadModule&#45;&gt;AppModule</title>
<path fill="none" stroke="black" d="M334,-122.09C334,-145.13 334,-182 334,-182 334,-182 2350.22,-182 2350.22,-182"/>
<polygon fill="black" stroke="black" points="2350.22,-185.5 2360.22,-182 2350.22,-178.5 2350.22,-185.5"/>
</g>
<!-- UserApiLimitModule -->
<g id="node33" class="node">
<title>UserApiLimitModule</title>
<polygon fill="#8dd3c7" stroke="black" points="266.09,-122 263.09,-126 242.09,-126 239.09,-122 127.91,-122 127.91,-86 266.09,-86 266.09,-122"/>
<text text-anchor="middle" x="197" y="-99.8" font-family="Times,serif" font-size="14.00">UserApiLimitModule</text>
</g>
<!-- UserApiLimitModule&#45;&gt;AppModule -->
<g id="edge34" class="edge">
<title>UserApiLimitModule&#45;&gt;AppModule</title>
<path fill="none" stroke="black" d="M197,-122.32C197,-145.66 197,-183 197,-183 197,-183 2349.92,-183 2349.92,-183"/>
<polygon fill="black" stroke="black" points="2349.92,-186.5 2359.92,-183 2349.92,-179.5 2349.92,-186.5"/>
</g>
<!-- UserModule -->
<g id="node34" class="node">
<title>UserModule</title>
<polygon fill="#8dd3c7" stroke="black" points="109.98,-122 106.98,-126 85.98,-126 82.98,-122 24.02,-122 24.02,-86 109.98,-86 109.98,-122"/>
<text text-anchor="middle" x="67" y="-99.8" font-family="Times,serif" font-size="14.00">UserModule</text>
</g>
<!-- UserModule&#45;&gt;AppModule -->
<g id="edge35" class="edge">
<title>UserModule&#45;&gt;AppModule</title>
<path fill="none" stroke="black" d="M67,-122.38C67,-146.28 67,-185 67,-185 67,-185 2349.98,-185 2349.98,-185"/>
<polygon fill="black" stroke="black" points="2349.98,-188.5 2359.98,-185 2349.98,-181.5 2349.98,-188.5"/>
</g>
</g>
</svg>
