<?xml version="1.0" encoding="UTF-8" standalone="no"?>
<!DOCTYPE svg PUBLIC "-//W3C//DTD SVG 1.1//EN"
 "http://www.w3.org/Graphics/SVG/1.1/DTD/svg11.dtd">
<!-- Generated by graphviz version 2.47.0 (20210316.0004)
 -->
<!-- Title: dependencies Pages: 1 -->
<svg width="3714pt" height="211pt"
 viewBox="0.00 0.00 3714.00 211.00" xmlns="http://www.w3.org/2000/svg" xmlns:xlink="http://www.w3.org/1999/xlink">
<g id="graph0" class="graph" transform="scale(1 1) rotate(0) translate(4 207)">
<title>dependencies</title>
<polygon fill="white" stroke="transparent" points="-4,4 -4,-207 3710,-207 3710,4 -4,4"/>
<text text-anchor="start" x="1832.01" y="-42.4" font-family="Times-12" font-weight="bold" font-size="14.00">Legend</text>
<polygon fill="#ffffb3" stroke="transparent" points="1619,-10 1619,-30 1639,-30 1639,-10 1619,-10"/>
<text text-anchor="start" x="1642.63" y="-15.4" font-family="Times-12" font-size="14.00"> &#160;Declarations</text>
<polygon fill="#8dd3c7" stroke="transparent" points="1732,-10 1732,-30 1752,-30 1752,-10 1732,-10"/>
<text text-anchor="start" x="1755.73" y="-15.4" font-family="Times-12" font-size="14.00"> &#160;Module</text>
<polygon fill="#80b1d3" stroke="transparent" points="1818,-10 1818,-30 1838,-30 1838,-10 1818,-10"/>
<text text-anchor="start" x="1841.78" y="-15.4" font-family="Times-12" font-size="14.00"> &#160;Bootstrap</text>
<polygon fill="#fdb462" stroke="transparent" points="1915,-10 1915,-30 1935,-30 1935,-10 1915,-10"/>
<text text-anchor="start" x="1938.67" y="-15.4" font-family="Times-12" font-size="14.00"> &#160;Providers</text>
<polygon fill="#fb8072" stroke="transparent" points="2011,-10 2011,-30 2031,-30 2031,-10 2011,-10"/>
<text text-anchor="start" x="2034.73" y="-15.4" font-family="Times-12" font-size="14.00"> &#160;Exports</text>
<g id="clust1" class="cluster">
<title>cluster_AppModule</title>
<polygon fill="none" stroke="black" stroke-dasharray="1,5" points="8,-70 8,-195 3698,-195 3698,-70 8,-70"/>
</g>
<g id="clust3" class="cluster">
<title>cluster_AppModule_imports</title>
<polygon fill="none" stroke="black" points="16,-78 16,-130 3690,-130 3690,-78 16,-78"/>
</g>
<!-- BusinessPartnerModule -->
<g id="node1" class="node">
<title>BusinessPartnerModule</title>
<polygon fill="#8dd3c7" stroke="black" points="3681.75,-122 3678.75,-126 3657.75,-126 3654.75,-122 3532.25,-122 3532.25,-86 3681.75,-86 3681.75,-122"/>
<text text-anchor="middle" x="3607" y="-99.8" font-family="Times,serif" font-size="14.00">BusinessPartnerModule</text>
</g>
<!-- AppModule -->
<g id="node27" class="node">
<title>AppModule</title>
<polygon fill="#8dd3c7" stroke="black" points="1891.66,-187 1888.66,-191 1867.66,-191 1864.66,-187 1808.34,-187 1808.34,-151 1891.66,-151 1891.66,-187"/>
<text text-anchor="middle" x="1850" y="-164.8" font-family="Times,serif" font-size="14.00">AppModule</text>
</g>
<!-- BusinessPartnerModule&#45;&gt;AppModule -->
<g id="edge1" class="edge">
<title>BusinessPartnerModule&#45;&gt;AppModule</title>
<path fill="none" stroke="black" d="M3607,-122.38C3607,-146.28 3607,-185 3607,-185 3607,-185 1901.7,-185 1901.7,-185"/>
<polygon fill="black" stroke="black" points="1901.7,-181.5 1891.7,-185 1901.7,-188.5 1901.7,-181.5"/>
</g>
<!-- CategoryModule -->
<g id="node2" class="node">
<title>CategoryModule</title>
<polygon fill="#8dd3c7" stroke="black" points="3514.37,-122 3511.37,-126 3490.37,-126 3487.37,-122 3403.63,-122 3403.63,-86 3514.37,-86 3514.37,-122"/>
<text text-anchor="middle" x="3459" y="-99.8" font-family="Times,serif" font-size="14.00">CategoryModule</text>
</g>
<!-- CategoryModule&#45;&gt;AppModule -->
<g id="edge2" class="edge">
<title>CategoryModule&#45;&gt;AppModule</title>
<path fill="none" stroke="black" d="M3459,-122.09C3459,-145.13 3459,-182 3459,-182 3459,-182 1901.8,-182 1901.8,-182"/>
<polygon fill="black" stroke="black" points="1901.8,-178.5 1891.8,-182 1901.8,-185.5 1901.8,-178.5"/>
</g>
<!-- DnaTestingModule -->
<g id="node3" class="node">
<title>DnaTestingModule</title>
<polygon fill="#8dd3c7" stroke="black" points="3385.36,-122 3382.36,-126 3361.36,-126 3358.36,-122 3260.64,-122 3260.64,-86 3385.36,-86 3385.36,-122"/>
<text text-anchor="middle" x="3323" y="-99.8" font-family="Times,serif" font-size="14.00">DnaTestingModule</text>
</g>
<!-- DnaTestingModule&#45;&gt;AppModule -->
<g id="edge3" class="edge">
<title>DnaTestingModule&#45;&gt;AppModule</title>
<path fill="none" stroke="black" d="M3323,-122.01C3323,-144.49 3323,-180 3323,-180 3323,-180 1901.71,-180 1901.71,-180"/>
<polygon fill="black" stroke="black" points="1901.71,-176.5 1891.71,-180 1901.71,-183.5 1901.71,-176.5"/>
</g>
<!-- DynamicLinkModule -->
<g id="node4" class="node">
<title>DynamicLinkModule</title>
<polygon fill="#8dd3c7" stroke="black" points="3242.81,-122 3239.81,-126 3218.81,-126 3215.81,-122 3105.19,-122 3105.19,-86 3242.81,-86 3242.81,-122"/>
<text text-anchor="middle" x="3174" y="-99.8" font-family="Times,serif" font-size="14.00">DynamicLinkModule</text>
</g>
<!-- DynamicLinkModule&#45;&gt;AppModule -->
<g id="edge4" class="edge">
<title>DynamicLinkModule&#45;&gt;AppModule</title>
<path fill="none" stroke="black" d="M3174,-122.04C3174,-143.66 3174,-177 3174,-177 3174,-177 1901.81,-177 1901.81,-177"/>
<polygon fill="black" stroke="black" points="1901.81,-173.5 1891.81,-177 1901.81,-180.5 1901.81,-173.5"/>
</g>
<!-- EventModule -->
<g id="node5" class="node">
<title>EventModule</title>
<polygon fill="#8dd3c7" stroke="black" points="3087.21,-122 3084.21,-126 3063.21,-126 3060.21,-122 2994.79,-122 2994.79,-86 3087.21,-86 3087.21,-122"/>
<text text-anchor="middle" x="3041" y="-99.8" font-family="Times,serif" font-size="14.00">EventModule</text>
</g>
<!-- EventModule&#45;&gt;AppModule -->
<g id="edge5" class="edge">
<title>EventModule&#45;&gt;AppModule</title>
<path fill="none" stroke="black" d="M3041,-122.28C3041,-143.32 3041,-175 3041,-175 3041,-175 1901.69,-175 1901.69,-175"/>
<polygon fill="black" stroke="black" points="1901.69,-171.5 1891.69,-175 1901.69,-178.5 1901.69,-171.5"/>
</g>
<!-- ExportTemplateModule -->
<g id="node6" class="node">
<title>ExportTemplateModule</title>
<polygon fill="#8dd3c7" stroke="black" points="2977.02,-122 2974.02,-126 2953.02,-126 2950.02,-122 2826.98,-122 2826.98,-86 2977.02,-86 2977.02,-122"/>
<text text-anchor="middle" x="2902" y="-99.8" font-family="Times,serif" font-size="14.00">ExportTemplateModule</text>
</g>
<!-- ExportTemplateModule&#45;&gt;AppModule -->
<g id="edge6" class="edge">
<title>ExportTemplateModule&#45;&gt;AppModule</title>
<path fill="none" stroke="black" d="M2902,-122.22C2902,-142.37 2902,-172 2902,-172 2902,-172 1901.89,-172 1901.89,-172"/>
<polygon fill="black" stroke="black" points="1901.89,-168.5 1891.89,-172 1901.89,-175.5 1901.89,-168.5"/>
</g>
<!-- FacilityModule -->
<g id="node7" class="node">
<title>FacilityModule</title>
<polygon fill="#8dd3c7" stroke="black" points="2809.32,-122 2806.32,-126 2785.32,-126 2782.32,-122 2706.68,-122 2706.68,-86 2809.32,-86 2809.32,-122"/>
<text text-anchor="middle" x="2758" y="-99.8" font-family="Times,serif" font-size="14.00">FacilityModule</text>
</g>
<!-- FacilityModule&#45;&gt;AppModule -->
<g id="edge7" class="edge">
<title>FacilityModule&#45;&gt;AppModule</title>
<path fill="none" stroke="black" d="M2758,-122.11C2758,-141.34 2758,-169 2758,-169 2758,-169 1901.67,-169 1901.67,-169"/>
<polygon fill="black" stroke="black" points="1901.67,-165.5 1891.67,-169 1901.67,-172.5 1901.67,-165.5"/>
</g>
<!-- FileModule -->
<g id="node8" class="node">
<title>FileModule</title>
<polygon fill="#8dd3c7" stroke="black" points="2688.83,-122 2685.83,-126 2664.83,-126 2661.83,-122 2607.17,-122 2607.17,-86 2688.83,-86 2688.83,-122"/>
<text text-anchor="middle" x="2648" y="-99.8" font-family="Times,serif" font-size="14.00">FileModule</text>
</g>
<!-- FileModule&#45;&gt;AppModule -->
<g id="edge8" class="edge">
<title>FileModule&#45;&gt;AppModule</title>
<path fill="none" stroke="black" d="M2648,-122.22C2648,-140.83 2648,-167 2648,-167 2648,-167 1901.78,-167 1901.78,-167"/>
<polygon fill="black" stroke="black" points="1901.78,-163.5 1891.78,-167 1901.78,-170.5 1901.78,-163.5"/>
</g>
<!-- GlobalCacheModule -->
<g id="node9" class="node">
<title>GlobalCacheModule</title>
<polygon fill="#8dd3c7" stroke="black" points="2589.13,-122 2586.13,-126 2565.13,-126 2562.13,-122 2456.87,-122 2456.87,-86 2589.13,-86 2589.13,-122"/>
<text text-anchor="middle" x="2523" y="-99.8" font-family="Times,serif" font-size="14.00">GlobalCacheModule</text>
</g>
<!-- GlobalCacheModule&#45;&gt;AppModule -->
<g id="edge9" class="edge">
<title>GlobalCacheModule&#45;&gt;AppModule</title>
<path fill="none" stroke="black" d="M2523,-122C2523,-139.68 2523,-164 2523,-164 2523,-164 1901.84,-164 1901.84,-164"/>
<polygon fill="black" stroke="black" points="1901.84,-160.5 1891.84,-164 1901.84,-167.5 1901.84,-160.5"/>
</g>
<!-- GrievanceReportModule -->
<g id="node10" class="node">
<title>GrievanceReportModule</title>
<polygon fill="#8dd3c7" stroke="black" points="2438.67,-122 2435.67,-126 2414.67,-126 2411.67,-122 2283.33,-122 2283.33,-86 2438.67,-86 2438.67,-122"/>
<text text-anchor="middle" x="2361" y="-99.8" font-family="Times,serif" font-size="14.00">GrievanceReportModule</text>
</g>
<!-- GrievanceReportModule&#45;&gt;AppModule -->
<g id="edge10" class="edge">
<title>GrievanceReportModule&#45;&gt;AppModule</title>
<path fill="none" stroke="black" d="M2361,-122.03C2361,-139.06 2361,-162 2361,-162 2361,-162 1901.82,-162 1901.82,-162"/>
<polygon fill="black" stroke="black" points="1901.82,-158.5 1891.82,-162 1901.82,-165.5 1901.82,-158.5"/>
</g>
<!-- HistoryModule -->
<g id="node11" class="node">
<title>HistoryModule</title>
<polygon fill="#8dd3c7" stroke="black" points="2265.54,-122 2262.54,-126 2241.54,-126 2238.54,-122 2164.46,-122 2164.46,-86 2265.54,-86 2265.54,-122"/>
<text text-anchor="middle" x="2215" y="-99.8" font-family="Times,serif" font-size="14.00">HistoryModule</text>
</g>
<!-- HistoryModule&#45;&gt;AppModule -->
<g id="edge11" class="edge">
<title>HistoryModule&#45;&gt;AppModule</title>
<path fill="none" stroke="black" d="M2215,-122.01C2215,-138.05 2215,-159 2215,-159 2215,-159 1901.87,-159 1901.87,-159"/>
<polygon fill="black" stroke="black" points="1901.87,-155.5 1891.87,-159 1901.87,-162.5 1901.87,-155.5"/>
</g>
<!-- LocationModule -->
<g id="node12" class="node">
<title>LocationModule</title>
<polygon fill="#8dd3c7" stroke="black" points="2146.81,-122 2143.81,-126 2122.81,-126 2119.81,-122 2037.19,-122 2037.19,-86 2146.81,-86 2146.81,-122"/>
<text text-anchor="middle" x="2092" y="-99.8" font-family="Times,serif" font-size="14.00">LocationModule</text>
</g>
<!-- LocationModule&#45;&gt;AppModule -->
<g id="edge12" class="edge">
<title>LocationModule&#45;&gt;AppModule</title>
<path fill="none" stroke="black" d="M2092,-122.24C2092,-137.57 2092,-157 2092,-157 2092,-157 1901.88,-157 1901.88,-157"/>
<polygon fill="black" stroke="black" points="1901.88,-153.5 1891.88,-157 1901.88,-160.5 1901.88,-153.5"/>
</g>
<!-- OrderModule -->
<g id="node13" class="node">
<title>OrderModule</title>
<polygon fill="#8dd3c7" stroke="black" points="2019.19,-122 2016.19,-126 1995.19,-126 1992.19,-122 1926.81,-122 1926.81,-86 2019.19,-86 2019.19,-122"/>
<text text-anchor="middle" x="1973" y="-99.8" font-family="Times,serif" font-size="14.00">OrderModule</text>
</g>
<!-- OrderModule&#45;&gt;AppModule -->
<g id="edge13" class="edge">
<title>OrderModule&#45;&gt;AppModule</title>
<path fill="none" stroke="black" d="M1973,-122.05C1973,-136.37 1973,-154 1973,-154 1973,-154 1901.99,-154 1901.99,-154"/>
<polygon fill="black" stroke="black" points="1901.99,-150.5 1891.99,-154 1901.99,-157.5 1901.99,-150.5"/>
</g>
<!-- PdfExportModule -->
<g id="node14" class="node">
<title>PdfExportModule</title>
<polygon fill="#8dd3c7" stroke="black" points="1908.6,-122 1905.6,-126 1884.6,-126 1881.6,-122 1791.4,-122 1791.4,-86 1908.6,-86 1908.6,-122"/>
<text text-anchor="middle" x="1850" y="-99.8" font-family="Times,serif" font-size="14.00">PdfExportModule</text>
</g>
<!-- PdfExportModule&#45;&gt;AppModule -->
<g id="edge14" class="edge">
<title>PdfExportModule&#45;&gt;AppModule</title>
<path fill="none" stroke="black" d="M1850,-122.11C1850,-122.11 1850,-140.99 1850,-140.99"/>
<polygon fill="black" stroke="black" points="1846.5,-140.99 1850,-150.99 1853.5,-140.99 1846.5,-140.99"/>
</g>
<!-- ProductDefinitionModule -->
<g id="node15" class="node">
<title>ProductDefinitionModule</title>
<polygon fill="#8dd3c7" stroke="black" points="1773.14,-122 1770.14,-126 1749.14,-126 1746.14,-122 1612.86,-122 1612.86,-86 1773.14,-86 1773.14,-122"/>
<text text-anchor="middle" x="1693" y="-99.8" font-family="Times,serif" font-size="14.00">ProductDefinitionModule</text>
</g>
<!-- ProductDefinitionModule&#45;&gt;AppModule -->
<g id="edge15" class="edge">
<title>ProductDefinitionModule&#45;&gt;AppModule</title>
<path fill="none" stroke="black" d="M1693,-122.05C1693,-136.37 1693,-154 1693,-154 1693,-154 1798.34,-154 1798.34,-154"/>
<polygon fill="black" stroke="black" points="1798.34,-157.5 1808.34,-154 1798.34,-150.5 1798.34,-157.5"/>
</g>
<!-- ProductModule -->
<g id="node16" class="node">
<title>ProductModule</title>
<polygon fill="#8dd3c7" stroke="black" points="1594.6,-122 1591.6,-126 1570.6,-126 1567.6,-122 1491.4,-122 1491.4,-86 1594.6,-86 1594.6,-122"/>
<text text-anchor="middle" x="1543" y="-99.8" font-family="Times,serif" font-size="14.00">ProductModule</text>
</g>
<!-- ProductModule&#45;&gt;AppModule -->
<g id="edge16" class="edge">
<title>ProductModule&#45;&gt;AppModule</title>
<path fill="none" stroke="black" d="M1543,-122.24C1543,-137.57 1543,-157 1543,-157 1543,-157 1798.28,-157 1798.28,-157"/>
<polygon fill="black" stroke="black" points="1798.28,-160.5 1808.28,-157 1798.28,-153.5 1798.28,-160.5"/>
</g>
<!-- QrCodeModule -->
<g id="node17" class="node">
<title>QrCodeModule</title>
<polygon fill="#8dd3c7" stroke="black" points="1473.87,-122 1470.87,-126 1449.87,-126 1446.87,-122 1370.13,-122 1370.13,-86 1473.87,-86 1473.87,-122"/>
<text text-anchor="middle" x="1422" y="-99.8" font-family="Times,serif" font-size="14.00">QrCodeModule</text>
</g>
<!-- QrCodeModule&#45;&gt;AppModule -->
<g id="edge17" class="edge">
<title>QrCodeModule&#45;&gt;AppModule</title>
<path fill="none" stroke="black" d="M1422,-122.01C1422,-138.05 1422,-159 1422,-159 1422,-159 1798.18,-159 1798.18,-159"/>
<polygon fill="black" stroke="black" points="1798.18,-162.5 1808.18,-159 1798.18,-155.5 1798.18,-162.5"/>
</g>
<!-- RiskAssessmentModule -->
<g id="node18" class="node">
<title>RiskAssessmentModule</title>
<polygon fill="#8dd3c7" stroke="black" points="1351.82,-122 1348.82,-126 1327.82,-126 1324.82,-122 1200.18,-122 1200.18,-86 1351.82,-86 1351.82,-122"/>
<text text-anchor="middle" x="1276" y="-99.8" font-family="Times,serif" font-size="14.00">RiskAssessmentModule</text>
</g>
<!-- RiskAssessmentModule&#45;&gt;AppModule -->
<g id="edge18" class="edge">
<title>RiskAssessmentModule&#45;&gt;AppModule</title>
<path fill="none" stroke="black" d="M1276,-122.03C1276,-139.06 1276,-162 1276,-162 1276,-162 1798.26,-162 1798.26,-162"/>
<polygon fill="black" stroke="black" points="1798.26,-165.5 1808.26,-162 1798.26,-158.5 1798.26,-165.5"/>
</g>
<!-- RolePermissionModule -->
<g id="node19" class="node">
<title>RolePermissionModule</title>
<polygon fill="#8dd3c7" stroke="black" points="1182.21,-122 1179.21,-126 1158.21,-126 1155.21,-122 1033.79,-122 1033.79,-86 1182.21,-86 1182.21,-122"/>
<text text-anchor="middle" x="1108" y="-99.8" font-family="Times,serif" font-size="14.00">RolePermissionModule</text>
</g>
<!-- RolePermissionModule&#45;&gt;AppModule -->
<g id="edge19" class="edge">
<title>RolePermissionModule&#45;&gt;AppModule</title>
<path fill="none" stroke="black" d="M1108,-122C1108,-139.68 1108,-164 1108,-164 1108,-164 1798.25,-164 1798.25,-164"/>
<polygon fill="black" stroke="black" points="1798.25,-167.5 1808.25,-164 1798.25,-160.5 1798.25,-167.5"/>
</g>
<!-- SelfAssessmentModule -->
<g id="node20" class="node">
<title>SelfAssessmentModule</title>
<polygon fill="#8dd3c7" stroke="black" points="1016.19,-122 1013.19,-126 992.19,-126 989.19,-122 867.81,-122 867.81,-86 1016.19,-86 1016.19,-122"/>
<text text-anchor="middle" x="942" y="-99.8" font-family="Times,serif" font-size="14.00">SelfAssessmentModule</text>
</g>
<!-- SelfAssessmentModule&#45;&gt;AppModule -->
<g id="edge20" class="edge">
<title>SelfAssessmentModule&#45;&gt;AppModule</title>
<path fill="none" stroke="black" d="M942,-122.22C942,-140.83 942,-167 942,-167 942,-167 1798.33,-167 1798.33,-167"/>
<polygon fill="black" stroke="black" points="1798.33,-170.5 1808.33,-167 1798.33,-163.5 1798.33,-170.5"/>
</g>
<!-- SiteDetailModule -->
<g id="node21" class="node">
<title>SiteDetailModule</title>
<polygon fill="#8dd3c7" stroke="black" points="849.54,-122 846.54,-126 825.54,-126 822.54,-122 734.46,-122 734.46,-86 849.54,-86 849.54,-122"/>
<text text-anchor="middle" x="792" y="-99.8" font-family="Times,serif" font-size="14.00">SiteDetailModule</text>
</g>
<!-- SiteDetailModule&#45;&gt;AppModule -->
<g id="edge21" class="edge">
<title>SiteDetailModule&#45;&gt;AppModule</title>
<path fill="none" stroke="black" d="M792,-122.11C792,-141.34 792,-169 792,-169 792,-169 1798.2,-169 1798.2,-169"/>
<polygon fill="black" stroke="black" points="1798.2,-172.5 1808.2,-169 1798.2,-165.5 1798.2,-172.5"/>
</g>
<!-- SupplyChainModule -->
<g id="node22" class="node">
<title>SupplyChainModule</title>
<polygon fill="#8dd3c7" stroke="black" points="716.17,-122 713.17,-126 692.17,-126 689.17,-122 583.83,-122 583.83,-86 716.17,-86 716.17,-122"/>
<text text-anchor="middle" x="650" y="-99.8" font-family="Times,serif" font-size="14.00">SupplyChainModule</text>
</g>
<!-- SupplyChainModule&#45;&gt;AppModule -->
<g id="edge22" class="edge">
<title>SupplyChainModule&#45;&gt;AppModule</title>
<path fill="none" stroke="black" d="M650,-122.22C650,-142.37 650,-172 650,-172 650,-172 1797.99,-172 1797.99,-172"/>
<polygon fill="black" stroke="black" points="1798,-175.5 1807.99,-172 1797.99,-168.5 1798,-175.5"/>
</g>
<!-- TaxonomyExploitationModule -->
<g id="node23" class="node">
<title>TaxonomyExploitationModule</title>
<polygon fill="#8dd3c7" stroke="black" points="565.93,-122 562.93,-126 541.93,-126 538.93,-122 376.07,-122 376.07,-86 565.93,-86 565.93,-122"/>
<text text-anchor="middle" x="471" y="-99.8" font-family="Times,serif" font-size="14.00">TaxonomyExploitationModule</text>
</g>
<!-- TaxonomyExploitationModule&#45;&gt;AppModule -->
<g id="edge23" class="edge">
<title>TaxonomyExploitationModule&#45;&gt;AppModule</title>
<path fill="none" stroke="black" d="M471,-122.28C471,-143.32 471,-175 471,-175 471,-175 1797.98,-175 1797.98,-175"/>
<polygon fill="black" stroke="black" points="1797.98,-178.5 1807.98,-175 1797.98,-171.5 1797.98,-178.5"/>
</g>
<!-- TranslateModule -->
<g id="node24" class="node">
<title>TranslateModule</title>
<polygon fill="#8dd3c7" stroke="black" points="357.63,-122 354.63,-126 333.63,-126 330.63,-122 246.37,-122 246.37,-86 357.63,-86 357.63,-122"/>
<text text-anchor="middle" x="302" y="-99.8" font-family="Times,serif" font-size="14.00">TranslateModule</text>
</g>
<!-- TranslateModule&#45;&gt;AppModule -->
<g id="edge24" class="edge">
<title>TranslateModule&#45;&gt;AppModule</title>
<path fill="none" stroke="black" d="M283.39,-122.01C283.39,-144.49 283.39,-180 283.39,-180 283.39,-180 1798.1,-180 1798.1,-180"/>
<polygon fill="black" stroke="black" points="1798.1,-183.5 1808.1,-180 1798.1,-176.5 1798.1,-183.5"/>
</g>
<!-- TranslateModule&#45;&gt;AppModule -->
<g id="edge25" class="edge">
<title>TranslateModule&#45;&gt;AppModule</title>
<path fill="none" stroke="black" d="M320.61,-122.04C320.61,-143.66 320.61,-177 320.61,-177 320.61,-177 1798.3,-177 1798.3,-177"/>
<polygon fill="black" stroke="black" points="1798.3,-180.5 1808.3,-177 1798.3,-173.5 1798.3,-180.5"/>
</g>
<!-- UploadModule -->
<g id="node25" class="node">
<title>UploadModule</title>
<polygon fill="#8dd3c7" stroke="black" points="228.26,-122 225.26,-126 204.26,-126 201.26,-122 127.74,-122 127.74,-86 228.26,-86 228.26,-122"/>
<text text-anchor="middle" x="178" y="-99.8" font-family="Times,serif" font-size="14.00">UploadModule</text>
</g>
<!-- UploadModule&#45;&gt;AppModule -->
<g id="edge26" class="edge">
<title>UploadModule&#45;&gt;AppModule</title>
<path fill="none" stroke="black" d="M178,-122.09C178,-145.13 178,-182 178,-182 178,-182 1798.25,-182 1798.25,-182"/>
<polygon fill="black" stroke="black" points="1798.25,-185.5 1808.25,-182 1798.25,-178.5 1798.25,-185.5"/>
</g>
<!-- UserModule -->
<g id="node26" class="node">
<title>UserModule</title>
<polygon fill="#8dd3c7" stroke="black" points="109.98,-122 106.98,-126 85.98,-126 82.98,-122 24.02,-122 24.02,-86 109.98,-86 109.98,-122"/>
<text text-anchor="middle" x="67" y="-99.8" font-family="Times,serif" font-size="14.00">UserModule</text>
</g>
<!-- UserModule&#45;&gt;AppModule -->
<g id="edge27" class="edge">
<title>UserModule&#45;&gt;AppModule</title>
<path fill="none" stroke="black" d="M67,-122.38C67,-146.28 67,-185 67,-185 67,-185 1798.12,-185 1798.12,-185"/>
<polygon fill="black" stroke="black" points="1798.12,-188.5 1808.12,-185 1798.12,-181.5 1798.12,-188.5"/>
</g>
</g>
</svg>
