<?xml version="1.0" encoding="UTF-8" standalone="no"?>
<!DOCTYPE svg PUBLIC "-//W3C//DTD SVG 1.1//EN"
 "http://www.w3.org/Graphics/SVG/1.1/DTD/svg11.dtd">
<!-- Generated by graphviz version 2.47.0 (20210316.0004)
 -->
<!-- Title: dependencies Pages: 1 -->
<svg width="905pt" height="284pt"
 viewBox="0.00 0.00 905.00 284.00" xmlns="http://www.w3.org/2000/svg" xmlns:xlink="http://www.w3.org/1999/xlink">
<g id="graph0" class="graph" transform="scale(1 1) rotate(0) translate(4 280)">
<title>dependencies</title>
<polygon fill="white" stroke="transparent" points="-4,4 -4,-280 901,-280 901,4 -4,4"/>
<text text-anchor="start" x="427.51" y="-42.4" font-family="Times-12" font-weight="bold" font-size="14.00">Legend</text>
<polygon fill="#ffffb3" stroke="transparent" points="214.5,-10 214.5,-30 234.5,-30 234.5,-10 214.5,-10"/>
<text text-anchor="start" x="238.13" y="-15.4" font-family="Times-12" font-size="14.00"> &#160;Declarations</text>
<polygon fill="#8dd3c7" stroke="transparent" points="327.5,-10 327.5,-30 347.5,-30 347.5,-10 327.5,-10"/>
<text text-anchor="start" x="351.23" y="-15.4" font-family="Times-12" font-size="14.00"> &#160;Module</text>
<polygon fill="#80b1d3" stroke="transparent" points="413.5,-10 413.5,-30 433.5,-30 433.5,-10 413.5,-10"/>
<text text-anchor="start" x="437.28" y="-15.4" font-family="Times-12" font-size="14.00"> &#160;Bootstrap</text>
<polygon fill="#fdb462" stroke="transparent" points="510.5,-10 510.5,-30 530.5,-30 530.5,-10 510.5,-10"/>
<text text-anchor="start" x="534.17" y="-15.4" font-family="Times-12" font-size="14.00"> &#160;Providers</text>
<polygon fill="#fb8072" stroke="transparent" points="606.5,-10 606.5,-30 626.5,-30 626.5,-10 606.5,-10"/>
<text text-anchor="start" x="630.23" y="-15.4" font-family="Times-12" font-size="14.00"> &#160;Exports</text>
<g id="clust1" class="cluster">
<title>cluster_QrCodeModule</title>
<polygon fill="none" stroke="black" stroke-dasharray="1,5" points="8,-70 8,-268 889,-268 889,-70 8,-70"/>
</g>
<g id="clust6" class="cluster">
<title>cluster_QrCodeModule_providers</title>
<polygon fill="none" stroke="black" points="324,-78 324,-130 881,-130 881,-78 324,-78"/>
</g>
<g id="clust3" class="cluster">
<title>cluster_QrCodeModule_imports</title>
<polygon fill="none" stroke="black" points="16,-78 16,-130 316,-130 316,-78 16,-78"/>
</g>
<g id="clust4" class="cluster">
<title>cluster_QrCodeModule_exports</title>
<polygon fill="none" stroke="black" points="290,-208 290,-260 568,-260 568,-208 290,-208"/>
</g>
<!-- PdfPrinterModule -->
<g id="node1" class="node">
<title>PdfPrinterModule</title>
<polygon fill="#8dd3c7" stroke="black" points="307.59,-122 304.59,-126 283.59,-126 280.59,-122 190.41,-122 190.41,-86 307.59,-86 307.59,-122"/>
<text text-anchor="middle" x="249" y="-99.8" font-family="Times,serif" font-size="14.00">PdfPrinterModule</text>
</g>
<!-- QrCodeModule -->
<g id="node3" class="node">
<title>QrCodeModule</title>
<polygon fill="#8dd3c7" stroke="black" points="472.87,-187 469.87,-191 448.87,-191 445.87,-187 369.13,-187 369.13,-151 472.87,-151 472.87,-187"/>
<text text-anchor="middle" x="421" y="-164.8" font-family="Times,serif" font-size="14.00">QrCodeModule</text>
</g>
<!-- PdfPrinterModule&#45;&gt;QrCodeModule -->
<g id="edge1" class="edge">
<title>PdfPrinterModule&#45;&gt;QrCodeModule</title>
<path fill="none" stroke="black" d="M302.82,-122.02C302.82,-139.37 302.82,-163 302.82,-163 302.82,-163 358.82,-163 358.82,-163"/>
<polygon fill="black" stroke="black" points="358.82,-166.5 368.82,-163 358.82,-159.5 358.82,-166.5"/>
</g>
<!-- RolePermissionModule -->
<g id="node2" class="node">
<title>RolePermissionModule</title>
<polygon fill="#8dd3c7" stroke="black" points="172.21,-122 169.21,-126 148.21,-126 145.21,-122 23.79,-122 23.79,-86 172.21,-86 172.21,-122"/>
<text text-anchor="middle" x="98" y="-99.8" font-family="Times,serif" font-size="14.00">RolePermissionModule</text>
</g>
<!-- RolePermissionModule&#45;&gt;QrCodeModule -->
<g id="edge2" class="edge">
<title>RolePermissionModule&#45;&gt;QrCodeModule</title>
<path fill="none" stroke="black" d="M98,-122.28C98,-143.32 98,-175 98,-175 98,-175 359.1,-175 359.1,-175"/>
<polygon fill="black" stroke="black" points="359.1,-178.5 369.1,-175 359.1,-171.5 359.1,-178.5"/>
</g>
<!-- QrCodeBatchService  -->
<g id="node4" class="node">
<title>QrCodeBatchService </title>
<polygon fill="#fb8072" stroke="black" points="560.45,-252 421.55,-252 421.55,-216 560.45,-216 560.45,-252"/>
<text text-anchor="middle" x="491" y="-229.8" font-family="Times,serif" font-size="14.00">QrCodeBatchService </text>
</g>
<!-- QrCodeModule&#45;&gt;QrCodeBatchService  -->
<g id="edge3" class="edge">
<title>QrCodeModule&#45;&gt;QrCodeBatchService </title>
<path fill="none" stroke="black" stroke-dasharray="5,2" d="M447.35,-187.11C447.35,-187.11 447.35,-205.99 447.35,-205.99"/>
<polygon fill="black" stroke="black" points="443.85,-205.99 447.35,-215.99 450.85,-205.99 443.85,-205.99"/>
</g>
<!-- QrCodeService  -->
<g id="node5" class="node">
<title>QrCodeService </title>
<polygon fill="#fb8072" stroke="black" points="403.8,-252 298.2,-252 298.2,-216 403.8,-216 403.8,-252"/>
<text text-anchor="middle" x="351" y="-229.8" font-family="Times,serif" font-size="14.00">QrCodeService </text>
</g>
<!-- QrCodeModule&#45;&gt;QrCodeService  -->
<g id="edge4" class="edge">
<title>QrCodeModule&#45;&gt;QrCodeService </title>
<path fill="none" stroke="black" stroke-dasharray="5,2" d="M386.48,-187.11C386.48,-187.11 386.48,-205.99 386.48,-205.99"/>
<polygon fill="black" stroke="black" points="382.98,-205.99 386.48,-215.99 389.98,-205.99 382.98,-205.99"/>
</g>
<!-- QrCodeBatchService -->
<g id="node6" class="node">
<title>QrCodeBatchService</title>
<ellipse fill="#fdb462" stroke="black" cx="780" cy="-104" rx="93.18" ry="18"/>
<text text-anchor="middle" x="780" y="-99.8" font-family="Times,serif" font-size="14.00">QrCodeBatchService</text>
</g>
<!-- QrCodeBatchService&#45;&gt;QrCodeModule -->
<g id="edge5" class="edge">
<title>QrCodeBatchService&#45;&gt;QrCodeModule</title>
<path fill="none" stroke="black" d="M780,-122.28C780,-143.32 780,-175 780,-175 780,-175 483.2,-175 483.2,-175"/>
<polygon fill="black" stroke="black" points="483.2,-171.5 473.2,-175 483.2,-178.5 483.2,-171.5"/>
</g>
<!-- QrCodeService -->
<g id="node7" class="node">
<title>QrCodeService</title>
<ellipse fill="#fdb462" stroke="black" cx="598" cy="-104" rx="70.62" ry="18"/>
<text text-anchor="middle" x="598" y="-99.8" font-family="Times,serif" font-size="14.00">QrCodeService</text>
</g>
<!-- QrCodeService&#45;&gt;QrCodeModule -->
<g id="edge6" class="edge">
<title>QrCodeService&#45;&gt;QrCodeModule</title>
<path fill="none" stroke="black" d="M543.83,-115.66C543.83,-132.85 543.83,-163 543.83,-163 543.83,-163 483.09,-163 483.09,-163"/>
<polygon fill="black" stroke="black" points="483.09,-159.5 473.09,-163 483.09,-166.5 483.09,-159.5"/>
</g>
<!-- ShortTokenStrategy -->
<g id="node8" class="node">
<title>ShortTokenStrategy</title>
<ellipse fill="#fdb462" stroke="black" cx="421" cy="-104" rx="88.63" ry="18"/>
<text text-anchor="middle" x="421" y="-99.8" font-family="Times,serif" font-size="14.00">ShortTokenStrategy</text>
</g>
<!-- ShortTokenStrategy&#45;&gt;QrCodeModule -->
<g id="edge7" class="edge">
<title>ShortTokenStrategy&#45;&gt;QrCodeModule</title>
<path fill="none" stroke="black" d="M421,-122.11C421,-122.11 421,-140.99 421,-140.99"/>
<polygon fill="black" stroke="black" points="417.5,-140.99 421,-150.99 424.5,-140.99 417.5,-140.99"/>
</g>
</g>
</svg>
