<?xml version="1.0" encoding="UTF-8" standalone="no"?>
<!DOCTYPE svg PUBLIC "-//W3C//DTD SVG 1.1//EN"
 "http://www.w3.org/Graphics/SVG/1.1/DTD/svg11.dtd">
<!-- Generated by graphviz version 2.47.0 (20210316.0004)
 -->
<!-- Title: dependencies Pages: 1 -->
<svg width="1841pt" height="284pt"
 viewBox="0.00 0.00 1841.00 284.00" xmlns="http://www.w3.org/2000/svg" xmlns:xlink="http://www.w3.org/1999/xlink">
<g id="graph0" class="graph" transform="scale(1 1) rotate(0) translate(4 280)">
<title>dependencies</title>
<polygon fill="white" stroke="transparent" points="-4,4 -4,-280 1837,-280 1837,4 -4,4"/>
<text text-anchor="start" x="895.51" y="-42.4" font-family="Times-12" font-weight="bold" font-size="14.00">Legend</text>
<polygon fill="#ffffb3" stroke="transparent" points="682.5,-10 682.5,-30 702.5,-30 702.5,-10 682.5,-10"/>
<text text-anchor="start" x="706.13" y="-15.4" font-family="Times-12" font-size="14.00"> &#160;Declarations</text>
<polygon fill="#8dd3c7" stroke="transparent" points="795.5,-10 795.5,-30 815.5,-30 815.5,-10 795.5,-10"/>
<text text-anchor="start" x="819.23" y="-15.4" font-family="Times-12" font-size="14.00"> &#160;Module</text>
<polygon fill="#80b1d3" stroke="transparent" points="881.5,-10 881.5,-30 901.5,-30 901.5,-10 881.5,-10"/>
<text text-anchor="start" x="905.28" y="-15.4" font-family="Times-12" font-size="14.00"> &#160;Bootstrap</text>
<polygon fill="#fdb462" stroke="transparent" points="978.5,-10 978.5,-30 998.5,-30 998.5,-10 978.5,-10"/>
<text text-anchor="start" x="1002.17" y="-15.4" font-family="Times-12" font-size="14.00"> &#160;Providers</text>
<polygon fill="#fb8072" stroke="transparent" points="1074.5,-10 1074.5,-30 1094.5,-30 1094.5,-10 1074.5,-10"/>
<text text-anchor="start" x="1098.23" y="-15.4" font-family="Times-12" font-size="14.00"> &#160;Exports</text>
<g id="clust1" class="cluster">
<title>cluster_UserModule</title>
<polygon fill="none" stroke="black" stroke-dasharray="1,5" points="8,-70 8,-268 1825,-268 1825,-70 8,-70"/>
</g>
<g id="clust6" class="cluster">
<title>cluster_UserModule_providers</title>
<polygon fill="none" stroke="black" points="628,-78 628,-130 1817,-130 1817,-78 628,-78"/>
</g>
<g id="clust3" class="cluster">
<title>cluster_UserModule_imports</title>
<polygon fill="none" stroke="black" points="16,-78 16,-130 620,-130 620,-78 16,-78"/>
</g>
<g id="clust4" class="cluster">
<title>cluster_UserModule_exports</title>
<polygon fill="none" stroke="black" points="796,-208 796,-260 1132,-260 1132,-208 796,-208"/>
</g>
<!-- DynamicLinkModule -->
<g id="node1" class="node">
<title>DynamicLinkModule</title>
<polygon fill="#8dd3c7" stroke="black" points="611.81,-122 608.81,-126 587.81,-126 584.81,-122 474.19,-122 474.19,-86 611.81,-86 611.81,-122"/>
<text text-anchor="middle" x="543" y="-99.8" font-family="Times,serif" font-size="14.00">DynamicLinkModule</text>
</g>
<!-- UserModule -->
<g id="node5" class="node">
<title>UserModule</title>
<polygon fill="#8dd3c7" stroke="black" points="1003.98,-187 1000.98,-191 979.98,-191 976.98,-187 918.02,-187 918.02,-151 1003.98,-151 1003.98,-187"/>
<text text-anchor="middle" x="961" y="-164.8" font-family="Times,serif" font-size="14.00">UserModule</text>
</g>
<!-- DynamicLinkModule&#45;&gt;UserModule -->
<g id="edge1" class="edge">
<title>DynamicLinkModule&#45;&gt;UserModule</title>
<path fill="none" stroke="black" d="M543,-122.03C543,-139.06 543,-162 543,-162 543,-162 907.84,-162 907.84,-162"/>
<polygon fill="black" stroke="black" points="907.84,-165.5 917.84,-162 907.84,-158.5 907.84,-165.5"/>
</g>
<!-- RolePermissionModule -->
<g id="node2" class="node">
<title>RolePermissionModule</title>
<polygon fill="#8dd3c7" stroke="black" points="456.21,-122 453.21,-126 432.21,-126 429.21,-122 307.79,-122 307.79,-86 456.21,-86 456.21,-122"/>
<text text-anchor="middle" x="382" y="-99.8" font-family="Times,serif" font-size="14.00">RolePermissionModule</text>
</g>
<!-- RolePermissionModule&#45;&gt;UserModule -->
<g id="edge2" class="edge">
<title>RolePermissionModule&#45;&gt;UserModule</title>
<path fill="none" stroke="black" d="M382,-122.22C382,-140.83 382,-167 382,-167 382,-167 907.95,-167 907.95,-167"/>
<polygon fill="black" stroke="black" points="907.95,-170.5 917.95,-167 907.95,-163.5 907.95,-170.5"/>
</g>
<!-- SiteDetailModule -->
<g id="node3" class="node">
<title>SiteDetailModule</title>
<polygon fill="#8dd3c7" stroke="black" points="289.54,-122 286.54,-126 265.54,-126 262.54,-122 174.46,-122 174.46,-86 289.54,-86 289.54,-122"/>
<text text-anchor="middle" x="232" y="-99.8" font-family="Times,serif" font-size="14.00">SiteDetailModule</text>
</g>
<!-- SiteDetailModule&#45;&gt;UserModule -->
<g id="edge3" class="edge">
<title>SiteDetailModule&#45;&gt;UserModule</title>
<path fill="none" stroke="black" d="M232,-122.22C232,-142.37 232,-172 232,-172 232,-172 907.85,-172 907.85,-172"/>
<polygon fill="black" stroke="black" points="907.85,-175.5 917.85,-172 907.85,-168.5 907.85,-175.5"/>
</g>
<!-- SupplyChainModule -->
<g id="node4" class="node">
<title>SupplyChainModule</title>
<polygon fill="#8dd3c7" stroke="black" points="156.17,-122 153.17,-126 132.17,-126 129.17,-122 23.83,-122 23.83,-86 156.17,-86 156.17,-122"/>
<text text-anchor="middle" x="90" y="-99.8" font-family="Times,serif" font-size="14.00">SupplyChainModule</text>
</g>
<!-- SupplyChainModule&#45;&gt;UserModule -->
<g id="edge4" class="edge">
<title>SupplyChainModule&#45;&gt;UserModule</title>
<path fill="none" stroke="black" d="M90,-122.04C90,-143.66 90,-177 90,-177 90,-177 907.81,-177 907.81,-177"/>
<polygon fill="black" stroke="black" points="907.81,-180.5 917.81,-177 907.81,-173.5 907.81,-180.5"/>
</g>
<!-- ActorService  -->
<g id="node6" class="node">
<title>ActorService </title>
<polygon fill="#fb8072" stroke="black" points="1123.85,-252 1030.15,-252 1030.15,-216 1123.85,-216 1123.85,-252"/>
<text text-anchor="middle" x="1077" y="-229.8" font-family="Times,serif" font-size="14.00">ActorService </text>
</g>
<!-- UserModule&#45;&gt;ActorService  -->
<g id="edge5" class="edge">
<title>UserModule&#45;&gt;ActorService </title>
<path fill="none" stroke="black" stroke-dasharray="5,2" d="M1004,-182C1036.52,-182 1075.6,-182 1075.6,-182 1075.6,-182 1075.6,-205.81 1075.6,-205.81"/>
<polygon fill="black" stroke="black" points="1072.1,-205.81 1075.6,-215.81 1079.1,-205.81 1072.1,-205.81"/>
</g>
<!-- PartnerService  -->
<g id="node7" class="node">
<title>PartnerService </title>
<polygon fill="#fb8072" stroke="black" points="1011.9,-252 910.1,-252 910.1,-216 1011.9,-216 1011.9,-252"/>
<text text-anchor="middle" x="961" y="-229.8" font-family="Times,serif" font-size="14.00">PartnerService </text>
</g>
<!-- UserModule&#45;&gt;PartnerService  -->
<g id="edge6" class="edge">
<title>UserModule&#45;&gt;PartnerService </title>
<path fill="none" stroke="black" stroke-dasharray="5,2" d="M961,-187.11C961,-187.11 961,-205.99 961,-205.99"/>
<polygon fill="black" stroke="black" points="957.5,-205.99 961,-215.99 964.5,-205.99 957.5,-205.99"/>
</g>
<!-- UserService  -->
<g id="node8" class="node">
<title>UserService </title>
<polygon fill="#fb8072" stroke="black" points="891.9,-252 804.1,-252 804.1,-216 891.9,-216 891.9,-252"/>
<text text-anchor="middle" x="848" y="-229.8" font-family="Times,serif" font-size="14.00">UserService </text>
</g>
<!-- UserModule&#45;&gt;UserService  -->
<g id="edge7" class="edge">
<title>UserModule&#45;&gt;UserService </title>
<path fill="none" stroke="black" stroke-dasharray="5,2" d="M917.96,-182C886.02,-182 848,-182 848,-182 848,-182 848,-205.81 848,-205.81"/>
<polygon fill="black" stroke="black" points="844.5,-205.81 848,-215.81 851.5,-205.81 844.5,-205.81"/>
</g>
<!-- ActorService -->
<g id="node9" class="node">
<title>ActorService</title>
<ellipse fill="#fdb462" stroke="black" cx="1747" cy="-104" rx="61.95" ry="18"/>
<text text-anchor="middle" x="1747" y="-99.8" font-family="Times,serif" font-size="14.00">ActorService</text>
</g>
<!-- ActorService&#45;&gt;UserModule -->
<g id="edge8" class="edge">
<title>ActorService&#45;&gt;UserModule</title>
<path fill="none" stroke="black" d="M1747,-122.04C1747,-143.66 1747,-177 1747,-177 1747,-177 1014.1,-177 1014.1,-177"/>
<polygon fill="black" stroke="black" points="1014.1,-173.5 1004.1,-177 1014.1,-180.5 1014.1,-173.5"/>
</g>
<!-- AdminService -->
<g id="node10" class="node">
<title>AdminService</title>
<ellipse fill="#fdb462" stroke="black" cx="1600" cy="-104" rx="66.63" ry="18"/>
<text text-anchor="middle" x="1600" y="-99.8" font-family="Times,serif" font-size="14.00">AdminService</text>
</g>
<!-- AdminService&#45;&gt;UserModule -->
<g id="edge9" class="edge">
<title>AdminService&#45;&gt;UserModule</title>
<path fill="none" stroke="black" d="M1600,-122.22C1600,-142.37 1600,-172 1600,-172 1600,-172 1014.42,-172 1014.42,-172"/>
<polygon fill="black" stroke="black" points="1014.42,-168.5 1004.42,-172 1014.42,-175.5 1014.42,-168.5"/>
</g>
<!-- AuthService -->
<g id="node11" class="node">
<title>AuthService</title>
<ellipse fill="#fdb462" stroke="black" cx="1456" cy="-104" rx="59.11" ry="18"/>
<text text-anchor="middle" x="1456" y="-99.8" font-family="Times,serif" font-size="14.00">AuthService</text>
</g>
<!-- AuthService&#45;&gt;UserModule -->
<g id="edge10" class="edge">
<title>AuthService&#45;&gt;UserModule</title>
<path fill="none" stroke="black" d="M1456,-122.22C1456,-140.83 1456,-167 1456,-167 1456,-167 1014.06,-167 1014.06,-167"/>
<polygon fill="black" stroke="black" points="1014.06,-163.5 1004.06,-167 1014.06,-170.5 1014.06,-163.5"/>
</g>
<!-- JwtStrategy -->
<g id="node12" class="node">
<title>JwtStrategy</title>
<ellipse fill="#fdb462" stroke="black" cx="1322" cy="-104" rx="56.76" ry="18"/>
<text text-anchor="middle" x="1322" y="-99.8" font-family="Times,serif" font-size="14.00">JwtStrategy</text>
</g>
<!-- JwtStrategy&#45;&gt;UserModule -->
<g id="edge11" class="edge">
<title>JwtStrategy&#45;&gt;UserModule</title>
<path fill="none" stroke="black" d="M1322,-122.03C1322,-139.06 1322,-162 1322,-162 1322,-162 1014.19,-162 1014.19,-162"/>
<polygon fill="black" stroke="black" points="1014.19,-158.5 1004.19,-162 1014.19,-165.5 1014.19,-158.5"/>
</g>
<!-- OtpService -->
<g id="node13" class="node">
<title>OtpService</title>
<ellipse fill="#fdb462" stroke="black" cx="1193" cy="-104" rx="54.45" ry="18"/>
<text text-anchor="middle" x="1193" y="-99.8" font-family="Times,serif" font-size="14.00">OtpService</text>
</g>
<!-- OtpService&#45;&gt;UserModule -->
<g id="edge12" class="edge">
<title>OtpService&#45;&gt;UserModule</title>
<path fill="none" stroke="black" d="M1193,-122.24C1193,-137.57 1193,-157 1193,-157 1193,-157 1014.09,-157 1014.09,-157"/>
<polygon fill="black" stroke="black" points="1014.09,-153.5 1004.09,-157 1014.09,-160.5 1014.09,-153.5"/>
</g>
<!-- PartnerService -->
<g id="node14" class="node">
<title>PartnerService</title>
<ellipse fill="#fdb462" stroke="black" cx="1053" cy="-104" rx="67.75" ry="18"/>
<text text-anchor="middle" x="1053" y="-99.8" font-family="Times,serif" font-size="14.00">PartnerService</text>
</g>
<!-- PartnerService&#45;&gt;UserModule -->
<g id="edge13" class="edge">
<title>PartnerService&#45;&gt;UserModule</title>
<path fill="none" stroke="black" d="M994.56,-113.31C994.56,-113.31 994.56,-140.85 994.56,-140.85"/>
<polygon fill="black" stroke="black" points="991.06,-140.85 994.56,-150.85 998.06,-140.85 991.06,-140.85"/>
</g>
<!-- ResetPasswordService -->
<g id="node15" class="node">
<title>ResetPasswordService</title>
<ellipse fill="#fdb462" stroke="black" cx="869" cy="-104" rx="98.41" ry="18"/>
<text text-anchor="middle" x="869" y="-99.8" font-family="Times,serif" font-size="14.00">ResetPasswordService</text>
</g>
<!-- ResetPasswordService&#45;&gt;UserModule -->
<g id="edge14" class="edge">
<title>ResetPasswordService&#45;&gt;UserModule</title>
<path fill="none" stroke="black" d="M942.73,-116.23C942.73,-116.23 942.73,-140.68 942.73,-140.68"/>
<polygon fill="black" stroke="black" points="939.23,-140.68 942.73,-150.68 946.23,-140.68 939.23,-140.68"/>
</g>
<!-- UserService -->
<g id="node16" class="node">
<title>UserService</title>
<ellipse fill="#fdb462" stroke="black" cx="694" cy="-104" rx="58.44" ry="18"/>
<text text-anchor="middle" x="694" y="-99.8" font-family="Times,serif" font-size="14.00">UserService</text>
</g>
<!-- UserService&#45;&gt;UserModule -->
<g id="edge15" class="edge">
<title>UserService&#45;&gt;UserModule</title>
<path fill="none" stroke="black" d="M694,-122.24C694,-137.57 694,-157 694,-157 694,-157 907.81,-157 907.81,-157"/>
<polygon fill="black" stroke="black" points="907.81,-160.5 917.81,-157 907.81,-153.5 907.81,-160.5"/>
</g>
</g>
</svg>
