<?xml version="1.0" encoding="UTF-8" standalone="no"?>
<!DOCTYPE svg PUBLIC "-//W3C//DTD SVG 1.1//EN"
 "http://www.w3.org/Graphics/SVG/1.1/DTD/svg11.dtd">
<!-- Generated by graphviz version 2.47.0 (20210316.0004)
 -->
<!-- Title: dependencies Pages: 1 -->
<svg width="2403pt" height="284pt"
 viewBox="0.00 0.00 2403.00 284.00" xmlns="http://www.w3.org/2000/svg" xmlns:xlink="http://www.w3.org/1999/xlink">
<g id="graph0" class="graph" transform="scale(1 1) rotate(0) translate(4 280)">
<title>dependencies</title>
<polygon fill="white" stroke="transparent" points="-4,4 -4,-280 2399,-280 2399,4 -4,4"/>
<text text-anchor="start" x="1176.51" y="-42.4" font-family="Times-12" font-weight="bold" font-size="14.00">Legend</text>
<polygon fill="#ffffb3" stroke="transparent" points="963.5,-10 963.5,-30 983.5,-30 983.5,-10 963.5,-10"/>
<text text-anchor="start" x="987.13" y="-15.4" font-family="Times-12" font-size="14.00"> &#160;Declarations</text>
<polygon fill="#8dd3c7" stroke="transparent" points="1076.5,-10 1076.5,-30 1096.5,-30 1096.5,-10 1076.5,-10"/>
<text text-anchor="start" x="1100.23" y="-15.4" font-family="Times-12" font-size="14.00"> &#160;Module</text>
<polygon fill="#80b1d3" stroke="transparent" points="1162.5,-10 1162.5,-30 1182.5,-30 1182.5,-10 1162.5,-10"/>
<text text-anchor="start" x="1186.28" y="-15.4" font-family="Times-12" font-size="14.00"> &#160;Bootstrap</text>
<polygon fill="#fdb462" stroke="transparent" points="1259.5,-10 1259.5,-30 1279.5,-30 1279.5,-10 1259.5,-10"/>
<text text-anchor="start" x="1283.17" y="-15.4" font-family="Times-12" font-size="14.00"> &#160;Providers</text>
<polygon fill="#fb8072" stroke="transparent" points="1355.5,-10 1355.5,-30 1375.5,-30 1375.5,-10 1355.5,-10"/>
<text text-anchor="start" x="1379.23" y="-15.4" font-family="Times-12" font-size="14.00"> &#160;Exports</text>
<g id="clust1" class="cluster">
<title>cluster_UserModule</title>
<polygon fill="none" stroke="black" stroke-dasharray="1,5" points="8,-70 8,-268 2387,-268 2387,-70 8,-70"/>
</g>
<g id="clust4" class="cluster">
<title>cluster_UserModule_exports</title>
<polygon fill="none" stroke="black" points="1032,-208 1032,-260 1368,-260 1368,-208 1032,-208"/>
</g>
<g id="clust6" class="cluster">
<title>cluster_UserModule_providers</title>
<polygon fill="none" stroke="black" points="938,-78 938,-130 2379,-130 2379,-78 938,-78"/>
</g>
<g id="clust3" class="cluster">
<title>cluster_UserModule_imports</title>
<polygon fill="none" stroke="black" points="16,-78 16,-130 930,-130 930,-78 16,-78"/>
</g>
<!-- DynamicLinkModule -->
<g id="node1" class="node">
<title>DynamicLinkModule</title>
<polygon fill="#8dd3c7" stroke="black" points="921.81,-122 918.81,-126 897.81,-126 894.81,-122 784.19,-122 784.19,-86 921.81,-86 921.81,-122"/>
<text text-anchor="middle" x="853" y="-99.8" font-family="Times,serif" font-size="14.00">DynamicLinkModule</text>
</g>
<!-- UserModule -->
<g id="node7" class="node">
<title>UserModule</title>
<polygon fill="#8dd3c7" stroke="black" points="1239.98,-187 1236.98,-191 1215.98,-191 1212.98,-187 1154.02,-187 1154.02,-151 1239.98,-151 1239.98,-187"/>
<text text-anchor="middle" x="1197" y="-164.8" font-family="Times,serif" font-size="14.00">UserModule</text>
</g>
<!-- DynamicLinkModule&#45;&gt;UserModule -->
<g id="edge1" class="edge">
<title>DynamicLinkModule&#45;&gt;UserModule</title>
<path fill="none" stroke="black" d="M853,-122.01C853,-138.05 853,-159 853,-159 853,-159 1143.78,-159 1143.78,-159"/>
<polygon fill="black" stroke="black" points="1143.78,-162.5 1153.78,-159 1143.78,-155.5 1143.78,-162.5"/>
</g>
<!-- RoleAttributeModule -->
<g id="node2" class="node">
<title>RoleAttributeModule</title>
<polygon fill="#8dd3c7" stroke="black" points="766.04,-122 763.04,-126 742.04,-126 739.04,-122 629.96,-122 629.96,-86 766.04,-86 766.04,-122"/>
<text text-anchor="middle" x="698" y="-99.8" font-family="Times,serif" font-size="14.00">RoleAttributeModule</text>
</g>
<!-- RoleAttributeModule&#45;&gt;UserModule -->
<g id="edge2" class="edge">
<title>RoleAttributeModule&#45;&gt;UserModule</title>
<path fill="none" stroke="black" d="M698,-122.02C698,-139.37 698,-163 698,-163 698,-163 1144.02,-163 1144.02,-163"/>
<polygon fill="black" stroke="black" points="1144.02,-166.5 1154.02,-163 1144.02,-159.5 1144.02,-166.5"/>
</g>
<!-- RolePermissionModule -->
<g id="node3" class="node">
<title>RolePermissionModule</title>
<polygon fill="#8dd3c7" stroke="black" points="612.21,-122 609.21,-126 588.21,-126 585.21,-122 463.79,-122 463.79,-86 612.21,-86 612.21,-122"/>
<text text-anchor="middle" x="538" y="-99.8" font-family="Times,serif" font-size="14.00">RolePermissionModule</text>
</g>
<!-- RolePermissionModule&#45;&gt;UserModule -->
<g id="edge3" class="edge">
<title>RolePermissionModule&#45;&gt;UserModule</title>
<path fill="none" stroke="black" d="M538,-122.22C538,-140.83 538,-167 538,-167 538,-167 1144.02,-167 1144.02,-167"/>
<polygon fill="black" stroke="black" points="1144.02,-170.5 1154.02,-167 1144.02,-163.5 1144.02,-170.5"/>
</g>
<!-- SiteDetailModule -->
<g id="node4" class="node">
<title>SiteDetailModule</title>
<polygon fill="#8dd3c7" stroke="black" points="445.54,-122 442.54,-126 421.54,-126 418.54,-122 330.46,-122 330.46,-86 445.54,-86 445.54,-122"/>
<text text-anchor="middle" x="388" y="-99.8" font-family="Times,serif" font-size="14.00">SiteDetailModule</text>
</g>
<!-- SiteDetailModule&#45;&gt;UserModule -->
<g id="edge4" class="edge">
<title>SiteDetailModule&#45;&gt;UserModule</title>
<path fill="none" stroke="black" d="M388,-122.31C388,-142.15 388,-171 388,-171 388,-171 1143.79,-171 1143.79,-171"/>
<polygon fill="black" stroke="black" points="1143.79,-174.5 1153.79,-171 1143.79,-167.5 1143.79,-174.5"/>
</g>
<!-- SupplyChainModule -->
<g id="node5" class="node">
<title>SupplyChainModule</title>
<polygon fill="#8dd3c7" stroke="black" points="312.17,-122 309.17,-126 288.17,-126 285.17,-122 179.83,-122 179.83,-86 312.17,-86 312.17,-122"/>
<text text-anchor="middle" x="246" y="-99.8" font-family="Times,serif" font-size="14.00">SupplyChainModule</text>
</g>
<!-- SupplyChainModule&#45;&gt;UserModule -->
<g id="edge5" class="edge">
<title>SupplyChainModule&#45;&gt;UserModule</title>
<path fill="none" stroke="black" d="M246,-122.28C246,-143.32 246,-175 246,-175 246,-175 1143.98,-175 1143.98,-175"/>
<polygon fill="black" stroke="black" points="1143.98,-178.5 1153.98,-175 1143.98,-171.5 1143.98,-178.5"/>
</g>
<!-- UserApiLimitModule -->
<g id="node6" class="node">
<title>UserApiLimitModule</title>
<polygon fill="#8dd3c7" stroke="black" points="162.09,-122 159.09,-126 138.09,-126 135.09,-122 23.91,-122 23.91,-86 162.09,-86 162.09,-122"/>
<text text-anchor="middle" x="93" y="-99.8" font-family="Times,serif" font-size="14.00">UserApiLimitModule</text>
</g>
<!-- UserApiLimitModule&#45;&gt;UserModule -->
<g id="edge6" class="edge">
<title>UserApiLimitModule&#45;&gt;UserModule</title>
<path fill="none" stroke="black" d="M93,-122.16C93,-144.35 93,-179 93,-179 93,-179 1143.72,-179 1143.72,-179"/>
<polygon fill="black" stroke="black" points="1143.72,-182.5 1153.72,-179 1143.72,-175.5 1143.72,-182.5"/>
</g>
<!-- ActorService  -->
<g id="node8" class="node">
<title>ActorService </title>
<polygon fill="#fb8072" stroke="black" points="1359.85,-252 1266.15,-252 1266.15,-216 1359.85,-216 1359.85,-252"/>
<text text-anchor="middle" x="1313" y="-229.8" font-family="Times,serif" font-size="14.00">ActorService </text>
</g>
<!-- UserModule&#45;&gt;ActorService  -->
<g id="edge7" class="edge">
<title>UserModule&#45;&gt;ActorService </title>
<path fill="none" stroke="black" stroke-dasharray="5,2" d="M1240.09,-183C1264.53,-183 1290.28,-183 1290.28,-183 1290.28,-183 1290.28,-205.88 1290.28,-205.88"/>
<polygon fill="black" stroke="black" points="1286.78,-205.88 1290.28,-215.88 1293.78,-205.88 1286.78,-205.88"/>
</g>
<!-- PartnerService  -->
<g id="node9" class="node">
<title>PartnerService </title>
<polygon fill="#fb8072" stroke="black" points="1247.9,-252 1146.1,-252 1146.1,-216 1247.9,-216 1247.9,-252"/>
<text text-anchor="middle" x="1197" y="-229.8" font-family="Times,serif" font-size="14.00">PartnerService </text>
</g>
<!-- UserModule&#45;&gt;PartnerService  -->
<g id="edge8" class="edge">
<title>UserModule&#45;&gt;PartnerService </title>
<path fill="none" stroke="black" stroke-dasharray="5,2" d="M1197,-187.11C1197,-187.11 1197,-205.99 1197,-205.99"/>
<polygon fill="black" stroke="black" points="1193.5,-205.99 1197,-215.99 1200.5,-205.99 1193.5,-205.99"/>
</g>
<!-- UserService  -->
<g id="node10" class="node">
<title>UserService </title>
<polygon fill="#fb8072" stroke="black" points="1127.9,-252 1040.1,-252 1040.1,-216 1127.9,-216 1127.9,-252"/>
<text text-anchor="middle" x="1084" y="-229.8" font-family="Times,serif" font-size="14.00">UserService </text>
</g>
<!-- UserModule&#45;&gt;UserService  -->
<g id="edge9" class="edge">
<title>UserModule&#45;&gt;UserService </title>
<path fill="none" stroke="black" stroke-dasharray="5,2" d="M1153.97,-183C1129.57,-183 1103.86,-183 1103.86,-183 1103.86,-183 1103.86,-205.88 1103.86,-205.88"/>
<polygon fill="black" stroke="black" points="1100.36,-205.88 1103.86,-215.88 1107.36,-205.88 1100.36,-205.88"/>
</g>
<!-- ActorService -->
<g id="node11" class="node">
<title>ActorService</title>
<ellipse fill="#fdb462" stroke="black" cx="2309" cy="-104" rx="61.95" ry="18"/>
<text text-anchor="middle" x="2309" y="-99.8" font-family="Times,serif" font-size="14.00">ActorService</text>
</g>
<!-- ActorService&#45;&gt;UserModule -->
<g id="edge10" class="edge">
<title>ActorService&#45;&gt;UserModule</title>
<path fill="none" stroke="black" d="M2309,-122.16C2309,-144.35 2309,-179 2309,-179 2309,-179 1250.25,-179 1250.25,-179"/>
<polygon fill="black" stroke="black" points="1250.25,-175.5 1240.25,-179 1250.25,-182.5 1250.25,-175.5"/>
</g>
<!-- AdminService -->
<g id="node12" class="node">
<title>AdminService</title>
<ellipse fill="#fdb462" stroke="black" cx="2162" cy="-104" rx="66.63" ry="18"/>
<text text-anchor="middle" x="2162" y="-99.8" font-family="Times,serif" font-size="14.00">AdminService</text>
</g>
<!-- AdminService&#45;&gt;UserModule -->
<g id="edge11" class="edge">
<title>AdminService&#45;&gt;UserModule</title>
<path fill="none" stroke="black" d="M2162,-122.28C2162,-143.32 2162,-175 2162,-175 2162,-175 1250.02,-175 1250.02,-175"/>
<polygon fill="black" stroke="black" points="1250.02,-171.5 1240.02,-175 1250.02,-178.5 1250.02,-171.5"/>
</g>
<!-- AuthService -->
<g id="node13" class="node">
<title>AuthService</title>
<ellipse fill="#fdb462" stroke="black" cx="2018" cy="-104" rx="59.11" ry="18"/>
<text text-anchor="middle" x="2018" y="-99.8" font-family="Times,serif" font-size="14.00">AuthService</text>
</g>
<!-- AuthService&#45;&gt;UserModule -->
<g id="edge12" class="edge">
<title>AuthService&#45;&gt;UserModule</title>
<path fill="none" stroke="black" d="M2018,-122.31C2018,-142.15 2018,-171 2018,-171 2018,-171 1249.98,-171 1249.98,-171"/>
<polygon fill="black" stroke="black" points="1249.98,-167.5 1239.98,-171 1249.98,-174.5 1249.98,-167.5"/>
</g>
<!-- JwtStrategy -->
<g id="node14" class="node">
<title>JwtStrategy</title>
<ellipse fill="#fdb462" stroke="black" cx="1884" cy="-104" rx="56.76" ry="18"/>
<text text-anchor="middle" x="1884" y="-99.8" font-family="Times,serif" font-size="14.00">JwtStrategy</text>
</g>
<!-- JwtStrategy&#45;&gt;UserModule -->
<g id="edge13" class="edge">
<title>JwtStrategy&#45;&gt;UserModule</title>
<path fill="none" stroke="black" d="M1884,-122.22C1884,-140.83 1884,-167 1884,-167 1884,-167 1250.24,-167 1250.24,-167"/>
<polygon fill="black" stroke="black" points="1250.24,-163.5 1240.24,-167 1250.24,-170.5 1250.24,-163.5"/>
</g>
<!-- OtpService -->
<g id="node15" class="node">
<title>OtpService</title>
<ellipse fill="#fdb462" stroke="black" cx="1755" cy="-104" rx="54.45" ry="18"/>
<text text-anchor="middle" x="1755" y="-99.8" font-family="Times,serif" font-size="14.00">OtpService</text>
</g>
<!-- OtpService&#45;&gt;UserModule -->
<g id="edge14" class="edge">
<title>OtpService&#45;&gt;UserModule</title>
<path fill="none" stroke="black" d="M1755,-122.02C1755,-139.37 1755,-163 1755,-163 1755,-163 1250.32,-163 1250.32,-163"/>
<polygon fill="black" stroke="black" points="1250.32,-159.5 1240.32,-163 1250.32,-166.5 1250.32,-159.5"/>
</g>
<!-- PartnerService -->
<g id="node16" class="node">
<title>PartnerService</title>
<ellipse fill="#fdb462" stroke="black" cx="1615" cy="-104" rx="67.75" ry="18"/>
<text text-anchor="middle" x="1615" y="-99.8" font-family="Times,serif" font-size="14.00">PartnerService</text>
</g>
<!-- PartnerService&#45;&gt;UserModule -->
<g id="edge15" class="edge">
<title>PartnerService&#45;&gt;UserModule</title>
<path fill="none" stroke="black" d="M1615,-122.01C1615,-138.05 1615,-159 1615,-159 1615,-159 1250.16,-159 1250.16,-159"/>
<polygon fill="black" stroke="black" points="1250.16,-155.5 1240.16,-159 1250.16,-162.5 1250.16,-155.5"/>
</g>
<!-- ResetPasswordService -->
<g id="node17" class="node">
<title>ResetPasswordService</title>
<ellipse fill="#fdb462" stroke="black" cx="1431" cy="-104" rx="98.41" ry="18"/>
<text text-anchor="middle" x="1431" y="-99.8" font-family="Times,serif" font-size="14.00">ResetPasswordService</text>
</g>
<!-- ResetPasswordService&#45;&gt;UserModule -->
<g id="edge16" class="edge">
<title>ResetPasswordService&#45;&gt;UserModule</title>
<path fill="none" stroke="black" d="M1346.11,-113.35C1346.11,-128.08 1346.11,-155 1346.11,-155 1346.11,-155 1250.13,-155 1250.13,-155"/>
<polygon fill="black" stroke="black" points="1250.13,-151.5 1240.13,-155 1250.13,-158.5 1250.13,-151.5"/>
</g>
<!-- UpdateUserTypeCommand -->
<g id="node18" class="node">
<title>UpdateUserTypeCommand</title>
<ellipse fill="#fdb462" stroke="black" cx="1197" cy="-104" rx="117.46" ry="18"/>
<text text-anchor="middle" x="1197" y="-99.8" font-family="Times,serif" font-size="14.00">UpdateUserTypeCommand</text>
</g>
<!-- UpdateUserTypeCommand&#45;&gt;UserModule -->
<g id="edge17" class="edge">
<title>UpdateUserTypeCommand&#45;&gt;UserModule</title>
<path fill="none" stroke="black" d="M1197,-122.11C1197,-122.11 1197,-140.99 1197,-140.99"/>
<polygon fill="black" stroke="black" points="1193.5,-140.99 1197,-150.99 1200.5,-140.99 1193.5,-140.99"/>
</g>
<!-- UserService -->
<g id="node19" class="node">
<title>UserService</title>
<ellipse fill="#fdb462" stroke="black" cx="1004" cy="-104" rx="58.44" ry="18"/>
<text text-anchor="middle" x="1004" y="-99.8" font-family="Times,serif" font-size="14.00">UserService</text>
</g>
<!-- UserService&#45;&gt;UserModule -->
<g id="edge18" class="edge">
<title>UserService&#45;&gt;UserModule</title>
<path fill="none" stroke="black" d="M1051.13,-114.82C1051.13,-129.79 1051.13,-155 1051.13,-155 1051.13,-155 1143.63,-155 1143.63,-155"/>
<polygon fill="black" stroke="black" points="1143.63,-158.5 1153.63,-155 1143.63,-151.5 1143.63,-158.5"/>
</g>
</g>
</svg>
