<?xml version="1.0" encoding="UTF-8" standalone="no"?>
<!DOCTYPE svg PUBLIC "-//W3C//DTD SVG 1.1//EN"
 "http://www.w3.org/Graphics/SVG/1.1/DTD/svg11.dtd">
<!-- Generated by graphviz version 2.47.0 (20210316.0004)
 -->
<!-- Title: dependencies Pages: 1 -->
<svg width="898pt" height="284pt"
 viewBox="0.00 0.00 898.00 284.00" xmlns="http://www.w3.org/2000/svg" xmlns:xlink="http://www.w3.org/1999/xlink">
<g id="graph0" class="graph" transform="scale(1 1) rotate(0) translate(4 280)">
<title>dependencies</title>
<polygon fill="white" stroke="transparent" points="-4,4 -4,-280 894,-280 894,4 -4,4"/>
<text text-anchor="start" x="424.01" y="-42.4" font-family="Times-12" font-weight="bold" font-size="14.00">Legend</text>
<polygon fill="#ffffb3" stroke="transparent" points="211,-10 211,-30 231,-30 231,-10 211,-10"/>
<text text-anchor="start" x="234.63" y="-15.4" font-family="Times-12" font-size="14.00"> &#160;Declarations</text>
<polygon fill="#8dd3c7" stroke="transparent" points="324,-10 324,-30 344,-30 344,-10 324,-10"/>
<text text-anchor="start" x="347.73" y="-15.4" font-family="Times-12" font-size="14.00"> &#160;Module</text>
<polygon fill="#80b1d3" stroke="transparent" points="410,-10 410,-30 430,-30 430,-10 410,-10"/>
<text text-anchor="start" x="433.78" y="-15.4" font-family="Times-12" font-size="14.00"> &#160;Bootstrap</text>
<polygon fill="#fdb462" stroke="transparent" points="507,-10 507,-30 527,-30 527,-10 507,-10"/>
<text text-anchor="start" x="530.67" y="-15.4" font-family="Times-12" font-size="14.00"> &#160;Providers</text>
<polygon fill="#fb8072" stroke="transparent" points="603,-10 603,-30 623,-30 623,-10 603,-10"/>
<text text-anchor="start" x="626.73" y="-15.4" font-family="Times-12" font-size="14.00"> &#160;Exports</text>
<g id="clust1" class="cluster">
<title>cluster_ProductModule</title>
<polygon fill="none" stroke="black" stroke-dasharray="1,5" points="8,-70 8,-268 882,-268 882,-70 8,-70"/>
</g>
<g id="clust6" class="cluster">
<title>cluster_ProductModule_providers</title>
<polygon fill="none" stroke="black" points="366,-78 366,-130 874,-130 874,-78 366,-78"/>
</g>
<g id="clust4" class="cluster">
<title>cluster_ProductModule_exports</title>
<polygon fill="none" stroke="black" points="384,-208 384,-260 506,-260 506,-208 384,-208"/>
</g>
<g id="clust3" class="cluster">
<title>cluster_ProductModule_imports</title>
<polygon fill="none" stroke="black" points="16,-78 16,-130 358,-130 358,-78 16,-78"/>
</g>
<!-- ProductDefinitionModule -->
<g id="node1" class="node">
<title>ProductDefinitionModule</title>
<polygon fill="#8dd3c7" stroke="black" points="350.14,-122 347.14,-126 326.14,-126 323.14,-122 189.86,-122 189.86,-86 350.14,-86 350.14,-122"/>
<text text-anchor="middle" x="270" y="-99.8" font-family="Times,serif" font-size="14.00">ProductDefinitionModule</text>
</g>
<!-- ProductModule -->
<g id="node3" class="node">
<title>ProductModule</title>
<polygon fill="#8dd3c7" stroke="black" points="496.6,-187 493.6,-191 472.6,-191 469.6,-187 393.4,-187 393.4,-151 496.6,-151 496.6,-187"/>
<text text-anchor="middle" x="445" y="-164.8" font-family="Times,serif" font-size="14.00">ProductModule</text>
</g>
<!-- ProductDefinitionModule&#45;&gt;ProductModule -->
<g id="edge1" class="edge">
<title>ProductDefinitionModule&#45;&gt;ProductModule</title>
<path fill="none" stroke="black" d="M270,-122.02C270,-139.37 270,-163 270,-163 270,-163 383.44,-163 383.44,-163"/>
<polygon fill="black" stroke="black" points="383.44,-166.5 393.44,-163 383.44,-159.5 383.44,-166.5"/>
</g>
<!-- RolePermissionModule -->
<g id="node2" class="node">
<title>RolePermissionModule</title>
<polygon fill="#8dd3c7" stroke="black" points="172.21,-122 169.21,-126 148.21,-126 145.21,-122 23.79,-122 23.79,-86 172.21,-86 172.21,-122"/>
<text text-anchor="middle" x="98" y="-99.8" font-family="Times,serif" font-size="14.00">RolePermissionModule</text>
</g>
<!-- RolePermissionModule&#45;&gt;ProductModule -->
<g id="edge2" class="edge">
<title>RolePermissionModule&#45;&gt;ProductModule</title>
<path fill="none" stroke="black" d="M98,-122.28C98,-143.32 98,-175 98,-175 98,-175 383.43,-175 383.43,-175"/>
<polygon fill="black" stroke="black" points="383.43,-178.5 393.43,-175 383.43,-171.5 383.43,-178.5"/>
</g>
<!-- ProductService  -->
<g id="node4" class="node">
<title>ProductService </title>
<polygon fill="#fb8072" stroke="black" points="497.53,-252 392.47,-252 392.47,-216 497.53,-216 497.53,-252"/>
<text text-anchor="middle" x="445" y="-229.8" font-family="Times,serif" font-size="14.00">ProductService </text>
</g>
<!-- ProductModule&#45;&gt;ProductService  -->
<g id="edge3" class="edge">
<title>ProductModule&#45;&gt;ProductService </title>
<path fill="none" stroke="black" stroke-dasharray="5,2" d="M445,-187.11C445,-187.11 445,-205.99 445,-205.99"/>
<polygon fill="black" stroke="black" points="441.5,-205.99 445,-215.99 448.5,-205.99 441.5,-205.99"/>
</g>
<!-- FacilityItemService -->
<g id="node5" class="node">
<title>FacilityItemService</title>
<ellipse fill="#fdb462" stroke="black" cx="779" cy="-104" rx="87.39" ry="18"/>
<text text-anchor="middle" x="779" y="-99.8" font-family="Times,serif" font-size="14.00">FacilityItemService</text>
</g>
<!-- FacilityItemService&#45;&gt;ProductModule -->
<g id="edge4" class="edge">
<title>FacilityItemService&#45;&gt;ProductModule</title>
<path fill="none" stroke="black" d="M779,-122.28C779,-143.32 779,-175 779,-175 779,-175 506.82,-175 506.82,-175"/>
<polygon fill="black" stroke="black" points="506.82,-171.5 496.82,-175 506.82,-178.5 506.82,-171.5"/>
</g>
<!-- ProductService -->
<g id="node6" class="node">
<title>ProductService</title>
<ellipse fill="#fdb462" stroke="black" cx="604" cy="-104" rx="70.06" ry="18"/>
<text text-anchor="middle" x="604" y="-99.8" font-family="Times,serif" font-size="14.00">ProductService</text>
</g>
<!-- ProductService&#45;&gt;ProductModule -->
<g id="edge5" class="edge">
<title>ProductService&#45;&gt;ProductModule</title>
<path fill="none" stroke="black" d="M604,-122.02C604,-139.37 604,-163 604,-163 604,-163 506.62,-163 506.62,-163"/>
<polygon fill="black" stroke="black" points="506.62,-159.5 496.62,-163 506.62,-166.5 506.62,-159.5"/>
</g>
<!-- QrCodeService -->
<g id="node7" class="node">
<title>QrCodeService</title>
<ellipse fill="#fdb462" stroke="black" cx="445" cy="-104" rx="70.62" ry="18"/>
<text text-anchor="middle" x="445" y="-99.8" font-family="Times,serif" font-size="14.00">QrCodeService</text>
</g>
<!-- QrCodeService&#45;&gt;ProductModule -->
<g id="edge6" class="edge">
<title>QrCodeService&#45;&gt;ProductModule</title>
<path fill="none" stroke="black" d="M445,-122.11C445,-122.11 445,-140.99 445,-140.99"/>
<polygon fill="black" stroke="black" points="441.5,-140.99 445,-150.99 448.5,-140.99 441.5,-140.99"/>
</g>
</g>
</svg>
