<?xml version="1.0" encoding="UTF-8" standalone="no"?>
<!DOCTYPE svg PUBLIC "-//W3C//DTD SVG 1.1//EN"
 "http://www.w3.org/Graphics/SVG/1.1/DTD/svg11.dtd">
<!-- Generated by graphviz version 2.47.0 (20210316.0004)
 -->
<!-- Title: dependencies Pages: 1 -->
<svg width="4090pt" height="284pt"
 viewBox="0.00 0.00 4090.00 284.00" xmlns="http://www.w3.org/2000/svg" xmlns:xlink="http://www.w3.org/1999/xlink">
<g id="graph0" class="graph" transform="scale(1 1) rotate(0) translate(4 280)">
<title>dependencies</title>
<polygon fill="white" stroke="transparent" points="-4,4 -4,-280 4086,-280 4086,4 -4,4"/>
<text text-anchor="start" x="2020.01" y="-42.4" font-family="Times-12" font-weight="bold" font-size="14.00">Legend</text>
<polygon fill="#ffffb3" stroke="transparent" points="1807,-10 1807,-30 1827,-30 1827,-10 1807,-10"/>
<text text-anchor="start" x="1830.63" y="-15.4" font-family="Times-12" font-size="14.00"> &#160;Declarations</text>
<polygon fill="#8dd3c7" stroke="transparent" points="1920,-10 1920,-30 1940,-30 1940,-10 1920,-10"/>
<text text-anchor="start" x="1943.73" y="-15.4" font-family="Times-12" font-size="14.00"> &#160;Module</text>
<polygon fill="#80b1d3" stroke="transparent" points="2006,-10 2006,-30 2026,-30 2026,-10 2006,-10"/>
<text text-anchor="start" x="2029.78" y="-15.4" font-family="Times-12" font-size="14.00"> &#160;Bootstrap</text>
<polygon fill="#fdb462" stroke="transparent" points="2103,-10 2103,-30 2123,-30 2123,-10 2103,-10"/>
<text text-anchor="start" x="2126.67" y="-15.4" font-family="Times-12" font-size="14.00"> &#160;Providers</text>
<polygon fill="#fb8072" stroke="transparent" points="2199,-10 2199,-30 2219,-30 2219,-10 2199,-10"/>
<text text-anchor="start" x="2222.73" y="-15.4" font-family="Times-12" font-size="14.00"> &#160;Exports</text>
<g id="clust1" class="cluster">
<title>cluster_FacilityModule</title>
<polygon fill="none" stroke="black" stroke-dasharray="1,5" points="8,-70 8,-268 4074,-268 4074,-70 8,-70"/>
</g>
<g id="clust3" class="cluster">
<title>cluster_FacilityModule_imports</title>
<polygon fill="none" stroke="black" points="3193,-78 3193,-130 4066,-130 4066,-78 3193,-78"/>
</g>
<g id="clust4" class="cluster">
<title>cluster_FacilityModule_exports</title>
<polygon fill="none" stroke="black" points="1811,-208 1811,-260 2883,-260 2883,-208 1811,-208"/>
</g>
<g id="clust6" class="cluster">
<title>cluster_FacilityModule_providers</title>
<polygon fill="none" stroke="black" points="16,-78 16,-130 3185,-130 3185,-78 16,-78"/>
</g>
<!-- CategoryModule -->
<g id="node1" class="node">
<title>CategoryModule</title>
<polygon fill="#8dd3c7" stroke="black" points="4058.37,-122 4055.37,-126 4034.37,-126 4031.37,-122 3947.63,-122 3947.63,-86 4058.37,-86 4058.37,-122"/>
<text text-anchor="middle" x="4003" y="-99.8" font-family="Times,serif" font-size="14.00">CategoryModule</text>
</g>
<!-- FacilityModule -->
<g id="node7" class="node">
<title>FacilityModule</title>
<polygon fill="#8dd3c7" stroke="black" points="2392.32,-187 2389.32,-191 2368.32,-191 2365.32,-187 2289.68,-187 2289.68,-151 2392.32,-151 2392.32,-187"/>
<text text-anchor="middle" x="2341" y="-164.8" font-family="Times,serif" font-size="14.00">FacilityModule</text>
</g>
<!-- CategoryModule&#45;&gt;FacilityModule -->
<g id="edge1" class="edge">
<title>CategoryModule&#45;&gt;FacilityModule</title>
<path fill="none" stroke="black" d="M4003,-122.17C4003,-143.5 4003,-176 4003,-176 4003,-176 2402.56,-176 2402.56,-176"/>
<polygon fill="black" stroke="black" points="2402.56,-172.5 2392.56,-176 2402.56,-179.5 2402.56,-172.5"/>
</g>
<!-- LocationModule -->
<g id="node2" class="node">
<title>LocationModule</title>
<polygon fill="#8dd3c7" stroke="black" points="3929.81,-122 3926.81,-126 3905.81,-126 3902.81,-122 3820.19,-122 3820.19,-86 3929.81,-86 3929.81,-122"/>
<text text-anchor="middle" x="3875" y="-99.8" font-family="Times,serif" font-size="14.00">LocationModule</text>
</g>
<!-- LocationModule&#45;&gt;FacilityModule -->
<g id="edge2" class="edge">
<title>LocationModule&#45;&gt;FacilityModule</title>
<path fill="none" stroke="black" d="M3875,-122.03C3875,-142.77 3875,-174 3875,-174 3875,-174 2402.48,-174 2402.48,-174"/>
<polygon fill="black" stroke="black" points="2402.48,-170.5 2392.48,-174 2402.48,-177.5 2402.48,-170.5"/>
</g>
<!-- RiskAssessmentModule -->
<g id="node3" class="node">
<title>RiskAssessmentModule</title>
<polygon fill="#8dd3c7" stroke="black" points="3802.82,-122 3799.82,-126 3778.82,-126 3775.82,-122 3651.18,-122 3651.18,-86 3802.82,-86 3802.82,-122"/>
<text text-anchor="middle" x="3727" y="-99.8" font-family="Times,serif" font-size="14.00">RiskAssessmentModule</text>
</g>
<!-- RiskAssessmentModule&#45;&gt;FacilityModule -->
<g id="edge3" class="edge">
<title>RiskAssessmentModule&#45;&gt;FacilityModule</title>
<path fill="none" stroke="black" d="M3727,-122.31C3727,-142.15 3727,-171 3727,-171 3727,-171 2402.39,-171 2402.39,-171"/>
<polygon fill="black" stroke="black" points="2402.39,-167.5 2392.39,-171 2402.39,-174.5 2402.39,-167.5"/>
</g>
<!-- RolePermissionModule -->
<g id="node4" class="node">
<title>RolePermissionModule</title>
<polygon fill="#8dd3c7" stroke="black" points="3633.21,-122 3630.21,-126 3609.21,-126 3606.21,-122 3484.79,-122 3484.79,-86 3633.21,-86 3633.21,-122"/>
<text text-anchor="middle" x="3559" y="-99.8" font-family="Times,serif" font-size="14.00">RolePermissionModule</text>
</g>
<!-- RolePermissionModule&#45;&gt;FacilityModule -->
<g id="edge4" class="edge">
<title>RolePermissionModule&#45;&gt;FacilityModule</title>
<path fill="none" stroke="black" d="M3559,-122.17C3559,-141.09 3559,-168 3559,-168 3559,-168 2402.17,-168 2402.17,-168"/>
<polygon fill="black" stroke="black" points="2402.17,-164.5 2392.17,-168 2402.17,-171.5 2402.17,-164.5"/>
</g>
<!-- SiteDetailModule -->
<g id="node5" class="node">
<title>SiteDetailModule</title>
<polygon fill="#8dd3c7" stroke="black" points="3466.54,-122 3463.54,-126 3442.54,-126 3439.54,-122 3351.46,-122 3351.46,-86 3466.54,-86 3466.54,-122"/>
<text text-anchor="middle" x="3409" y="-99.8" font-family="Times,serif" font-size="14.00">SiteDetailModule</text>
</g>
<!-- SiteDetailModule&#45;&gt;FacilityModule -->
<g id="edge5" class="edge">
<title>SiteDetailModule&#45;&gt;FacilityModule</title>
<path fill="none" stroke="black" d="M3409,-122.3C3409,-140.27 3409,-165 3409,-165 3409,-165 2402.51,-165 2402.51,-165"/>
<polygon fill="black" stroke="black" points="2402.51,-161.5 2392.51,-165 2402.51,-168.5 2402.51,-161.5"/>
</g>
<!-- SupplyChainModule -->
<g id="node6" class="node">
<title>SupplyChainModule</title>
<polygon fill="#8dd3c7" stroke="black" points="3333.17,-122 3330.17,-126 3309.17,-126 3306.17,-122 3200.83,-122 3200.83,-86 3333.17,-86 3333.17,-122"/>
<text text-anchor="middle" x="3267" y="-99.8" font-family="Times,serif" font-size="14.00">SupplyChainModule</text>
</g>
<!-- SupplyChainModule&#45;&gt;FacilityModule -->
<g id="edge6" class="edge">
<title>SupplyChainModule&#45;&gt;FacilityModule</title>
<path fill="none" stroke="black" d="M3267,-122.02C3267,-139.37 3267,-163 3267,-163 3267,-163 2402.44,-163 2402.44,-163"/>
<polygon fill="black" stroke="black" points="2402.44,-159.5 2392.44,-163 2402.44,-166.5 2402.44,-159.5"/>
</g>
<!-- BrandService  -->
<g id="node8" class="node">
<title>BrandService </title>
<polygon fill="#fb8072" stroke="black" points="2874.69,-252 2779.31,-252 2779.31,-216 2874.69,-216 2874.69,-252"/>
<text text-anchor="middle" x="2827" y="-229.8" font-family="Times,serif" font-size="14.00">BrandService </text>
</g>
<!-- FacilityModule&#45;&gt;BrandService  -->
<g id="edge7" class="edge">
<title>FacilityModule&#45;&gt;BrandService </title>
<path fill="none" stroke="black" stroke-dasharray="5,2" d="M2392.51,-179C2510.45,-179 2790.01,-179 2790.01,-179 2790.01,-179 2790.01,-205.99 2790.01,-205.99"/>
<polygon fill="black" stroke="black" points="2786.51,-205.99 2790.01,-215.99 2793.51,-205.99 2786.51,-205.99"/>
</g>
<!-- FacilityImportDataService  -->
<g id="node9" class="node">
<title>FacilityImportDataService </title>
<polygon fill="#fb8072" stroke="black" points="2761.28,-252 2592.72,-252 2592.72,-216 2761.28,-216 2761.28,-252"/>
<text text-anchor="middle" x="2677" y="-229.8" font-family="Times,serif" font-size="14.00">FacilityImportDataService </text>
</g>
<!-- FacilityModule&#45;&gt;FacilityImportDataService  -->
<g id="edge8" class="edge">
<title>FacilityModule&#45;&gt;FacilityImportDataService </title>
<path fill="none" stroke="black" stroke-dasharray="5,2" d="M2392.41,-182C2492.8,-182 2705.2,-182 2705.2,-182 2705.2,-182 2705.2,-205.81 2705.2,-205.81"/>
<polygon fill="black" stroke="black" points="2701.7,-205.81 2705.2,-215.81 2708.7,-205.81 2701.7,-205.81"/>
</g>
<!-- FacilityPartnerService  -->
<g id="node10" class="node">
<title>FacilityPartnerService </title>
<polygon fill="#fb8072" stroke="black" points="2574.18,-252 2429.82,-252 2429.82,-216 2574.18,-216 2574.18,-252"/>
<text text-anchor="middle" x="2502" y="-229.8" font-family="Times,serif" font-size="14.00">FacilityPartnerService </text>
</g>
<!-- FacilityModule&#45;&gt;FacilityPartnerService  -->
<g id="edge9" class="edge">
<title>FacilityModule&#45;&gt;FacilityPartnerService </title>
<path fill="none" stroke="black" stroke-dasharray="5,2" d="M2392.38,-185C2439.5,-185 2502,-185 2502,-185 2502,-185 2502,-205.75 2502,-205.75"/>
<polygon fill="black" stroke="black" points="2498.5,-205.75 2502,-215.75 2505.5,-205.75 2498.5,-205.75"/>
</g>
<!-- FacilityQueueService  -->
<g id="node11" class="node">
<title>FacilityQueueService </title>
<polygon fill="#fb8072" stroke="black" points="2411.29,-252 2270.71,-252 2270.71,-216 2411.29,-216 2411.29,-252"/>
<text text-anchor="middle" x="2341" y="-229.8" font-family="Times,serif" font-size="14.00">FacilityQueueService </text>
</g>
<!-- FacilityModule&#45;&gt;FacilityQueueService  -->
<g id="edge10" class="edge">
<title>FacilityModule&#45;&gt;FacilityQueueService </title>
<path fill="none" stroke="black" stroke-dasharray="5,2" d="M2341,-187.11C2341,-187.11 2341,-205.99 2341,-205.99"/>
<polygon fill="black" stroke="black" points="2337.5,-205.99 2341,-215.99 2344.5,-205.99 2337.5,-205.99"/>
</g>
<!-- FacilityRiskFilerService  -->
<g id="node12" class="node">
<title>FacilityRiskFilerService </title>
<polygon fill="#fb8072" stroke="black" points="2252.36,-252 2095.64,-252 2095.64,-216 2252.36,-216 2252.36,-252"/>
<text text-anchor="middle" x="2174" y="-229.8" font-family="Times,serif" font-size="14.00">FacilityRiskFilerService </text>
</g>
<!-- FacilityModule&#45;&gt;FacilityRiskFilerService  -->
<g id="edge11" class="edge">
<title>FacilityModule&#45;&gt;FacilityRiskFilerService </title>
<path fill="none" stroke="black" stroke-dasharray="5,2" d="M2289.55,-185C2243.28,-185 2182.54,-185 2182.54,-185 2182.54,-185 2182.54,-205.75 2182.54,-205.75"/>
<polygon fill="black" stroke="black" points="2179.04,-205.75 2182.54,-215.75 2186.04,-205.75 2179.04,-205.75"/>
</g>
<!-- FacilityService  -->
<g id="node13" class="node">
<title>FacilityService </title>
<polygon fill="#fb8072" stroke="black" points="2078.25,-252 1973.75,-252 1973.75,-216 2078.25,-216 2078.25,-252"/>
<text text-anchor="middle" x="2026" y="-229.8" font-family="Times,serif" font-size="14.00">FacilityService </text>
</g>
<!-- FacilityModule&#45;&gt;FacilityService  -->
<g id="edge12" class="edge">
<title>FacilityModule&#45;&gt;FacilityService </title>
<path fill="none" stroke="black" stroke-dasharray="5,2" d="M2289.69,-182C2200.43,-182 2026,-182 2026,-182 2026,-182 2026,-205.81 2026,-205.81"/>
<polygon fill="black" stroke="black" points="2022.5,-205.81 2026,-215.81 2029.5,-205.81 2022.5,-205.81"/>
</g>
<!-- OrderFacilityService  -->
<g id="node14" class="node">
<title>OrderFacilityService </title>
<polygon fill="#fb8072" stroke="black" points="1955.39,-252 1818.61,-252 1818.61,-216 1955.39,-216 1955.39,-252"/>
<text text-anchor="middle" x="1887" y="-229.8" font-family="Times,serif" font-size="14.00">OrderFacilityService </text>
</g>
<!-- FacilityModule&#45;&gt;OrderFacilityService  -->
<g id="edge13" class="edge">
<title>FacilityModule&#45;&gt;OrderFacilityService </title>
<path fill="none" stroke="black" stroke-dasharray="5,2" d="M2289.53,-179C2178.83,-179 1928.03,-179 1928.03,-179 1928.03,-179 1928.03,-205.99 1928.03,-205.99"/>
<polygon fill="black" stroke="black" points="1924.53,-205.99 1928.03,-215.99 1931.53,-205.99 1924.53,-205.99"/>
</g>
<!-- BrandService -->
<g id="node15" class="node">
<title>BrandService</title>
<ellipse fill="#fdb462" stroke="black" cx="3113" cy="-104" rx="63.68" ry="18"/>
<text text-anchor="middle" x="3113" y="-99.8" font-family="Times,serif" font-size="14.00">BrandService</text>
</g>
<!-- BrandService&#45;&gt;FacilityModule -->
<g id="edge14" class="edge">
<title>BrandService&#45;&gt;FacilityModule</title>
<path fill="none" stroke="black" d="M3113,-122.03C3113,-138.4 3113,-160 3113,-160 3113,-160 2402.25,-160 2402.25,-160"/>
<polygon fill="black" stroke="black" points="2402.25,-156.5 2392.25,-160 2402.25,-163.5 2402.25,-156.5"/>
</g>
<!-- FacilityGroupExcelService -->
<g id="node16" class="node">
<title>FacilityGroupExcelService</title>
<ellipse fill="#fdb462" stroke="black" cx="2915" cy="-104" rx="116.31" ry="18"/>
<text text-anchor="middle" x="2915" y="-99.8" font-family="Times,serif" font-size="14.00">FacilityGroupExcelService</text>
</g>
<!-- FacilityGroupExcelService&#45;&gt;FacilityModule -->
<g id="edge15" class="edge">
<title>FacilityGroupExcelService&#45;&gt;FacilityModule</title>
<path fill="none" stroke="black" d="M2836.85,-117.37C2836.85,-133.07 2836.85,-157 2836.85,-157 2836.85,-157 2402.2,-157 2402.2,-157"/>
<polygon fill="black" stroke="black" points="2402.2,-153.5 2392.2,-157 2402.2,-160.5 2402.2,-153.5"/>
</g>
<!-- FacilityGroupService -->
<g id="node17" class="node">
<title>FacilityGroupService</title>
<ellipse fill="#fdb462" stroke="black" cx="2687" cy="-104" rx="94.34" ry="18"/>
<text text-anchor="middle" x="2687" y="-99.8" font-family="Times,serif" font-size="14.00">FacilityGroupService</text>
</g>
<!-- FacilityGroupService&#45;&gt;FacilityModule -->
<g id="edge16" class="edge">
<title>FacilityGroupService&#45;&gt;FacilityModule</title>
<path fill="none" stroke="black" d="M2649.02,-120.65C2649.02,-135.19 2649.02,-154 2649.02,-154 2649.02,-154 2402.21,-154 2402.21,-154"/>
<polygon fill="black" stroke="black" points="2402.21,-150.5 2392.21,-154 2402.21,-157.5 2402.21,-150.5"/>
</g>
<!-- FacilityImportDataService -->
<g id="node18" class="node">
<title>FacilityImportDataService</title>
<ellipse fill="#fdb462" stroke="black" cx="2461" cy="-104" rx="114.02" ry="18"/>
<text text-anchor="middle" x="2461" y="-99.8" font-family="Times,serif" font-size="14.00">FacilityImportDataService</text>
</g>
<!-- FacilityImportDataService&#45;&gt;FacilityModule -->
<g id="edge17" class="edge">
<title>FacilityImportDataService&#45;&gt;FacilityModule</title>
<path fill="none" stroke="black" d="M2369.58,-115.03C2369.58,-115.03 2369.58,-140.78 2369.58,-140.78"/>
<polygon fill="black" stroke="black" points="2366.08,-140.78 2369.58,-150.78 2373.08,-140.78 2366.08,-140.78"/>
</g>
<!-- FacilityOperationService -->
<g id="node19" class="node">
<title>FacilityOperationService</title>
<ellipse fill="#fdb462" stroke="black" cx="2221" cy="-104" rx="108.22" ry="18"/>
<text text-anchor="middle" x="2221" y="-99.8" font-family="Times,serif" font-size="14.00">FacilityOperationService</text>
</g>
<!-- FacilityOperationService&#45;&gt;FacilityModule -->
<g id="edge18" class="edge">
<title>FacilityOperationService&#45;&gt;FacilityModule</title>
<path fill="none" stroke="black" d="M2309.47,-114.44C2309.47,-114.44 2309.47,-140.97 2309.47,-140.97"/>
<polygon fill="black" stroke="black" points="2305.97,-140.97 2309.47,-150.97 2312.97,-140.97 2305.97,-140.97"/>
</g>
<!-- FacilityPartnerService -->
<g id="node20" class="node">
<title>FacilityPartnerService</title>
<ellipse fill="#fdb462" stroke="black" cx="1998" cy="-104" rx="97.26" ry="18"/>
<text text-anchor="middle" x="1998" y="-99.8" font-family="Times,serif" font-size="14.00">FacilityPartnerService</text>
</g>
<!-- FacilityPartnerService&#45;&gt;FacilityModule -->
<g id="edge19" class="edge">
<title>FacilityPartnerService&#45;&gt;FacilityModule</title>
<path fill="none" stroke="black" d="M2086.75,-111.81C2086.75,-125.88 2086.75,-154 2086.75,-154 2086.75,-154 2279.55,-154 2279.55,-154"/>
<polygon fill="black" stroke="black" points="2279.55,-157.5 2289.55,-154 2279.55,-150.5 2279.55,-157.5"/>
</g>
<!-- FacilityQueueService -->
<g id="node21" class="node">
<title>FacilityQueueService</title>
<ellipse fill="#fdb462" stroke="black" cx="1788" cy="-104" rx="94.9" ry="18"/>
<text text-anchor="middle" x="1788" y="-99.8" font-family="Times,serif" font-size="14.00">FacilityQueueService</text>
</g>
<!-- FacilityQueueService&#45;&gt;FacilityModule -->
<g id="edge20" class="edge">
<title>FacilityQueueService&#45;&gt;FacilityModule</title>
<path fill="none" stroke="black" d="M1850.63,-117.65C1850.63,-133.35 1850.63,-157 1850.63,-157 1850.63,-157 2279.45,-157 2279.45,-157"/>
<polygon fill="black" stroke="black" points="2279.45,-160.5 2289.45,-157 2279.45,-153.5 2279.45,-160.5"/>
</g>
<!-- FacilityRiskFilerService -->
<g id="node22" class="node">
<title>FacilityRiskFilerService</title>
<ellipse fill="#fdb462" stroke="black" cx="1570" cy="-104" rx="105.38" ry="18"/>
<text text-anchor="middle" x="1570" y="-99.8" font-family="Times,serif" font-size="14.00">FacilityRiskFilerService</text>
</g>
<!-- FacilityRiskFilerService&#45;&gt;FacilityModule -->
<g id="edge21" class="edge">
<title>FacilityRiskFilerService&#45;&gt;FacilityModule</title>
<path fill="none" stroke="black" d="M1570,-122.03C1570,-138.4 1570,-160 1570,-160 1570,-160 2279.82,-160 2279.82,-160"/>
<polygon fill="black" stroke="black" points="2279.82,-163.5 2289.82,-160 2279.82,-156.5 2279.82,-163.5"/>
</g>
<!-- FacilityService -->
<g id="node23" class="node">
<title>FacilityService</title>
<ellipse fill="#fdb462" stroke="black" cx="1377" cy="-104" rx="69.49" ry="18"/>
<text text-anchor="middle" x="1377" y="-99.8" font-family="Times,serif" font-size="14.00">FacilityService</text>
</g>
<!-- FacilityService&#45;&gt;FacilityModule -->
<g id="edge22" class="edge">
<title>FacilityService&#45;&gt;FacilityModule</title>
<path fill="none" stroke="black" d="M1377,-122.02C1377,-139.37 1377,-163 1377,-163 1377,-163 2279.51,-163 2279.51,-163"/>
<polygon fill="black" stroke="black" points="2279.51,-166.5 2289.51,-163 2279.51,-159.5 2279.51,-166.5"/>
</g>
<!-- ImportFacilityGroupService -->
<g id="node24" class="node">
<title>ImportFacilityGroupService</title>
<ellipse fill="#fdb462" stroke="black" cx="1169" cy="-104" rx="120.4" ry="18"/>
<text text-anchor="middle" x="1169" y="-99.8" font-family="Times,serif" font-size="14.00">ImportFacilityGroupService</text>
</g>
<!-- ImportFacilityGroupService&#45;&gt;FacilityModule -->
<g id="edge23" class="edge">
<title>ImportFacilityGroupService&#45;&gt;FacilityModule</title>
<path fill="none" stroke="black" d="M1169,-122.3C1169,-140.27 1169,-165 1169,-165 1169,-165 2279.51,-165 2279.51,-165"/>
<polygon fill="black" stroke="black" points="2279.51,-168.5 2289.51,-165 2279.51,-161.5 2279.51,-168.5"/>
</g>
<!-- OrderFacilityService -->
<g id="node25" class="node">
<title>OrderFacilityService</title>
<ellipse fill="#fdb462" stroke="black" cx="939" cy="-104" rx="92.03" ry="18"/>
<text text-anchor="middle" x="939" y="-99.8" font-family="Times,serif" font-size="14.00">OrderFacilityService</text>
</g>
<!-- OrderFacilityService&#45;&gt;FacilityModule -->
<g id="edge24" class="edge">
<title>OrderFacilityService&#45;&gt;FacilityModule</title>
<path fill="none" stroke="black" d="M939,-122.17C939,-141.09 939,-168 939,-168 939,-168 2279.44,-168 2279.44,-168"/>
<polygon fill="black" stroke="black" points="2279.44,-171.5 2289.44,-168 2279.44,-164.5 2279.44,-171.5"/>
</g>
<!-- SupplierMappingService -->
<g id="node26" class="node">
<title>SupplierMappingService</title>
<ellipse fill="#fdb462" stroke="black" cx="721" cy="-104" rx="107.67" ry="18"/>
<text text-anchor="middle" x="721" y="-99.8" font-family="Times,serif" font-size="14.00">SupplierMappingService</text>
</g>
<!-- SupplierMappingService&#45;&gt;FacilityModule -->
<g id="edge25" class="edge">
<title>SupplierMappingService&#45;&gt;FacilityModule</title>
<path fill="none" stroke="black" d="M721,-122.31C721,-142.15 721,-171 721,-171 721,-171 2279.39,-171 2279.39,-171"/>
<polygon fill="black" stroke="black" points="2279.39,-174.5 2289.39,-171 2279.39,-167.5 2279.39,-174.5"/>
</g>
<!-- ValidateFacilityGroupService -->
<g id="node27" class="node">
<title>ValidateFacilityGroupService</title>
<ellipse fill="#fdb462" stroke="black" cx="469" cy="-104" rx="126.76" ry="18"/>
<text text-anchor="middle" x="469" y="-99.8" font-family="Times,serif" font-size="14.00">ValidateFacilityGroupService</text>
</g>
<!-- ValidateFacilityGroupService&#45;&gt;FacilityModule -->
<g id="edge26" class="edge">
<title>ValidateFacilityGroupService&#45;&gt;FacilityModule</title>
<path fill="none" stroke="black" d="M469,-122.03C469,-142.77 469,-174 469,-174 469,-174 2279.47,-174 2279.47,-174"/>
<polygon fill="black" stroke="black" points="2279.47,-177.5 2289.47,-174 2279.47,-170.5 2279.47,-177.5"/>
</g>
<!-- ValidateImportTemplateUtilService -->
<g id="node28" class="node">
<title>ValidateImportTemplateUtilService</title>
<ellipse fill="#fdb462" stroke="black" cx="174" cy="-104" rx="150.45" ry="18"/>
<text text-anchor="middle" x="174" y="-99.8" font-family="Times,serif" font-size="14.00">ValidateImportTemplateUtilService</text>
</g>
<!-- ValidateImportTemplateUtilService&#45;&gt;FacilityModule -->
<g id="edge27" class="edge">
<title>ValidateImportTemplateUtilService&#45;&gt;FacilityModule</title>
<path fill="none" stroke="black" d="M174,-122.17C174,-143.5 174,-176 174,-176 174,-176 2279.84,-176 2279.84,-176"/>
<polygon fill="black" stroke="black" points="2279.84,-179.5 2289.84,-176 2279.84,-172.5 2279.84,-179.5"/>
</g>
</g>
</svg>
