<?xml version="1.0" encoding="UTF-8" standalone="no"?>
<!DOCTYPE svg PUBLIC "-//W3C//DTD SVG 1.1//EN"
 "http://www.w3.org/Graphics/SVG/1.1/DTD/svg11.dtd">
<!-- Generated by graphviz version 2.47.0 (20210316.0004)
 -->
<!-- Title: dependencies Pages: 1 -->
<svg width="4269pt" height="284pt"
 viewBox="0.00 0.00 4269.00 284.00" xmlns="http://www.w3.org/2000/svg" xmlns:xlink="http://www.w3.org/1999/xlink">
<g id="graph0" class="graph" transform="scale(1 1) rotate(0) translate(4 280)">
<title>dependencies</title>
<polygon fill="white" stroke="transparent" points="-4,4 -4,-280 4265,-280 4265,4 -4,4"/>
<text text-anchor="start" x="2109.51" y="-42.4" font-family="Times-12" font-weight="bold" font-size="14.00">Legend</text>
<polygon fill="#ffffb3" stroke="transparent" points="1896.5,-10 1896.5,-30 1916.5,-30 1916.5,-10 1896.5,-10"/>
<text text-anchor="start" x="1920.13" y="-15.4" font-family="Times-12" font-size="14.00"> &#160;Declarations</text>
<polygon fill="#8dd3c7" stroke="transparent" points="2009.5,-10 2009.5,-30 2029.5,-30 2029.5,-10 2009.5,-10"/>
<text text-anchor="start" x="2033.23" y="-15.4" font-family="Times-12" font-size="14.00"> &#160;Module</text>
<polygon fill="#80b1d3" stroke="transparent" points="2095.5,-10 2095.5,-30 2115.5,-30 2115.5,-10 2095.5,-10"/>
<text text-anchor="start" x="2119.28" y="-15.4" font-family="Times-12" font-size="14.00"> &#160;Bootstrap</text>
<polygon fill="#fdb462" stroke="transparent" points="2192.5,-10 2192.5,-30 2212.5,-30 2212.5,-10 2192.5,-10"/>
<text text-anchor="start" x="2216.17" y="-15.4" font-family="Times-12" font-size="14.00"> &#160;Providers</text>
<polygon fill="#fb8072" stroke="transparent" points="2288.5,-10 2288.5,-30 2308.5,-30 2308.5,-10 2288.5,-10"/>
<text text-anchor="start" x="2312.23" y="-15.4" font-family="Times-12" font-size="14.00"> &#160;Exports</text>
<g id="clust1" class="cluster">
<title>cluster_FacilityModule</title>
<polygon fill="none" stroke="black" stroke-dasharray="1,5" points="8,-70 8,-268 4253,-268 4253,-70 8,-70"/>
</g>
<g id="clust4" class="cluster">
<title>cluster_FacilityModule_exports</title>
<polygon fill="none" stroke="black" points="1851,-208 1851,-260 3101,-260 3101,-208 1851,-208"/>
</g>
<g id="clust3" class="cluster">
<title>cluster_FacilityModule_imports</title>
<polygon fill="none" stroke="black" points="3193,-78 3193,-130 4245,-130 4245,-78 3193,-78"/>
</g>
<g id="clust6" class="cluster">
<title>cluster_FacilityModule_providers</title>
<polygon fill="none" stroke="black" points="16,-78 16,-130 3185,-130 3185,-78 16,-78"/>
</g>
<!-- CategoryModule -->
<g id="node1" class="node">
<title>CategoryModule</title>
<polygon fill="#8dd3c7" stroke="black" points="4237.37,-122 4234.37,-126 4213.37,-126 4210.37,-122 4126.63,-122 4126.63,-86 4237.37,-86 4237.37,-122"/>
<text text-anchor="middle" x="4182" y="-99.8" font-family="Times,serif" font-size="14.00">CategoryModule</text>
</g>
<!-- FacilityModule -->
<g id="node8" class="node">
<title>FacilityModule</title>
<polygon fill="#8dd3c7" stroke="black" points="2512.32,-187 2509.32,-191 2488.32,-191 2485.32,-187 2409.68,-187 2409.68,-151 2512.32,-151 2512.32,-187"/>
<text text-anchor="middle" x="2461" y="-164.8" font-family="Times,serif" font-size="14.00">FacilityModule</text>
</g>
<!-- CategoryModule&#45;&gt;FacilityModule -->
<g id="edge1" class="edge">
<title>CategoryModule&#45;&gt;FacilityModule</title>
<path fill="none" stroke="black" d="M4182,-122.04C4182,-143.66 4182,-177 4182,-177 4182,-177 2522.51,-177 2522.51,-177"/>
<polygon fill="black" stroke="black" points="2522.51,-173.5 2512.51,-177 2522.51,-180.5 2522.51,-173.5"/>
</g>
<!-- LocationModule -->
<g id="node2" class="node">
<title>LocationModule</title>
<polygon fill="#8dd3c7" stroke="black" points="4108.81,-122 4105.81,-126 4084.81,-126 4081.81,-122 3999.19,-122 3999.19,-86 4108.81,-86 4108.81,-122"/>
<text text-anchor="middle" x="4054" y="-99.8" font-family="Times,serif" font-size="14.00">LocationModule</text>
</g>
<!-- LocationModule&#45;&gt;FacilityModule -->
<g id="edge2" class="edge">
<title>LocationModule&#45;&gt;FacilityModule</title>
<path fill="none" stroke="black" d="M4054,-122.28C4054,-143.32 4054,-175 4054,-175 4054,-175 2522.2,-175 2522.2,-175"/>
<polygon fill="black" stroke="black" points="2522.2,-171.5 2512.2,-175 2522.2,-178.5 2522.2,-171.5"/>
</g>
<!-- ProductDefinitionModule -->
<g id="node3" class="node">
<title>ProductDefinitionModule</title>
<polygon fill="#8dd3c7" stroke="black" points="3981.14,-122 3978.14,-126 3957.14,-126 3954.14,-122 3820.86,-122 3820.86,-86 3981.14,-86 3981.14,-122"/>
<text text-anchor="middle" x="3901" y="-99.8" font-family="Times,serif" font-size="14.00">ProductDefinitionModule</text>
</g>
<!-- ProductDefinitionModule&#45;&gt;FacilityModule -->
<g id="edge3" class="edge">
<title>ProductDefinitionModule&#45;&gt;FacilityModule</title>
<path fill="none" stroke="black" d="M3901,-122.22C3901,-142.37 3901,-172 3901,-172 3901,-172 2522.25,-172 2522.25,-172"/>
<polygon fill="black" stroke="black" points="2522.25,-168.5 2512.25,-172 2522.25,-175.5 2522.25,-168.5"/>
</g>
<!-- RiskAssessmentModule -->
<g id="node4" class="node">
<title>RiskAssessmentModule</title>
<polygon fill="#8dd3c7" stroke="black" points="3802.82,-122 3799.82,-126 3778.82,-126 3775.82,-122 3651.18,-122 3651.18,-86 3802.82,-86 3802.82,-122"/>
<text text-anchor="middle" x="3727" y="-99.8" font-family="Times,serif" font-size="14.00">RiskAssessmentModule</text>
</g>
<!-- RiskAssessmentModule&#45;&gt;FacilityModule -->
<g id="edge4" class="edge">
<title>RiskAssessmentModule&#45;&gt;FacilityModule</title>
<path fill="none" stroke="black" d="M3727,-122.11C3727,-141.34 3727,-169 3727,-169 3727,-169 2522.2,-169 2522.2,-169"/>
<polygon fill="black" stroke="black" points="2522.2,-165.5 2512.2,-169 2522.2,-172.5 2522.2,-165.5"/>
</g>
<!-- RolePermissionModule -->
<g id="node5" class="node">
<title>RolePermissionModule</title>
<polygon fill="#8dd3c7" stroke="black" points="3633.21,-122 3630.21,-126 3609.21,-126 3606.21,-122 3484.79,-122 3484.79,-86 3633.21,-86 3633.21,-122"/>
<text text-anchor="middle" x="3559" y="-99.8" font-family="Times,serif" font-size="14.00">RolePermissionModule</text>
</g>
<!-- RolePermissionModule&#45;&gt;FacilityModule -->
<g id="edge5" class="edge">
<title>RolePermissionModule&#45;&gt;FacilityModule</title>
<path fill="none" stroke="black" d="M3559,-122.22C3559,-140.83 3559,-167 3559,-167 3559,-167 2522.49,-167 2522.49,-167"/>
<polygon fill="black" stroke="black" points="2522.49,-163.5 2512.49,-167 2522.49,-170.5 2522.49,-163.5"/>
</g>
<!-- SiteDetailModule -->
<g id="node6" class="node">
<title>SiteDetailModule</title>
<polygon fill="#8dd3c7" stroke="black" points="3466.54,-122 3463.54,-126 3442.54,-126 3439.54,-122 3351.46,-122 3351.46,-86 3466.54,-86 3466.54,-122"/>
<text text-anchor="middle" x="3409" y="-99.8" font-family="Times,serif" font-size="14.00">SiteDetailModule</text>
</g>
<!-- SiteDetailModule&#45;&gt;FacilityModule -->
<g id="edge6" class="edge">
<title>SiteDetailModule&#45;&gt;FacilityModule</title>
<path fill="none" stroke="black" d="M3409,-122C3409,-139.68 3409,-164 3409,-164 3409,-164 2522.3,-164 2522.3,-164"/>
<polygon fill="black" stroke="black" points="2522.3,-160.5 2512.3,-164 2522.3,-167.5 2522.3,-160.5"/>
</g>
<!-- SupplyChainModule -->
<g id="node7" class="node">
<title>SupplyChainModule</title>
<polygon fill="#8dd3c7" stroke="black" points="3333.17,-122 3330.17,-126 3309.17,-126 3306.17,-122 3200.83,-122 3200.83,-86 3333.17,-86 3333.17,-122"/>
<text text-anchor="middle" x="3267" y="-99.8" font-family="Times,serif" font-size="14.00">SupplyChainModule</text>
</g>
<!-- SupplyChainModule&#45;&gt;FacilityModule -->
<g id="edge7" class="edge">
<title>SupplyChainModule&#45;&gt;FacilityModule</title>
<path fill="none" stroke="black" d="M3267,-122.03C3267,-139.06 3267,-162 3267,-162 3267,-162 2522.34,-162 2522.34,-162"/>
<polygon fill="black" stroke="black" points="2522.34,-158.5 2512.34,-162 2522.34,-165.5 2522.34,-158.5"/>
</g>
<!-- BrandService  -->
<g id="node9" class="node">
<title>BrandService </title>
<polygon fill="#fb8072" stroke="black" points="3092.69,-252 2997.31,-252 2997.31,-216 3092.69,-216 3092.69,-252"/>
<text text-anchor="middle" x="3045" y="-229.8" font-family="Times,serif" font-size="14.00">BrandService </text>
</g>
<!-- FacilityModule&#45;&gt;BrandService  -->
<g id="edge8" class="edge">
<title>FacilityModule&#45;&gt;BrandService </title>
<path fill="none" stroke="black" stroke-dasharray="5,2" d="M2512.54,-180C2649.86,-180 3014.15,-180 3014.15,-180 3014.15,-180 3014.15,-205.72 3014.15,-205.72"/>
<polygon fill="black" stroke="black" points="3010.65,-205.72 3014.15,-215.72 3017.65,-205.72 3010.65,-205.72"/>
</g>
<!-- FacilityImportDataService  -->
<g id="node10" class="node">
<title>FacilityImportDataService </title>
<polygon fill="#fb8072" stroke="black" points="2979.28,-252 2810.72,-252 2810.72,-216 2979.28,-216 2979.28,-252"/>
<text text-anchor="middle" x="2895" y="-229.8" font-family="Times,serif" font-size="14.00">FacilityImportDataService </text>
</g>
<!-- FacilityModule&#45;&gt;FacilityImportDataService  -->
<g id="edge9" class="edge">
<title>FacilityModule&#45;&gt;FacilityImportDataService </title>
<path fill="none" stroke="black" stroke-dasharray="5,2" d="M2512.49,-182C2627.45,-182 2895,-182 2895,-182 2895,-182 2895,-205.81 2895,-205.81"/>
<polygon fill="black" stroke="black" points="2891.5,-205.81 2895,-215.81 2898.5,-205.81 2891.5,-205.81"/>
</g>
<!-- FacilityOperationService  -->
<g id="node11" class="node">
<title>FacilityOperationService </title>
<polygon fill="#fb8072" stroke="black" points="2792.23,-252 2631.77,-252 2631.77,-216 2792.23,-216 2792.23,-252"/>
<text text-anchor="middle" x="2712" y="-229.8" font-family="Times,serif" font-size="14.00">FacilityOperationService </text>
</g>
<!-- FacilityModule&#45;&gt;FacilityOperationService  -->
<g id="edge10" class="edge">
<title>FacilityModule&#45;&gt;FacilityOperationService </title>
<path fill="none" stroke="black" stroke-dasharray="5,2" d="M2512.17,-185C2584.13,-185 2706.53,-185 2706.53,-185 2706.53,-185 2706.53,-205.75 2706.53,-205.75"/>
<polygon fill="black" stroke="black" points="2703.03,-205.75 2706.53,-215.75 2710.03,-205.75 2703.03,-205.75"/>
</g>
<!-- FacilityPartnerService  -->
<g id="node12" class="node">
<title>FacilityPartnerService </title>
<polygon fill="#fb8072" stroke="black" points="2614.18,-252 2469.82,-252 2469.82,-216 2614.18,-216 2614.18,-252"/>
<text text-anchor="middle" x="2542" y="-229.8" font-family="Times,serif" font-size="14.00">FacilityPartnerService </text>
</g>
<!-- FacilityModule&#45;&gt;FacilityPartnerService  -->
<g id="edge11" class="edge">
<title>FacilityModule&#45;&gt;FacilityPartnerService </title>
<path fill="none" stroke="black" stroke-dasharray="5,2" d="M2490.91,-187.11C2490.91,-187.11 2490.91,-205.99 2490.91,-205.99"/>
<polygon fill="black" stroke="black" points="2487.41,-205.99 2490.91,-215.99 2494.41,-205.99 2487.41,-205.99"/>
</g>
<!-- FacilityQueueService  -->
<g id="node13" class="node">
<title>FacilityQueueService </title>
<polygon fill="#fb8072" stroke="black" points="2451.29,-252 2310.71,-252 2310.71,-216 2451.29,-216 2451.29,-252"/>
<text text-anchor="middle" x="2381" y="-229.8" font-family="Times,serif" font-size="14.00">FacilityQueueService </text>
</g>
<!-- FacilityModule&#45;&gt;FacilityQueueService  -->
<g id="edge12" class="edge">
<title>FacilityModule&#45;&gt;FacilityQueueService </title>
<path fill="none" stroke="black" stroke-dasharray="5,2" d="M2430.62,-187.11C2430.62,-187.11 2430.62,-205.99 2430.62,-205.99"/>
<polygon fill="black" stroke="black" points="2427.12,-205.99 2430.62,-215.99 2434.12,-205.99 2427.12,-205.99"/>
</g>
<!-- FacilityRiskFilerService  -->
<g id="node14" class="node">
<title>FacilityRiskFilerService </title>
<polygon fill="#fb8072" stroke="black" points="2292.36,-252 2135.64,-252 2135.64,-216 2292.36,-216 2292.36,-252"/>
<text text-anchor="middle" x="2214" y="-229.8" font-family="Times,serif" font-size="14.00">FacilityRiskFilerService </text>
</g>
<!-- FacilityModule&#45;&gt;FacilityRiskFilerService  -->
<g id="edge13" class="edge">
<title>FacilityModule&#45;&gt;FacilityRiskFilerService </title>
<path fill="none" stroke="black" stroke-dasharray="5,2" d="M2409.82,-185C2337.47,-185 2214,-185 2214,-185 2214,-185 2214,-205.75 2214,-205.75"/>
<polygon fill="black" stroke="black" points="2210.5,-205.75 2214,-215.75 2217.5,-205.75 2210.5,-205.75"/>
</g>
<!-- FacilityService  -->
<g id="node15" class="node">
<title>FacilityService </title>
<polygon fill="#fb8072" stroke="black" points="2118.25,-252 2013.75,-252 2013.75,-216 2118.25,-216 2118.25,-252"/>
<text text-anchor="middle" x="2066" y="-229.8" font-family="Times,serif" font-size="14.00">FacilityService </text>
</g>
<!-- FacilityModule&#45;&gt;FacilityService  -->
<g id="edge14" class="edge">
<title>FacilityModule&#45;&gt;FacilityService </title>
<path fill="none" stroke="black" stroke-dasharray="5,2" d="M2409.49,-182C2310.66,-182 2104.14,-182 2104.14,-182 2104.14,-182 2104.14,-205.81 2104.14,-205.81"/>
<polygon fill="black" stroke="black" points="2100.64,-205.81 2104.14,-215.81 2107.64,-205.81 2100.64,-205.81"/>
</g>
<!-- OrderFacilityService  -->
<g id="node16" class="node">
<title>OrderFacilityService </title>
<polygon fill="#fb8072" stroke="black" points="1995.39,-252 1858.61,-252 1858.61,-216 1995.39,-216 1995.39,-252"/>
<text text-anchor="middle" x="1927" y="-229.8" font-family="Times,serif" font-size="14.00">OrderFacilityService </text>
</g>
<!-- FacilityModule&#45;&gt;OrderFacilityService  -->
<g id="edge15" class="edge">
<title>FacilityModule&#45;&gt;OrderFacilityService </title>
<path fill="none" stroke="black" stroke-dasharray="5,2" d="M2409.47,-180C2279.38,-180 1948.03,-180 1948.03,-180 1948.03,-180 1948.03,-205.72 1948.03,-205.72"/>
<polygon fill="black" stroke="black" points="1944.53,-205.72 1948.03,-215.72 1951.53,-205.72 1944.53,-205.72"/>
</g>
<!-- BrandService -->
<g id="node17" class="node">
<title>BrandService</title>
<ellipse fill="#fdb462" stroke="black" cx="3113" cy="-104" rx="63.68" ry="18"/>
<text text-anchor="middle" x="3113" y="-99.8" font-family="Times,serif" font-size="14.00">BrandService</text>
</g>
<!-- BrandService&#45;&gt;FacilityModule -->
<g id="edge16" class="edge">
<title>BrandService&#45;&gt;FacilityModule</title>
<path fill="none" stroke="black" d="M3071.13,-117.6C3071.13,-133.88 3071.13,-159 3071.13,-159 3071.13,-159 2522.23,-159 2522.23,-159"/>
<polygon fill="black" stroke="black" points="2522.23,-155.5 2512.23,-159 2522.23,-162.5 2522.23,-155.5"/>
</g>
<!-- FacilityGroupExcelService -->
<g id="node18" class="node">
<title>FacilityGroupExcelService</title>
<ellipse fill="#fdb462" stroke="black" cx="2915" cy="-104" rx="116.31" ry="18"/>
<text text-anchor="middle" x="2915" y="-99.8" font-family="Times,serif" font-size="14.00">FacilityGroupExcelService</text>
</g>
<!-- FacilityGroupExcelService&#45;&gt;FacilityModule -->
<g id="edge17" class="edge">
<title>FacilityGroupExcelService&#45;&gt;FacilityModule</title>
<path fill="none" stroke="black" d="M2804.73,-109.67C2804.73,-123.34 2804.73,-157 2804.73,-157 2804.73,-157 2522.46,-157 2522.46,-157"/>
<polygon fill="black" stroke="black" points="2522.46,-153.5 2512.46,-157 2522.46,-160.5 2522.46,-153.5"/>
</g>
<!-- FacilityGroupService -->
<g id="node19" class="node">
<title>FacilityGroupService</title>
<ellipse fill="#fdb462" stroke="black" cx="2687" cy="-104" rx="94.34" ry="18"/>
<text text-anchor="middle" x="2687" y="-99.8" font-family="Times,serif" font-size="14.00">FacilityGroupService</text>
</g>
<!-- FacilityGroupService&#45;&gt;FacilityModule -->
<g id="edge18" class="edge">
<title>FacilityGroupService&#45;&gt;FacilityModule</title>
<path fill="none" stroke="black" d="M2603.58,-112.71C2603.58,-127.03 2603.58,-154 2603.58,-154 2603.58,-154 2522.48,-154 2522.48,-154"/>
<polygon fill="black" stroke="black" points="2522.48,-150.5 2512.48,-154 2522.48,-157.5 2522.48,-150.5"/>
</g>
<!-- FacilityImportDataService -->
<g id="node20" class="node">
<title>FacilityImportDataService</title>
<ellipse fill="#fdb462" stroke="black" cx="2461" cy="-104" rx="114.02" ry="18"/>
<text text-anchor="middle" x="2461" y="-99.8" font-family="Times,serif" font-size="14.00">FacilityImportDataService</text>
</g>
<!-- FacilityImportDataService&#45;&gt;FacilityModule -->
<g id="edge19" class="edge">
<title>FacilityImportDataService&#45;&gt;FacilityModule</title>
<path fill="none" stroke="black" d="M2461,-122.11C2461,-122.11 2461,-140.99 2461,-140.99"/>
<polygon fill="black" stroke="black" points="2457.5,-140.99 2461,-150.99 2464.5,-140.99 2457.5,-140.99"/>
</g>
<!-- FacilityOperationService -->
<g id="node21" class="node">
<title>FacilityOperationService</title>
<ellipse fill="#fdb462" stroke="black" cx="2221" cy="-104" rx="108.22" ry="18"/>
<text text-anchor="middle" x="2221" y="-99.8" font-family="Times,serif" font-size="14.00">FacilityOperationService</text>
</g>
<!-- FacilityOperationService&#45;&gt;FacilityModule -->
<g id="edge20" class="edge">
<title>FacilityOperationService&#45;&gt;FacilityModule</title>
<path fill="none" stroke="black" d="M2319.86,-111.38C2319.86,-125.29 2319.86,-154 2319.86,-154 2319.86,-154 2399.65,-154 2399.65,-154"/>
<polygon fill="black" stroke="black" points="2399.65,-157.5 2409.65,-154 2399.65,-150.5 2399.65,-157.5"/>
</g>
<!-- FacilityPartnerService -->
<g id="node22" class="node">
<title>FacilityPartnerService</title>
<ellipse fill="#fdb462" stroke="black" cx="1998" cy="-104" rx="97.26" ry="18"/>
<text text-anchor="middle" x="1998" y="-99.8" font-family="Times,serif" font-size="14.00">FacilityPartnerService</text>
</g>
<!-- FacilityPartnerService&#45;&gt;FacilityModule -->
<g id="edge21" class="edge">
<title>FacilityPartnerService&#45;&gt;FacilityModule</title>
<path fill="none" stroke="black" d="M2054.63,-118.76C2054.63,-134.45 2054.63,-157 2054.63,-157 2054.63,-157 2399.53,-157 2399.53,-157"/>
<polygon fill="black" stroke="black" points="2399.53,-160.5 2409.53,-157 2399.53,-153.5 2399.53,-160.5"/>
</g>
<!-- FacilityQueueService -->
<g id="node23" class="node">
<title>FacilityQueueService</title>
<ellipse fill="#fdb462" stroke="black" cx="1788" cy="-104" rx="94.9" ry="18"/>
<text text-anchor="middle" x="1788" y="-99.8" font-family="Times,serif" font-size="14.00">FacilityQueueService</text>
</g>
<!-- FacilityQueueService&#45;&gt;FacilityModule -->
<g id="edge22" class="edge">
<title>FacilityQueueService&#45;&gt;FacilityModule</title>
<path fill="none" stroke="black" d="M1870.63,-113.08C1870.63,-128.7 1870.63,-159 1870.63,-159 1870.63,-159 2399.64,-159 2399.64,-159"/>
<polygon fill="black" stroke="black" points="2399.64,-162.5 2409.64,-159 2399.64,-155.5 2399.64,-162.5"/>
</g>
<!-- FacilityRiskFilerService -->
<g id="node24" class="node">
<title>FacilityRiskFilerService</title>
<ellipse fill="#fdb462" stroke="black" cx="1570" cy="-104" rx="105.38" ry="18"/>
<text text-anchor="middle" x="1570" y="-99.8" font-family="Times,serif" font-size="14.00">FacilityRiskFilerService</text>
</g>
<!-- FacilityRiskFilerService&#45;&gt;FacilityModule -->
<g id="edge23" class="edge">
<title>FacilityRiskFilerService&#45;&gt;FacilityModule</title>
<path fill="none" stroke="black" d="M1570,-122.03C1570,-139.06 1570,-162 1570,-162 1570,-162 2399.57,-162 2399.57,-162"/>
<polygon fill="black" stroke="black" points="2399.57,-165.5 2409.57,-162 2399.57,-158.5 2399.57,-165.5"/>
</g>
<!-- FacilityService -->
<g id="node25" class="node">
<title>FacilityService</title>
<ellipse fill="#fdb462" stroke="black" cx="1377" cy="-104" rx="69.49" ry="18"/>
<text text-anchor="middle" x="1377" y="-99.8" font-family="Times,serif" font-size="14.00">FacilityService</text>
</g>
<!-- FacilityService&#45;&gt;FacilityModule -->
<g id="edge24" class="edge">
<title>FacilityService&#45;&gt;FacilityModule</title>
<path fill="none" stroke="black" d="M1377,-122C1377,-139.68 1377,-164 1377,-164 1377,-164 2399.81,-164 2399.81,-164"/>
<polygon fill="black" stroke="black" points="2399.81,-167.5 2409.81,-164 2399.81,-160.5 2399.81,-167.5"/>
</g>
<!-- ImportFacilityGroupService -->
<g id="node26" class="node">
<title>ImportFacilityGroupService</title>
<ellipse fill="#fdb462" stroke="black" cx="1169" cy="-104" rx="120.4" ry="18"/>
<text text-anchor="middle" x="1169" y="-99.8" font-family="Times,serif" font-size="14.00">ImportFacilityGroupService</text>
</g>
<!-- ImportFacilityGroupService&#45;&gt;FacilityModule -->
<g id="edge25" class="edge">
<title>ImportFacilityGroupService&#45;&gt;FacilityModule</title>
<path fill="none" stroke="black" d="M1169,-122.22C1169,-140.83 1169,-167 1169,-167 1169,-167 2399.55,-167 2399.55,-167"/>
<polygon fill="black" stroke="black" points="2399.55,-170.5 2409.55,-167 2399.55,-163.5 2399.55,-170.5"/>
</g>
<!-- OrderFacilityService -->
<g id="node27" class="node">
<title>OrderFacilityService</title>
<ellipse fill="#fdb462" stroke="black" cx="939" cy="-104" rx="92.03" ry="18"/>
<text text-anchor="middle" x="939" y="-99.8" font-family="Times,serif" font-size="14.00">OrderFacilityService</text>
</g>
<!-- OrderFacilityService&#45;&gt;FacilityModule -->
<g id="edge26" class="edge">
<title>OrderFacilityService&#45;&gt;FacilityModule</title>
<path fill="none" stroke="black" d="M939,-122.11C939,-141.34 939,-169 939,-169 939,-169 2399.49,-169 2399.49,-169"/>
<polygon fill="black" stroke="black" points="2399.49,-172.5 2409.49,-169 2399.49,-165.5 2399.49,-172.5"/>
</g>
<!-- SupplierMappingService -->
<g id="node28" class="node">
<title>SupplierMappingService</title>
<ellipse fill="#fdb462" stroke="black" cx="721" cy="-104" rx="107.67" ry="18"/>
<text text-anchor="middle" x="721" y="-99.8" font-family="Times,serif" font-size="14.00">SupplierMappingService</text>
</g>
<!-- SupplierMappingService&#45;&gt;FacilityModule -->
<g id="edge27" class="edge">
<title>SupplierMappingService&#45;&gt;FacilityModule</title>
<path fill="none" stroke="black" d="M721,-122.22C721,-142.37 721,-172 721,-172 721,-172 2399.4,-172 2399.4,-172"/>
<polygon fill="black" stroke="black" points="2399.4,-175.5 2409.4,-172 2399.4,-168.5 2399.4,-175.5"/>
</g>
<!-- ValidateFacilityGroupService -->
<g id="node29" class="node">
<title>ValidateFacilityGroupService</title>
<ellipse fill="#fdb462" stroke="black" cx="469" cy="-104" rx="126.76" ry="18"/>
<text text-anchor="middle" x="469" y="-99.8" font-family="Times,serif" font-size="14.00">ValidateFacilityGroupService</text>
</g>
<!-- ValidateFacilityGroupService&#45;&gt;FacilityModule -->
<g id="edge28" class="edge">
<title>ValidateFacilityGroupService&#45;&gt;FacilityModule</title>
<path fill="none" stroke="black" d="M469,-122.28C469,-143.32 469,-175 469,-175 469,-175 2399.76,-175 2399.76,-175"/>
<polygon fill="black" stroke="black" points="2399.76,-178.5 2409.76,-175 2399.76,-171.5 2399.76,-178.5"/>
</g>
<!-- ValidateImportTemplateUtilService -->
<g id="node30" class="node">
<title>ValidateImportTemplateUtilService</title>
<ellipse fill="#fdb462" stroke="black" cx="174" cy="-104" rx="150.45" ry="18"/>
<text text-anchor="middle" x="174" y="-99.8" font-family="Times,serif" font-size="14.00">ValidateImportTemplateUtilService</text>
</g>
<!-- ValidateImportTemplateUtilService&#45;&gt;FacilityModule -->
<g id="edge29" class="edge">
<title>ValidateImportTemplateUtilService&#45;&gt;FacilityModule</title>
<path fill="none" stroke="black" d="M174,-122.04C174,-143.66 174,-177 174,-177 174,-177 2399.75,-177 2399.75,-177"/>
<polygon fill="black" stroke="black" points="2399.75,-180.5 2409.75,-177 2399.75,-173.5 2399.75,-180.5"/>
</g>
</g>
</svg>
