<?xml version="1.0" encoding="UTF-8" standalone="no"?>
<!DOCTYPE svg PUBLIC "-//W3C//DTD SVG 1.1//EN"
 "http://www.w3.org/Graphics/SVG/1.1/DTD/svg11.dtd">
<!-- Generated by graphviz version 2.47.0 (20210316.0004)
 -->
<!-- Title: dependencies Pages: 1 -->
<svg width="1060pt" height="284pt"
 viewBox="0.00 0.00 1060.00 284.00" xmlns="http://www.w3.org/2000/svg" xmlns:xlink="http://www.w3.org/1999/xlink">
<g id="graph0" class="graph" transform="scale(1 1) rotate(0) translate(4 280)">
<title>dependencies</title>
<polygon fill="white" stroke="transparent" points="-4,4 -4,-280 1056,-280 1056,4 -4,4"/>
<text text-anchor="start" x="505.01" y="-42.4" font-family="Times-12" font-weight="bold" font-size="14.00">Legend</text>
<polygon fill="#ffffb3" stroke="transparent" points="292,-10 292,-30 312,-30 312,-10 292,-10"/>
<text text-anchor="start" x="315.63" y="-15.4" font-family="Times-12" font-size="14.00"> &#160;Declarations</text>
<polygon fill="#8dd3c7" stroke="transparent" points="405,-10 405,-30 425,-30 425,-10 405,-10"/>
<text text-anchor="start" x="428.73" y="-15.4" font-family="Times-12" font-size="14.00"> &#160;Module</text>
<polygon fill="#80b1d3" stroke="transparent" points="491,-10 491,-30 511,-30 511,-10 491,-10"/>
<text text-anchor="start" x="514.78" y="-15.4" font-family="Times-12" font-size="14.00"> &#160;Bootstrap</text>
<polygon fill="#fdb462" stroke="transparent" points="588,-10 588,-30 608,-30 608,-10 588,-10"/>
<text text-anchor="start" x="611.67" y="-15.4" font-family="Times-12" font-size="14.00"> &#160;Providers</text>
<polygon fill="#fb8072" stroke="transparent" points="684,-10 684,-30 704,-30 704,-10 684,-10"/>
<text text-anchor="start" x="707.73" y="-15.4" font-family="Times-12" font-size="14.00"> &#160;Exports</text>
<g id="clust1" class="cluster">
<title>cluster_ProductDefinitionModule</title>
<polygon fill="none" stroke="black" stroke-dasharray="1,5" points="8,-70 8,-268 1044,-268 1044,-70 8,-70"/>
</g>
<g id="clust4" class="cluster">
<title>cluster_ProductDefinitionModule_exports</title>
<polygon fill="none" stroke="black" points="489,-208 489,-260 667,-260 667,-208 489,-208"/>
</g>
<g id="clust3" class="cluster">
<title>cluster_ProductDefinitionModule_imports</title>
<polygon fill="none" stroke="black" points="872,-78 872,-130 1036,-130 1036,-78 872,-78"/>
</g>
<g id="clust6" class="cluster">
<title>cluster_ProductDefinitionModule_providers</title>
<polygon fill="none" stroke="black" points="16,-78 16,-130 864,-130 864,-78 16,-78"/>
</g>
<!-- RolePermissionModule -->
<g id="node1" class="node">
<title>RolePermissionModule</title>
<polygon fill="#8dd3c7" stroke="black" points="1028.21,-122 1025.21,-126 1004.21,-126 1001.21,-122 879.79,-122 879.79,-86 1028.21,-86 1028.21,-122"/>
<text text-anchor="middle" x="954" y="-99.8" font-family="Times,serif" font-size="14.00">RolePermissionModule</text>
</g>
<!-- ProductDefinitionModule -->
<g id="node2" class="node">
<title>ProductDefinitionModule</title>
<polygon fill="#8dd3c7" stroke="black" points="658.14,-187 655.14,-191 634.14,-191 631.14,-187 497.86,-187 497.86,-151 658.14,-151 658.14,-187"/>
<text text-anchor="middle" x="578" y="-164.8" font-family="Times,serif" font-size="14.00">ProductDefinitionModule</text>
</g>
<!-- RolePermissionModule&#45;&gt;ProductDefinitionModule -->
<g id="edge1" class="edge">
<title>RolePermissionModule&#45;&gt;ProductDefinitionModule</title>
<path fill="none" stroke="black" d="M954,-122.28C954,-143.32 954,-175 954,-175 954,-175 668.2,-175 668.2,-175"/>
<polygon fill="black" stroke="black" points="668.2,-171.5 658.2,-175 668.2,-178.5 668.2,-171.5"/>
</g>
<!-- ProductDefinitionService  -->
<g id="node3" class="node">
<title>ProductDefinitionService </title>
<polygon fill="#fb8072" stroke="black" points="659.07,-252 496.93,-252 496.93,-216 659.07,-216 659.07,-252"/>
<text text-anchor="middle" x="578" y="-229.8" font-family="Times,serif" font-size="14.00">ProductDefinitionService </text>
</g>
<!-- ProductDefinitionModule&#45;&gt;ProductDefinitionService  -->
<g id="edge2" class="edge">
<title>ProductDefinitionModule&#45;&gt;ProductDefinitionService </title>
<path fill="none" stroke="black" stroke-dasharray="5,2" d="M578,-187.11C578,-187.11 578,-205.99 578,-205.99"/>
<polygon fill="black" stroke="black" points="574.5,-205.99 578,-215.99 581.5,-205.99 574.5,-205.99"/>
</g>
<!-- AttributeService -->
<g id="node4" class="node">
<title>AttributeService</title>
<ellipse fill="#fdb462" stroke="black" cx="781" cy="-104" rx="74.71" ry="18"/>
<text text-anchor="middle" x="781" y="-99.8" font-family="Times,serif" font-size="14.00">AttributeService</text>
</g>
<!-- AttributeService&#45;&gt;ProductDefinitionModule -->
<g id="edge3" class="edge">
<title>AttributeService&#45;&gt;ProductDefinitionModule</title>
<path fill="none" stroke="black" d="M781,-122.02C781,-139.37 781,-163 781,-163 781,-163 668.23,-163 668.23,-163"/>
<polygon fill="black" stroke="black" points="668.23,-159.5 658.23,-163 668.23,-166.5 668.23,-159.5"/>
</g>
<!-- ProductDefinitionService -->
<g id="node5" class="node">
<title>ProductDefinitionService</title>
<ellipse fill="#fdb462" stroke="black" cx="578" cy="-104" rx="109.95" ry="18"/>
<text text-anchor="middle" x="578" y="-99.8" font-family="Times,serif" font-size="14.00">ProductDefinitionService</text>
</g>
<!-- ProductDefinitionService&#45;&gt;ProductDefinitionModule -->
<g id="edge4" class="edge">
<title>ProductDefinitionService&#45;&gt;ProductDefinitionModule</title>
<path fill="none" stroke="black" d="M578,-122.11C578,-122.11 578,-140.99 578,-140.99"/>
<polygon fill="black" stroke="black" points="574.5,-140.99 578,-150.99 581.5,-140.99 574.5,-140.99"/>
</g>
<!-- ProductTranslationService -->
<g id="node6" class="node">
<title>ProductTranslationService</title>
<ellipse fill="#fdb462" stroke="black" cx="336" cy="-104" rx="114.02" ry="18"/>
<text text-anchor="middle" x="336" y="-99.8" font-family="Times,serif" font-size="14.00">ProductTranslationService</text>
</g>
<!-- ProductTranslationService&#45;&gt;ProductDefinitionModule -->
<g id="edge5" class="edge">
<title>ProductTranslationService&#45;&gt;ProductDefinitionModule</title>
<path fill="none" stroke="black" d="M336,-122.02C336,-139.37 336,-163 336,-163 336,-163 487.75,-163 487.75,-163"/>
<polygon fill="black" stroke="black" points="487.75,-166.5 497.75,-163 487.75,-159.5 487.75,-166.5"/>
</g>
<!-- SupplyChainService -->
<g id="node7" class="node">
<title>SupplyChainService</title>
<ellipse fill="#fdb462" stroke="black" cx="114" cy="-104" rx="90.35" ry="18"/>
<text text-anchor="middle" x="114" y="-99.8" font-family="Times,serif" font-size="14.00">SupplyChainService</text>
</g>
<!-- SupplyChainService&#45;&gt;ProductDefinitionModule -->
<g id="edge6" class="edge">
<title>SupplyChainService&#45;&gt;ProductDefinitionModule</title>
<path fill="none" stroke="black" d="M114,-122.28C114,-143.32 114,-175 114,-175 114,-175 487.71,-175 487.71,-175"/>
<polygon fill="black" stroke="black" points="487.71,-178.5 497.71,-175 487.71,-171.5 487.71,-178.5"/>
</g>
</g>
</svg>
