<?xml version="1.0" encoding="UTF-8" standalone="no"?>
<!DOCTYPE svg PUBLIC "-//W3C//DTD SVG 1.1//EN"
 "http://www.w3.org/Graphics/SVG/1.1/DTD/svg11.dtd">
<!-- Generated by graphviz version 2.47.0 (20210316.0004)
 -->
<!-- Title: dependencies Pages: 1 -->
<svg width="690pt" height="284pt"
 viewBox="0.00 0.00 690.00 284.00" xmlns="http://www.w3.org/2000/svg" xmlns:xlink="http://www.w3.org/1999/xlink">
<g id="graph0" class="graph" transform="scale(1 1) rotate(0) translate(4 280)">
<title>dependencies</title>
<polygon fill="white" stroke="transparent" points="-4,4 -4,-280 686,-280 686,4 -4,4"/>
<text text-anchor="start" x="320.01" y="-42.4" font-family="Times-12" font-weight="bold" font-size="14.00">Legend</text>
<polygon fill="#ffffb3" stroke="transparent" points="107,-10 107,-30 127,-30 127,-10 107,-10"/>
<text text-anchor="start" x="130.63" y="-15.4" font-family="Times-12" font-size="14.00"> &#160;Declarations</text>
<polygon fill="#8dd3c7" stroke="transparent" points="220,-10 220,-30 240,-30 240,-10 220,-10"/>
<text text-anchor="start" x="243.73" y="-15.4" font-family="Times-12" font-size="14.00"> &#160;Module</text>
<polygon fill="#80b1d3" stroke="transparent" points="306,-10 306,-30 326,-30 326,-10 306,-10"/>
<text text-anchor="start" x="329.78" y="-15.4" font-family="Times-12" font-size="14.00"> &#160;Bootstrap</text>
<polygon fill="#fdb462" stroke="transparent" points="403,-10 403,-30 423,-30 423,-10 403,-10"/>
<text text-anchor="start" x="426.67" y="-15.4" font-family="Times-12" font-size="14.00"> &#160;Providers</text>
<polygon fill="#fb8072" stroke="transparent" points="499,-10 499,-30 519,-30 519,-10 499,-10"/>
<text text-anchor="start" x="522.73" y="-15.4" font-family="Times-12" font-size="14.00"> &#160;Exports</text>
<g id="clust1" class="cluster">
<title>cluster_ProductDefinitionModule</title>
<polygon fill="none" stroke="black" stroke-dasharray="1,5" points="8,-70 8,-268 674,-268 674,-70 8,-70"/>
</g>
<g id="clust6" class="cluster">
<title>cluster_ProductDefinitionModule_providers</title>
<polygon fill="none" stroke="black" points="16,-78 16,-130 666,-130 666,-78 16,-78"/>
</g>
<g id="clust4" class="cluster">
<title>cluster_ProductDefinitionModule_exports</title>
<polygon fill="none" stroke="black" points="214,-208 214,-260 522,-260 522,-208 214,-208"/>
</g>
<!-- AttributeService  -->
<g id="node1" class="node">
<title>AttributeService </title>
<polygon fill="#fb8072" stroke="black" points="514.02,-252 401.98,-252 401.98,-216 514.02,-216 514.02,-252"/>
<text text-anchor="middle" x="458" y="-229.8" font-family="Times,serif" font-size="14.00">AttributeService </text>
</g>
<!-- ProductDefinitionService  -->
<g id="node2" class="node">
<title>ProductDefinitionService </title>
<polygon fill="#fb8072" stroke="black" points="384.07,-252 221.93,-252 221.93,-216 384.07,-216 384.07,-252"/>
<text text-anchor="middle" x="303" y="-229.8" font-family="Times,serif" font-size="14.00">ProductDefinitionService </text>
</g>
<!-- ProductDefinitionModule -->
<g id="node3" class="node">
<title>ProductDefinitionModule</title>
<polygon fill="#8dd3c7" stroke="black" points="460.14,-187 457.14,-191 436.14,-191 433.14,-187 299.86,-187 299.86,-151 460.14,-151 460.14,-187"/>
<text text-anchor="middle" x="380" y="-164.8" font-family="Times,serif" font-size="14.00">ProductDefinitionModule</text>
</g>
<!-- ProductDefinitionModule&#45;&gt;AttributeService  -->
<g id="edge1" class="edge">
<title>ProductDefinitionModule&#45;&gt;AttributeService </title>
<path fill="none" stroke="black" stroke-dasharray="5,2" d="M431.16,-187.11C431.16,-187.11 431.16,-205.99 431.16,-205.99"/>
<polygon fill="black" stroke="black" points="427.66,-205.99 431.16,-215.99 434.66,-205.99 427.66,-205.99"/>
</g>
<!-- ProductDefinitionModule&#45;&gt;ProductDefinitionService  -->
<g id="edge2" class="edge">
<title>ProductDefinitionModule&#45;&gt;ProductDefinitionService </title>
<path fill="none" stroke="black" stroke-dasharray="5,2" d="M341.98,-187.11C341.98,-187.11 341.98,-205.99 341.98,-205.99"/>
<polygon fill="black" stroke="black" points="338.48,-205.99 341.98,-215.99 345.48,-205.99 338.48,-205.99"/>
</g>
<!-- AttributeService -->
<g id="node4" class="node">
<title>AttributeService</title>
<ellipse fill="#fdb462" stroke="black" cx="583" cy="-104" rx="74.71" ry="18"/>
<text text-anchor="middle" x="583" y="-99.8" font-family="Times,serif" font-size="14.00">AttributeService</text>
</g>
<!-- AttributeService&#45;&gt;ProductDefinitionModule -->
<g id="edge3" class="edge">
<title>AttributeService&#45;&gt;ProductDefinitionModule</title>
<path fill="none" stroke="black" d="M585.93,-122.11C585.93,-141.34 585.93,-169 585.93,-169 585.93,-169 470.21,-169 470.21,-169"/>
<polygon fill="black" stroke="black" points="470.21,-165.5 460.21,-169 470.21,-172.5 470.21,-165.5"/>
</g>
<!-- ProductDefinitionService -->
<g id="node5" class="node">
<title>ProductDefinitionService</title>
<ellipse fill="#fdb462" stroke="black" cx="380" cy="-104" rx="109.95" ry="18"/>
<text text-anchor="middle" x="380" y="-99.8" font-family="Times,serif" font-size="14.00">ProductDefinitionService</text>
</g>
<!-- ProductDefinitionService&#45;&gt;ProductDefinitionModule -->
<g id="edge4" class="edge">
<title>ProductDefinitionService&#45;&gt;ProductDefinitionModule</title>
<path fill="none" stroke="black" d="M380,-122.11C380,-122.11 380,-140.99 380,-140.99"/>
<polygon fill="black" stroke="black" points="376.5,-140.99 380,-150.99 383.5,-140.99 376.5,-140.99"/>
</g>
<!-- ProductTranslationService -->
<g id="node6" class="node">
<title>ProductTranslationService</title>
<ellipse fill="#fdb462" stroke="black" cx="138" cy="-104" rx="114.02" ry="18"/>
<text text-anchor="middle" x="138" y="-99.8" font-family="Times,serif" font-size="14.00">ProductTranslationService</text>
</g>
<!-- ProductTranslationService&#45;&gt;ProductDefinitionModule -->
<g id="edge5" class="edge">
<title>ProductTranslationService&#45;&gt;ProductDefinitionModule</title>
<path fill="none" stroke="black" d="M236.86,-113.04C236.86,-130.9 236.86,-169 236.86,-169 236.86,-169 289.64,-169 289.64,-169"/>
<polygon fill="black" stroke="black" points="289.64,-172.5 299.64,-169 289.64,-165.5 289.64,-172.5"/>
</g>
</g>
</svg>
