<?xml version="1.0" encoding="UTF-8" standalone="no"?>
<!DOCTYPE svg PUBLIC "-//W3C//DTD SVG 1.1//EN"
 "http://www.w3.org/Graphics/SVG/1.1/DTD/svg11.dtd">
<!-- Generated by graphviz version 2.47.0 (20210316.0004)
 -->
<!-- Title: dependencies Pages: 1 -->
<svg width="1917pt" height="284pt"
 viewBox="0.00 0.00 1917.00 284.00" xmlns="http://www.w3.org/2000/svg" xmlns:xlink="http://www.w3.org/1999/xlink">
<g id="graph0" class="graph" transform="scale(1 1) rotate(0) translate(4 280)">
<title>dependencies</title>
<polygon fill="white" stroke="transparent" points="-4,4 -4,-280 1913,-280 1913,4 -4,4"/>
<text text-anchor="start" x="933.51" y="-42.4" font-family="Times-12" font-weight="bold" font-size="14.00">Legend</text>
<polygon fill="#ffffb3" stroke="transparent" points="720.5,-10 720.5,-30 740.5,-30 740.5,-10 720.5,-10"/>
<text text-anchor="start" x="744.13" y="-15.4" font-family="Times-12" font-size="14.00"> &#160;Declarations</text>
<polygon fill="#8dd3c7" stroke="transparent" points="833.5,-10 833.5,-30 853.5,-30 853.5,-10 833.5,-10"/>
<text text-anchor="start" x="857.23" y="-15.4" font-family="Times-12" font-size="14.00"> &#160;Module</text>
<polygon fill="#80b1d3" stroke="transparent" points="919.5,-10 919.5,-30 939.5,-30 939.5,-10 919.5,-10"/>
<text text-anchor="start" x="943.28" y="-15.4" font-family="Times-12" font-size="14.00"> &#160;Bootstrap</text>
<polygon fill="#fdb462" stroke="transparent" points="1016.5,-10 1016.5,-30 1036.5,-30 1036.5,-10 1016.5,-10"/>
<text text-anchor="start" x="1040.17" y="-15.4" font-family="Times-12" font-size="14.00"> &#160;Providers</text>
<polygon fill="#fb8072" stroke="transparent" points="1112.5,-10 1112.5,-30 1132.5,-30 1132.5,-10 1112.5,-10"/>
<text text-anchor="start" x="1136.23" y="-15.4" font-family="Times-12" font-size="14.00"> &#160;Exports</text>
<g id="clust1" class="cluster">
<title>cluster_OrderModule</title>
<polygon fill="none" stroke="black" stroke-dasharray="1,5" points="8,-70 8,-268 1901,-268 1901,-70 8,-70"/>
</g>
<g id="clust3" class="cluster">
<title>cluster_OrderModule_imports</title>
<polygon fill="none" stroke="black" points="1291,-78 1291,-130 1893,-130 1893,-78 1291,-78"/>
</g>
<g id="clust6" class="cluster">
<title>cluster_OrderModule_providers</title>
<polygon fill="none" stroke="black" points="16,-78 16,-130 1283,-130 1283,-78 16,-78"/>
</g>
<g id="clust4" class="cluster">
<title>cluster_OrderModule_exports</title>
<polygon fill="none" stroke="black" points="772,-208 772,-260 1292,-260 1292,-208 772,-208"/>
</g>
<!-- ProductModule -->
<g id="node1" class="node">
<title>ProductModule</title>
<polygon fill="#8dd3c7" stroke="black" points="1884.6,-122 1881.6,-126 1860.6,-126 1857.6,-122 1781.4,-122 1781.4,-86 1884.6,-86 1884.6,-122"/>
<text text-anchor="middle" x="1833" y="-99.8" font-family="Times,serif" font-size="14.00">ProductModule</text>
</g>
<!-- OrderModule -->
<g id="node5" class="node">
<title>OrderModule</title>
<polygon fill="#8dd3c7" stroke="black" points="1080.19,-187 1077.19,-191 1056.19,-191 1053.19,-187 987.81,-187 987.81,-151 1080.19,-151 1080.19,-187"/>
<text text-anchor="middle" x="1034" y="-164.8" font-family="Times,serif" font-size="14.00">OrderModule</text>
</g>
<!-- ProductModule&#45;&gt;OrderModule -->
<g id="edge1" class="edge">
<title>ProductModule&#45;&gt;OrderModule</title>
<path fill="none" stroke="black" d="M1833,-122.04C1833,-143.66 1833,-177 1833,-177 1833,-177 1090.12,-177 1090.12,-177"/>
<polygon fill="black" stroke="black" points="1090.12,-173.5 1080.12,-177 1090.12,-180.5 1090.12,-173.5"/>
</g>
<!-- RolePermissionModule -->
<g id="node2" class="node">
<title>RolePermissionModule</title>
<polygon fill="#8dd3c7" stroke="black" points="1763.21,-122 1760.21,-126 1739.21,-126 1736.21,-122 1614.79,-122 1614.79,-86 1763.21,-86 1763.21,-122"/>
<text text-anchor="middle" x="1689" y="-99.8" font-family="Times,serif" font-size="14.00">RolePermissionModule</text>
</g>
<!-- RolePermissionModule&#45;&gt;OrderModule -->
<g id="edge2" class="edge">
<title>RolePermissionModule&#45;&gt;OrderModule</title>
<path fill="none" stroke="black" d="M1689,-122.22C1689,-142.37 1689,-172 1689,-172 1689,-172 1090.32,-172 1090.32,-172"/>
<polygon fill="black" stroke="black" points="1090.32,-168.5 1080.32,-172 1090.32,-175.5 1090.32,-168.5"/>
</g>
<!-- SelfAssessmentModule -->
<g id="node3" class="node">
<title>SelfAssessmentModule</title>
<polygon fill="#8dd3c7" stroke="black" points="1597.19,-122 1594.19,-126 1573.19,-126 1570.19,-122 1448.81,-122 1448.81,-86 1597.19,-86 1597.19,-122"/>
<text text-anchor="middle" x="1523" y="-99.8" font-family="Times,serif" font-size="14.00">SelfAssessmentModule</text>
</g>
<!-- SelfAssessmentModule&#45;&gt;OrderModule -->
<g id="edge3" class="edge">
<title>SelfAssessmentModule&#45;&gt;OrderModule</title>
<path fill="none" stroke="black" d="M1523,-122.22C1523,-140.83 1523,-167 1523,-167 1523,-167 1090.44,-167 1090.44,-167"/>
<polygon fill="black" stroke="black" points="1090.44,-163.5 1080.44,-167 1090.44,-170.5 1090.44,-163.5"/>
</g>
<!-- SupplyChainModule -->
<g id="node4" class="node">
<title>SupplyChainModule</title>
<polygon fill="#8dd3c7" stroke="black" points="1431.17,-122 1428.17,-126 1407.17,-126 1404.17,-122 1298.83,-122 1298.83,-86 1431.17,-86 1431.17,-122"/>
<text text-anchor="middle" x="1365" y="-99.8" font-family="Times,serif" font-size="14.00">SupplyChainModule</text>
</g>
<!-- SupplyChainModule&#45;&gt;OrderModule -->
<g id="edge4" class="edge">
<title>SupplyChainModule&#45;&gt;OrderModule</title>
<path fill="none" stroke="black" d="M1365,-122.03C1365,-139.06 1365,-162 1365,-162 1365,-162 1090.37,-162 1090.37,-162"/>
<polygon fill="black" stroke="black" points="1090.37,-158.5 1080.37,-162 1090.37,-165.5 1090.37,-158.5"/>
</g>
<!-- OrderService  -->
<g id="node6" class="node">
<title>OrderService </title>
<polygon fill="#fb8072" stroke="black" points="1284.12,-252 1189.88,-252 1189.88,-216 1284.12,-216 1284.12,-252"/>
<text text-anchor="middle" x="1237" y="-229.8" font-family="Times,serif" font-size="14.00">OrderService </text>
</g>
<!-- OrderModule&#45;&gt;OrderService  -->
<g id="edge5" class="edge">
<title>OrderModule&#45;&gt;OrderService </title>
<path fill="none" stroke="black" stroke-dasharray="5,2" d="M1080.31,-182C1138.99,-182 1232.58,-182 1232.58,-182 1232.58,-182 1232.58,-205.81 1232.58,-205.81"/>
<polygon fill="black" stroke="black" points="1229.08,-205.81 1232.58,-215.81 1236.08,-205.81 1229.08,-205.81"/>
</g>
<!-- OrderTraceService  -->
<g id="node7" class="node">
<title>OrderTraceService </title>
<polygon fill="#fb8072" stroke="black" points="1171.98,-252 1046.02,-252 1046.02,-216 1171.98,-216 1171.98,-252"/>
<text text-anchor="middle" x="1109" y="-229.8" font-family="Times,serif" font-size="14.00">OrderTraceService </text>
</g>
<!-- OrderModule&#45;&gt;OrderTraceService  -->
<g id="edge6" class="edge">
<title>OrderModule&#45;&gt;OrderTraceService </title>
<path fill="none" stroke="black" stroke-dasharray="5,2" d="M1063.05,-187.11C1063.05,-187.11 1063.05,-205.99 1063.05,-205.99"/>
<polygon fill="black" stroke="black" points="1059.55,-205.99 1063.05,-215.99 1066.55,-205.99 1059.55,-205.99"/>
</g>
<!-- ProductTraceService  -->
<g id="node8" class="node">
<title>ProductTraceService </title>
<polygon fill="#fb8072" stroke="black" points="1028.38,-252 891.62,-252 891.62,-216 1028.38,-216 1028.38,-252"/>
<text text-anchor="middle" x="960" y="-229.8" font-family="Times,serif" font-size="14.00">ProductTraceService </text>
</g>
<!-- OrderModule&#45;&gt;ProductTraceService  -->
<g id="edge7" class="edge">
<title>OrderModule&#45;&gt;ProductTraceService </title>
<path fill="none" stroke="black" stroke-dasharray="5,2" d="M1008.17,-187.11C1008.17,-187.11 1008.17,-205.99 1008.17,-205.99"/>
<polygon fill="black" stroke="black" points="1004.67,-205.99 1008.17,-215.99 1011.67,-205.99 1004.67,-205.99"/>
</g>
<!-- TraceService  -->
<g id="node9" class="node">
<title>TraceService </title>
<polygon fill="#fb8072" stroke="black" points="873.84,-252 780.16,-252 780.16,-216 873.84,-216 873.84,-252"/>
<text text-anchor="middle" x="827" y="-229.8" font-family="Times,serif" font-size="14.00">TraceService </text>
</g>
<!-- OrderModule&#45;&gt;TraceService  -->
<g id="edge8" class="edge">
<title>OrderModule&#45;&gt;TraceService </title>
<path fill="none" stroke="black" stroke-dasharray="5,2" d="M987.8,-182C926.8,-182 827,-182 827,-182 827,-182 827,-205.81 827,-205.81"/>
<polygon fill="black" stroke="black" points="823.5,-205.81 827,-215.81 830.5,-205.81 823.5,-205.81"/>
</g>
<!-- DocumentService -->
<g id="node10" class="node">
<title>DocumentService</title>
<ellipse fill="#fdb462" stroke="black" cx="1195" cy="-104" rx="80.44" ry="18"/>
<text text-anchor="middle" x="1195" y="-99.8" font-family="Times,serif" font-size="14.00">DocumentService</text>
</g>
<!-- DocumentService&#45;&gt;OrderModule -->
<g id="edge9" class="edge">
<title>DocumentService&#45;&gt;OrderModule</title>
<path fill="none" stroke="black" d="M1143.39,-117.93C1143.39,-133.63 1143.39,-157 1143.39,-157 1143.39,-157 1090.39,-157 1090.39,-157"/>
<polygon fill="black" stroke="black" points="1090.39,-153.5 1080.39,-157 1090.39,-160.5 1090.39,-153.5"/>
</g>
<!-- OrderService -->
<g id="node11" class="node">
<title>OrderService</title>
<ellipse fill="#fdb462" stroke="black" cx="1034" cy="-104" rx="62.52" ry="18"/>
<text text-anchor="middle" x="1034" y="-99.8" font-family="Times,serif" font-size="14.00">OrderService</text>
</g>
<!-- OrderService&#45;&gt;OrderModule -->
<g id="edge10" class="edge">
<title>OrderService&#45;&gt;OrderModule</title>
<path fill="none" stroke="black" d="M1034,-122.11C1034,-122.11 1034,-140.99 1034,-140.99"/>
<polygon fill="black" stroke="black" points="1030.5,-140.99 1034,-150.99 1037.5,-140.99 1030.5,-140.99"/>
</g>
<!-- OrderSupplierService -->
<g id="node12" class="node">
<title>OrderSupplierService</title>
<ellipse fill="#fdb462" stroke="black" cx="858" cy="-104" rx="95.46" ry="18"/>
<text text-anchor="middle" x="858" y="-99.8" font-family="Times,serif" font-size="14.00">OrderSupplierService</text>
</g>
<!-- OrderSupplierService&#45;&gt;OrderModule -->
<g id="edge11" class="edge">
<title>OrderSupplierService&#45;&gt;OrderModule</title>
<path fill="none" stroke="black" d="M922.39,-117.37C922.39,-133.07 922.39,-157 922.39,-157 922.39,-157 977.64,-157 977.64,-157"/>
<polygon fill="black" stroke="black" points="977.64,-160.5 987.64,-157 977.64,-153.5 977.64,-160.5"/>
</g>
<!-- OrderTraceService -->
<g id="node13" class="node">
<title>OrderTraceService</title>
<ellipse fill="#fdb462" stroke="black" cx="660" cy="-104" rx="84.46" ry="18"/>
<text text-anchor="middle" x="660" y="-99.8" font-family="Times,serif" font-size="14.00">OrderTraceService</text>
</g>
<!-- OrderTraceService&#45;&gt;OrderModule -->
<g id="edge12" class="edge">
<title>OrderTraceService&#45;&gt;OrderModule</title>
<path fill="none" stroke="black" d="M660,-122.03C660,-139.06 660,-162 660,-162 660,-162 977.77,-162 977.77,-162"/>
<polygon fill="black" stroke="black" points="977.77,-165.5 987.77,-162 977.77,-158.5 977.77,-165.5"/>
</g>
<!-- ProductTraceService -->
<g id="node14" class="node">
<title>ProductTraceService</title>
<ellipse fill="#fdb462" stroke="black" cx="466" cy="-104" rx="92.01" ry="18"/>
<text text-anchor="middle" x="466" y="-99.8" font-family="Times,serif" font-size="14.00">ProductTraceService</text>
</g>
<!-- ProductTraceService&#45;&gt;OrderModule -->
<g id="edge13" class="edge">
<title>ProductTraceService&#45;&gt;OrderModule</title>
<path fill="none" stroke="black" d="M466,-122.22C466,-140.83 466,-167 466,-167 466,-167 977.52,-167 977.52,-167"/>
<polygon fill="black" stroke="black" points="977.52,-170.5 987.52,-167 977.52,-163.5 977.52,-170.5"/>
</g>
<!-- TraceService -->
<g id="node15" class="node">
<title>TraceService</title>
<ellipse fill="#fdb462" stroke="black" cx="294" cy="-104" rx="61.93" ry="18"/>
<text text-anchor="middle" x="294" y="-99.8" font-family="Times,serif" font-size="14.00">TraceService</text>
</g>
<!-- TraceService&#45;&gt;OrderModule -->
<g id="edge14" class="edge">
<title>TraceService&#45;&gt;OrderModule</title>
<path fill="none" stroke="black" d="M294,-122.22C294,-142.37 294,-172 294,-172 294,-172 977.71,-172 977.71,-172"/>
<polygon fill="black" stroke="black" points="977.71,-175.5 987.71,-172 977.71,-168.5 977.71,-175.5"/>
</g>
<!-- TracingUtilityService -->
<g id="node16" class="node">
<title>TracingUtilityService</title>
<ellipse fill="#fdb462" stroke="black" cx="119" cy="-104" rx="95.48" ry="18"/>
<text text-anchor="middle" x="119" y="-99.8" font-family="Times,serif" font-size="14.00">TracingUtilityService</text>
</g>
<!-- TracingUtilityService&#45;&gt;OrderModule -->
<g id="edge15" class="edge">
<title>TracingUtilityService&#45;&gt;OrderModule</title>
<path fill="none" stroke="black" d="M119,-122.04C119,-143.66 119,-177 119,-177 119,-177 977.68,-177 977.68,-177"/>
<polygon fill="black" stroke="black" points="977.68,-180.5 987.68,-177 977.68,-173.5 977.68,-180.5"/>
</g>
</g>
</svg>
