<?xml version="1.0" encoding="UTF-8" standalone="no"?>
<!DOCTYPE svg PUBLIC "-//W3C//DTD SVG 1.1//EN"
 "http://www.w3.org/Graphics/SVG/1.1/DTD/svg11.dtd">
<!-- Generated by graphviz version 2.47.0 (20210316.0004)
 -->
<!-- Title: dependencies Pages: 1 -->
<svg width="1945pt" height="284pt"
 viewBox="0.00 0.00 1945.00 284.00" xmlns="http://www.w3.org/2000/svg" xmlns:xlink="http://www.w3.org/1999/xlink">
<g id="graph0" class="graph" transform="scale(1 1) rotate(0) translate(4 280)">
<title>dependencies</title>
<polygon fill="white" stroke="transparent" points="-4,4 -4,-280 1941,-280 1941,4 -4,4"/>
<text text-anchor="start" x="947.51" y="-42.4" font-family="Times-12" font-weight="bold" font-size="14.00">Legend</text>
<polygon fill="#ffffb3" stroke="transparent" points="734.5,-10 734.5,-30 754.5,-30 754.5,-10 734.5,-10"/>
<text text-anchor="start" x="758.13" y="-15.4" font-family="Times-12" font-size="14.00"> &#160;Declarations</text>
<polygon fill="#8dd3c7" stroke="transparent" points="847.5,-10 847.5,-30 867.5,-30 867.5,-10 847.5,-10"/>
<text text-anchor="start" x="871.23" y="-15.4" font-family="Times-12" font-size="14.00"> &#160;Module</text>
<polygon fill="#80b1d3" stroke="transparent" points="933.5,-10 933.5,-30 953.5,-30 953.5,-10 933.5,-10"/>
<text text-anchor="start" x="957.28" y="-15.4" font-family="Times-12" font-size="14.00"> &#160;Bootstrap</text>
<polygon fill="#fdb462" stroke="transparent" points="1030.5,-10 1030.5,-30 1050.5,-30 1050.5,-10 1030.5,-10"/>
<text text-anchor="start" x="1054.17" y="-15.4" font-family="Times-12" font-size="14.00"> &#160;Providers</text>
<polygon fill="#fb8072" stroke="transparent" points="1126.5,-10 1126.5,-30 1146.5,-30 1146.5,-10 1126.5,-10"/>
<text text-anchor="start" x="1150.23" y="-15.4" font-family="Times-12" font-size="14.00"> &#160;Exports</text>
<g id="clust1" class="cluster">
<title>cluster_OrderModule</title>
<polygon fill="none" stroke="black" stroke-dasharray="1,5" points="8,-70 8,-268 1929,-268 1929,-70 8,-70"/>
</g>
<g id="clust4" class="cluster">
<title>cluster_OrderModule_exports</title>
<polygon fill="none" stroke="black" points="943,-208 943,-260 1197,-260 1197,-208 943,-208"/>
</g>
<g id="clust3" class="cluster">
<title>cluster_OrderModule_imports</title>
<polygon fill="none" stroke="black" points="1089,-78 1089,-130 1921,-130 1921,-78 1089,-78"/>
</g>
<g id="clust6" class="cluster">
<title>cluster_OrderModule_providers</title>
<polygon fill="none" stroke="black" points="16,-78 16,-130 1081,-130 1081,-78 16,-78"/>
</g>
<!-- EventModule -->
<g id="node1" class="node">
<title>EventModule</title>
<polygon fill="#8dd3c7" stroke="black" points="1913.21,-122 1910.21,-126 1889.21,-126 1886.21,-122 1820.79,-122 1820.79,-86 1913.21,-86 1913.21,-122"/>
<text text-anchor="middle" x="1867" y="-99.8" font-family="Times,serif" font-size="14.00">EventModule</text>
</g>
<!-- OrderModule -->
<g id="node7" class="node">
<title>OrderModule</title>
<polygon fill="#8dd3c7" stroke="black" points="1124.19,-187 1121.19,-191 1100.19,-191 1097.19,-187 1031.81,-187 1031.81,-151 1124.19,-151 1124.19,-187"/>
<text text-anchor="middle" x="1078" y="-164.8" font-family="Times,serif" font-size="14.00">OrderModule</text>
</g>
<!-- EventModule&#45;&gt;OrderModule -->
<g id="edge1" class="edge">
<title>EventModule&#45;&gt;OrderModule</title>
<path fill="none" stroke="black" d="M1867,-122.25C1867,-145.02 1867,-181 1867,-181 1867,-181 1134.12,-181 1134.12,-181"/>
<polygon fill="black" stroke="black" points="1134.12,-177.5 1124.12,-181 1134.12,-184.5 1134.12,-177.5"/>
</g>
<!-- FacilityModule -->
<g id="node2" class="node">
<title>FacilityModule</title>
<polygon fill="#8dd3c7" stroke="black" points="1803.32,-122 1800.32,-126 1779.32,-126 1776.32,-122 1700.68,-122 1700.68,-86 1803.32,-86 1803.32,-122"/>
<text text-anchor="middle" x="1752" y="-99.8" font-family="Times,serif" font-size="14.00">FacilityModule</text>
</g>
<!-- FacilityModule&#45;&gt;OrderModule -->
<g id="edge2" class="edge">
<title>FacilityModule&#45;&gt;OrderModule</title>
<path fill="none" stroke="black" d="M1752,-122.28C1752,-143.32 1752,-175 1752,-175 1752,-175 1134.33,-175 1134.33,-175"/>
<polygon fill="black" stroke="black" points="1134.33,-171.5 1124.33,-175 1134.33,-178.5 1134.33,-171.5"/>
</g>
<!-- ProductModule -->
<g id="node3" class="node">
<title>ProductModule</title>
<polygon fill="#8dd3c7" stroke="black" points="1682.6,-122 1679.6,-126 1658.6,-126 1655.6,-122 1579.4,-122 1579.4,-86 1682.6,-86 1682.6,-122"/>
<text text-anchor="middle" x="1631" y="-99.8" font-family="Times,serif" font-size="14.00">ProductModule</text>
</g>
<!-- ProductModule&#45;&gt;OrderModule -->
<g id="edge3" class="edge">
<title>ProductModule&#45;&gt;OrderModule</title>
<path fill="none" stroke="black" d="M1631,-122.11C1631,-141.34 1631,-169 1631,-169 1631,-169 1134.2,-169 1134.2,-169"/>
<polygon fill="black" stroke="black" points="1134.2,-165.5 1124.2,-169 1134.2,-172.5 1134.2,-165.5"/>
</g>
<!-- RolePermissionModule -->
<g id="node4" class="node">
<title>RolePermissionModule</title>
<polygon fill="#8dd3c7" stroke="black" points="1561.21,-122 1558.21,-126 1537.21,-126 1534.21,-122 1412.79,-122 1412.79,-86 1561.21,-86 1561.21,-122"/>
<text text-anchor="middle" x="1487" y="-99.8" font-family="Times,serif" font-size="14.00">RolePermissionModule</text>
</g>
<!-- RolePermissionModule&#45;&gt;OrderModule -->
<g id="edge4" class="edge">
<title>RolePermissionModule&#45;&gt;OrderModule</title>
<path fill="none" stroke="black" d="M1487,-122.02C1487,-139.37 1487,-163 1487,-163 1487,-163 1134.12,-163 1134.12,-163"/>
<polygon fill="black" stroke="black" points="1134.12,-159.5 1124.12,-163 1134.12,-166.5 1134.12,-159.5"/>
</g>
<!-- SelfAssessmentModule -->
<g id="node5" class="node">
<title>SelfAssessmentModule</title>
<polygon fill="#8dd3c7" stroke="black" points="1395.19,-122 1392.19,-126 1371.19,-126 1368.19,-122 1246.81,-122 1246.81,-86 1395.19,-86 1395.19,-122"/>
<text text-anchor="middle" x="1321" y="-99.8" font-family="Times,serif" font-size="14.00">SelfAssessmentModule</text>
</g>
<!-- SelfAssessmentModule&#45;&gt;OrderModule -->
<g id="edge5" class="edge">
<title>SelfAssessmentModule&#45;&gt;OrderModule</title>
<path fill="none" stroke="black" d="M1321,-122.24C1321,-137.57 1321,-157 1321,-157 1321,-157 1134.28,-157 1134.28,-157"/>
<polygon fill="black" stroke="black" points="1134.28,-153.5 1124.28,-157 1134.28,-160.5 1134.28,-153.5"/>
</g>
<!-- SupplyChainModule -->
<g id="node6" class="node">
<title>SupplyChainModule</title>
<polygon fill="#8dd3c7" stroke="black" points="1229.17,-122 1226.17,-126 1205.17,-126 1202.17,-122 1096.83,-122 1096.83,-86 1229.17,-86 1229.17,-122"/>
<text text-anchor="middle" x="1163" y="-99.8" font-family="Times,serif" font-size="14.00">SupplyChainModule</text>
</g>
<!-- SupplyChainModule&#45;&gt;OrderModule -->
<g id="edge6" class="edge">
<title>SupplyChainModule&#45;&gt;OrderModule</title>
<path fill="none" stroke="black" d="M1110.38,-122.11C1110.38,-122.11 1110.38,-140.99 1110.38,-140.99"/>
<polygon fill="black" stroke="black" points="1106.88,-140.99 1110.38,-150.99 1113.88,-140.99 1106.88,-140.99"/>
</g>
<!-- OrderService  -->
<g id="node8" class="node">
<title>OrderService </title>
<polygon fill="#fb8072" stroke="black" points="1189.12,-252 1094.88,-252 1094.88,-216 1189.12,-216 1189.12,-252"/>
<text text-anchor="middle" x="1142" y="-229.8" font-family="Times,serif" font-size="14.00">OrderService </text>
</g>
<!-- OrderModule&#45;&gt;OrderService  -->
<g id="edge7" class="edge">
<title>OrderModule&#45;&gt;OrderService </title>
<path fill="none" stroke="black" stroke-dasharray="5,2" d="M1109.52,-187.11C1109.52,-187.11 1109.52,-205.99 1109.52,-205.99"/>
<polygon fill="black" stroke="black" points="1106.02,-205.99 1109.52,-215.99 1113.02,-205.99 1106.02,-205.99"/>
</g>
<!-- OrderTraceService  -->
<g id="node9" class="node">
<title>OrderTraceService </title>
<polygon fill="#fb8072" stroke="black" points="1076.98,-252 951.02,-252 951.02,-216 1076.98,-216 1076.98,-252"/>
<text text-anchor="middle" x="1014" y="-229.8" font-family="Times,serif" font-size="14.00">OrderTraceService </text>
</g>
<!-- OrderModule&#45;&gt;OrderTraceService  -->
<g id="edge8" class="edge">
<title>OrderModule&#45;&gt;OrderTraceService </title>
<path fill="none" stroke="black" stroke-dasharray="5,2" d="M1054.45,-187.11C1054.45,-187.11 1054.45,-205.99 1054.45,-205.99"/>
<polygon fill="black" stroke="black" points="1050.95,-205.99 1054.45,-215.99 1057.95,-205.99 1050.95,-205.99"/>
</g>
<!-- DocumentService -->
<g id="node10" class="node">
<title>DocumentService</title>
<ellipse fill="#fdb462" stroke="black" cx="993" cy="-104" rx="80.44" ry="18"/>
<text text-anchor="middle" x="993" y="-99.8" font-family="Times,serif" font-size="14.00">DocumentService</text>
</g>
<!-- DocumentService&#45;&gt;OrderModule -->
<g id="edge9" class="edge">
<title>DocumentService&#45;&gt;OrderModule</title>
<path fill="none" stroke="black" d="M1052.56,-116.23C1052.56,-116.23 1052.56,-140.68 1052.56,-140.68"/>
<polygon fill="black" stroke="black" points="1049.06,-140.68 1052.56,-150.68 1056.06,-140.68 1049.06,-140.68"/>
</g>
<!-- OrderService -->
<g id="node11" class="node">
<title>OrderService</title>
<ellipse fill="#fdb462" stroke="black" cx="832" cy="-104" rx="62.52" ry="18"/>
<text text-anchor="middle" x="832" y="-99.8" font-family="Times,serif" font-size="14.00">OrderService</text>
</g>
<!-- OrderService&#45;&gt;OrderModule -->
<g id="edge10" class="edge">
<title>OrderService&#45;&gt;OrderModule</title>
<path fill="none" stroke="black" d="M832,-122.24C832,-137.57 832,-157 832,-157 832,-157 1021.73,-157 1021.73,-157"/>
<polygon fill="black" stroke="black" points="1021.73,-160.5 1031.73,-157 1021.73,-153.5 1021.73,-160.5"/>
</g>
<!-- OrderSupplierService -->
<g id="node12" class="node">
<title>OrderSupplierService</title>
<ellipse fill="#fdb462" stroke="black" cx="656" cy="-104" rx="95.46" ry="18"/>
<text text-anchor="middle" x="656" y="-99.8" font-family="Times,serif" font-size="14.00">OrderSupplierService</text>
</g>
<!-- OrderSupplierService&#45;&gt;OrderModule -->
<g id="edge11" class="edge">
<title>OrderSupplierService&#45;&gt;OrderModule</title>
<path fill="none" stroke="black" d="M656,-122.02C656,-139.37 656,-163 656,-163 656,-163 1021.63,-163 1021.63,-163"/>
<polygon fill="black" stroke="black" points="1021.63,-166.5 1031.63,-163 1021.63,-159.5 1021.63,-166.5"/>
</g>
<!-- OrderTraceService -->
<g id="node13" class="node">
<title>OrderTraceService</title>
<ellipse fill="#fdb462" stroke="black" cx="458" cy="-104" rx="84.46" ry="18"/>
<text text-anchor="middle" x="458" y="-99.8" font-family="Times,serif" font-size="14.00">OrderTraceService</text>
</g>
<!-- OrderTraceService&#45;&gt;OrderModule -->
<g id="edge12" class="edge">
<title>OrderTraceService&#45;&gt;OrderModule</title>
<path fill="none" stroke="black" d="M458,-122.11C458,-141.34 458,-169 458,-169 458,-169 1021.65,-169 1021.65,-169"/>
<polygon fill="black" stroke="black" points="1021.65,-172.5 1031.65,-169 1021.65,-165.5 1021.65,-172.5"/>
</g>
<!-- TraceService -->
<g id="node14" class="node">
<title>TraceService</title>
<ellipse fill="#fdb462" stroke="black" cx="294" cy="-104" rx="61.93" ry="18"/>
<text text-anchor="middle" x="294" y="-99.8" font-family="Times,serif" font-size="14.00">TraceService</text>
</g>
<!-- TraceService&#45;&gt;OrderModule -->
<g id="edge13" class="edge">
<title>TraceService&#45;&gt;OrderModule</title>
<path fill="none" stroke="black" d="M294,-122.28C294,-143.32 294,-175 294,-175 294,-175 1021.88,-175 1021.88,-175"/>
<polygon fill="black" stroke="black" points="1021.88,-178.5 1031.88,-175 1021.88,-171.5 1021.88,-178.5"/>
</g>
<!-- TracingUtilityService -->
<g id="node15" class="node">
<title>TracingUtilityService</title>
<ellipse fill="#fdb462" stroke="black" cx="119" cy="-104" rx="95.48" ry="18"/>
<text text-anchor="middle" x="119" y="-99.8" font-family="Times,serif" font-size="14.00">TracingUtilityService</text>
</g>
<!-- TracingUtilityService&#45;&gt;OrderModule -->
<g id="edge14" class="edge">
<title>TracingUtilityService&#45;&gt;OrderModule</title>
<path fill="none" stroke="black" d="M119,-122.25C119,-145.02 119,-181 119,-181 119,-181 1021.75,-181 1021.75,-181"/>
<polygon fill="black" stroke="black" points="1021.75,-184.5 1031.75,-181 1021.75,-177.5 1021.75,-184.5"/>
</g>
</g>
</svg>
