<?xml version="1.0" encoding="UTF-8" standalone="no"?>
<!DOCTYPE svg PUBLIC "-//W3C//DTD SVG 1.1//EN"
 "http://www.w3.org/Graphics/SVG/1.1/DTD/svg11.dtd">
<!-- Generated by graphviz version 2.47.0 (20210316.0004)
 -->
<!-- Title: dependencies Pages: 1 -->
<svg width="791pt" height="284pt"
 viewBox="0.00 0.00 791.00 284.00" xmlns="http://www.w3.org/2000/svg" xmlns:xlink="http://www.w3.org/1999/xlink">
<g id="graph0" class="graph" transform="scale(1 1) rotate(0) translate(4 280)">
<title>dependencies</title>
<polygon fill="white" stroke="transparent" points="-4,4 -4,-280 787,-280 787,4 -4,4"/>
<text text-anchor="start" x="370.51" y="-42.4" font-family="Times-12" font-weight="bold" font-size="14.00">Legend</text>
<polygon fill="#ffffb3" stroke="transparent" points="157.5,-10 157.5,-30 177.5,-30 177.5,-10 157.5,-10"/>
<text text-anchor="start" x="181.13" y="-15.4" font-family="Times-12" font-size="14.00"> &#160;Declarations</text>
<polygon fill="#8dd3c7" stroke="transparent" points="270.5,-10 270.5,-30 290.5,-30 290.5,-10 270.5,-10"/>
<text text-anchor="start" x="294.23" y="-15.4" font-family="Times-12" font-size="14.00"> &#160;Module</text>
<polygon fill="#80b1d3" stroke="transparent" points="356.5,-10 356.5,-30 376.5,-30 376.5,-10 356.5,-10"/>
<text text-anchor="start" x="380.28" y="-15.4" font-family="Times-12" font-size="14.00"> &#160;Bootstrap</text>
<polygon fill="#fdb462" stroke="transparent" points="453.5,-10 453.5,-30 473.5,-30 473.5,-10 453.5,-10"/>
<text text-anchor="start" x="477.17" y="-15.4" font-family="Times-12" font-size="14.00"> &#160;Providers</text>
<polygon fill="#fb8072" stroke="transparent" points="549.5,-10 549.5,-30 569.5,-30 569.5,-10 549.5,-10"/>
<text text-anchor="start" x="573.23" y="-15.4" font-family="Times-12" font-size="14.00"> &#160;Exports</text>
<g id="clust1" class="cluster">
<title>cluster_HttpClientModule</title>
<polygon fill="none" stroke="black" stroke-dasharray="1,5" points="8,-70 8,-268 775,-268 775,-70 8,-70"/>
</g>
<g id="clust6" class="cluster">
<title>cluster_HttpClientModule_providers</title>
<polygon fill="none" stroke="black" points="16,-78 16,-130 767,-130 767,-78 16,-78"/>
</g>
<g id="clust4" class="cluster">
<title>cluster_HttpClientModule_exports</title>
<polygon fill="none" stroke="black" points="113,-208 113,-260 683,-260 683,-208 113,-208"/>
</g>
<!-- GoogleMapApiService  -->
<g id="node1" class="node">
<title>GoogleMapApiService </title>
<polygon fill="#fb8072" stroke="black" points="674.85,-252 525.15,-252 525.15,-216 674.85,-216 674.85,-252"/>
<text text-anchor="middle" x="600" y="-229.8" font-family="Times,serif" font-size="14.00">GoogleMapApiService </text>
</g>
<!-- OpenApparelRegistryService  -->
<g id="node2" class="node">
<title>OpenApparelRegistryService </title>
<polygon fill="#fb8072" stroke="black" points="507.32,-252 322.68,-252 322.68,-216 507.32,-216 507.32,-252"/>
<text text-anchor="middle" x="415" y="-229.8" font-family="Times,serif" font-size="14.00">OpenApparelRegistryService </text>
</g>
<!-- RapidApiGeoDbBaseService  -->
<g id="node3" class="node">
<title>RapidApiGeoDbBaseService </title>
<polygon fill="#fb8072" stroke="black" points="304.56,-252 121.44,-252 121.44,-216 304.56,-216 304.56,-252"/>
<text text-anchor="middle" x="213" y="-229.8" font-family="Times,serif" font-size="14.00">RapidApiGeoDbBaseService </text>
</g>
<!-- HttpClientModule -->
<g id="node4" class="node">
<title>HttpClientModule</title>
<polygon fill="#8dd3c7" stroke="black" points="474.16,-187 471.16,-191 450.16,-191 447.16,-187 355.84,-187 355.84,-151 474.16,-151 474.16,-187"/>
<text text-anchor="middle" x="415" y="-164.8" font-family="Times,serif" font-size="14.00">HttpClientModule</text>
</g>
<!-- HttpClientModule&#45;&gt;GoogleMapApiService  -->
<g id="edge1" class="edge">
<title>HttpClientModule&#45;&gt;GoogleMapApiService </title>
<path fill="none" stroke="black" stroke-dasharray="5,2" d="M474.45,-175C503.6,-175 532.53,-175 532.53,-175 532.53,-175 532.53,-205.98 532.53,-205.98"/>
<polygon fill="black" stroke="black" points="529.03,-205.98 532.53,-215.98 536.03,-205.98 529.03,-205.98"/>
</g>
<!-- HttpClientModule&#45;&gt;OpenApparelRegistryService  -->
<g id="edge2" class="edge">
<title>HttpClientModule&#45;&gt;OpenApparelRegistryService </title>
<path fill="none" stroke="black" stroke-dasharray="5,2" d="M415,-187.11C415,-187.11 415,-205.99 415,-205.99"/>
<polygon fill="black" stroke="black" points="411.5,-205.99 415,-215.99 418.5,-205.99 411.5,-205.99"/>
</g>
<!-- HttpClientModule&#45;&gt;RapidApiGeoDbBaseService  -->
<g id="edge3" class="edge">
<title>HttpClientModule&#45;&gt;RapidApiGeoDbBaseService </title>
<path fill="none" stroke="black" stroke-dasharray="5,2" d="M355.57,-175C326.44,-175 297.52,-175 297.52,-175 297.52,-175 297.52,-205.98 297.52,-205.98"/>
<polygon fill="black" stroke="black" points="294.02,-205.98 297.52,-215.98 301.02,-205.98 294.02,-205.98"/>
</g>
<!-- GoogleMapApiService -->
<g id="node5" class="node">
<title>GoogleMapApiService</title>
<ellipse fill="#fdb462" stroke="black" cx="658" cy="-104" rx="100.7" ry="18"/>
<text text-anchor="middle" x="658" y="-99.8" font-family="Times,serif" font-size="14.00">GoogleMapApiService</text>
</g>
<!-- GoogleMapApiService&#45;&gt;HttpClientModule -->
<g id="edge4" class="edge">
<title>GoogleMapApiService&#45;&gt;HttpClientModule</title>
<path fill="none" stroke="black" d="M616.04,-120.43C616.04,-137.89 616.04,-163 616.04,-163 616.04,-163 484.23,-163 484.23,-163"/>
<polygon fill="black" stroke="black" points="484.23,-159.5 474.23,-163 484.23,-166.5 484.23,-159.5"/>
</g>
<!-- OpenApparelRegistryService -->
<g id="node6" class="node">
<title>OpenApparelRegistryService</title>
<ellipse fill="#fdb462" stroke="black" cx="415" cy="-104" rx="124.96" ry="18"/>
<text text-anchor="middle" x="415" y="-99.8" font-family="Times,serif" font-size="14.00">OpenApparelRegistryService</text>
</g>
<!-- OpenApparelRegistryService&#45;&gt;HttpClientModule -->
<g id="edge5" class="edge">
<title>OpenApparelRegistryService&#45;&gt;HttpClientModule</title>
<path fill="none" stroke="black" d="M415,-122.11C415,-122.11 415,-140.99 415,-140.99"/>
<polygon fill="black" stroke="black" points="411.5,-140.99 415,-150.99 418.5,-140.99 411.5,-140.99"/>
</g>
<!-- RapidApiGeoDbBaseService -->
<g id="node7" class="node">
<title>RapidApiGeoDbBaseService</title>
<ellipse fill="#fdb462" stroke="black" cx="148" cy="-104" rx="124.4" ry="18"/>
<text text-anchor="middle" x="148" y="-99.8" font-family="Times,serif" font-size="14.00">RapidApiGeoDbBaseService</text>
</g>
<!-- RapidApiGeoDbBaseService&#45;&gt;HttpClientModule -->
<g id="edge6" class="edge">
<title>RapidApiGeoDbBaseService&#45;&gt;HttpClientModule</title>
<path fill="none" stroke="black" d="M196.71,-120.75C196.71,-138.19 196.71,-163 196.71,-163 196.71,-163 345.64,-163 345.64,-163"/>
<polygon fill="black" stroke="black" points="345.64,-166.5 355.64,-163 345.64,-159.5 345.64,-166.5"/>
</g>
</g>
</svg>
